G04*
G04 #@! TF.GenerationSoftware,Altium Limited,Altium Designer,22.4.2 (48)*
G04*
G04 Layer_Color=0*
%FSLAX25Y25*%
%MOIN*%
G70*
G04*
G04 #@! TF.SameCoordinates,43EAD1C5-17A3-47DC-85D2-FB09855483F6*
G04*
G04*
G04 #@! TF.FilePolarity,Positive*
G04*
G01*
G75*
%ADD226C,0.00394*%
D226*
X288071Y533071D02*
X292008D01*
X290039Y531102D02*
Y535039D01*
X481420Y204840D02*
X484204Y207624D01*
X481420D02*
X484204Y204840D01*
X622835Y268701D02*
Y272638D01*
X620866Y270669D02*
X624803D01*
X478529Y445065D02*
X481313Y447849D01*
X478529D02*
X481313Y445065D01*
X129921Y536772D02*
Y540709D01*
X127953Y538740D02*
X131890D01*
X501580Y72185D02*
Y76122D01*
X499612Y74154D02*
X503549D01*
X499612Y44360D02*
X503549Y44360D01*
X501580Y46329D02*
X501580Y42392D01*
X449207Y41860D02*
X453144D01*
X451176Y39892D02*
Y43829D01*
X269685Y137795D02*
Y141732D01*
X267717Y139764D02*
X271654D01*
X267717Y13780D02*
X271654D01*
X269685Y11811D02*
Y15748D01*
X354331Y13780D02*
X358268D01*
X356299Y11811D02*
Y15748D01*
X354331Y139764D02*
X358268D01*
X356299Y137795D02*
Y141732D01*
X81106Y351181D02*
Y355118D01*
X79138Y353150D02*
X83075D01*
X188094Y12598D02*
X192032D01*
X190063Y10630D02*
Y14567D01*
Y46535D02*
Y50472D01*
X188094Y48504D02*
X192032D01*
X449207Y71653D02*
X453144D01*
X451176Y69685D02*
Y73622D01*
X409449Y574803D02*
Y578740D01*
X407480Y576772D02*
X411417D01*
X188189Y160433D02*
X192126D01*
X190157Y158465D02*
Y162402D01*
X775591Y574803D02*
Y578740D01*
X773622Y576772D02*
X777559D01*
X15748Y574803D02*
Y578740D01*
X13780Y576772D02*
X17717D01*
X15748Y381890D02*
Y385827D01*
X13780Y383858D02*
X17717D01*
X15748Y11811D02*
Y15748D01*
X13780Y13780D02*
X17717D01*
X775591Y11811D02*
Y15748D01*
X773622Y13780D02*
X777559D01*
X409449Y11811D02*
Y15748D01*
X407480Y13780D02*
X411417D01*
X244094Y381890D02*
Y385827D01*
X242126Y383858D02*
X246063D01*
X244094Y574803D02*
Y578740D01*
X242126Y576772D02*
X246063D01*
X451176Y10098D02*
Y14035D01*
X449207Y12067D02*
X453144D01*
X671260Y118232D02*
Y122169D01*
X669291Y120201D02*
X673228D01*
X671260Y152598D02*
Y156535D01*
X669291Y154567D02*
X673228D01*
X671260Y83866D02*
Y87803D01*
X669291Y85835D02*
X673228D01*
X79138Y316142D02*
X83075D01*
X81106Y314173D02*
Y318110D01*
X188189Y195866D02*
X192126D01*
X190157Y193898D02*
Y197835D01*
X499612Y14567D02*
X503549D01*
X501580Y12598D02*
Y16535D01*
X188094Y118898D02*
X192032D01*
X190063Y116929D02*
Y120866D01*
M02*
