G04*
G04 #@! TF.GenerationSoftware,Altium Limited,Altium Designer,22.4.2 (48)*
G04*
G04 Layer_Color=16711935*
%FSLAX25Y25*%
%MOIN*%
G70*
G04*
G04 #@! TF.SameCoordinates,B172E609-1CFC-4B23-86F5-1081F1DC675F*
G04*
G04*
G04 #@! TF.FilePolarity,Positive*
G04*
G01*
G75*
%ADD13C,0.00787*%
G36*
X292020Y533436D02*
Y533433D01*
Y533418D01*
Y533400D01*
Y533374D01*
X292016Y533342D01*
Y533305D01*
X292012Y533262D01*
X292009Y533218D01*
X291998Y533120D01*
X291983Y533018D01*
X291961Y532919D01*
X291947Y532872D01*
X291932Y532828D01*
Y532825D01*
X291929Y532818D01*
X291921Y532807D01*
X291914Y532792D01*
X291892Y532752D01*
X291859Y532701D01*
X291816Y532643D01*
X291765Y532585D01*
X291699Y532523D01*
X291619Y532468D01*
X291616D01*
X291608Y532461D01*
X291597Y532457D01*
X291579Y532446D01*
X291557Y532435D01*
X291528Y532424D01*
X291499Y532413D01*
X291463Y532399D01*
X291423Y532384D01*
X291379Y532373D01*
X291332Y532363D01*
X291277Y532352D01*
X291222Y532344D01*
X291164Y532337D01*
X291033Y532330D01*
X291000D01*
X290975Y532333D01*
X290946D01*
X290909Y532337D01*
X290869Y532341D01*
X290829Y532344D01*
X290738Y532359D01*
X290640Y532381D01*
X290545Y532410D01*
X290454Y532450D01*
X290451D01*
X290443Y532457D01*
X290433Y532464D01*
X290418Y532472D01*
X290378Y532501D01*
X290331Y532541D01*
X290276Y532592D01*
X290225Y532650D01*
X290174Y532723D01*
X290134Y532803D01*
Y532807D01*
X290130Y532814D01*
X290127Y532828D01*
X290119Y532847D01*
X290112Y532868D01*
X290105Y532898D01*
X290094Y532930D01*
X290087Y532970D01*
X290079Y533014D01*
X290069Y533061D01*
X290061Y533112D01*
X290054Y533167D01*
X290047Y533229D01*
X290043Y533294D01*
X290039Y533363D01*
Y533436D01*
Y534892D01*
X290374D01*
Y533436D01*
Y533433D01*
Y533422D01*
Y533403D01*
Y533382D01*
X290378Y533356D01*
Y533323D01*
X290382Y533254D01*
X290389Y533174D01*
X290400Y533094D01*
X290414Y533018D01*
X290422Y532985D01*
X290433Y532952D01*
X290436Y532945D01*
X290443Y532927D01*
X290462Y532901D01*
X290483Y532865D01*
X290509Y532828D01*
X290545Y532788D01*
X290589Y532748D01*
X290640Y532716D01*
X290647Y532712D01*
X290665Y532701D01*
X290698Y532690D01*
X290742Y532676D01*
X290793Y532657D01*
X290858Y532646D01*
X290928Y532635D01*
X291004Y532632D01*
X291040D01*
X291062Y532635D01*
X291095D01*
X291128Y532639D01*
X291208Y532654D01*
X291295Y532672D01*
X291379Y532701D01*
X291459Y532741D01*
X291495Y532767D01*
X291528Y532796D01*
X291532Y532799D01*
X291535Y532803D01*
X291543Y532814D01*
X291554Y532828D01*
X291564Y532850D01*
X291579Y532872D01*
X291594Y532905D01*
X291608Y532938D01*
X291623Y532978D01*
X291634Y533025D01*
X291648Y533080D01*
X291659Y533138D01*
X291670Y533203D01*
X291677Y533273D01*
X291685Y533353D01*
Y533436D01*
Y534892D01*
X292020D01*
Y533436D01*
D02*
G37*
G36*
X296060Y534616D02*
X296056Y534612D01*
X296049Y534605D01*
X296034Y534590D01*
X296020Y534568D01*
X295998Y534543D01*
X295969Y534514D01*
X295940Y534477D01*
X295907Y534434D01*
X295874Y534390D01*
X295834Y534339D01*
X295794Y534281D01*
X295754Y534223D01*
X295710Y534157D01*
X295667Y534088D01*
X295623Y534011D01*
X295579Y533935D01*
X295576Y533931D01*
X295568Y533917D01*
X295558Y533895D01*
X295539Y533862D01*
X295521Y533822D01*
X295499Y533778D01*
X295474Y533728D01*
X295448Y533669D01*
X295419Y533604D01*
X295387Y533538D01*
X295357Y533465D01*
X295328Y533389D01*
X295270Y533232D01*
X295215Y533065D01*
Y533061D01*
X295212Y533050D01*
X295208Y533032D01*
X295201Y533010D01*
X295194Y532981D01*
X295186Y532945D01*
X295175Y532905D01*
X295168Y532861D01*
X295157Y532810D01*
X295146Y532756D01*
X295128Y532639D01*
X295110Y532512D01*
X295099Y532373D01*
X294782D01*
Y532377D01*
Y532388D01*
Y532403D01*
X294786Y532424D01*
Y532453D01*
X294790Y532490D01*
X294793Y532530D01*
X294797Y532574D01*
X294804Y532625D01*
X294811Y532676D01*
X294822Y532737D01*
X294833Y532799D01*
X294844Y532865D01*
X294859Y532938D01*
X294895Y533087D01*
Y533090D01*
X294899Y533105D01*
X294906Y533127D01*
X294917Y533160D01*
X294928Y533196D01*
X294942Y533240D01*
X294957Y533291D01*
X294979Y533345D01*
X295001Y533407D01*
X295023Y533469D01*
X295077Y533607D01*
X295143Y533753D01*
X295215Y533899D01*
X295219Y533902D01*
X295226Y533917D01*
X295237Y533935D01*
X295252Y533964D01*
X295270Y533997D01*
X295296Y534037D01*
X295321Y534081D01*
X295350Y534128D01*
X295419Y534234D01*
X295492Y534343D01*
X295576Y534455D01*
X295663Y534561D01*
X294429D01*
Y534860D01*
X296060D01*
Y534616D01*
D02*
G37*
G36*
X293614Y532373D02*
X293304D01*
Y534343D01*
X293301Y534339D01*
X293283Y534325D01*
X293261Y534303D01*
X293224Y534277D01*
X293184Y534244D01*
X293133Y534208D01*
X293075Y534168D01*
X293010Y534128D01*
X293006D01*
X293002Y534124D01*
X292981Y534110D01*
X292944Y534092D01*
X292900Y534070D01*
X292849Y534044D01*
X292795Y534019D01*
X292740Y533993D01*
X292686Y533971D01*
Y534270D01*
X292689D01*
X292697Y534277D01*
X292711Y534281D01*
X292729Y534292D01*
X292751Y534303D01*
X292777Y534317D01*
X292839Y534354D01*
X292911Y534394D01*
X292984Y534445D01*
X293061Y534503D01*
X293137Y534565D01*
X293141Y534568D01*
X293144Y534572D01*
X293155Y534583D01*
X293170Y534594D01*
X293202Y534630D01*
X293246Y534674D01*
X293290Y534725D01*
X293337Y534783D01*
X293377Y534841D01*
X293414Y534903D01*
X293614D01*
Y532373D01*
D02*
G37*
G36*
X478717Y210121D02*
X478720Y210118D01*
X478728Y210121D01*
X478741Y210118D01*
X478756Y210113D01*
X478777Y210108D01*
X478800Y210105D01*
X478856Y210085D01*
X478921Y210056D01*
X478993Y210020D01*
X479067Y209966D01*
X479142Y209902D01*
X479168Y209876D01*
X479183Y209856D01*
X479201Y209833D01*
X479222Y209802D01*
X479245Y209768D01*
X479268Y209730D01*
X479289Y209688D01*
X479312Y209645D01*
X479330Y209596D01*
X479345Y209544D01*
X479358Y209490D01*
X479366Y209431D01*
X479368Y209372D01*
X479366Y209313D01*
Y209307D01*
X479363Y209295D01*
X479358Y209274D01*
X479351Y209241D01*
X479340Y209205D01*
X479322Y209161D01*
X479304Y209107D01*
X479278Y209050D01*
X479248Y208988D01*
X479209Y208919D01*
X479165Y208844D01*
X479111Y208764D01*
X479052Y208679D01*
X478982Y208594D01*
X478903Y208504D01*
X478815Y208412D01*
X478813Y208409D01*
X478802Y208399D01*
X478784Y208381D01*
X478764Y208360D01*
X478733Y208334D01*
X478702Y208304D01*
X478666Y208273D01*
X478625Y208237D01*
X478537Y208165D01*
X478439Y208093D01*
X478339Y208023D01*
X478290Y207995D01*
X478241Y207966D01*
X478239Y207964D01*
X478231Y207961D01*
X478215Y207956D01*
X478197Y207948D01*
X478174Y207936D01*
X478146Y207928D01*
X478082Y207905D01*
X478010Y207884D01*
X477927Y207869D01*
X477840Y207858D01*
X477752Y207863D01*
X477749Y207866D01*
X477742Y207863D01*
X477729Y207866D01*
X477713Y207871D01*
X477690Y207874D01*
X477667Y207881D01*
X477608Y207899D01*
X477544Y207928D01*
X477472Y207964D01*
X477397Y208018D01*
X477322Y208082D01*
X477299Y208105D01*
X477273Y208136D01*
X477245Y208175D01*
X477214Y208221D01*
X477183Y208273D01*
X477152Y208329D01*
X477132Y208391D01*
X477129Y208394D01*
Y208399D01*
X477124Y208419D01*
X477116Y208453D01*
X477109Y208497D01*
X477106Y208551D01*
X477104Y208610D01*
X477109Y208672D01*
X477119Y208739D01*
X477121Y208746D01*
X477124Y208769D01*
X477137Y208803D01*
X477152Y208854D01*
X477176Y208909D01*
X477199Y208973D01*
X477232Y209042D01*
X477273Y209114D01*
X477276Y209117D01*
X477279Y209125D01*
X477284Y209135D01*
X477294Y209150D01*
X477307Y209168D01*
X477322Y209189D01*
X477340Y209217D01*
X477363Y209246D01*
X477387Y209279D01*
X477415Y209313D01*
X477448Y209351D01*
X477479Y209392D01*
X477518Y209436D01*
X477559Y209477D01*
X477603Y209526D01*
X477652Y209575D01*
X477654Y209578D01*
X477665Y209588D01*
X477683Y209606D01*
X477703Y209627D01*
X477734Y209652D01*
X477765Y209683D01*
X477801Y209714D01*
X477840Y209748D01*
X477930Y209822D01*
X478027Y209894D01*
X478125Y209961D01*
X478174Y209990D01*
X478226Y210015D01*
X478228Y210018D01*
X478236Y210020D01*
X478251Y210026D01*
X478269Y210033D01*
X478293Y210046D01*
X478321Y210054D01*
X478385Y210077D01*
X478457Y210098D01*
X478542Y210116D01*
X478627Y210123D01*
X478717Y210121D01*
D02*
G37*
G36*
X479984Y208767D02*
X480007Y208764D01*
X480035Y208762D01*
X480069Y208754D01*
X480107Y208746D01*
X480148Y208731D01*
X480192Y208718D01*
X480241Y208700D01*
X480287Y208679D01*
X480339Y208654D01*
X480390Y208623D01*
X480442Y208587D01*
X480491Y208548D01*
X480542Y208502D01*
X480565Y208479D01*
X480578Y208461D01*
X480596Y208437D01*
X480617Y208412D01*
X480637Y208381D01*
X480661Y208347D01*
X480707Y208270D01*
X480746Y208180D01*
X480763Y208131D01*
X480776Y208082D01*
X480784Y208028D01*
X480792Y207974D01*
Y207969D01*
Y207959D01*
Y207943D01*
X480789Y207925D01*
Y207899D01*
X480784Y207869D01*
X480782Y207835D01*
X480774Y207797D01*
X480763Y207755D01*
X480753Y207714D01*
X480720Y207624D01*
X480671Y207529D01*
X480640Y207483D01*
X480604Y207436D01*
X480357Y207627D01*
X480359Y207629D01*
X480362Y207637D01*
X480370Y207650D01*
X480380Y207665D01*
X480393Y207683D01*
X480406Y207706D01*
X480432Y207758D01*
X480460Y207822D01*
X480480Y207889D01*
X480496Y207956D01*
X480501Y208023D01*
X480498Y208031D01*
Y208051D01*
X480491Y208085D01*
X480478Y208123D01*
X480462Y208170D01*
X480437Y208221D01*
X480403Y208275D01*
X480359Y208324D01*
X480344Y208340D01*
X480331Y208347D01*
X480300Y208373D01*
X480257Y208401D01*
X480202Y208430D01*
X480141Y208455D01*
X480071Y208473D01*
X479994Y208479D01*
X479984D01*
X479955Y208476D01*
X479917Y208468D01*
X479865Y208458D01*
X479806Y208440D01*
X479747Y208412D01*
X479682Y208373D01*
X479621Y208322D01*
X479618Y208319D01*
X479613Y208314D01*
X479605Y208306D01*
X479598Y208293D01*
X479572Y208262D01*
X479546Y208221D01*
X479515Y208170D01*
X479492Y208111D01*
X479477Y208044D01*
X479471Y207972D01*
Y207961D01*
X479474Y207938D01*
X479479Y207902D01*
X479490Y207856D01*
X479507Y207802D01*
X479536Y207743D01*
X479574Y207683D01*
X479623Y207624D01*
X479646Y207601D01*
X479667Y207586D01*
X479693Y207565D01*
X479724Y207544D01*
X479760Y207519D01*
X479801Y207493D01*
X479582Y207326D01*
X479569Y207338D01*
X479562Y207351D01*
X479528Y207385D01*
X479495Y207408D01*
X479456Y207436D01*
X479410Y207467D01*
X479353Y207498D01*
X479294Y207521D01*
X479227Y207542D01*
X479224Y207544D01*
X479219D01*
X479196Y207547D01*
X479160D01*
X479116Y207544D01*
X479062Y207531D01*
X479006Y207511D01*
X478949Y207480D01*
X478918Y207459D01*
X478890Y207431D01*
X478887Y207429D01*
X478885Y207426D01*
X478869Y207411D01*
X478854Y207385D01*
X478831Y207351D01*
X478810Y207310D01*
X478789Y207264D01*
X478777Y207210D01*
X478774Y207151D01*
Y207145D01*
X478777Y207122D01*
X478782Y207091D01*
X478789Y207053D01*
X478807Y207009D01*
X478831Y206960D01*
X478861Y206909D01*
X478905Y206860D01*
X478926Y206839D01*
X478954Y206821D01*
X478990Y206795D01*
X479034Y206772D01*
X479080Y206752D01*
X479137Y206736D01*
X479196Y206728D01*
X479201D01*
X479224Y206731D01*
X479258Y206734D01*
X479302Y206741D01*
X479353Y206757D01*
X479412Y206780D01*
X479477Y206813D01*
X479543Y206860D01*
X479724Y206602D01*
X479721Y206600D01*
X479711Y206595D01*
X479698Y206587D01*
X479680Y206574D01*
X479657Y206561D01*
X479628Y206548D01*
X479564Y206515D01*
X479482Y206484D01*
X479394Y206458D01*
X479302Y206443D01*
X479199D01*
X479191Y206445D01*
X479178Y206448D01*
X479160Y206451D01*
X479137Y206453D01*
X479108Y206461D01*
X479080Y206469D01*
X479044Y206479D01*
X478972Y206510D01*
X478892Y206548D01*
X478810Y206605D01*
X478769Y206636D01*
X478704Y206700D01*
X478679Y206731D01*
X478650Y206770D01*
X478617Y206819D01*
X478583Y206878D01*
X478553Y206940D01*
X478527Y207006D01*
X478524Y207009D01*
Y207014D01*
X478516Y207037D01*
X478509Y207076D01*
X478501Y207120D01*
X478496Y207176D01*
X478493Y207236D01*
X478496Y207300D01*
X478509Y207364D01*
X478511Y207372D01*
X478516Y207393D01*
X478529Y207426D01*
X478545Y207467D01*
X478565Y207513D01*
X478594Y207562D01*
X478630Y207614D01*
X478671Y207660D01*
X478676Y207665D01*
X478692Y207681D01*
X478715Y207699D01*
X478748Y207722D01*
X478789Y207748D01*
X478838Y207771D01*
X478890Y207791D01*
X478946Y207807D01*
X478954Y207809D01*
X478972Y207812D01*
X479006Y207815D01*
X479047D01*
X479096Y207812D01*
X479152Y207807D01*
X479212Y207794D01*
X479278Y207773D01*
X479276Y207776D01*
X479273Y207784D01*
X479268Y207794D01*
X479260Y207807D01*
X479242Y207845D01*
X479222Y207897D01*
X479201Y207959D01*
X479186Y208026D01*
X479181Y208098D01*
X479183Y208172D01*
X479186Y208180D01*
X479191Y208206D01*
X479201Y208247D01*
X479219Y208296D01*
X479245Y208352D01*
X479278Y208417D01*
X479325Y208484D01*
X479384Y208548D01*
X479387Y208551D01*
X479394Y208558D01*
X479407Y208571D01*
X479425Y208584D01*
X479448Y208602D01*
X479477Y208620D01*
X479507Y208641D01*
X479541Y208664D01*
X479623Y208705D01*
X479672Y208723D01*
X479718Y208739D01*
X479773Y208752D01*
X479829Y208762D01*
X479888Y208769D01*
X479966D01*
X479984Y208767D01*
D02*
G37*
G36*
X481502Y207269D02*
X481598Y207251D01*
X481600Y207248D01*
X481610D01*
X481621Y207243D01*
X481641Y207238D01*
X481664Y207230D01*
X481693Y207218D01*
X481721Y207205D01*
X481757Y207189D01*
X481796Y207171D01*
X481834Y207148D01*
X481875Y207122D01*
X481922Y207091D01*
X481965Y207058D01*
X482012Y207022D01*
X482110Y206934D01*
X482133Y206911D01*
X482148Y206891D01*
X482169Y206870D01*
X482192Y206842D01*
X482218Y206811D01*
X482243Y206780D01*
X482298Y206705D01*
X482352Y206620D01*
X482398Y206533D01*
X482434Y206440D01*
X482437Y206438D01*
Y206427D01*
X482439Y206414D01*
X482444Y206399D01*
X482452Y206350D01*
X482457Y206288D01*
X482460Y206214D01*
X482455Y206136D01*
X482439Y206049D01*
X482411Y205964D01*
X482408Y205961D01*
X482406Y205954D01*
X482398Y205941D01*
X482390Y205923D01*
X482380Y205902D01*
X482365Y205876D01*
X482349Y205846D01*
X482326Y205812D01*
X482300Y205776D01*
X482274Y205735D01*
X482243Y205694D01*
X482210Y205650D01*
X482171Y205601D01*
X482128Y205552D01*
X482081Y205501D01*
X482030Y205449D01*
X481000Y204420D01*
X480763Y204657D01*
X481793Y205686D01*
X481796Y205689D01*
X481803Y205696D01*
X481816Y205709D01*
X481832Y205725D01*
X481847Y205745D01*
X481870Y205768D01*
X481917Y205820D01*
X481968Y205882D01*
X482017Y205946D01*
X482061Y206010D01*
X482079Y206039D01*
X482094Y206069D01*
X482097Y206077D01*
X482104Y206095D01*
X482110Y206126D01*
X482120Y206167D01*
X482128Y206211D01*
X482130Y206265D01*
X482128Y206324D01*
X482115Y206383D01*
X482112Y206391D01*
X482107Y206412D01*
X482092Y206443D01*
X482071Y206484D01*
X482048Y206533D01*
X482009Y206587D01*
X481968Y206644D01*
X481917Y206700D01*
X481891Y206726D01*
X481873Y206739D01*
X481850Y206762D01*
X481824Y206783D01*
X481757Y206829D01*
X481682Y206878D01*
X481603Y206916D01*
X481518Y206945D01*
X481474Y206952D01*
X481430Y206955D01*
X481420D01*
X481407Y206952D01*
X481389Y206950D01*
X481366Y206942D01*
X481340Y206937D01*
X481307Y206924D01*
X481273Y206911D01*
X481235Y206893D01*
X481193Y206867D01*
X481145Y206839D01*
X481096Y206806D01*
X481041Y206767D01*
X480987Y206723D01*
X480926Y206672D01*
X480866Y206613D01*
X479837Y205583D01*
X479600Y205820D01*
X480630Y206849D01*
X480632Y206852D01*
X480643Y206862D01*
X480655Y206875D01*
X480673Y206893D01*
X480699Y206914D01*
X480725Y206940D01*
X480758Y206968D01*
X480792Y206996D01*
X480869Y207058D01*
X480951Y207120D01*
X481036Y207174D01*
X481080Y207197D01*
X481121Y207218D01*
X481124Y207220D01*
X481132Y207223D01*
X481145Y207225D01*
X481160Y207230D01*
X481204Y207243D01*
X481263Y207256D01*
X481335Y207266D01*
X481412Y207272D01*
X481502Y207269D01*
D02*
G37*
G36*
X624815Y271776D02*
Y271772D01*
Y271758D01*
Y271739D01*
Y271714D01*
X624811Y271681D01*
Y271645D01*
X624808Y271601D01*
X624804Y271557D01*
X624793Y271459D01*
X624778Y271357D01*
X624756Y271259D01*
X624742Y271212D01*
X624727Y271168D01*
Y271164D01*
X624724Y271157D01*
X624717Y271146D01*
X624709Y271131D01*
X624687Y271092D01*
X624655Y271041D01*
X624611Y270982D01*
X624560Y270924D01*
X624494Y270862D01*
X624414Y270808D01*
X624411D01*
X624403Y270800D01*
X624393Y270797D01*
X624374Y270786D01*
X624353Y270775D01*
X624323Y270764D01*
X624294Y270753D01*
X624258Y270738D01*
X624218Y270724D01*
X624174Y270713D01*
X624127Y270702D01*
X624072Y270691D01*
X624018Y270684D01*
X623959Y270676D01*
X623828Y270669D01*
X623796D01*
X623770Y270673D01*
X623741D01*
X623705Y270676D01*
X623665Y270680D01*
X623625Y270684D01*
X623533Y270698D01*
X623435Y270720D01*
X623341Y270749D01*
X623249Y270789D01*
X623246D01*
X623239Y270797D01*
X623228Y270804D01*
X623213Y270811D01*
X623173Y270840D01*
X623126Y270880D01*
X623071Y270931D01*
X623020Y270990D01*
X622969Y271062D01*
X622929Y271142D01*
Y271146D01*
X622926Y271153D01*
X622922Y271168D01*
X622915Y271186D01*
X622907Y271208D01*
X622900Y271237D01*
X622889Y271270D01*
X622882Y271310D01*
X622875Y271354D01*
X622864Y271401D01*
X622856Y271452D01*
X622849Y271506D01*
X622842Y271568D01*
X622838Y271634D01*
X622835Y271703D01*
Y271776D01*
Y273232D01*
X623170D01*
Y271776D01*
Y271772D01*
Y271761D01*
Y271743D01*
Y271721D01*
X623173Y271696D01*
Y271663D01*
X623177Y271594D01*
X623184Y271514D01*
X623195Y271434D01*
X623209Y271357D01*
X623217Y271324D01*
X623228Y271292D01*
X623231Y271284D01*
X623239Y271266D01*
X623257Y271241D01*
X623279Y271204D01*
X623304Y271168D01*
X623341Y271128D01*
X623384Y271088D01*
X623435Y271055D01*
X623443Y271051D01*
X623461Y271041D01*
X623493Y271030D01*
X623537Y271015D01*
X623588Y270997D01*
X623654Y270986D01*
X623723Y270975D01*
X623799Y270971D01*
X623836D01*
X623857Y270975D01*
X623890D01*
X623923Y270979D01*
X624003Y270993D01*
X624090Y271011D01*
X624174Y271041D01*
X624254Y271081D01*
X624291Y271106D01*
X624323Y271135D01*
X624327Y271139D01*
X624331Y271142D01*
X624338Y271153D01*
X624349Y271168D01*
X624360Y271190D01*
X624374Y271212D01*
X624389Y271244D01*
X624403Y271277D01*
X624418Y271317D01*
X624429Y271364D01*
X624443Y271419D01*
X624454Y271477D01*
X624465Y271543D01*
X624473Y271612D01*
X624480Y271692D01*
Y271776D01*
Y273232D01*
X624815D01*
Y271776D01*
D02*
G37*
G36*
X626140Y273239D02*
X626169Y273235D01*
X626205Y273232D01*
X626245Y273224D01*
X626285Y273217D01*
X626380Y273192D01*
X626475Y273155D01*
X626522Y273133D01*
X626569Y273108D01*
X626613Y273075D01*
X626653Y273039D01*
X626657Y273035D01*
X626664Y273032D01*
X626671Y273017D01*
X626686Y273003D01*
X626704Y272984D01*
X626722Y272959D01*
X626740Y272933D01*
X626762Y272901D01*
X626798Y272831D01*
X626835Y272744D01*
X626850Y272700D01*
X626857Y272649D01*
X626864Y272598D01*
X626868Y272544D01*
Y272537D01*
Y272518D01*
X626864Y272489D01*
X626860Y272449D01*
X626853Y272406D01*
X626839Y272355D01*
X626824Y272300D01*
X626802Y272245D01*
X626798Y272238D01*
X626791Y272220D01*
X626777Y272191D01*
X626755Y272151D01*
X626726Y272107D01*
X626689Y272052D01*
X626646Y271998D01*
X626595Y271936D01*
X626587Y271929D01*
X626569Y271907D01*
X626551Y271889D01*
X626533Y271870D01*
X626511Y271849D01*
X626482Y271819D01*
X626453Y271790D01*
X626416Y271758D01*
X626380Y271721D01*
X626336Y271681D01*
X626289Y271641D01*
X626238Y271594D01*
X626180Y271547D01*
X626122Y271496D01*
X626118Y271492D01*
X626111Y271485D01*
X626096Y271474D01*
X626078Y271459D01*
X626056Y271437D01*
X626030Y271415D01*
X625972Y271368D01*
X625910Y271314D01*
X625852Y271259D01*
X625801Y271212D01*
X625779Y271193D01*
X625761Y271175D01*
X625758Y271172D01*
X625747Y271161D01*
X625732Y271146D01*
X625714Y271124D01*
X625696Y271099D01*
X625674Y271073D01*
X625630Y271011D01*
X626871D01*
Y270713D01*
X625201D01*
Y270717D01*
Y270731D01*
Y270753D01*
X625204Y270782D01*
X625208Y270815D01*
X625215Y270851D01*
X625222Y270888D01*
X625237Y270928D01*
Y270931D01*
X625241Y270935D01*
X625248Y270957D01*
X625262Y270990D01*
X625284Y271033D01*
X625313Y271084D01*
X625350Y271142D01*
X625390Y271201D01*
X625441Y271263D01*
Y271266D01*
X625448Y271270D01*
X625466Y271292D01*
X625499Y271324D01*
X625546Y271372D01*
X625601Y271426D01*
X625670Y271492D01*
X625754Y271565D01*
X625845Y271641D01*
X625848Y271645D01*
X625863Y271656D01*
X625885Y271674D01*
X625910Y271696D01*
X625943Y271725D01*
X625983Y271758D01*
X626023Y271794D01*
X626071Y271834D01*
X626161Y271921D01*
X626253Y272009D01*
X626296Y272052D01*
X626336Y272096D01*
X626373Y272136D01*
X626402Y272176D01*
Y272180D01*
X626409Y272183D01*
X626416Y272194D01*
X626424Y272209D01*
X626449Y272249D01*
X626478Y272296D01*
X626504Y272355D01*
X626529Y272416D01*
X626544Y272486D01*
X626551Y272551D01*
Y272555D01*
Y272558D01*
X626547Y272580D01*
X626544Y272617D01*
X626533Y272657D01*
X626518Y272708D01*
X626493Y272759D01*
X626460Y272810D01*
X626416Y272861D01*
X626409Y272868D01*
X626391Y272882D01*
X626365Y272901D01*
X626325Y272926D01*
X626274Y272948D01*
X626216Y272970D01*
X626147Y272984D01*
X626071Y272988D01*
X626049D01*
X626034Y272984D01*
X625990Y272981D01*
X625940Y272970D01*
X625885Y272955D01*
X625823Y272930D01*
X625765Y272897D01*
X625710Y272853D01*
X625703Y272846D01*
X625688Y272828D01*
X625667Y272799D01*
X625645Y272755D01*
X625619Y272704D01*
X625597Y272639D01*
X625583Y272566D01*
X625575Y272482D01*
X625259Y272515D01*
Y272518D01*
X625262Y272529D01*
Y272548D01*
X625266Y272573D01*
X625273Y272602D01*
X625281Y272635D01*
X625292Y272675D01*
X625303Y272715D01*
X625332Y272802D01*
X625375Y272890D01*
X625401Y272933D01*
X625434Y272977D01*
X625466Y273017D01*
X625503Y273053D01*
X625506Y273057D01*
X625514Y273061D01*
X625525Y273072D01*
X625543Y273083D01*
X625565Y273097D01*
X625590Y273112D01*
X625619Y273130D01*
X625656Y273148D01*
X625696Y273166D01*
X625739Y273184D01*
X625787Y273199D01*
X625838Y273214D01*
X625892Y273224D01*
X625950Y273235D01*
X626012Y273239D01*
X626078Y273243D01*
X626114D01*
X626140Y273239D01*
D02*
G37*
G36*
X628076D02*
X628105Y273235D01*
X628138Y273232D01*
X628174Y273228D01*
X628211Y273217D01*
X628298Y273195D01*
X628386Y273163D01*
X628429Y273141D01*
X628473Y273115D01*
X628513Y273083D01*
X628553Y273050D01*
X628557Y273046D01*
X628560Y273042D01*
X628571Y273032D01*
X628586Y273017D01*
X628600Y272995D01*
X628618Y272973D01*
X628655Y272919D01*
X628691Y272850D01*
X628724Y272769D01*
X628750Y272678D01*
X628753Y272631D01*
X628757Y272580D01*
Y272577D01*
Y272573D01*
Y272551D01*
X628753Y272518D01*
X628746Y272478D01*
X628735Y272427D01*
X628717Y272376D01*
X628695Y272325D01*
X628662Y272274D01*
X628659Y272267D01*
X628644Y272253D01*
X628622Y272231D01*
X628593Y272202D01*
X628553Y272169D01*
X628506Y272136D01*
X628451Y272103D01*
X628386Y272074D01*
X628389D01*
X628397Y272071D01*
X628407Y272067D01*
X628422Y272060D01*
X628466Y272042D01*
X628517Y272016D01*
X628571Y271980D01*
X628629Y271940D01*
X628684Y271889D01*
X628735Y271830D01*
Y271827D01*
X628739Y271823D01*
X628753Y271801D01*
X628775Y271765D01*
X628797Y271718D01*
X628819Y271659D01*
X628841Y271590D01*
X628855Y271514D01*
X628859Y271430D01*
Y271426D01*
Y271415D01*
Y271397D01*
X628855Y271375D01*
X628852Y271350D01*
X628848Y271317D01*
X628841Y271281D01*
X628830Y271241D01*
X628804Y271157D01*
X628786Y271110D01*
X628760Y271066D01*
X628735Y271019D01*
X628706Y270975D01*
X628670Y270931D01*
X628629Y270888D01*
X628626Y270884D01*
X628618Y270877D01*
X628608Y270866D01*
X628589Y270855D01*
X628564Y270837D01*
X628539Y270818D01*
X628506Y270800D01*
X628469Y270778D01*
X628429Y270757D01*
X628382Y270738D01*
X628331Y270720D01*
X628280Y270702D01*
X628222Y270691D01*
X628160Y270680D01*
X628098Y270673D01*
X628029Y270669D01*
X627992D01*
X627967Y270673D01*
X627934Y270676D01*
X627898Y270680D01*
X627858Y270687D01*
X627814Y270698D01*
X627716Y270724D01*
X627665Y270742D01*
X627618Y270760D01*
X627567Y270786D01*
X627516Y270815D01*
X627468Y270848D01*
X627425Y270888D01*
X627421Y270891D01*
X627414Y270899D01*
X627403Y270910D01*
X627388Y270928D01*
X627374Y270950D01*
X627352Y270975D01*
X627334Y271004D01*
X627312Y271041D01*
X627290Y271077D01*
X627272Y271121D01*
X627235Y271212D01*
X627221Y271266D01*
X627210Y271321D01*
X627203Y271379D01*
X627199Y271437D01*
Y271441D01*
Y271448D01*
Y271463D01*
X627203Y271477D01*
Y271499D01*
X627206Y271525D01*
X627213Y271583D01*
X627228Y271648D01*
X627250Y271714D01*
X627283Y271783D01*
X627323Y271849D01*
Y271852D01*
X627330Y271856D01*
X627345Y271874D01*
X627374Y271903D01*
X627414Y271940D01*
X627465Y271976D01*
X627527Y272016D01*
X627596Y272049D01*
X627679Y272074D01*
X627676D01*
X627672Y272078D01*
X627661Y272082D01*
X627647Y272089D01*
X627614Y272103D01*
X627570Y272125D01*
X627523Y272154D01*
X627476Y272191D01*
X627432Y272231D01*
X627392Y272274D01*
X627388Y272282D01*
X627377Y272296D01*
X627363Y272325D01*
X627348Y272362D01*
X627330Y272409D01*
X627315Y272464D01*
X627305Y272526D01*
X627301Y272591D01*
Y272595D01*
Y272602D01*
Y272617D01*
X627305Y272639D01*
X627308Y272660D01*
X627312Y272689D01*
X627326Y272751D01*
X627348Y272824D01*
X627385Y272901D01*
X627406Y272941D01*
X627432Y272981D01*
X627465Y273017D01*
X627497Y273053D01*
X627501Y273057D01*
X627508Y273061D01*
X627519Y273072D01*
X627534Y273083D01*
X627552Y273097D01*
X627577Y273112D01*
X627607Y273130D01*
X627636Y273148D01*
X627672Y273166D01*
X627712Y273184D01*
X627756Y273199D01*
X627803Y273214D01*
X627905Y273235D01*
X627963Y273239D01*
X628022Y273243D01*
X628054D01*
X628076Y273239D01*
D02*
G37*
G36*
X475852Y450315D02*
X475855Y450312D01*
X475865D01*
X475878Y450310D01*
X475893Y450305D01*
X475916Y450297D01*
X475942Y450292D01*
X475973Y450281D01*
X476001Y450269D01*
X476071Y450240D01*
X476148Y450199D01*
X476223Y450145D01*
X476300Y450078D01*
X476321Y450058D01*
X476331Y450042D01*
X476349Y450024D01*
X476367Y450001D01*
X476405Y449942D01*
X476447Y449875D01*
X476483Y449798D01*
X476511Y449713D01*
X476521Y449666D01*
X476526Y449620D01*
Y449615D01*
Y449610D01*
Y449594D01*
Y449579D01*
X476524Y449556D01*
X476521Y449527D01*
X476511Y449466D01*
X476490Y449394D01*
X476460Y449311D01*
X476416Y449226D01*
X476357Y449136D01*
X476127Y449329D01*
X476130Y449332D01*
X476133Y449339D01*
X476138Y449345D01*
X476146Y449357D01*
X476166Y449394D01*
X476187Y449435D01*
X476210Y449484D01*
X476228Y449538D01*
X476241Y449592D01*
X476243Y449646D01*
Y449651D01*
X476241Y449669D01*
X476233Y449697D01*
X476223Y449728D01*
X476207Y449769D01*
X476184Y449813D01*
X476153Y449859D01*
X476115Y449903D01*
X476097Y449921D01*
X476076Y449937D01*
X476050Y449957D01*
X476017Y449980D01*
X475981Y450001D01*
X475940Y450022D01*
X475896Y450034D01*
X475891D01*
X475875Y450039D01*
X475849Y450045D01*
X475819D01*
X475780Y450047D01*
X475739D01*
X475695Y450045D01*
X475646Y450037D01*
X475641D01*
X475623Y450029D01*
X475595Y450022D01*
X475561Y450009D01*
X475517Y449991D01*
X475468Y449967D01*
X475415Y449939D01*
X475355Y449906D01*
X475353Y449903D01*
X475348D01*
X475340Y449895D01*
X475327Y449888D01*
X475296Y449867D01*
X475255Y449841D01*
X475209Y449805D01*
X475160Y449767D01*
X475108Y449720D01*
X475054Y449672D01*
X475052Y449669D01*
X475044Y449661D01*
X475031Y449648D01*
X475010Y449628D01*
X475018Y449630D01*
X475041Y449633D01*
X475075Y449635D01*
X475118Y449643D01*
X475170D01*
X475229Y449641D01*
X475293Y449633D01*
X475360Y449617D01*
X475368Y449615D01*
X475391Y449607D01*
X475425Y449594D01*
X475463Y449576D01*
X475515Y449550D01*
X475566Y449520D01*
X475620Y449481D01*
X475672Y449435D01*
X475693Y449414D01*
X475705Y449396D01*
X475723Y449373D01*
X475741Y449350D01*
X475762Y449319D01*
X475780Y449285D01*
X475821Y449208D01*
X475839Y449164D01*
X475855Y449118D01*
X475870Y449067D01*
X475878Y449013D01*
X475885Y448958D01*
Y448902D01*
Y448897D01*
Y448886D01*
X475883Y448874D01*
X475880Y448850D01*
X475875Y448819D01*
X475870Y448789D01*
X475860Y448753D01*
X475847Y448714D01*
X475834Y448670D01*
X475816Y448627D01*
X475793Y448577D01*
X475770Y448529D01*
X475739Y448477D01*
X475700Y448428D01*
X475662Y448379D01*
X475615Y448328D01*
X475613Y448325D01*
X475602Y448315D01*
X475590Y448302D01*
X475569Y448287D01*
X475543Y448266D01*
X475512Y448240D01*
X475479Y448217D01*
X475438Y448191D01*
X475353Y448143D01*
X475304Y448119D01*
X475250Y448096D01*
X475196Y448078D01*
X475139Y448068D01*
X475080Y448055D01*
X475021Y448053D01*
X474990D01*
X474967Y448055D01*
X474938Y448058D01*
X474902Y448063D01*
X474869Y448070D01*
X474825Y448078D01*
X474784Y448089D01*
X474740Y448106D01*
X474642Y448148D01*
X474596Y448174D01*
X474547Y448207D01*
X474501Y448243D01*
X474454Y448284D01*
X474436Y448302D01*
X474426Y448318D01*
X474413Y448330D01*
X474398Y448351D01*
X474362Y448403D01*
X474323Y448462D01*
X474287Y448534D01*
X474256Y448611D01*
X474233Y448696D01*
X474230Y448699D01*
X474233Y448706D01*
X474230Y448719D01*
X474228Y448737D01*
X474223Y448783D01*
X474218Y448845D01*
X474223Y448917D01*
X474230Y449002D01*
X474251Y449090D01*
X474282Y449182D01*
X474285Y449185D01*
X474287Y449193D01*
X474292Y449208D01*
X474300Y449226D01*
X474313Y449249D01*
X474328Y449280D01*
X474349Y449311D01*
X474369Y449347D01*
X474395Y449388D01*
X474426Y449435D01*
X474462Y449481D01*
X474501Y449530D01*
X474544Y449584D01*
X474591Y449641D01*
X474645Y449700D01*
X474704Y449759D01*
X474707Y449761D01*
X474719Y449774D01*
X474738Y449792D01*
X474761Y449816D01*
X474792Y449841D01*
X474825Y449875D01*
X474866Y449911D01*
X474910Y449944D01*
X475005Y450024D01*
X475111Y450104D01*
X475216Y450173D01*
X475273Y450204D01*
X475324Y450230D01*
X475327Y450233D01*
X475335Y450235D01*
X475350Y450240D01*
X475371Y450251D01*
X475394Y450258D01*
X475425Y450269D01*
X475494Y450287D01*
X475574Y450305D01*
X475662Y450320D01*
X475757Y450323D01*
X475852Y450315D01*
D02*
G37*
G36*
X478217Y448099D02*
X478215Y448096D01*
X478205Y448086D01*
X478189Y448070D01*
X478166Y448053D01*
X478140Y448032D01*
X478109Y448011D01*
X478078Y447991D01*
X478040Y447973D01*
X478037Y447970D01*
X478032D01*
X478012Y447960D01*
X477978Y447947D01*
X477932Y447931D01*
X477875Y447916D01*
X477808Y447901D01*
X477739Y447888D01*
X477659Y447880D01*
X477656Y447878D01*
X477649Y447880D01*
X477620Y447878D01*
X477430D01*
X477335Y447880D01*
X477224Y447888D01*
X477106Y447898D01*
X477100D01*
X477082Y447901D01*
X477054Y447903D01*
X477021Y447906D01*
X476977Y447908D01*
X476925Y447914D01*
X476871Y447916D01*
X476810Y447921D01*
X476683Y447924D01*
X476557Y447926D01*
X476496D01*
X476436Y447924D01*
X476382Y447921D01*
X476333Y447914D01*
X476331Y447911D01*
X476323Y447914D01*
X476310Y447911D01*
X476295Y447906D01*
X476248Y447895D01*
X476194Y447883D01*
X476135Y447859D01*
X476073Y447834D01*
X476014Y447795D01*
X475963Y447754D01*
X475960Y447751D01*
X475958Y447749D01*
X475945Y447731D01*
X475921Y447702D01*
X475901Y447666D01*
X475875Y447620D01*
X475857Y447566D01*
X475844Y447507D01*
X475839Y447440D01*
Y447430D01*
X475842Y447406D01*
X475847Y447376D01*
X475857Y447329D01*
X475878Y447278D01*
X475904Y447221D01*
X475942Y447162D01*
X475994Y447105D01*
X476009Y447090D01*
X476022Y447082D01*
X476055Y447054D01*
X476099Y447025D01*
X476148Y446997D01*
X476210Y446972D01*
X476274Y446953D01*
X476344Y446946D01*
X476354D01*
X476377Y446948D01*
X476413Y446953D01*
X476460Y446969D01*
X476513Y446987D01*
X476575Y447018D01*
X476637Y447059D01*
X476701Y447113D01*
X476902Y446866D01*
X476900Y446863D01*
X476889Y446858D01*
X476876Y446845D01*
X476856Y446830D01*
X476830Y446814D01*
X476802Y446796D01*
X476766Y446776D01*
X476730Y446755D01*
X476647Y446714D01*
X476555Y446683D01*
X476506Y446670D01*
X476452Y446663D01*
X476400Y446657D01*
X476344D01*
X476336Y446660D01*
X476321D01*
X476300Y446665D01*
X476274Y446670D01*
X476246Y446678D01*
X476212Y446686D01*
X476174Y446699D01*
X476133Y446714D01*
X476089Y446732D01*
X476045Y446755D01*
X475999Y446781D01*
X475952Y446812D01*
X475904Y446845D01*
X475857Y446886D01*
X475808Y446930D01*
X475782Y446956D01*
X475767Y446977D01*
X475749Y447000D01*
X475726Y447028D01*
X475703Y447061D01*
X475680Y447095D01*
X475631Y447180D01*
X475590Y447273D01*
X475571Y447322D01*
X475556Y447373D01*
X475548Y447427D01*
X475546Y447481D01*
Y447486D01*
X475543Y447494D01*
X475548Y447509D01*
Y447530D01*
Y447556D01*
X475554Y447587D01*
X475559Y447617D01*
X475566Y447656D01*
X475590Y447731D01*
X475626Y447818D01*
X475646Y447859D01*
X475677Y447901D01*
X475708Y447942D01*
X475744Y447983D01*
X475749Y447988D01*
X475762Y448001D01*
X475785Y448019D01*
X475816Y448045D01*
X475852Y448070D01*
X475898Y448096D01*
X475947Y448125D01*
X476001Y448148D01*
X476009Y448150D01*
X476027Y448158D01*
X476058Y448168D01*
X476102Y448181D01*
X476153Y448191D01*
X476218Y448204D01*
X476287Y448212D01*
X476367Y448220D01*
X476377D01*
X476405Y448222D01*
X476570D01*
X476619Y448220D01*
X476671D01*
X476730Y448217D01*
X476791Y448212D01*
X476861Y448209D01*
X476936Y448202D01*
X477013Y448197D01*
X477028D01*
X477046Y448194D01*
X477070Y448191D01*
X477100D01*
X477134Y448189D01*
X477209Y448181D01*
X477291Y448176D01*
X477371Y448174D01*
X477440Y448171D01*
X477468Y448168D01*
X477535D01*
X477564Y448171D01*
X477595Y448176D01*
X477628Y448179D01*
X477703Y448191D01*
X476825Y449069D01*
X477036Y449280D01*
X478217Y448099D01*
D02*
G37*
G36*
X478611Y447494D02*
X478707Y447476D01*
X478709Y447473D01*
X478719D01*
X478730Y447468D01*
X478750Y447463D01*
X478773Y447455D01*
X478802Y447442D01*
X478830Y447430D01*
X478866Y447414D01*
X478905Y447396D01*
X478943Y447373D01*
X478984Y447347D01*
X479031Y447316D01*
X479074Y447283D01*
X479121Y447247D01*
X479219Y447159D01*
X479242Y447136D01*
X479257Y447116D01*
X479278Y447095D01*
X479301Y447067D01*
X479327Y447036D01*
X479353Y447005D01*
X479406Y446930D01*
X479461Y446845D01*
X479507Y446758D01*
X479543Y446665D01*
X479545Y446663D01*
Y446652D01*
X479548Y446639D01*
X479553Y446624D01*
X479561Y446575D01*
X479566Y446513D01*
X479569Y446439D01*
X479564Y446361D01*
X479548Y446274D01*
X479520Y446189D01*
X479517Y446186D01*
X479515Y446179D01*
X479507Y446166D01*
X479499Y446148D01*
X479489Y446127D01*
X479473Y446102D01*
X479458Y446071D01*
X479435Y446037D01*
X479409Y446001D01*
X479383Y445960D01*
X479353Y445919D01*
X479319Y445875D01*
X479280Y445826D01*
X479237Y445777D01*
X479190Y445726D01*
X479139Y445674D01*
X478109Y444645D01*
X477873Y444881D01*
X478902Y445911D01*
X478905Y445914D01*
X478912Y445921D01*
X478925Y445934D01*
X478941Y445950D01*
X478956Y445970D01*
X478979Y445993D01*
X479026Y446045D01*
X479077Y446107D01*
X479126Y446171D01*
X479170Y446235D01*
X479188Y446264D01*
X479203Y446294D01*
X479206Y446302D01*
X479213Y446320D01*
X479219Y446351D01*
X479229Y446392D01*
X479237Y446436D01*
X479239Y446490D01*
X479237Y446549D01*
X479224Y446608D01*
X479221Y446616D01*
X479216Y446637D01*
X479201Y446668D01*
X479180Y446709D01*
X479157Y446758D01*
X479118Y446812D01*
X479077Y446869D01*
X479026Y446925D01*
X479000Y446951D01*
X478982Y446964D01*
X478959Y446987D01*
X478933Y447008D01*
X478866Y447054D01*
X478791Y447103D01*
X478712Y447141D01*
X478627Y447170D01*
X478583Y447177D01*
X478539Y447180D01*
X478529D01*
X478516Y447177D01*
X478498Y447175D01*
X478475Y447167D01*
X478449Y447162D01*
X478416Y447149D01*
X478382Y447136D01*
X478343Y447118D01*
X478302Y447092D01*
X478254Y447064D01*
X478205Y447031D01*
X478151Y446992D01*
X478096Y446948D01*
X478035Y446897D01*
X477976Y446838D01*
X476946Y445808D01*
X476709Y446045D01*
X477739Y447074D01*
X477741Y447077D01*
X477752Y447087D01*
X477764Y447100D01*
X477782Y447118D01*
X477808Y447139D01*
X477834Y447164D01*
X477867Y447193D01*
X477901Y447221D01*
X477978Y447283D01*
X478060Y447345D01*
X478145Y447399D01*
X478189Y447422D01*
X478230Y447442D01*
X478233Y447445D01*
X478241Y447448D01*
X478254Y447450D01*
X478269Y447455D01*
X478313Y447468D01*
X478372Y447481D01*
X478444Y447491D01*
X478521Y447497D01*
X478611Y447494D01*
D02*
G37*
G36*
X132324Y537854D02*
X132003D01*
Y539962D01*
X131268Y537854D01*
X130970D01*
X130242Y539998D01*
Y537854D01*
X129921D01*
Y540373D01*
X130420D01*
X131017Y538586D01*
Y538582D01*
X131020Y538575D01*
X131024Y538564D01*
X131031Y538546D01*
X131046Y538502D01*
X131064Y538448D01*
X131082Y538386D01*
X131104Y538324D01*
X131122Y538266D01*
X131137Y538215D01*
X131141Y538222D01*
X131144Y538240D01*
X131155Y538273D01*
X131170Y538317D01*
X131188Y538375D01*
X131213Y538444D01*
X131239Y538524D01*
X131272Y538619D01*
X131876Y540373D01*
X132324D01*
Y537854D01*
D02*
G37*
G36*
X136444D02*
X136135D01*
Y539823D01*
X136131Y539820D01*
X136113Y539805D01*
X136091Y539783D01*
X136055Y539758D01*
X136015Y539725D01*
X135964Y539689D01*
X135905Y539649D01*
X135840Y539609D01*
X135836D01*
X135833Y539605D01*
X135811Y539591D01*
X135774Y539572D01*
X135731Y539550D01*
X135680Y539525D01*
X135625Y539500D01*
X135571Y539474D01*
X135516Y539452D01*
Y539751D01*
X135520D01*
X135527Y539758D01*
X135541Y539762D01*
X135560Y539773D01*
X135581Y539783D01*
X135607Y539798D01*
X135669Y539834D01*
X135742Y539875D01*
X135814Y539925D01*
X135891Y539984D01*
X135967Y540046D01*
X135971Y540049D01*
X135975Y540053D01*
X135985Y540064D01*
X136000Y540075D01*
X136033Y540111D01*
X136076Y540155D01*
X136120Y540206D01*
X136168Y540264D01*
X136207Y540322D01*
X136244Y540384D01*
X136444D01*
Y537854D01*
D02*
G37*
G36*
X133900Y540370D02*
X133973Y540366D01*
X134045Y540359D01*
X134118Y540348D01*
X134180Y540337D01*
X134184D01*
X134191Y540333D01*
X134202D01*
X134216Y540326D01*
X134256Y540315D01*
X134307Y540297D01*
X134366Y540271D01*
X134427Y540239D01*
X134489Y540202D01*
X134548Y540155D01*
X134551Y540151D01*
X134555Y540147D01*
X134566Y540137D01*
X134580Y540126D01*
X134617Y540089D01*
X134660Y540038D01*
X134708Y539976D01*
X134759Y539904D01*
X134806Y539820D01*
X134846Y539725D01*
Y539722D01*
X134850Y539714D01*
X134857Y539700D01*
X134861Y539678D01*
X134872Y539652D01*
X134879Y539623D01*
X134886Y539591D01*
X134897Y539550D01*
X134908Y539510D01*
X134915Y539463D01*
X134933Y539361D01*
X134944Y539248D01*
X134948Y539125D01*
Y539121D01*
Y539114D01*
Y539095D01*
Y539077D01*
X134944Y539052D01*
Y539023D01*
X134941Y538954D01*
X134930Y538873D01*
X134919Y538790D01*
X134901Y538702D01*
X134879Y538615D01*
Y538611D01*
X134875Y538604D01*
X134872Y538593D01*
X134868Y538579D01*
X134853Y538539D01*
X134832Y538488D01*
X134810Y538429D01*
X134781Y538371D01*
X134744Y538309D01*
X134708Y538251D01*
X134704Y538244D01*
X134690Y538226D01*
X134668Y538200D01*
X134639Y538167D01*
X134606Y538131D01*
X134566Y538095D01*
X134526Y538055D01*
X134478Y538022D01*
X134471Y538018D01*
X134457Y538007D01*
X134431Y537993D01*
X134395Y537974D01*
X134351Y537953D01*
X134300Y537934D01*
X134242Y537913D01*
X134176Y537894D01*
X134169D01*
X134158Y537891D01*
X134147Y537887D01*
X134111Y537883D01*
X134060Y537876D01*
X134002Y537869D01*
X133932Y537862D01*
X133856Y537858D01*
X133772Y537854D01*
X132866D01*
Y540373D01*
X133834D01*
X133900Y540370D01*
D02*
G37*
G36*
X190167Y163887D02*
X190196Y163884D01*
X190229Y163876D01*
X190265Y163869D01*
X190305Y163862D01*
X190393Y163833D01*
X190440Y163811D01*
X190484Y163789D01*
X190531Y163760D01*
X190578Y163727D01*
X190626Y163691D01*
X190669Y163647D01*
X190673Y163644D01*
X190680Y163636D01*
X190691Y163622D01*
X190706Y163603D01*
X190724Y163582D01*
X190742Y163553D01*
X190764Y163520D01*
X190782Y163480D01*
X190804Y163440D01*
X190826Y163392D01*
X190844Y163345D01*
X190862Y163291D01*
X190877Y163232D01*
X190888Y163170D01*
X190895Y163109D01*
X190899Y163039D01*
Y163007D01*
X190895Y162985D01*
X190891Y162956D01*
X190888Y162923D01*
X190880Y162886D01*
X190873Y162846D01*
X190851Y162759D01*
X190815Y162668D01*
X190793Y162621D01*
X190768Y162577D01*
X190735Y162533D01*
X190702Y162490D01*
X190698Y162486D01*
X190691Y162479D01*
X190680Y162468D01*
X190666Y162457D01*
X190647Y162439D01*
X190622Y162420D01*
X190596Y162399D01*
X190564Y162377D01*
X190527Y162355D01*
X190491Y162333D01*
X190404Y162293D01*
X190302Y162260D01*
X190247Y162249D01*
X190189Y162242D01*
X190149Y162552D01*
X190152D01*
X190160Y162555D01*
X190174Y162559D01*
X190192Y162563D01*
X190214Y162566D01*
X190240Y162573D01*
X190294Y162592D01*
X190360Y162617D01*
X190422Y162650D01*
X190480Y162686D01*
X190531Y162730D01*
X190535Y162737D01*
X190549Y162752D01*
X190567Y162781D01*
X190586Y162817D01*
X190607Y162861D01*
X190626Y162916D01*
X190640Y162977D01*
X190644Y163043D01*
Y163065D01*
X190640Y163079D01*
X190637Y163119D01*
X190626Y163170D01*
X190607Y163229D01*
X190582Y163291D01*
X190545Y163352D01*
X190495Y163411D01*
X190487Y163418D01*
X190465Y163436D01*
X190433Y163458D01*
X190389Y163487D01*
X190334Y163516D01*
X190272Y163538D01*
X190200Y163556D01*
X190120Y163564D01*
X190116D01*
X190109D01*
X190098D01*
X190083Y163560D01*
X190043Y163556D01*
X189996Y163545D01*
X189938Y163531D01*
X189879Y163505D01*
X189821Y163469D01*
X189767Y163421D01*
X189759Y163414D01*
X189745Y163396D01*
X189723Y163367D01*
X189697Y163327D01*
X189672Y163276D01*
X189650Y163214D01*
X189636Y163145D01*
X189628Y163068D01*
Y163036D01*
X189632Y163010D01*
X189636Y162977D01*
X189643Y162941D01*
X189650Y162897D01*
X189661Y162850D01*
X189388Y162886D01*
Y162905D01*
X189392Y162919D01*
Y162967D01*
X189384Y163007D01*
X189377Y163054D01*
X189366Y163109D01*
X189348Y163170D01*
X189322Y163229D01*
X189290Y163291D01*
Y163294D01*
X189286Y163298D01*
X189271Y163316D01*
X189246Y163341D01*
X189213Y163371D01*
X189166Y163400D01*
X189111Y163425D01*
X189049Y163443D01*
X189013Y163451D01*
X188973D01*
X188969D01*
X188966D01*
X188944D01*
X188915Y163443D01*
X188875Y163436D01*
X188831Y163421D01*
X188784Y163403D01*
X188736Y163374D01*
X188693Y163334D01*
X188689Y163330D01*
X188675Y163312D01*
X188656Y163287D01*
X188635Y163254D01*
X188616Y163210D01*
X188598Y163159D01*
X188584Y163101D01*
X188580Y163036D01*
Y163007D01*
X188587Y162974D01*
X188594Y162930D01*
X188609Y162883D01*
X188627Y162836D01*
X188656Y162785D01*
X188693Y162737D01*
X188696Y162734D01*
X188715Y162719D01*
X188740Y162697D01*
X188777Y162672D01*
X188824Y162646D01*
X188882Y162621D01*
X188951Y162599D01*
X189031Y162584D01*
X188977Y162275D01*
X188973D01*
X188962Y162279D01*
X188948Y162282D01*
X188926Y162286D01*
X188900Y162293D01*
X188871Y162304D01*
X188802Y162326D01*
X188722Y162362D01*
X188642Y162406D01*
X188565Y162461D01*
X188496Y162530D01*
X188493Y162533D01*
X188489Y162541D01*
X188482Y162552D01*
X188471Y162566D01*
X188456Y162584D01*
X188442Y162610D01*
X188427Y162635D01*
X188409Y162668D01*
X188380Y162741D01*
X188351Y162825D01*
X188332Y162923D01*
X188325Y162974D01*
Y163065D01*
X188329Y163105D01*
X188336Y163152D01*
X188347Y163210D01*
X188365Y163276D01*
X188387Y163341D01*
X188416Y163407D01*
Y163411D01*
X188420Y163414D01*
X188431Y163436D01*
X188452Y163469D01*
X188478Y163505D01*
X188514Y163549D01*
X188554Y163593D01*
X188602Y163636D01*
X188656Y163673D01*
X188664Y163676D01*
X188682Y163687D01*
X188715Y163702D01*
X188755Y163720D01*
X188802Y163738D01*
X188857Y163753D01*
X188918Y163764D01*
X188980Y163767D01*
X188988D01*
X189009D01*
X189039Y163764D01*
X189079Y163756D01*
X189126Y163745D01*
X189177Y163727D01*
X189228Y163705D01*
X189279Y163676D01*
X189286Y163673D01*
X189301Y163662D01*
X189326Y163640D01*
X189355Y163611D01*
X189388Y163574D01*
X189424Y163531D01*
X189457Y163480D01*
X189490Y163418D01*
Y163421D01*
X189494Y163429D01*
X189497Y163440D01*
X189501Y163454D01*
X189515Y163494D01*
X189537Y163545D01*
X189566Y163603D01*
X189603Y163662D01*
X189650Y163716D01*
X189705Y163767D01*
X189712Y163771D01*
X189734Y163786D01*
X189770Y163807D01*
X189818Y163829D01*
X189876Y163851D01*
X189945Y163873D01*
X190025Y163887D01*
X190112Y163891D01*
X190116D01*
X190127D01*
X190145D01*
X190167Y163887D01*
D02*
G37*
G36*
X190134Y161816D02*
X190163D01*
X190233Y161809D01*
X190313Y161802D01*
X190396Y161787D01*
X190473Y161765D01*
X190545Y161740D01*
X190549D01*
X190553Y161736D01*
X190575Y161725D01*
X190604Y161707D01*
X190644Y161682D01*
X190684Y161645D01*
X190727Y161605D01*
X190771Y161554D01*
X190808Y161496D01*
X190811Y161489D01*
X190822Y161467D01*
X190837Y161434D01*
X190851Y161387D01*
X190869Y161328D01*
X190884Y161263D01*
X190895Y161190D01*
X190899Y161110D01*
Y161077D01*
X190895Y161056D01*
X190891Y161026D01*
X190888Y160997D01*
X190873Y160921D01*
X190851Y160841D01*
X190819Y160757D01*
X190797Y160713D01*
X190771Y160673D01*
X190742Y160637D01*
X190709Y160600D01*
X190706Y160597D01*
X190702Y160593D01*
X190688Y160586D01*
X190673Y160575D01*
X190655Y160561D01*
X190629Y160546D01*
X190600Y160531D01*
X190567Y160513D01*
X190531Y160499D01*
X190487Y160484D01*
X190444Y160469D01*
X190393Y160455D01*
X190338Y160448D01*
X190276Y160437D01*
X190214Y160433D01*
X190145D01*
X190101Y160735D01*
X190105D01*
X190112D01*
X190127D01*
X190149Y160739D01*
X190171Y160742D01*
X190196D01*
X190258Y160753D01*
X190323Y160764D01*
X190389Y160786D01*
X190447Y160808D01*
X190473Y160823D01*
X190495Y160841D01*
X190498Y160844D01*
X190509Y160859D01*
X190527Y160881D01*
X190545Y160910D01*
X190567Y160950D01*
X190582Y160994D01*
X190596Y161048D01*
X190600Y161107D01*
Y161128D01*
X190596Y161150D01*
X190593Y161183D01*
X190586Y161216D01*
X190578Y161252D01*
X190564Y161288D01*
X190545Y161325D01*
X190542Y161328D01*
X190535Y161339D01*
X190520Y161354D01*
X190506Y161376D01*
X190480Y161394D01*
X190454Y161416D01*
X190425Y161434D01*
X190389Y161449D01*
X190385D01*
X190371Y161456D01*
X190345Y161460D01*
X190313Y161467D01*
X190269Y161474D01*
X190214Y161478D01*
X190149Y161485D01*
X190072D01*
X188336D01*
Y161820D01*
X190054D01*
X190058D01*
X190069D01*
X190083D01*
X190105D01*
X190134Y161816D01*
D02*
G37*
G36*
X190855Y197628D02*
X190851D01*
X190837D01*
X190815D01*
X190786Y197632D01*
X190753Y197635D01*
X190717Y197643D01*
X190680Y197650D01*
X190640Y197664D01*
X190637D01*
X190633Y197668D01*
X190611Y197675D01*
X190578Y197690D01*
X190535Y197712D01*
X190484Y197741D01*
X190425Y197777D01*
X190367Y197817D01*
X190305Y197868D01*
X190302D01*
X190298Y197875D01*
X190276Y197894D01*
X190243Y197926D01*
X190196Y197974D01*
X190141Y198028D01*
X190076Y198098D01*
X190003Y198181D01*
X189927Y198272D01*
X189923Y198276D01*
X189912Y198290D01*
X189894Y198312D01*
X189872Y198338D01*
X189843Y198371D01*
X189810Y198410D01*
X189774Y198451D01*
X189734Y198498D01*
X189646Y198589D01*
X189559Y198680D01*
X189515Y198724D01*
X189472Y198764D01*
X189432Y198800D01*
X189392Y198829D01*
X189388D01*
X189384Y198836D01*
X189373Y198844D01*
X189359Y198851D01*
X189319Y198876D01*
X189271Y198906D01*
X189213Y198931D01*
X189151Y198957D01*
X189082Y198971D01*
X189017Y198978D01*
X189013D01*
X189009D01*
X188988Y198975D01*
X188951Y198971D01*
X188911Y198960D01*
X188860Y198946D01*
X188809Y198920D01*
X188758Y198887D01*
X188707Y198844D01*
X188700Y198836D01*
X188686Y198818D01*
X188667Y198793D01*
X188642Y198753D01*
X188620Y198702D01*
X188598Y198644D01*
X188584Y198574D01*
X188580Y198498D01*
Y198476D01*
X188584Y198461D01*
X188587Y198418D01*
X188598Y198367D01*
X188613Y198312D01*
X188638Y198250D01*
X188671Y198192D01*
X188715Y198137D01*
X188722Y198130D01*
X188740Y198116D01*
X188769Y198094D01*
X188813Y198072D01*
X188864Y198047D01*
X188929Y198025D01*
X189002Y198010D01*
X189086Y198003D01*
X189053Y197686D01*
X189049D01*
X189039Y197690D01*
X189020D01*
X188995Y197693D01*
X188966Y197701D01*
X188933Y197708D01*
X188893Y197719D01*
X188853Y197730D01*
X188766Y197759D01*
X188678Y197803D01*
X188635Y197828D01*
X188591Y197861D01*
X188551Y197894D01*
X188514Y197930D01*
X188511Y197934D01*
X188507Y197941D01*
X188496Y197952D01*
X188485Y197970D01*
X188471Y197992D01*
X188456Y198017D01*
X188438Y198047D01*
X188420Y198083D01*
X188401Y198123D01*
X188383Y198167D01*
X188369Y198214D01*
X188354Y198265D01*
X188343Y198319D01*
X188332Y198378D01*
X188329Y198440D01*
X188325Y198505D01*
Y198542D01*
X188329Y198567D01*
X188332Y198596D01*
X188336Y198633D01*
X188343Y198673D01*
X188351Y198713D01*
X188376Y198807D01*
X188412Y198902D01*
X188434Y198949D01*
X188460Y198997D01*
X188493Y199040D01*
X188529Y199080D01*
X188533Y199084D01*
X188536Y199091D01*
X188551Y199099D01*
X188565Y199113D01*
X188584Y199131D01*
X188609Y199149D01*
X188635Y199168D01*
X188667Y199189D01*
X188736Y199226D01*
X188824Y199262D01*
X188867Y199277D01*
X188918Y199284D01*
X188969Y199291D01*
X189024Y199295D01*
X189031D01*
X189049D01*
X189079Y199291D01*
X189119Y199288D01*
X189162Y199281D01*
X189213Y199266D01*
X189268Y199251D01*
X189322Y199230D01*
X189330Y199226D01*
X189348Y199219D01*
X189377Y199204D01*
X189417Y199182D01*
X189461Y199153D01*
X189515Y199117D01*
X189570Y199073D01*
X189632Y199022D01*
X189639Y199015D01*
X189661Y198997D01*
X189679Y198978D01*
X189697Y198960D01*
X189719Y198938D01*
X189748Y198909D01*
X189778Y198880D01*
X189810Y198844D01*
X189847Y198807D01*
X189887Y198764D01*
X189927Y198716D01*
X189974Y198665D01*
X190021Y198607D01*
X190072Y198549D01*
X190076Y198545D01*
X190083Y198538D01*
X190094Y198523D01*
X190109Y198505D01*
X190130Y198483D01*
X190152Y198458D01*
X190200Y198400D01*
X190254Y198338D01*
X190309Y198280D01*
X190356Y198229D01*
X190374Y198207D01*
X190393Y198188D01*
X190396Y198185D01*
X190407Y198174D01*
X190422Y198159D01*
X190444Y198141D01*
X190469Y198123D01*
X190495Y198101D01*
X190556Y198057D01*
Y199299D01*
X190855D01*
Y197628D01*
D02*
G37*
G36*
X190134Y197249D02*
X190163D01*
X190233Y197242D01*
X190313Y197235D01*
X190396Y197220D01*
X190473Y197198D01*
X190545Y197173D01*
X190549D01*
X190553Y197169D01*
X190575Y197158D01*
X190604Y197140D01*
X190644Y197115D01*
X190684Y197078D01*
X190727Y197038D01*
X190771Y196987D01*
X190808Y196929D01*
X190811Y196922D01*
X190822Y196900D01*
X190837Y196867D01*
X190851Y196820D01*
X190869Y196762D01*
X190884Y196696D01*
X190895Y196623D01*
X190899Y196543D01*
Y196510D01*
X190895Y196489D01*
X190891Y196459D01*
X190888Y196430D01*
X190873Y196354D01*
X190851Y196274D01*
X190819Y196190D01*
X190797Y196146D01*
X190771Y196106D01*
X190742Y196070D01*
X190709Y196034D01*
X190706Y196030D01*
X190702Y196026D01*
X190688Y196019D01*
X190673Y196008D01*
X190655Y195994D01*
X190629Y195979D01*
X190600Y195964D01*
X190567Y195946D01*
X190531Y195932D01*
X190487Y195917D01*
X190444Y195903D01*
X190393Y195888D01*
X190338Y195881D01*
X190276Y195870D01*
X190214Y195866D01*
X190145D01*
X190101Y196168D01*
X190105D01*
X190112D01*
X190127D01*
X190149Y196172D01*
X190171Y196176D01*
X190196D01*
X190258Y196186D01*
X190323Y196197D01*
X190389Y196219D01*
X190447Y196241D01*
X190473Y196256D01*
X190495Y196274D01*
X190498Y196277D01*
X190509Y196292D01*
X190527Y196314D01*
X190545Y196343D01*
X190567Y196383D01*
X190582Y196427D01*
X190596Y196481D01*
X190600Y196540D01*
Y196561D01*
X190596Y196583D01*
X190593Y196616D01*
X190585Y196649D01*
X190578Y196685D01*
X190564Y196722D01*
X190545Y196758D01*
X190542Y196762D01*
X190535Y196773D01*
X190520Y196787D01*
X190506Y196809D01*
X190480Y196827D01*
X190454Y196849D01*
X190425Y196867D01*
X190389Y196882D01*
X190385D01*
X190371Y196889D01*
X190345Y196893D01*
X190313Y196900D01*
X190269Y196907D01*
X190214Y196911D01*
X190149Y196918D01*
X190072D01*
X188336D01*
Y197253D01*
X190054D01*
X190058D01*
X190069D01*
X190083D01*
X190105D01*
X190134Y197249D01*
D02*
G37*
%LPC*%
G36*
X478694Y209835D02*
X478612D01*
X478565Y209830D01*
X478563Y209827D01*
X478553D01*
X478540Y209825D01*
X478522Y209817D01*
X478493Y209809D01*
X478463Y209794D01*
X478427Y209778D01*
X478385Y209758D01*
X478339Y209727D01*
X478288Y209696D01*
X478228Y209658D01*
X478169Y209614D01*
X478102Y209557D01*
X478033Y209498D01*
X477955Y209431D01*
X477876Y209351D01*
X477873Y209349D01*
X477871Y209346D01*
X477858Y209333D01*
X477835Y209310D01*
X477806Y209277D01*
X477773Y209243D01*
X477734Y209199D01*
X477693Y209153D01*
X477649Y209099D01*
X477564Y208988D01*
X477523Y208932D01*
X477487Y208875D01*
X477454Y208821D01*
X477428Y208764D01*
X477407Y208713D01*
X477394Y208664D01*
X477392Y208661D01*
X477394Y208654D01*
X477392Y208641D01*
X477389Y208623D01*
Y208576D01*
Y208520D01*
X477402Y208455D01*
X477423Y208389D01*
X477435Y208355D01*
X477454Y208322D01*
X477479Y208291D01*
X477505Y208260D01*
X477520Y208244D01*
X477533Y208237D01*
X477567Y208213D01*
X477608Y208188D01*
X477662Y208165D01*
X477726Y208147D01*
X477762Y208141D01*
X477798Y208136D01*
X477837Y208139D01*
X477878Y208144D01*
X477881Y208147D01*
X477891D01*
X477907Y208152D01*
X477927Y208157D01*
X477955Y208170D01*
X477989Y208183D01*
X478025Y208203D01*
X478069Y208226D01*
X478118Y208255D01*
X478172Y208288D01*
X478231Y208327D01*
X478293Y208373D01*
X478362Y208427D01*
X478434Y208489D01*
X478509Y208558D01*
X478591Y208636D01*
X478596Y208641D01*
X478609Y208654D01*
X478632Y208677D01*
X478661Y208710D01*
X478694Y208744D01*
X478733Y208787D01*
X478774Y208834D01*
X478815Y208885D01*
X478903Y208999D01*
X478944Y209055D01*
X478980Y209112D01*
X479013Y209166D01*
X479039Y209223D01*
X479060Y209274D01*
X479073Y209323D01*
X479075Y209326D01*
X479073Y209333D01*
X479078Y209364D01*
Y209410D01*
X479075Y209464D01*
X479062Y209529D01*
X479042Y209596D01*
X479011Y209663D01*
X478988Y209691D01*
X478962Y209722D01*
X478946Y209737D01*
X478933Y209745D01*
X478903Y209766D01*
X478856Y209791D01*
X478800Y209812D01*
X478730Y209830D01*
X478694Y209835D01*
D02*
G37*
G36*
X628029Y272988D02*
X628000D01*
X627967Y272981D01*
X627923Y272973D01*
X627876Y272959D01*
X627825Y272941D01*
X627778Y272912D01*
X627730Y272871D01*
X627727Y272868D01*
X627712Y272853D01*
X627694Y272828D01*
X627676Y272795D01*
X627654Y272755D01*
X627636Y272708D01*
X627621Y272657D01*
X627618Y272598D01*
Y272595D01*
Y272591D01*
X627621Y272569D01*
X627625Y272537D01*
X627632Y272497D01*
X627647Y272449D01*
X627665Y272402D01*
X627694Y272351D01*
X627730Y272307D01*
X627734Y272304D01*
X627752Y272289D01*
X627778Y272271D01*
X627810Y272253D01*
X627854Y272231D01*
X627905Y272213D01*
X627963Y272198D01*
X628029Y272194D01*
X628036D01*
X628058Y272198D01*
X628091Y272202D01*
X628134Y272209D01*
X628182Y272223D01*
X628229Y272242D01*
X628280Y272271D01*
X628324Y272307D01*
X628327Y272311D01*
X628342Y272329D01*
X628360Y272351D01*
X628382Y272384D01*
X628404Y272424D01*
X628422Y272471D01*
X628437Y272526D01*
X628440Y272584D01*
Y272587D01*
Y272591D01*
Y272613D01*
X628433Y272646D01*
X628426Y272686D01*
X628411Y272729D01*
X628389Y272777D01*
X628360Y272824D01*
X628320Y272871D01*
X628316Y272875D01*
X628298Y272890D01*
X628273Y272908D01*
X628240Y272930D01*
X628196Y272952D01*
X628149Y272970D01*
X628091Y272984D01*
X628029Y272988D01*
D02*
G37*
G36*
X628018Y271943D02*
X627996D01*
X627982Y271940D01*
X627942Y271936D01*
X627890Y271925D01*
X627832Y271907D01*
X627774Y271881D01*
X627712Y271845D01*
X627658Y271798D01*
X627650Y271790D01*
X627636Y271772D01*
X627614Y271739D01*
X627588Y271699D01*
X627559Y271645D01*
X627537Y271583D01*
X627523Y271514D01*
X627516Y271437D01*
Y271430D01*
Y271415D01*
X627519Y271390D01*
X627523Y271357D01*
X627530Y271317D01*
X627541Y271273D01*
X627556Y271230D01*
X627574Y271182D01*
X627577Y271179D01*
X627585Y271161D01*
X627599Y271139D01*
X627621Y271113D01*
X627647Y271081D01*
X627679Y271048D01*
X627716Y271019D01*
X627760Y270990D01*
X627767Y270986D01*
X627781Y270979D01*
X627807Y270968D01*
X627840Y270957D01*
X627880Y270946D01*
X627927Y270935D01*
X627978Y270928D01*
X628029Y270924D01*
X628051D01*
X628065Y270928D01*
X628109Y270931D01*
X628160Y270942D01*
X628218Y270960D01*
X628280Y270982D01*
X628338Y271019D01*
X628397Y271066D01*
X628404Y271073D01*
X628418Y271092D01*
X628444Y271124D01*
X628469Y271164D01*
X628495Y271215D01*
X628520Y271277D01*
X628535Y271350D01*
X628542Y271426D01*
Y271430D01*
Y271437D01*
Y271448D01*
X628539Y271463D01*
X628535Y271503D01*
X628524Y271557D01*
X628506Y271612D01*
X628480Y271674D01*
X628444Y271736D01*
X628393Y271794D01*
X628386Y271801D01*
X628367Y271816D01*
X628335Y271841D01*
X628291Y271870D01*
X628236Y271896D01*
X628171Y271921D01*
X628098Y271936D01*
X628018Y271943D01*
D02*
G37*
G36*
X475070Y449440D02*
X475059D01*
X475034Y449435D01*
X474995Y449427D01*
X474941Y449414D01*
X474882Y449391D01*
X474817Y449357D01*
X474748Y449308D01*
X474676Y449247D01*
X474673Y449244D01*
X474668Y449239D01*
X474658Y449229D01*
X474648Y449213D01*
X474629Y449195D01*
X474614Y449175D01*
X474581Y449126D01*
X474542Y449067D01*
X474508Y448997D01*
X474485Y448922D01*
X474475Y448845D01*
X474473Y448843D01*
X474475Y448835D01*
Y448809D01*
X474478Y448771D01*
X474485Y448722D01*
X474503Y448668D01*
X474527Y448608D01*
X474560Y448549D01*
X474581Y448518D01*
X474622Y448477D01*
X474635Y448469D01*
X474665Y448444D01*
X474709Y448421D01*
X474763Y448392D01*
X474830Y448372D01*
X474902Y448356D01*
X474985D01*
X474987Y448359D01*
X474995Y448356D01*
X475008Y448359D01*
X475021Y448361D01*
X475064Y448369D01*
X475118Y448387D01*
X475183Y448410D01*
X475255Y448446D01*
X475327Y448498D01*
X475399Y448560D01*
X475402Y448562D01*
X475407Y448567D01*
X475415Y448575D01*
X475425Y448590D01*
X475440Y448606D01*
X475453Y448624D01*
X475484Y448670D01*
X475515Y448727D01*
X475546Y448789D01*
X475566Y448861D01*
X475574Y448935D01*
Y448946D01*
X475571Y448969D01*
X475566Y449010D01*
X475556Y449056D01*
X475538Y449116D01*
X475512Y449177D01*
X475474Y449236D01*
X475425Y449296D01*
X475409Y449311D01*
X475396Y449319D01*
X475366Y449345D01*
X475324Y449370D01*
X475270Y449399D01*
X475211Y449422D01*
X475144Y449437D01*
X475070Y449440D01*
D02*
G37*
G36*
X133783Y540075D02*
X133201D01*
Y538153D01*
X133798D01*
X133823Y538156D01*
X133878Y538160D01*
X133940Y538164D01*
X134005Y538171D01*
X134071Y538182D01*
X134125Y538196D01*
X134133Y538200D01*
X134151Y538204D01*
X134176Y538215D01*
X134209Y538229D01*
X134246Y538251D01*
X134282Y538273D01*
X134318Y538298D01*
X134355Y538328D01*
X134358Y538335D01*
X134373Y538349D01*
X134395Y538375D01*
X134420Y538411D01*
X134449Y538458D01*
X134482Y538513D01*
X134511Y538575D01*
X134537Y538644D01*
Y538648D01*
X134540Y538655D01*
X134544Y538666D01*
X134548Y538681D01*
X134551Y538699D01*
X134559Y538724D01*
X134566Y538750D01*
X134573Y538779D01*
X134584Y538852D01*
X134595Y538935D01*
X134602Y539030D01*
X134606Y539132D01*
Y539136D01*
Y539150D01*
Y539168D01*
X134602Y539197D01*
Y539230D01*
X134599Y539267D01*
X134595Y539310D01*
X134591Y539354D01*
X134573Y539452D01*
X134551Y539554D01*
X134519Y539649D01*
X134497Y539696D01*
X134475Y539736D01*
Y539740D01*
X134468Y539747D01*
X134460Y539758D01*
X134453Y539773D01*
X134424Y539809D01*
X134388Y539853D01*
X134340Y539900D01*
X134286Y539947D01*
X134224Y539987D01*
X134158Y540020D01*
X134151Y540024D01*
X134133Y540027D01*
X134100Y540038D01*
X134053Y540049D01*
X133994Y540057D01*
X133922Y540067D01*
X133878Y540071D01*
X133831D01*
X133783Y540075D01*
D02*
G37*
%LPD*%
D13*
X283622Y538484D02*
X296457D01*
Y527658D02*
Y538484D01*
X283622Y527658D02*
X296457D01*
X283622D02*
Y538484D01*
X483021Y196836D02*
X492208Y206023D01*
X482604Y215627D02*
X492208Y206023D01*
X473417Y206440D02*
X482604Y215627D01*
X473417Y206440D02*
X483021Y196836D01*
X616043Y264173D02*
Y277165D01*
Y264173D02*
X629626D01*
Y277165D01*
X616043D02*
X629626D01*
X480130Y437061D02*
X489317Y446248D01*
X479712Y455852D02*
X489317Y446248D01*
X470526Y446665D02*
X479712Y455852D01*
X470526Y446665D02*
X480130Y437061D01*
X92126Y486181D02*
Y589528D01*
Y486181D02*
X167717D01*
Y589528D01*
X92126D02*
X167717D01*
X175984Y144882D02*
X204331D01*
Y175984D01*
X175984D02*
X204331D01*
X175984Y144882D02*
Y175984D01*
Y180315D02*
X204331D01*
Y211417D01*
X175984Y211417D02*
X204331Y211417D01*
X175984Y180315D02*
Y211417D01*
M02*
