G04*
G04 #@! TF.GenerationSoftware,Altium Limited,Altium Designer,22.4.2 (48)*
G04*
G04 Layer_Color=8421504*
%FSLAX25Y25*%
%MOIN*%
G70*
G04*
G04 #@! TF.SameCoordinates,43EAD1C5-17A3-47DC-85D2-FB09855483F6*
G04*
G04*
G04 #@! TF.FilePolarity,Positive*
G04*
G01*
G75*
G04:AMPARAMS|DCode=23|XSize=27.56mil|YSize=17.72mil|CornerRadius=0mil|HoleSize=0mil|Usage=FLASHONLY|Rotation=135.000|XOffset=0mil|YOffset=0mil|HoleType=Round|Shape=Rectangle|*
%AMROTATEDRECTD23*
4,1,4,0.01601,-0.00348,0.00348,-0.01601,-0.01601,0.00348,-0.00348,0.01601,0.01601,-0.00348,0.0*
%
%ADD23ROTATEDRECTD23*%

G04:AMPARAMS|DCode=24|XSize=27.56mil|YSize=17.72mil|CornerRadius=0mil|HoleSize=0mil|Usage=FLASHONLY|Rotation=135.000|XOffset=0mil|YOffset=0mil|HoleType=Round|Shape=Rectangle|*
%AMROTATEDRECTD24*
4,1,4,0.01601,-0.00348,0.00348,-0.01601,-0.01601,0.00348,-0.00348,0.01601,0.01601,-0.00348,0.0*
%
%ADD24ROTATEDRECTD24*%

%ADD25R,0.02756X0.01772*%
%ADD26R,0.02756X0.01772*%
%ADD27R,0.04528X0.09843*%
%ADD28R,0.39370X0.59055*%
%ADD29R,0.02362X0.01968*%
%ADD30R,0.06102X0.09646*%
%ADD31R,0.08661X0.16535*%
G04:AMPARAMS|DCode=32|XSize=21.65mil|YSize=66.93mil|CornerRadius=1.95mil|HoleSize=0mil|Usage=FLASHONLY|Rotation=90.000|XOffset=0mil|YOffset=0mil|HoleType=Round|Shape=RoundedRectangle|*
%AMROUNDEDRECTD32*
21,1,0.02165,0.06303,0,0,90.0*
21,1,0.01776,0.06693,0,0,90.0*
1,1,0.00390,0.03152,0.00888*
1,1,0.00390,0.03152,-0.00888*
1,1,0.00390,-0.03152,-0.00888*
1,1,0.00390,-0.03152,0.00888*
%
%ADD32ROUNDEDRECTD32*%
%ADD33R,0.03543X0.03937*%
%ADD34R,0.09843X0.06693*%
%ADD35R,0.00984X0.01575*%
%ADD36R,0.03740X0.03347*%
%ADD37R,0.03937X0.03543*%
G04:AMPARAMS|DCode=38|XSize=39.37mil|YSize=35.43mil|CornerRadius=0mil|HoleSize=0mil|Usage=FLASHONLY|Rotation=45.000|XOffset=0mil|YOffset=0mil|HoleType=Round|Shape=Rectangle|*
%AMROTATEDRECTD38*
4,1,4,-0.00139,-0.02645,-0.02645,-0.00139,0.00139,0.02645,0.02645,0.00139,-0.00139,-0.02645,0.0*
%
%ADD38ROTATEDRECTD38*%

G04:AMPARAMS|DCode=39|XSize=37.4mil|YSize=33.47mil|CornerRadius=0mil|HoleSize=0mil|Usage=FLASHONLY|Rotation=225.000|XOffset=0mil|YOffset=0mil|HoleType=Round|Shape=Rectangle|*
%AMROTATEDRECTD39*
4,1,4,0.00139,0.02506,0.02506,0.00139,-0.00139,-0.02506,-0.02506,-0.00139,0.00139,0.02506,0.0*
%
%ADD39ROTATEDRECTD39*%

G04:AMPARAMS|DCode=40|XSize=39.37mil|YSize=35.43mil|CornerRadius=0mil|HoleSize=0mil|Usage=FLASHONLY|Rotation=135.000|XOffset=0mil|YOffset=0mil|HoleType=Round|Shape=Rectangle|*
%AMROTATEDRECTD40*
4,1,4,0.02645,-0.00139,0.00139,-0.02645,-0.02645,0.00139,-0.00139,0.02645,0.02645,-0.00139,0.0*
%
%ADD40ROTATEDRECTD40*%

G04:AMPARAMS|DCode=41|XSize=37.4mil|YSize=33.47mil|CornerRadius=0mil|HoleSize=0mil|Usage=FLASHONLY|Rotation=135.000|XOffset=0mil|YOffset=0mil|HoleType=Round|Shape=Rectangle|*
%AMROTATEDRECTD41*
4,1,4,0.02506,-0.00139,0.00139,-0.02506,-0.02506,0.00139,-0.00139,0.02506,0.02506,-0.00139,0.0*
%
%ADD41ROTATEDRECTD41*%

%ADD42R,0.08465X0.09646*%
G04:AMPARAMS|DCode=43|XSize=118.11mil|YSize=165.35mil|CornerRadius=1.77mil|HoleSize=0mil|Usage=FLASHONLY|Rotation=135.000|XOffset=0mil|YOffset=0mil|HoleType=Round|Shape=RoundedRectangle|*
%AMROUNDEDRECTD43*
21,1,0.11811,0.16181,0,0,135.0*
21,1,0.11457,0.16535,0,0,135.0*
1,1,0.00354,0.01670,0.09771*
1,1,0.00354,0.09771,0.01670*
1,1,0.00354,-0.01670,-0.09771*
1,1,0.00354,-0.09771,-0.01670*
%
%ADD43ROUNDEDRECTD43*%
G04:AMPARAMS|DCode=44|XSize=15.75mil|YSize=47.24mil|CornerRadius=1.97mil|HoleSize=0mil|Usage=FLASHONLY|Rotation=225.000|XOffset=0mil|YOffset=0mil|HoleType=Round|Shape=RoundedRectangle|*
%AMROUNDEDRECTD44*
21,1,0.01575,0.04331,0,0,225.0*
21,1,0.01181,0.04724,0,0,225.0*
1,1,0.00394,-0.01949,0.01114*
1,1,0.00394,-0.01114,0.01949*
1,1,0.00394,0.01949,-0.01114*
1,1,0.00394,0.01114,-0.01949*
%
%ADD44ROUNDEDRECTD44*%
G04:AMPARAMS|DCode=45|XSize=90.55mil|YSize=179.13mil|CornerRadius=0mil|HoleSize=0mil|Usage=FLASHONLY|Rotation=135.000|XOffset=0mil|YOffset=0mil|HoleType=Round|Shape=Rectangle|*
%AMROTATEDRECTD45*
4,1,4,0.09535,0.03132,-0.03132,-0.09535,-0.09535,-0.03132,0.03132,0.09535,0.09535,0.03132,0.0*
%
%ADD45ROTATEDRECTD45*%

%ADD46R,0.03347X0.03740*%
G04:AMPARAMS|DCode=47|XSize=90.55mil|YSize=179.13mil|CornerRadius=0mil|HoleSize=0mil|Usage=FLASHONLY|Rotation=225.000|XOffset=0mil|YOffset=0mil|HoleType=Round|Shape=Rectangle|*
%AMROTATEDRECTD47*
4,1,4,-0.03132,0.09535,0.09535,-0.03132,0.03132,-0.09535,-0.09535,0.03132,-0.03132,0.09535,0.0*
%
%ADD47ROTATEDRECTD47*%

%ADD48R,0.09646X0.08465*%
G04:AMPARAMS|DCode=49|XSize=106.3mil|YSize=51.18mil|CornerRadius=0mil|HoleSize=0mil|Usage=FLASHONLY|Rotation=225.000|XOffset=0mil|YOffset=0mil|HoleType=Round|Shape=Rectangle|*
%AMROTATEDRECTD49*
4,1,4,0.01949,0.05568,0.05568,0.01949,-0.01949,-0.05568,-0.05568,-0.01949,0.01949,0.05568,0.0*
%
%ADD49ROTATEDRECTD49*%

G04:AMPARAMS|DCode=50|XSize=32.68mil|YSize=24.61mil|CornerRadius=0mil|HoleSize=0mil|Usage=FLASHONLY|Rotation=315.000|XOffset=0mil|YOffset=0mil|HoleType=Round|Shape=Rectangle|*
%AMROTATEDRECTD50*
4,1,4,-0.02025,0.00285,-0.00285,0.02025,0.02025,-0.00285,0.00285,-0.02025,-0.02025,0.00285,0.0*
%
%ADD50ROTATEDRECTD50*%

%ADD51R,0.07874X0.04331*%
%ADD52R,0.03150X0.03150*%
%ADD53R,0.02362X0.01968*%
%ADD54R,0.02362X0.01575*%
%ADD55R,0.04724X0.04724*%
G04:AMPARAMS|DCode=56|XSize=55.12mil|YSize=51.18mil|CornerRadius=0mil|HoleSize=0mil|Usage=FLASHONLY|Rotation=135.000|XOffset=0mil|YOffset=0mil|HoleType=Round|Shape=Rectangle|*
%AMROTATEDRECTD56*
4,1,4,0.03758,-0.00139,0.00139,-0.03758,-0.03758,0.00139,-0.00139,0.03758,0.03758,-0.00139,0.0*
%
%ADD56ROTATEDRECTD56*%

%ADD57R,0.04724X0.04724*%
G04:AMPARAMS|DCode=58|XSize=55.12mil|YSize=82.68mil|CornerRadius=13.78mil|HoleSize=0mil|Usage=FLASHONLY|Rotation=90.000|XOffset=0mil|YOffset=0mil|HoleType=Round|Shape=RoundedRectangle|*
%AMROUNDEDRECTD58*
21,1,0.05512,0.05512,0,0,90.0*
21,1,0.02756,0.08268,0,0,90.0*
1,1,0.02756,0.02756,0.01378*
1,1,0.02756,0.02756,-0.01378*
1,1,0.02756,-0.02756,-0.01378*
1,1,0.02756,-0.02756,0.01378*
%
%ADD58ROUNDEDRECTD58*%
%ADD59O,0.04961X0.01417*%
%ADD60R,0.05236X0.05236*%
%ADD61R,0.03543X0.07874*%
%ADD62R,0.07874X0.03543*%
%ADD63R,0.01968X0.03150*%
%ADD64R,0.05118X0.05512*%
G04:AMPARAMS|DCode=65|XSize=228.35mil|YSize=303.15mil|CornerRadius=2.28mil|HoleSize=0mil|Usage=FLASHONLY|Rotation=270.000|XOffset=0mil|YOffset=0mil|HoleType=Round|Shape=RoundedRectangle|*
%AMROUNDEDRECTD65*
21,1,0.22835,0.29858,0,0,270.0*
21,1,0.22378,0.30315,0,0,270.0*
1,1,0.00457,-0.14929,-0.11189*
1,1,0.00457,-0.14929,0.11189*
1,1,0.00457,0.14929,0.11189*
1,1,0.00457,0.14929,-0.11189*
%
%ADD65ROUNDEDRECTD65*%
G04:AMPARAMS|DCode=66|XSize=39.37mil|YSize=137.8mil|CornerRadius=1.97mil|HoleSize=0mil|Usage=FLASHONLY|Rotation=270.000|XOffset=0mil|YOffset=0mil|HoleType=Round|Shape=RoundedRectangle|*
%AMROUNDEDRECTD66*
21,1,0.03937,0.13386,0,0,270.0*
21,1,0.03543,0.13780,0,0,270.0*
1,1,0.00394,-0.06693,-0.01772*
1,1,0.00394,-0.06693,0.01772*
1,1,0.00394,0.06693,0.01772*
1,1,0.00394,0.06693,-0.01772*
%
%ADD66ROUNDEDRECTD66*%
%ADD67R,0.05512X0.05118*%
%ADD68O,0.06299X0.01772*%
%ADD69R,0.32284X0.42323*%
%ADD70R,0.16339X0.04331*%
G04:AMPARAMS|DCode=71|XSize=51.58mil|YSize=24.41mil|CornerRadius=3.05mil|HoleSize=0mil|Usage=FLASHONLY|Rotation=315.000|XOffset=0mil|YOffset=0mil|HoleType=Round|Shape=RoundedRectangle|*
%AMROUNDEDRECTD71*
21,1,0.05158,0.01831,0,0,315.0*
21,1,0.04547,0.02441,0,0,315.0*
1,1,0.00610,0.00960,-0.02255*
1,1,0.00610,-0.02255,0.00960*
1,1,0.00610,-0.00960,0.02255*
1,1,0.00610,0.02255,-0.00960*
%
%ADD71ROUNDEDRECTD71*%
G04:AMPARAMS|DCode=72|XSize=15.75mil|YSize=11.81mil|CornerRadius=0mil|HoleSize=0mil|Usage=FLASHONLY|Rotation=225.000|XOffset=0mil|YOffset=0mil|HoleType=Round|Shape=Rectangle|*
%AMROTATEDRECTD72*
4,1,4,0.00139,0.00974,0.00974,0.00139,-0.00139,-0.00974,-0.00974,-0.00139,0.00139,0.00974,0.0*
%
%ADD72ROTATEDRECTD72*%

G04:AMPARAMS|DCode=73|XSize=15.75mil|YSize=11.81mil|CornerRadius=0mil|HoleSize=0mil|Usage=FLASHONLY|Rotation=135.000|XOffset=0mil|YOffset=0mil|HoleType=Round|Shape=Rectangle|*
%AMROTATEDRECTD73*
4,1,4,0.00974,-0.00139,0.00139,-0.00974,-0.00974,0.00139,-0.00139,0.00974,0.00974,-0.00139,0.0*
%
%ADD73ROTATEDRECTD73*%

G04:AMPARAMS|DCode=74|XSize=118.11mil|YSize=165.35mil|CornerRadius=1.77mil|HoleSize=0mil|Usage=FLASHONLY|Rotation=225.000|XOffset=0mil|YOffset=0mil|HoleType=Round|Shape=RoundedRectangle|*
%AMROUNDEDRECTD74*
21,1,0.11811,0.16181,0,0,225.0*
21,1,0.11457,0.16535,0,0,225.0*
1,1,0.00354,-0.09771,0.01670*
1,1,0.00354,-0.01670,0.09771*
1,1,0.00354,0.09771,-0.01670*
1,1,0.00354,0.01670,-0.09771*
%
%ADD74ROUNDEDRECTD74*%
G04:AMPARAMS|DCode=75|XSize=15.75mil|YSize=47.24mil|CornerRadius=1.97mil|HoleSize=0mil|Usage=FLASHONLY|Rotation=315.000|XOffset=0mil|YOffset=0mil|HoleType=Round|Shape=RoundedRectangle|*
%AMROUNDEDRECTD75*
21,1,0.01575,0.04331,0,0,315.0*
21,1,0.01181,0.04724,0,0,315.0*
1,1,0.00394,-0.01114,-0.01949*
1,1,0.00394,-0.01949,-0.01114*
1,1,0.00394,0.01114,0.01949*
1,1,0.00394,0.01949,0.01114*
%
%ADD75ROUNDEDRECTD75*%
%ADD76R,0.16535X0.08661*%
%ADD77R,0.05512X0.01772*%
%ADD78R,0.06299X0.12205*%
%ADD79R,0.05118X0.10630*%
G04:AMPARAMS|DCode=80|XSize=17.72mil|YSize=55.12mil|CornerRadius=0mil|HoleSize=0mil|Usage=FLASHONLY|Rotation=135.000|XOffset=0mil|YOffset=0mil|HoleType=Round|Shape=Rectangle|*
%AMROTATEDRECTD80*
4,1,4,0.02575,0.01322,-0.01322,-0.02575,-0.02575,-0.01322,0.01322,0.02575,0.02575,0.01322,0.0*
%
%ADD80ROTATEDRECTD80*%

G04:AMPARAMS|DCode=81|XSize=122.05mil|YSize=62.99mil|CornerRadius=0mil|HoleSize=0mil|Usage=FLASHONLY|Rotation=315.000|XOffset=0mil|YOffset=0mil|HoleType=Round|Shape=Rectangle|*
%AMROTATEDRECTD81*
4,1,4,-0.06542,0.02088,-0.02088,0.06542,0.06542,-0.02088,0.02088,-0.06542,-0.06542,0.02088,0.0*
%
%ADD81ROTATEDRECTD81*%

%ADD82R,0.12205X0.06299*%
%ADD83R,0.01772X0.05512*%
%ADD84R,0.11024X0.06299*%
%ADD85R,0.19685X0.12205*%
%ADD86R,0.07087X0.05118*%
%ADD87O,0.05709X0.02362*%
G04:AMPARAMS|DCode=88|XSize=143.7mil|YSize=62.99mil|CornerRadius=0mil|HoleSize=0mil|Usage=FLASHONLY|Rotation=315.000|XOffset=0mil|YOffset=0mil|HoleType=Round|Shape=Rectangle|*
%AMROTATEDRECTD88*
4,1,4,-0.07308,0.02854,-0.02854,0.07308,0.07308,-0.02854,0.02854,-0.07308,-0.07308,0.02854,0.0*
%
%ADD88ROTATEDRECTD88*%

G04:AMPARAMS|DCode=89|XSize=70.87mil|YSize=51.18mil|CornerRadius=0mil|HoleSize=0mil|Usage=FLASHONLY|Rotation=45.000|XOffset=0mil|YOffset=0mil|HoleType=Round|Shape=Rectangle|*
%AMROTATEDRECTD89*
4,1,4,-0.00696,-0.04315,-0.04315,-0.00696,0.00696,0.04315,0.04315,0.00696,-0.00696,-0.04315,0.0*
%
%ADD89ROTATEDRECTD89*%

G04:AMPARAMS|DCode=90|XSize=19.68mil|YSize=53.15mil|CornerRadius=0mil|HoleSize=0mil|Usage=FLASHONLY|Rotation=315.000|XOffset=0mil|YOffset=0mil|HoleType=Round|Shape=Round|*
%AMOVALD90*
21,1,0.03347,0.01968,0.00000,0.00000,45.0*
1,1,0.01968,-0.01183,-0.01183*
1,1,0.01968,0.01183,0.01183*
%
%ADD90OVALD90*%

%ADD91R,0.06299X0.11024*%
%ADD92R,0.03740X0.02362*%
%ADD93R,0.05118X0.07087*%
%ADD94R,0.02756X0.03543*%
%ADD95R,0.04331X0.16339*%
%ADD96R,0.42323X0.32284*%
%ADD97R,0.12598X0.06299*%
%ADD98R,0.17913X0.09055*%
G36*
X663456Y258790D02*
X660116Y255449D01*
X655801Y259764D01*
X659141Y263105D01*
X663456Y258790D01*
D02*
G37*
G36*
X656190Y255171D02*
X653100Y252081D01*
X650873Y254308D01*
X653963Y257398D01*
X656190Y255171D01*
D02*
G37*
G36*
X668328Y253918D02*
X664987Y250577D01*
X660672Y254892D01*
X664013Y258233D01*
X668328Y253918D01*
D02*
G37*
G36*
X659837Y251524D02*
X656747Y248434D01*
X654520Y250661D01*
X657610Y253751D01*
X659837Y251524D01*
D02*
G37*
G36*
X652543Y251524D02*
X649453Y248434D01*
X647226Y250661D01*
X650316Y253751D01*
X652543Y251524D01*
D02*
G37*
G36*
X662886Y248476D02*
X659796Y245385D01*
X658403Y246777D01*
X661494Y249868D01*
X662886Y248476D01*
D02*
G37*
G36*
X656190Y247877D02*
X653100Y244787D01*
X650873Y247014D01*
X653963Y250104D01*
X656190Y247877D01*
D02*
G37*
G36*
X659239Y244829D02*
X656149Y241739D01*
X654757Y243130D01*
X657847Y246221D01*
X659239Y244829D01*
D02*
G37*
D23*
X482116Y212217D02*
D03*
X476827Y206928D02*
D03*
X488798Y205536D02*
D03*
X483508Y200246D02*
D03*
X479225Y452442D02*
D03*
X473936Y447153D02*
D03*
X485907Y445761D02*
D03*
X480617Y440471D02*
D03*
D24*
X479471Y209572D02*
D03*
X486153Y202891D02*
D03*
X476580Y449797D02*
D03*
X483262Y443116D02*
D03*
D25*
X627559Y266929D02*
D03*
Y274409D02*
D03*
X618110Y266929D02*
D03*
Y274409D02*
D03*
D26*
X627559Y270669D02*
D03*
X618110D02*
D03*
D27*
X232185Y63779D02*
D03*
X219783D02*
D03*
X229823Y29134D02*
D03*
X217421D02*
D03*
D28*
X751968Y305906D02*
D03*
X727559Y556693D02*
D03*
D29*
X285197Y536221D02*
D03*
Y533071D02*
D03*
Y529921D02*
D03*
X294882D02*
D03*
Y533071D02*
D03*
Y536221D02*
D03*
D30*
X290039Y533071D02*
D03*
D31*
X278346Y385236D02*
D03*
Y413976D02*
D03*
X352362Y86221D02*
D03*
Y114961D02*
D03*
X278346Y435433D02*
D03*
Y464173D02*
D03*
D32*
X371850Y505728D02*
D03*
Y510728D02*
D03*
Y515728D02*
D03*
Y520728D02*
D03*
Y525728D02*
D03*
Y530728D02*
D03*
Y535728D02*
D03*
Y540728D02*
D03*
X335236Y505728D02*
D03*
Y510728D02*
D03*
Y515728D02*
D03*
Y520728D02*
D03*
Y525728D02*
D03*
Y530728D02*
D03*
Y535728D02*
D03*
Y540728D02*
D03*
D33*
X747638Y66929D02*
D03*
X742323D02*
D03*
X422835Y224410D02*
D03*
X417520D02*
D03*
X622441Y78740D02*
D03*
X617126D02*
D03*
X277658Y31496D02*
D03*
X282972D02*
D03*
X278051Y62205D02*
D03*
X283366D02*
D03*
X741535Y33858D02*
D03*
X746850D02*
D03*
X771063Y505118D02*
D03*
X776378D02*
D03*
D34*
X734252Y48425D02*
D03*
X269291Y46457D02*
D03*
X269291Y76575D02*
D03*
X734646Y81299D02*
D03*
D35*
X730315Y54921D02*
D03*
X732283D02*
D03*
X734252Y54921D02*
D03*
X736221Y54921D02*
D03*
X738189D02*
D03*
Y41929D02*
D03*
X736221D02*
D03*
X734252D02*
D03*
X732283D02*
D03*
X730315D02*
D03*
X265354Y39961D02*
D03*
X267323D02*
D03*
X269291D02*
D03*
X271260D02*
D03*
X273228D02*
D03*
Y52953D02*
D03*
X271260D02*
D03*
X269291Y52953D02*
D03*
X267323Y52953D02*
D03*
X265354D02*
D03*
X265354Y70079D02*
D03*
X267323D02*
D03*
X269291Y70079D02*
D03*
X271260Y70079D02*
D03*
X273228D02*
D03*
Y83071D02*
D03*
X271260D02*
D03*
X269291D02*
D03*
X267323D02*
D03*
X265354D02*
D03*
X730709Y74803D02*
D03*
X732677D02*
D03*
X734646D02*
D03*
X736614Y74803D02*
D03*
X738583D02*
D03*
Y87795D02*
D03*
X736614D02*
D03*
X734646Y87795D02*
D03*
X732677D02*
D03*
X730709D02*
D03*
D36*
X256299Y42126D02*
D03*
Y47244D02*
D03*
X647638Y206737D02*
D03*
X647638Y201619D02*
D03*
X639590Y206737D02*
D03*
Y201619D02*
D03*
X443601Y557480D02*
D03*
Y552362D02*
D03*
X434546Y557480D02*
D03*
Y552362D02*
D03*
X452756Y557480D02*
D03*
Y552362D02*
D03*
X227165Y572047D02*
D03*
Y566929D02*
D03*
X218110Y580905D02*
D03*
Y575787D02*
D03*
X391732Y579744D02*
D03*
Y574626D02*
D03*
X261024Y579744D02*
D03*
Y574626D02*
D03*
X89764Y472244D02*
D03*
Y477362D02*
D03*
X344094Y39764D02*
D03*
Y34646D02*
D03*
X74803Y472244D02*
D03*
Y477362D02*
D03*
X256299Y80118D02*
D03*
Y75000D02*
D03*
X369685Y250000D02*
D03*
Y244882D02*
D03*
X348819Y354331D02*
D03*
Y349213D02*
D03*
X721654Y53543D02*
D03*
Y48425D02*
D03*
X721654Y86614D02*
D03*
Y81496D02*
D03*
X285039Y108268D02*
D03*
Y103150D02*
D03*
X358268Y199606D02*
D03*
Y194488D02*
D03*
X602756Y56496D02*
D03*
Y51378D02*
D03*
X603150Y15748D02*
D03*
Y10630D02*
D03*
X293465Y518307D02*
D03*
Y523425D02*
D03*
X285984Y518307D02*
D03*
Y523425D02*
D03*
D37*
X608268Y272047D02*
D03*
Y266732D02*
D03*
X433465Y450000D02*
D03*
Y444685D02*
D03*
X434252Y213976D02*
D03*
Y208661D02*
D03*
X631542Y206324D02*
D03*
Y201009D02*
D03*
X384252Y574016D02*
D03*
Y579331D02*
D03*
X268898Y574016D02*
D03*
Y579331D02*
D03*
X385039Y540748D02*
D03*
Y535433D02*
D03*
X257480Y538484D02*
D03*
Y533169D02*
D03*
X265354Y511221D02*
D03*
Y505905D02*
D03*
X64961Y554331D02*
D03*
Y559646D02*
D03*
X81496Y554331D02*
D03*
Y559646D02*
D03*
X73622Y554331D02*
D03*
Y559646D02*
D03*
X303937Y36713D02*
D03*
Y42028D02*
D03*
X82284Y472146D02*
D03*
Y477461D02*
D03*
X283071Y46654D02*
D03*
Y41339D02*
D03*
X284252Y76968D02*
D03*
Y71653D02*
D03*
X746850Y48228D02*
D03*
Y42913D02*
D03*
X747638Y81102D02*
D03*
Y75787D02*
D03*
X737008Y151181D02*
D03*
Y156496D02*
D03*
Y126279D02*
D03*
Y120965D02*
D03*
X259842Y111811D02*
D03*
Y106496D02*
D03*
X331890Y203346D02*
D03*
Y198031D02*
D03*
X576772Y60138D02*
D03*
Y54823D02*
D03*
X577165Y18898D02*
D03*
Y13583D02*
D03*
X304095Y533071D02*
D03*
Y527756D02*
D03*
X311575Y533071D02*
D03*
Y527756D02*
D03*
D38*
X487974Y455727D02*
D03*
X491732Y451968D02*
D03*
X455113Y259825D02*
D03*
X451354Y263583D02*
D03*
X460540Y265050D02*
D03*
X456782Y268808D02*
D03*
X449475Y254327D02*
D03*
X445717Y258085D02*
D03*
X473228Y245276D02*
D03*
X469470Y249034D02*
D03*
X643003Y271564D02*
D03*
X646761Y267806D02*
D03*
X648210Y276593D02*
D03*
X651968Y272835D02*
D03*
X343916Y176950D02*
D03*
X340158Y180709D02*
D03*
X338493Y172137D02*
D03*
X334735Y175895D02*
D03*
X129080Y358786D02*
D03*
X125322Y362544D02*
D03*
X57369Y283979D02*
D03*
X61127Y280221D02*
D03*
X106558Y230471D02*
D03*
X102800Y234229D02*
D03*
D39*
X502991Y436773D02*
D03*
X499372Y440392D02*
D03*
X493625Y434721D02*
D03*
X497244Y431102D02*
D03*
X462129Y402044D02*
D03*
X465748Y398425D02*
D03*
X465589Y270631D02*
D03*
X461970Y274251D02*
D03*
X155805Y389409D02*
D03*
X159424Y385790D02*
D03*
D40*
X497333Y189853D02*
D03*
X501092Y193611D02*
D03*
X445289Y456706D02*
D03*
X449048Y460465D02*
D03*
X494118Y415740D02*
D03*
X497876Y419498D02*
D03*
X483881Y426370D02*
D03*
X487640Y430128D02*
D03*
X489171Y421080D02*
D03*
X492929Y424839D02*
D03*
X675769Y265927D02*
D03*
X679528Y269685D02*
D03*
X678561Y247459D02*
D03*
X674803Y243701D02*
D03*
X472137Y404814D02*
D03*
X475895Y408572D02*
D03*
D41*
X492277Y195096D02*
D03*
X495896Y198715D02*
D03*
X440082Y461735D02*
D03*
X443701Y465354D02*
D03*
X454724Y455905D02*
D03*
X458344Y459525D02*
D03*
X460236Y450787D02*
D03*
X463855Y454406D02*
D03*
X499769Y410367D02*
D03*
X503388Y413986D02*
D03*
X482125Y243542D02*
D03*
X478505Y239923D02*
D03*
X441104Y263938D02*
D03*
X444723Y267558D02*
D03*
X469844Y219057D02*
D03*
X473463Y222676D02*
D03*
X430709Y233465D02*
D03*
X434328Y237084D02*
D03*
X428740Y241732D02*
D03*
X432359Y245351D02*
D03*
X681046Y260574D02*
D03*
X684665Y264193D02*
D03*
X669844Y270631D02*
D03*
X673463Y274251D02*
D03*
X664567Y275590D02*
D03*
X668186Y279210D02*
D03*
D42*
X420079Y444685D02*
D03*
Y461614D02*
D03*
D43*
X457968Y424383D02*
D03*
D44*
X457759Y408307D02*
D03*
X459569Y410116D02*
D03*
X461378Y411926D02*
D03*
X463188Y413735D02*
D03*
X464997Y415545D02*
D03*
X466807Y417354D02*
D03*
X468617Y419164D02*
D03*
X470426Y420973D02*
D03*
X472236Y422783D02*
D03*
X474045Y424592D02*
D03*
X441891Y424175D02*
D03*
X443701Y425984D02*
D03*
X445510Y427794D02*
D03*
X447320Y429603D02*
D03*
X449129Y431413D02*
D03*
X450939Y433222D02*
D03*
X452748Y435032D02*
D03*
X454558Y436841D02*
D03*
X456367Y438651D02*
D03*
X458177Y440460D02*
D03*
D45*
X490676Y384964D02*
D03*
X469519Y363806D02*
D03*
D46*
X312205Y487008D02*
D03*
X307087D02*
D03*
X307283Y479528D02*
D03*
X312402D02*
D03*
X477953Y107087D02*
D03*
X483071D02*
D03*
X478150Y99606D02*
D03*
X483268D02*
D03*
X271457Y536221D02*
D03*
X276575D02*
D03*
X289764Y549606D02*
D03*
X294882D02*
D03*
X200394Y527953D02*
D03*
X205512D02*
D03*
X205315Y535433D02*
D03*
X200197D02*
D03*
X62598Y534252D02*
D03*
X67716D02*
D03*
X62598Y524803D02*
D03*
X67716D02*
D03*
X62598Y515354D02*
D03*
X67716D02*
D03*
X687795Y469291D02*
D03*
X682677D02*
D03*
X619685Y119685D02*
D03*
X624803D02*
D03*
X209449Y165354D02*
D03*
X214567D02*
D03*
X766142Y116929D02*
D03*
X771260D02*
D03*
X764173Y146850D02*
D03*
X769291D02*
D03*
X302559Y220866D02*
D03*
X297441D02*
D03*
X771457Y497638D02*
D03*
X776575D02*
D03*
X771260Y512598D02*
D03*
X776378D02*
D03*
X624803Y508661D02*
D03*
X629921D02*
D03*
X771654Y490158D02*
D03*
X776772D02*
D03*
D47*
X503731Y263417D02*
D03*
X482573Y284575D02*
D03*
D48*
X407283Y211024D02*
D03*
X390354D02*
D03*
D49*
X494921Y235394D02*
D03*
X502716Y227599D02*
D03*
D50*
X680368Y237848D02*
D03*
X686562Y244042D02*
D03*
D51*
X688976Y207480D02*
D03*
D52*
X681496D02*
D03*
D53*
X451968Y580709D02*
D03*
Y575591D02*
D03*
X459055D02*
D03*
Y580709D02*
D03*
X430315D02*
D03*
Y575591D02*
D03*
X437402D02*
D03*
Y580709D02*
D03*
D54*
X451968Y578150D02*
D03*
X459055D02*
D03*
X430315D02*
D03*
X437402D02*
D03*
D55*
X434646Y543898D02*
D03*
Y535630D02*
D03*
X443701Y543898D02*
D03*
Y535630D02*
D03*
X452856Y543898D02*
D03*
Y535630D02*
D03*
D56*
X667975Y225062D02*
D03*
X663521Y220607D02*
D03*
X656828Y226907D02*
D03*
X661282Y231361D02*
D03*
D57*
X210433Y566929D02*
D03*
X218701D02*
D03*
X209646Y575984D02*
D03*
X201378D02*
D03*
X46260Y524803D02*
D03*
X54528D02*
D03*
Y534252D02*
D03*
X46260D02*
D03*
Y515354D02*
D03*
X54528D02*
D03*
D58*
X316339Y585039D02*
D03*
Y567323D02*
D03*
X280512D02*
D03*
Y585039D02*
D03*
X372835D02*
D03*
Y567323D02*
D03*
X337008D02*
D03*
Y585039D02*
D03*
D59*
X224803Y538386D02*
D03*
Y535827D02*
D03*
Y533268D02*
D03*
Y530709D02*
D03*
Y528149D02*
D03*
Y525590D02*
D03*
Y523031D02*
D03*
X247638Y538386D02*
D03*
Y535827D02*
D03*
Y533268D02*
D03*
Y530709D02*
D03*
Y528149D02*
D03*
Y525590D02*
D03*
Y523031D02*
D03*
X225197Y511221D02*
D03*
Y508661D02*
D03*
Y506102D02*
D03*
Y503543D02*
D03*
Y500984D02*
D03*
Y498425D02*
D03*
Y495866D02*
D03*
X248031Y511221D02*
D03*
Y508661D02*
D03*
Y506102D02*
D03*
Y503543D02*
D03*
Y500984D02*
D03*
Y498425D02*
D03*
Y495866D02*
D03*
D60*
X133209Y522697D02*
D03*
X125984D02*
D03*
X118760D02*
D03*
X133209Y529921D02*
D03*
X125984D02*
D03*
X118760D02*
D03*
X133209Y537146D02*
D03*
X125984D02*
D03*
X118760D02*
D03*
D61*
X152421Y490512D02*
D03*
X147421D02*
D03*
X142421D02*
D03*
X137421D02*
D03*
X132421D02*
D03*
X127421D02*
D03*
X122421D02*
D03*
X117421D02*
D03*
X112421D02*
D03*
X107421D02*
D03*
D62*
X163386Y559449D02*
D03*
Y554449D02*
D03*
Y549449D02*
D03*
Y544449D02*
D03*
Y539449D02*
D03*
Y534449D02*
D03*
Y529449D02*
D03*
Y524449D02*
D03*
Y519449D02*
D03*
Y514449D02*
D03*
Y509449D02*
D03*
Y504449D02*
D03*
Y499449D02*
D03*
Y494449D02*
D03*
X96457D02*
D03*
Y499449D02*
D03*
Y504449D02*
D03*
Y509449D02*
D03*
Y514449D02*
D03*
Y519449D02*
D03*
Y524449D02*
D03*
Y529449D02*
D03*
Y534449D02*
D03*
Y539449D02*
D03*
Y544449D02*
D03*
Y549449D02*
D03*
Y554449D02*
D03*
Y559449D02*
D03*
D63*
X55905Y561319D02*
D03*
Y554232D02*
D03*
D64*
X16142Y496063D02*
D03*
X22441D02*
D03*
X764567Y126772D02*
D03*
X770866D02*
D03*
X764173Y155512D02*
D03*
X770472D02*
D03*
X594095Y72835D02*
D03*
X587795D02*
D03*
X593307Y31890D02*
D03*
X587008D02*
D03*
D65*
X20079Y463779D02*
D03*
D66*
X59449Y477165D02*
D03*
Y470472D02*
D03*
Y463779D02*
D03*
Y457087D02*
D03*
Y450394D02*
D03*
D67*
X77953Y456693D02*
D03*
Y450394D02*
D03*
X291339Y47244D02*
D03*
Y40945D02*
D03*
X247244Y48425D02*
D03*
Y42126D02*
D03*
X248031Y80709D02*
D03*
Y74410D02*
D03*
X292520Y77559D02*
D03*
Y71260D02*
D03*
X755118Y48819D02*
D03*
Y42520D02*
D03*
X713386Y54134D02*
D03*
Y47835D02*
D03*
X713386Y87008D02*
D03*
Y80709D02*
D03*
X755905Y81496D02*
D03*
Y75197D02*
D03*
X293701Y112205D02*
D03*
Y105905D02*
D03*
X366929Y203543D02*
D03*
Y197244D02*
D03*
D68*
X758465Y477854D02*
D03*
Y475295D02*
D03*
Y472736D02*
D03*
Y470177D02*
D03*
X775394Y477854D02*
D03*
Y475295D02*
D03*
Y472736D02*
D03*
Y470177D02*
D03*
D69*
X684842Y495591D02*
D03*
X390158Y322441D02*
D03*
Y276772D02*
D03*
D70*
X643701Y486614D02*
D03*
Y504567D02*
D03*
X349016Y313465D02*
D03*
Y331417D02*
D03*
X349016Y267795D02*
D03*
Y285748D02*
D03*
D71*
X319728Y172004D02*
D03*
X316193Y168469D02*
D03*
X312657Y164933D02*
D03*
X309121Y161398D02*
D03*
X305586Y157862D02*
D03*
X302050Y154327D02*
D03*
X298515Y150791D02*
D03*
X294979Y147256D02*
D03*
X310291Y131944D02*
D03*
X313826Y135480D02*
D03*
X317362Y139015D02*
D03*
X320897Y142551D02*
D03*
X324433Y146086D02*
D03*
X327968Y149622D02*
D03*
X331504Y153157D02*
D03*
X335039Y156693D02*
D03*
D72*
X661299Y265123D02*
D03*
X663108Y263314D02*
D03*
X664918Y261504D02*
D03*
X666727Y259695D02*
D03*
X668537Y257885D02*
D03*
X670346Y256076D02*
D03*
X654200Y239929D02*
D03*
X652390Y241739D02*
D03*
X650581Y243548D02*
D03*
X648771Y245358D02*
D03*
X646962Y247167D02*
D03*
X645152Y248977D02*
D03*
D73*
X670764Y252178D02*
D03*
X668954Y250369D02*
D03*
X667145Y248559D02*
D03*
X665335Y246749D02*
D03*
X663526Y244940D02*
D03*
X661716Y243130D02*
D03*
X659907Y241321D02*
D03*
X658097Y239511D02*
D03*
X644735Y252874D02*
D03*
X646544Y254684D02*
D03*
X648354Y256493D02*
D03*
X650163Y258303D02*
D03*
X651973Y260112D02*
D03*
X653782Y261922D02*
D03*
X655592Y263731D02*
D03*
X657401Y265541D02*
D03*
D74*
X451036Y228455D02*
D03*
D75*
X467113Y228247D02*
D03*
X465304Y230056D02*
D03*
X463494Y231866D02*
D03*
X461685Y233675D02*
D03*
X459875Y235485D02*
D03*
X458066Y237294D02*
D03*
X456256Y239104D02*
D03*
X454447Y240914D02*
D03*
X452637Y242723D02*
D03*
X450828Y244532D02*
D03*
X451245Y212379D02*
D03*
X449436Y214188D02*
D03*
X447626Y215998D02*
D03*
X445817Y217807D02*
D03*
X444007Y219617D02*
D03*
X442198Y221426D02*
D03*
X440388Y223236D02*
D03*
X438579Y225045D02*
D03*
X436769Y226855D02*
D03*
X434960Y228664D02*
D03*
D76*
X369685Y46457D02*
D03*
X398425Y46457D02*
D03*
X589370Y169685D02*
D03*
X560630Y169685D02*
D03*
X611417Y169685D02*
D03*
X640158Y169685D02*
D03*
D77*
X336024Y37106D02*
D03*
Y39665D02*
D03*
Y42224D02*
D03*
Y44783D02*
D03*
X312795Y37106D02*
D03*
Y39665D02*
D03*
Y42224D02*
D03*
Y44783D02*
D03*
D78*
X337205Y57874D02*
D03*
X311614D02*
D03*
D79*
X440551Y387008D02*
D03*
X429528D02*
D03*
D80*
X151699Y381544D02*
D03*
X149890Y383354D02*
D03*
X148080Y385164D02*
D03*
X146270Y386973D02*
D03*
X135274Y365120D02*
D03*
X133465Y366929D02*
D03*
X131655Y368739D02*
D03*
X129845Y370548D02*
D03*
D81*
X137571Y397343D02*
D03*
X119475Y379248D02*
D03*
D82*
X601575Y112402D02*
D03*
Y86811D02*
D03*
D83*
X622342Y111221D02*
D03*
X619783D02*
D03*
X617224D02*
D03*
X614665D02*
D03*
X622342Y87992D02*
D03*
X619783D02*
D03*
X617224D02*
D03*
X614665D02*
D03*
D84*
X592126Y138976D02*
D03*
X575197D02*
D03*
X608661D02*
D03*
X625591D02*
D03*
D85*
X601575Y198031D02*
D03*
Y253937D02*
D03*
D86*
X379134Y249016D02*
D03*
Y237598D02*
D03*
X428346Y352559D02*
D03*
Y363976D02*
D03*
D87*
X412303Y350768D02*
D03*
Y355768D02*
D03*
Y360768D02*
D03*
Y365768D02*
D03*
X390846Y350768D02*
D03*
X390846Y355768D02*
D03*
Y360768D02*
D03*
X390846Y365768D02*
D03*
X397539Y248839D02*
D03*
Y243839D02*
D03*
Y238839D02*
D03*
Y233839D02*
D03*
X418996Y248839D02*
D03*
Y243839D02*
D03*
Y238839D02*
D03*
Y233839D02*
D03*
D88*
X51592Y247162D02*
D03*
X69270Y264840D02*
D03*
X97719Y196578D02*
D03*
X115397Y214255D02*
D03*
D89*
X67391Y286763D02*
D03*
X59318Y294836D02*
D03*
X113657Y237292D02*
D03*
X105583Y245365D02*
D03*
D90*
X38856Y265049D02*
D03*
X40666Y263239D02*
D03*
X42475Y261430D02*
D03*
X44285Y259620D02*
D03*
X51245Y277437D02*
D03*
X53054Y275627D02*
D03*
X54864Y273818D02*
D03*
X56673Y272008D02*
D03*
X84008Y215021D02*
D03*
X85818Y213211D02*
D03*
X87627Y211402D02*
D03*
X89437Y209592D02*
D03*
X96397Y227409D02*
D03*
X98206Y225599D02*
D03*
X100016Y223790D02*
D03*
X101825Y221980D02*
D03*
D91*
X721260Y162992D02*
D03*
Y146063D02*
D03*
Y114764D02*
D03*
Y131693D02*
D03*
X244094Y101575D02*
D03*
Y118504D02*
D03*
X316142Y192520D02*
D03*
Y209449D02*
D03*
X561024Y60630D02*
D03*
Y43701D02*
D03*
X560630Y8268D02*
D03*
Y25197D02*
D03*
D92*
X754429Y126575D02*
D03*
Y122835D02*
D03*
Y119095D02*
D03*
X743996D02*
D03*
Y122835D02*
D03*
Y126575D02*
D03*
X755217Y150591D02*
D03*
Y146850D02*
D03*
Y143110D02*
D03*
X744783D02*
D03*
Y146850D02*
D03*
Y150591D02*
D03*
X277658Y112008D02*
D03*
Y108268D02*
D03*
Y104528D02*
D03*
X267224D02*
D03*
Y108268D02*
D03*
Y112008D02*
D03*
X350098Y203346D02*
D03*
Y199606D02*
D03*
Y195866D02*
D03*
X339665D02*
D03*
Y199606D02*
D03*
Y203346D02*
D03*
X595669Y60236D02*
D03*
Y56496D02*
D03*
Y52756D02*
D03*
X585236D02*
D03*
Y56496D02*
D03*
Y60236D02*
D03*
X595079Y19291D02*
D03*
Y15551D02*
D03*
Y11811D02*
D03*
X584646D02*
D03*
Y15551D02*
D03*
Y19291D02*
D03*
D93*
X745079Y487795D02*
D03*
X756496D02*
D03*
X726378Y351181D02*
D03*
X714961D02*
D03*
X737992D02*
D03*
X749409D02*
D03*
D94*
X624803Y516339D02*
D03*
X622244Y523819D02*
D03*
X627362D02*
D03*
X753150Y523425D02*
D03*
X755709Y515945D02*
D03*
X750591D02*
D03*
X753150Y501575D02*
D03*
X750591Y509055D02*
D03*
X755709D02*
D03*
D95*
X665276Y462402D02*
D03*
X647323D02*
D03*
D96*
X656299Y421260D02*
D03*
D97*
X723228Y374016D02*
D03*
X703543D02*
D03*
X741339D02*
D03*
X761024D02*
D03*
D98*
X720079Y409449D02*
D03*
X690158D02*
D03*
X744488D02*
D03*
X774409D02*
D03*
X720079Y447638D02*
D03*
X690158D02*
D03*
X744488D02*
D03*
X774409Y447638D02*
D03*
M02*
