M48
;Layer_Color=9474304
;FILE_FORMAT=2:4
INCH,TZ
;TYPE=PLATED
T1F00S00C0.0079
T2F00S00C0.0128
T3F00S00C0.0177
T4F00S00C0.0197
T6F00S00C0.0354
T7F00S00C0.0394
T8F00S00C0.0421
T9F00S00C0.0500
T10F00S00C0.0531
T11F00S00C0.0787
T12F00S00C0.1043
T13F00S00C0.1500
T14F00S00C0.1600
T15F00S00C0.2000
;TYPE=NON_PLATED
T16F00S00C0.0472
%
T01
X45243Y22150
X45521Y22428
Y22985
X45243Y22706
X44964Y22428
X44686Y22706
X44964Y22985
X45243Y23263
X44964Y23542
X44686Y23263
X44408Y22985
X45800Y22706
X45658Y41742
X45379Y42021
X45101Y42299
X45379Y42578
X45658Y42856
X45936Y42578
X45658Y42299
X45936Y42021
X46214Y42299
Y42856
X45936Y43134
X46493Y42578
T02
X65242Y24775
X65465Y24998
X65687Y25221
X65242
X65465Y25443
X66206Y25461
X65984Y25684
X66206Y25907
X65984Y26130
X65761Y25907
X66429Y25684
Y25239
X66652Y25461
X66105Y24803
X65882Y24580
X65659Y24358
X65019Y24998
T03
X27087Y18346
Y18839
Y19311
Y19744
Y20177
X27638Y20177
Y19744
Y20610
Y21083
X27087
X27638Y18839
Y18346
Y21575
X27087
T04
X3130Y945
X4114
X5098
X4606Y1929
X3622
X2638
X3130Y2913
X4114
X4606Y3898
X3622
X2638
X1654
X2146Y4882
X3130
X4114
X5098
X1161
Y2913
X2146
X6083Y4882
X7067
X8051
X9035
X10020
X10512Y3898
X9528
X8543
X9035Y2913
X10020
X10512Y1929
X9528
X8543
X9035Y945
X10020
X11850Y827
X12835
X13819
X14803
X15787
X16772
X17264Y1811
X16280
X15295
X15787Y2795
X16772
X17756
X18740
X19724
X21201Y1811
X20709Y4764
X16772
X15787
X14803
X13819
X12835
X11850
X15295Y3780
X16280
X14803Y2795
X8051Y945
X6083
X21693Y827
X22677
X23661
X24646
X25630
X26122Y1811
X25138
X24154
X23169
X22185
X22677Y2795
X23661
X24646
X25630
X26614
X27283Y3543
X28091Y1811
X29075
X30059
X31043
X31535Y2795
X30551
X29567
Y827
X30551
X31535
X33012Y1811
X33996
X34488Y2795
X35472
X34921Y3976
X33012Y3780
X33504Y2795
X36949Y1811
X28583Y827
X27598
X29764Y4764
X30059Y5354
X21693Y4764
X39173Y5354
X39619Y5358
X40066Y5354
X40512
X40512Y3937
X40066Y3933
X39619Y3937
X39173
X38917Y1811
X39902
X41870
X42854
X43839
Y3780
X42854
X41870
X42362Y4764
X43346
X45315
X46299
X47283
X47776Y3780
Y1811
X48760
X49252Y2795
X50236
X46791Y1811
X41378Y4764
X37933Y1811
X52697
X53681
X54665
X57126Y827
X59685Y669
X61063Y827
X62047
X63032
X64016
X65000
X65984
X66969
X67953
X67461Y1811
X66476
X65492
X64508
X63524
X62539
Y3780
X63524
X64508
X65492
X66476
X67126Y3228
X65000Y4764
X64016
X63032
X62047
X62165Y5276
X61063Y4764
X61555Y3780
X60571
X59331Y3819
X59567Y4764
X58110
X57126
X58110Y2795
X60079
X61063
X68445Y3780
X69429
X70413
X71398
X72382
X73622Y3740
X73366Y1811
X74350
X75335
X76319
X76811Y2795
X77795
X78287Y3780
X77303
X77795Y4764
X76417Y4764
X76811Y827
X75827
X74843
X73858
X72874
X71890
X70906
X69921
X68937
X69429Y1811
X70413
X71398
X72382
X68445
X68937Y4764
X69921
X78287Y1811
Y5748
X77303
X76417Y5945
Y7126
X77303Y7717
X78287
X77795Y8701
X78287Y9685
X77303
X76319
X75335
X74350
X74843Y10669
X75827
X76811
X77795
X78287Y11654
X77795Y12638
X77402Y13386
X76870
X76339
X75512Y13781
X75433Y11339
X72717Y11476
Y11083
Y11870
X71535Y11870
Y11476
Y11083
X71890Y10669
X70906
X69921
X68937
X69429Y9685
X70413
X71398
X72382
X71890Y6732
X70906
X69921
X68937
Y8701
X68445Y9685
X70413Y7717
X73701Y7040
X74350Y5748
X75335
X77795Y6732
X78287Y13622
X77795Y14606
X78287Y15591
X77441Y16181
X76890
X76378
X76319Y17559
X77303
X78287
X77795Y18543
X76811
X75827
X76319Y19528
X77303
X78287
X77795Y20512
X76811
X75827
X75335Y19528
X72382
X71398
X70413
X69429
X68445
X68937Y18543
X69921
X70906
X71890
X72382Y17559
X71398
X70413
X69429
X68445
Y15591
X69429
X70413
X71535Y15906
Y16299
Y16693
X70906Y16575
X69921
X72717Y16693
Y16299
Y15906
X71398Y13622
X70413
X69921Y12638
X77795Y16575
X67953
X66969
X65984
X66476Y17559
X65492
X64685Y17677
X64239
X63793Y17681
X63346Y17677
X63346Y16260
X63793
X64239Y16256
X64685Y16260
X64508Y15591
X65492
X65984Y14606
X65000
X64016
X62953Y14488
X62559
X62165
X61401Y14566
X60417
X59433
X58448
X57913Y14488
X57520
X57126
X56142Y14606
X56634Y15591
X56732Y16260
X56286Y16256
X55840Y16260
X55394
X55650Y15591
X55840Y17681
X55394Y17677
X56286
X56732
X56142Y18543
X57464Y18503
X58448
X59433
X60417
X61401
X62385
X61893Y19487
X62385Y20471
X61401
X63150Y21220
X63524Y19528
X64508
X65492
X65984Y18543
X65000
X64016
X63524Y15591
X61893Y15550
X60909
X59925
X58941
X57956
X57464Y16534
X57520Y13307
X57913
X57126
X56634Y13622
X56142Y12638
X56634Y11654
X55650
Y9685
X56142Y8701
X57126
X57618Y9685
X58602
X59587
X60571
X61063Y10669
X63032
X64016
X65000
X65492Y11654
X64508
X63524
X64016Y12638
X63032
X62953Y13307
X62559
X62165
X61968Y12480
X61401Y12597
X60417
X59433
X58448
X58941Y11613
X57126Y10669
X54173
X53681Y9685
X52697
X53189Y8701
X54173
X53681Y7717
X54173Y6732
X55157
X55650Y7717
X57618
X58110Y6732
X60413Y6850
X61398
X62382
X63366
X62874Y7835
X64508Y7717
X65492
X66476
X66969Y6732
X67953
X67461Y9685
X66476
X66969Y10669
X67953
X67461Y13622
X66476
X65492
X64508
X63524
X65984Y12638
X65000Y8701
X63524Y9685
X62539
X60906Y7835
X53681Y5748
Y13622
X53189Y14606
X52717Y12677
X53681Y17559
Y19528
X52717Y19921
X55650Y19528
X56142Y20512
X57464Y20471
X58448
X57956Y19487
X62385Y16534
X67953Y18543
X50533Y18937
X50728Y19528
X51220Y20512
X50236
X48303Y20671
X47283Y20512
X47402Y21102
X46791Y19528
X45807
X44823
X43839
X44331Y20512
X45315
Y18543
X46299
X46791Y17559
X45807
X44823
X43839
X42854
X41870
X40886
X39902
X38917
X39409Y18543
X40394
X41378
X40886Y19528
X39902
X38917
X38425Y18543
Y16575
X39409
X40394
X41378
X42362
X43346
X44331
X45315
X46299
X48268
X49252
X49744Y17559
X48760
X49252Y18543
X48268
X44331
X43346
X42362Y20512
X37323Y20984
X40394Y6732
X41378
X42362
X42854Y7717
X43839
Y5748
X42854
X41870
X40886
X41870Y7717
X46299Y6732
X48268
X49252
X50236
X51220
X51890Y9055
X50728Y9685
X49744
X50236Y10669
X51220
X51713Y11654
X50728
X49744
X48760
X49252Y12638
X50236
X51220
X51772Y12677
X50728Y13622
X49744
X48760
X49252Y14606
X50236
X51220
X50728Y15591
X49744
X51220Y16575
X48268Y12638
X49252Y10669
Y8701
X36457Y10669
X35945Y10827
Y11273
X35949Y11719
X35945Y12165
X34528Y12165
Y11719
X34524Y11273
X34528Y10827
X33996Y11654
X33012
X32028
X31043
X30039Y11220
X30551Y10669
X31535
X32028Y9685
X31043
X30059
X29075
X27756Y9882
X26122Y9685
X25000Y9764
Y10157
Y10551
X23819Y10551
Y10157
Y9764
X23169Y9685
X22677Y10669
X21693
X21850Y13504
X23661Y14606
X24646
X25630
X24646Y16575
X23661
X22677
X23169Y17559
X22185
X22677Y18543
X21693
Y20512
X23661
X23169Y19528
X25630Y20512
X28583
X29961Y18622
X29921Y18110
X30079Y16929
X29567Y16575
X29213Y16102
X28583Y16575
X27353Y16605
X28091Y13622
X29075
X30059
X32520Y12638
X33996Y13622
X34488Y14606
X34980Y15591
X35965
X36949
X36457Y16575
X35472
X34488
X32520
X31811Y15709
X32520Y18543
X32205Y18858
Y19252
Y19646
X31024Y19646
Y19252
Y18858
X33504Y18543
X34528Y19016
X34488Y20512
X35079Y18032
X35965Y17559
X36949
X36457Y18543
Y14606
X36949Y13622
Y11654
X33031Y9409
X32520Y8701
X31831Y7717
X31240
X30650
X30059
X30354Y7126
X30945
X31535
X32126
X31831Y6535
X32126Y5945
X30354
X30059Y6535
X28583Y6732
X27323Y6575
X27106Y5748
X26122
X25138
X24154
X23169
X22185
X29075
X27697Y7717
X30630Y8622
X28091Y11654
X21201Y9685
X20217
X19232
X19409Y10315
X18740Y10669
X17756
Y12638
X18740
X19252Y13504
X19724Y14606
X20709
X18740
X18248Y15591
X17756Y16575
X16772
X17264Y17559
X16280
X16772Y18543
X15787
X14803
X15295Y19528
X16280
X17264
X16772Y20512
X19724
X20709
Y18543
X19724
X21201Y17559
X16772Y14606
X15787
X14803
X13819
X14311Y15591
X15295
X14803Y16575
X13819
X14311Y19528
X9882Y20512
Y18543
X8898
X7913
X6929
X5945
X6437Y19528
X7421
X8406
X7913Y20512
X6929
X5945
X6437Y17559
X7421
X8406
X9390
X10374
X9882Y16575
X8898
X7913
X6929
X5945
X6437Y15591
X7421
X8406
X9390
X10374
X9882Y14606
X8898
X7913
X6929
X5945
X6437Y13622
X7421
X8406
X9390
X10374
X9882Y12638
X8898
X7913
X6929
X5945
X6437Y11654
X7421
X8406
X9390
X10374
X9882Y10669
X8898
X7913
X6929
X5945
X8406Y9685
X9390
X10374
X9882Y8701
X8898
X9390Y7717
X10374
X9882Y6732
X8898
X7913
X6929
X5945
X11850
X12835
X13819
X14803
X15295Y7717
X16280
X17264
X17756Y6732
X18740
X19232Y7717
X20217
X21201
Y5748
X19232
X18248
X17264
X16772Y6732
Y8701
X15787
X15295Y9685
X13819Y10669
X12835
X11850
X11811Y11850
X12343Y11654
X13327
X14311
X13819Y12638
X12835
X11850
X12343Y13622
X11850Y14606
X15295Y13622
X16280
X17264
X16772Y12638
X15787
X15295Y5748
X14311
X13327
X12343
X3622Y5866
X2638
X1654
X2146Y6850
X3130
X4114
X3622Y7835
X2638
X1654
X2146Y8819
X3130
X4114
X3622Y9803
X2638
X1654
X2146Y10787
X3130
X4114
X3622Y11772
X2638
X1654
X2146Y12756
X3130
X4114
X3622Y13740
X2638
X1654
X2146Y14724
X3130
X4114
X3622Y15709
X2638
X1654
X2146Y16693
X3130
X4114
X3622Y17677
X2638
X1654
X2146Y18661
X3130
X4114
X3622Y19646
X2638
X1654
X2146Y20630
X3130
X4114
X1161
Y18661
Y16693
Y14724
Y12756
Y10787
Y8819
Y6850
X1654Y21614
X2638
X3622
X4606
X5591
X5098Y22598
X4114
X3130
X2146
X1161
X1654Y23583
X2638
X3622
X4606
X5591
Y25551
X4606
X3622
X2638
X1654
X2146Y26535
X1161
X827Y27795
X1024Y28386
X2008
X2500Y29370
X1516
X2008Y30354
X1024
X1516Y31339
X2500
X2008Y32323
X1024
X1516Y33307
X2500
X2008Y34291
X1024
X1516Y35276
X2500
X2008Y36260
X1024
X2992Y27835
X3504Y26850
X3130Y24567
X4114
X2146
X1161
X6575Y23583
X6083Y22598
X7913Y22480
X8031Y21811
X7421Y21496
X11201Y22559
X12185
X13169
X14154
X15138
X16122
X17106
X17598Y23543
X18583
X18740Y22480
X19075Y24528
X20059
X21043
X20551Y25512
X19567
X18583
X19075Y26496
X19567Y27480
X19232Y29409
X20217
X21201
X19724Y30394
X18740
X19232Y31378
X19724Y32362
X18740
X18740Y34291
X19724
X20709
X20217Y35276
X19232
X18248
X17264
X16280
X15787Y34291
X14803
X13819
X12835
X13327Y35276
X14311
X13819Y36260
X11358
X10374
X9390
X8406
X7421
Y34291
X8406
X9390
X10374
X11358
X11850Y35276
X10866
X9882
Y33307
X10866
X11850
X13327
X14311
X15295
X16280
X15787Y32362
X16772
X16280Y31378
X15295
X14311
X13327
X12343
X11358
X11358Y32323
X10374
X9390
X8406
X7421
X7913Y33307
X8898
X6929
X7421Y30354
X8406
X9390
X9390Y29409
X10374
X11358
X12343
X13327
X14311
X15295
X16280
X17264
X18248
X16772Y30394
X15787
X14803
X13819
X12835
X11850
X10866
Y28425
X11850
X12835Y28386
X13819
X14803
X15630Y27480
X16614
X16122Y26496
X15138
X14154
X12835Y26417
X11850
X10866
X9882Y26457
X8898
X7913
X8406Y27441
X9390
X10374
X9882Y28425
X8898
X7913
X7421Y27441
X12343Y27402
X13327
X13661Y25512
X14646
X15630
X16614
X17106Y24528
X18091
X16122
X15138
X14154
X13169
X12185
X12677Y23543
X13661
X14646
X15630
X16614
Y21575
X15630
X14646
X13661
X12677
X11358Y25433
X10374
X12835Y32362
X13819
X14803
X17756Y34291
X20709Y36260
X21201Y21496
X20217
X22185
X23169
X23661Y22480
X22677
X21693
X22185Y23465
X23169
X24154
X25906Y23071
X24606Y25630
Y27598
X24724Y29331
X25709
X26693
X27677
X28661
X29646
X30630
X31614
X32598
X33583
X34567
X35551
X36043Y30315
X35059
X34075
X33091
X32106
X31122
X30138
X30630Y31299
X31614
X32598
X33583
X34075Y32283
X35059
X33091
X32106
X31122
X31043Y33307
X32028
X33012
X33504Y34291
X34488
Y36260
X32520
X31535
X30551
X29567
X28583
X27598
X26614
X27106Y35276
X28091
X29075
X30059
X31043
X32028
X33012
X32520Y34291
X31535
X30551
X29567
X28583
X27598
X26614
X25630
X24646
X25138Y33307
X26122
X27106
X28091
X29075
X30059
X28169Y32283
X27185
X27677Y31299
X28169Y30315
X27185
X25217
X24724Y31299
X24646Y36260
X26122Y35276
X23169
X21693Y36260
X21535Y25512
X27559Y25630
X28543
X30512
X31496
X32480
X33465
X34449
X35433
Y27598
X34449
X33465
X32480
X31496
X30512
X31004Y26614
X31988
X32972
X33012Y23465
X33996
X34980
X34488Y22480
X33504
X32520
X31535
X33012Y21496
X34980
X35965
X36378Y22756
X36969
X36486Y24094
X29724Y21535
X27559Y27598
X39016Y24409
X38858Y23858
X38898Y23110
X39409Y22480
X40394
X40886Y23465
X41900Y23022
X42953Y21969
X43839Y23465
X44331Y24449
X44685Y24843
X46414Y24764
X47776Y25433
X47283Y26417
X47911Y27796
X48229Y27483
X47598Y28114
X47283Y28430
X46850Y29173
X48285Y29432
X48603Y29119
X48916Y28801
X49232Y28485
X46102Y28150
X46890Y21261
X47992Y22283
X49606Y21378
X51220Y22480
X51929Y23937
X41968Y35591
Y36102
Y36654
X40394Y36260
X37559Y35197
X55079Y27520
X56811Y27835
X57618Y25433
X58602
X59094Y24449
X60079
X61063
X62047
X63032
X64016
X63524Y23465
X62539
X61555
X60571
X59587
X58602
X57618
X58110Y24449
X56142
X53268Y24331
X53346Y23701
X52953Y23228
X52697Y21496
X52913Y25236
X58110Y22480
X59094
X60079
X61063
X62047
X63032
X65000
X65000Y26378
X64236Y26439
X63524Y27402
X65569Y27874
X67520Y28110
Y25433
X68013
X62539Y25433
X61555
X59803Y26654
X68661Y27165
X68543Y28189
X68780Y25197
X70787Y34528
X71181
X71575
X71575Y35709
X71181
X70787
X70748Y36811
X70354
X69961
X75709
X76102
X76496
X75780Y35709
X75315Y35709
X74953Y35709
Y34528
X75315Y34528
X75780Y34528
X75709Y37992
X76102
X76496
X76772Y40236
X77218
X77664Y40232
X78110Y40236
X78110Y41654
X77664
X77218Y41657
X76772Y41654
X76772Y44055
X77218
X77664Y44051
X78110Y44055
X78110Y45472
X77664
X77218Y45476
X76772Y45472
X78189Y46732
X78193Y47274
Y47795
X78150Y49961
X78150Y50512
X78228Y51260
X75787Y49567
X69685Y45472
X69239
X68793Y45476
X68346Y45472
X68346Y44055
X68793
X69239Y44051
X69685Y44055
X69429Y43150
X68445
X68937Y42165
X68793Y41657
X69239Y41654
X69685
X68346
X68322Y40266
X68793Y40236
X69239Y40232
X69685Y40236
X69961Y37992
X70354
X70748
X68268Y39724
X66969Y40197
X65984
X65000
X64016
X63032
X62047
X61063
X60079
X59094
X58110
X57126
X56142
X55157
X54173
X53189
X53681Y41181
X54665
X55650
X56634
X57618
X58602
X58110Y42165
X57126
X56142
X55157
X54173
X53189
X53681Y43150
X54665
X55650
X56634
X57618
X58602
X59094Y44134
X58110
X57126
X56142
X55157
X54173
X53189
X52697Y43150
Y41181
X53189Y46102
X54173
X55157
X56142
X57126
X58110
X59094
X60079
X61063
X62047
X63032
X64016
X63524Y47087
X64016Y48071
X65000
X65492Y49055
Y47087
X65984Y44134
X66969
X65000
X64016
X63032
X62047
X62539Y43150
X63032Y42165
X62539Y41181
X63032Y48071
X61654Y51339
X63494Y52372
X57618Y49055
X56634
X55650
X54665
X53681
X52697
X53189Y48071
X54173
X55157
X56142
X57126
X58110
X57618Y47087
X56634
X55650
X54665
X53681
X52697
X68189Y46299
X52205Y46102
Y44134
X51220
X50728Y45118
X50039Y45984
X49744Y47087
X50728
X50236Y48071
X49252
X48268
X48760Y49055
X49744
X50728
X50236Y50039
X49252
X48268
X47283
X47776Y51024
X48760
X49744
X50728
X49567Y52315
X48268Y52008
X47283
X46791Y51024
X45315Y52008
X43937Y52283
X42480Y51850
X42362Y50039
X41181Y49016
Y48504
X41614Y47559
X39902Y47087
X38917
X37933
X38425Y46102
X39409
X40394
X39902Y45118
X38917
X37933
X38012Y44134
X38996
X39980
X40965
X41457Y43150
X42441
X43425
X42933Y44134
Y42165
X41949
X40965
X41457Y41181
X42441
X40472
X39488
X38504
X37520
X38012Y42165
X38996
X38504Y43150
X37520
X37441Y46102
X37767Y50573
X38917Y51024
X39173Y52047
X38425Y52008
X40394Y50354
X45197Y49724
X45568Y49062
X47776Y49055
X47402Y45551
X46968Y45000
X46299Y46102
X44441Y45079
X45039Y44331
X43346Y46102
X44356Y47140
X43898Y40472
X43495Y40187
X43110Y39842
X43001Y37804
X41102Y37677
X40886Y39213
X39902
X38917
X37933
X47362Y39724
X47126Y41220
X47638Y42992
X48543Y40315
X48724Y39155
X49040Y39471
X49646Y39921
X50042Y38469
X49726Y38153
X49411Y37838
X49095Y37522
X48093Y38524
X48406Y38842
X52205Y40197
Y42165
X51220
X51102Y41614
X52205Y48071
X36949Y47087
X35965
X34980
X34252Y47441
X32756Y47953
X32028Y49055
X32520Y50039
X31535
X31043Y51024
X30059
X29075
X28583Y50039
X27598
X28091Y49055
X29075
X29528Y48268
X30059Y47087
X28543Y47087
Y46640
Y46194
Y45748
X27126Y45748
X27122Y46194
X27126Y46640
Y47087
X26969Y48780
X27087Y51142
X25819Y50610
X24308Y50354
X24308Y49843
X24252Y49252
X23740Y48976
X23536Y50616
X23268Y51142
X23015Y50098
X21510Y49843
X21929Y47874
X22480
X24921Y46378
X24429Y43189
X25413
X26398
X26890Y42205
X25906
X24921
X23937
X22953
X21969
X22461Y43189
X23445
Y41220
X24429
X25413
X26398
X27598Y40197
X28583
X28543Y39193
X28547Y38747
X28543Y38301
Y37854
X28091Y37244
X29075
X30059
X31043
X30551Y38228
X29567
X29075Y39213
X31043
X32028
X33012
X33504Y38228
X34488
X34980Y37244
X33996
X33012
X32520Y38228
Y40197
X31535
X30551
X30335Y41220
X31319
X31811Y42205
X31319Y43189
X29350
X29843Y42205
X28858
X29350Y41220
X30039Y44764
Y45315
X34980Y45118
X35965
X36949
X37028Y44134
X36043
X35059
X35551Y43150
X36535
X37028Y42165
X36043
X35059
X35551Y41181
X36535
X36949Y39213
X35965
X36457Y46102
X35472
X34980Y49055
Y51024
X34105Y51573
X32942Y52073
Y51073
X31142Y52244
X30394
X35472Y52008
X36604Y52073
Y51073
X27126Y39193
Y38747
X27122Y38301
X27126Y37854
X26614Y38228
X25630
X26122Y39213
X25138
Y37244
X26122
X23169
X22677Y38228
X21693
X21496Y40079
X21476Y41220
X22461
X23169Y39213
X21476Y43189
X20492
X19508
X18524
X17539
X16555
X15295Y43150
X14311
X13819Y44134
X15787
X16280Y45118
X16575Y47874
X17126Y47795
X17559Y46890
X19685Y46535
X19724Y44843
X20000Y42205
X20984
X20492Y41220
X19508
X18524
X17539
X16555
X15571
X14587
X13327Y41181
X12343
X11850Y42165
X13819
X14095Y40236
X15079
X16063
X15942Y39303
X17264Y39213
X18248
X19232
X20217
X21201
X20709Y40197
X19724
X18740
X17756
Y38228
X18740
X19724
X20709
X21201Y37244
X20217
X19232
X18248
X17264
X16280
X16772Y38228
X17047Y42205
X18032
X19016
X16063
X11850Y40197
X11033Y40521
X9882Y40197
X8898
X8780Y39409
X9390Y39213
X10374
Y38228
X9390
X8406
X7421
Y39213
X6220Y39252
X6437Y41181
Y43150
X5945Y44134
X8228Y43976
X8661Y43465
X7795Y43425
Y42972
Y42520
X8386Y40787
X7913Y40197
Y37244
X8898
X9882
X10866
X6929
X8406Y45118
X8898Y46102
X9882
X10866
X11850
X12677Y46181
X12047Y46850
X11242Y48411
X10866Y48071
X9882
X9005Y49945
X8490Y50445
Y51445
X8898Y52008
X8490Y52445
X7283Y51968
X6437Y51024
X5945Y50039
X6437Y49055
X7421
X8490Y49445
X10354Y51968
X13819Y51693
X14567
X15236Y51260
X13819Y50472
X15256Y48424
X15299Y47890
X14742Y47896
X16979Y49945
X17492Y50443
X17494Y49445
Y51445
X18013Y51045
X19232Y51024
X20551Y50748
Y49843
Y48937
X20039Y52212
X17494Y52427
X16979Y51945
X11358Y45118
X4469
X4961Y46102
X3976
Y47087
X4469Y48071
X3484
X2500
X1516
X1024Y49055
X945Y49606
X1024Y51024
X2008
X3484
X4469
X4961Y52008
X3976
X2992
X1516
X3484Y50039
X4961
X5354Y49488
X3976Y49055
X2992
Y44134
X3976
X4961
X5453Y43150
X4469
X3484
X2500
X1516
X2008Y44134
X1024
Y42165
X2008
X2992
X3976
X3484Y41181
X2500
X1516
X2008Y40197
X2992
X3976
X2500Y39213
X1516
X1024Y40197
X1516Y37244
X2500
X2008Y52992
X1024
X1516Y53976
X2992
X3976
X4961
X3484Y52992
X2008Y54961
X1024
X2500Y56929
X3484
X4469
X5453
X4961Y57913
X3976
X2992
X5945
X6929
X7913
X8406Y56929
X7421
X6437
X5945Y53976
X7267Y53881
X7283Y52874
X9005Y52945
Y54945
X11358Y52992
X15295
Y54961
X16979Y54945
Y53945
X17494Y54445
Y53445
Y55489
X17264Y56929
X17756Y57913
X18740
X19134Y58465
X19232Y56929
X20236Y55591
X21693Y55945
X22677
X23661
X23307Y55276
X23490Y53327
X24154Y52992
X22975Y52815
X21470Y52559
Y53583
X21890Y54338
X22441Y58661
X26102Y58472
X25315Y56693
X25512Y56181
X26535Y53622
X27677Y52992
X29843Y54291
X29567Y55945
X30551
X31535
X32520
X33504
X34488
X35472
X35492Y56732
X35512Y58110
X36457Y55945
X34843Y53701
X34685Y52913
X34105Y52573
X31850Y53307
X29787Y56733
X37441Y55945
X38425
X40394
X41378
X41772Y56614
X42835Y57047
X43839Y56929
X44823
X44449Y57480
Y57992
Y58486
X44890Y58708
X46535Y58110
Y57598
X46181Y56968
X45827Y56457
X47283Y55945
X47776Y56929
X48760
X49744
X50728
X51220Y57913
X50236
X49252
X48268
X47283
X49252Y55945
X50236
X51220
Y53976
X50236
X48268
X47283
X41378
X40394
X40886Y52992
X39370Y53189
X39026Y54123
X39902Y56929
X39173Y58543
X42244Y57756
X75276Y52913
T06
X67126Y17740
Y18740
Y19740
Y20740
T07
X19016Y15551
Y16535
Y19094
Y20079
T08
X65945Y5197
X67126
X68307
X20787Y8622
X19606
X18425
T09
X17236Y490
X18416Y1260
X19596
X20776Y490
Y4080
X19596Y4850
X18416
X17236Y4080
X43348Y3416
X44528Y4186
X45708
X46888Y3416
X48388Y2227
X49568Y1457
X50748
X51928Y2227
Y5206
X50748Y4436
X49568
X48388Y5206
X46888Y437
X45708Y1207
X44528
X43348Y437
X68896Y9353
Y12790
Y16227
X67716Y15457
X66536
X65356Y16227
Y12790
X66536Y12020
X67716
Y8583
X66536
X65356Y9353
X51928Y8185
X50748Y7415
X49568
X48388Y8185
X46888Y6395
X45708Y7165
X44528
X43348Y6395
X20776Y11120
X19596Y11890
X18416
X17236Y11120
X9881Y30844
X8701Y31614
X7521
X6341Y30844
Y34545
X7521Y35315
X8701
X9881Y34545
T10
X69488Y5984
X64764
X21969Y9409
X17244
T11
X42283Y9980
Y19232
X39961Y42520
X30709
T12
X1575Y1378
X26969
X35630
X40945
X77559
X35630Y13976
X26969
X24409Y38386
X1575
Y57677
X24409
X40945
X77559
T13
X6843Y2677
X12843Y2677
Y8583
X6843
T14
X17763Y26772
X21043
Y31339
X17763
X26043
X29323
Y26772
X26043
T15
X60551Y42276
Y48276
T16
X18150Y14921
Y18465
M30
