M48
;Layer_Color=9474304
;FILE_FORMAT=2:4
INCH,TZ
;TYPE=PLATED
T1F00S00C0.0079
T2F00S00C0.0128
T3F00S00C0.0197
T5F00S00C0.0280
T6F00S00C0.0295
T7F00S00C0.0362
T8F00S00C0.0394
T9F00S00C0.0421
T10F00S00C0.0500
T11F00S00C0.0531
T12F00S00C0.0787
T13F00S00C0.0906
T14F00S00C0.1043
T15F00S00C0.1500
T16F00S00C0.1600
T17F00S00C0.2000
;TYPE=NON_PLATED
T18F00S00C0.0472
%
T01
X2116Y29685
X2549
Y30118
X2116
Y30551
X2549
X2982
Y30118
Y29685
X44964Y23542
X44686Y23263
X44408Y22985
X44686Y22706
X44964Y22985
X45521
X45243Y22706
X44964Y22428
X45521Y22428
X45243Y22150
X45800Y22706
X45243Y23263
X45658Y41742
X45379Y42021
X45101Y42299
X45379Y42578
X45658Y42856
X45936Y42578
X45658Y42299
X45936Y42021
X46214Y42299
Y42856
X45936Y43134
X46493Y42578
X4715Y41299
Y40866
Y40433
X4281
Y40866
X3848
Y40433
Y41299
X4281
T02
X65242Y24775
X65465Y24998
X65687Y25221
X65242
X65465Y25443
X66206Y25461
X65984Y25684
X66206Y25907
X65984Y26130
X65761Y25907
X66429Y25684
Y25239
X66652Y25461
X66105Y24803
X65882Y24580
X65659Y24358
X65019Y24998
T03
X827Y2992
X2008
X3189
X4370
X4961Y4173
X3780
X2598
X1417
X2008Y5354
X3189
X827
X3780Y1811
X9685
X10276Y2992
X9094
X9685Y4173
X8504
X12638Y5354
X13819
X15000
X16181
X15591Y4173
X16181Y2992
X17362
X18543
X19724
X16772Y1811
X15591
X23858
X25039
X25630Y2992
X24449
X27283Y3543
X29173Y2992
X29764Y1811
X30945
X33307
X34488
X36850
X34921Y3976
X29764Y4764
X30059Y5354
X28583Y1811
X38031
X39213
X39173Y3937
X39619
X40066Y3933
X40512Y3937
X41575Y4173
X42756
X43346Y5354
X42165
X40512Y5354
X40066
X39619Y5358
X39173Y5354
X42756Y1811
X53976Y5354
X59567Y4764
X59331Y3819
X60472Y4173
X61654
X62835
X64016
X62165Y5276
X61063Y2992
X59685Y669
X67126Y3228
X68740Y4173
X69921
X73622Y3740
X76417Y4764
X77598Y5354
Y2992
X76417Y5945
Y7126
X77598Y7717
Y10079
X76417
X75236
X74055
X72717Y11083
Y11476
Y11870
X71535Y11870
Y11476
Y11083
X71693Y10079
X70512
X71102Y6535
X72283
X73701Y7040
X75433Y11339
X75512Y13781
X76339Y13386
X76870
X77402
X77441Y16181
X76890
X76378
X76417Y17165
X77598
X77008Y18346
X75827
X76417Y19528
X77598
X75236
Y17165
X72717Y16693
Y16299
Y15906
X71535Y15906
Y16299
Y16693
X70512Y17165
X69331
X69921Y18346
X71102
X72283
X71693Y19528
X70512
X69331
X68740Y18346
X69921Y15984
X64685Y16260
X64239Y16256
X63793Y16260
X63346
X62385Y16534
X61893Y15550
X60909
X59925
X58941
X59433Y14566
X60417
X61401
X62165Y14488
X62559
X62953
X62953Y13307
X62559
X62165
X61968Y12480
X61401Y12597
X60417
X59433
X58448
X57913Y13307
X57520
X57126
X57520Y14488
X57913
X58448Y14566
X57464Y16534
X56732Y16260
X56286Y16256
X55840Y16260
X55394
X55394Y17677
X55840Y17681
X56286Y17677
X56732
X57464Y18503
X58448
X59433
X60417
X61401
X62385
X61893Y19487
X62385Y20471
X61401
X63150Y21220
X66378Y20709
X65787Y19528
X66378Y18346
X65197
X64685Y17677
X64239
X63793Y17681
X63346Y17677
X64606Y14803
X64016Y13622
X63425Y12441
X64016Y11260
X65197
X66968Y10079
X68150
X67559Y6535
X66378
X65787Y7717
X64606
X62874Y7835
X63366Y6850
X62382
X61398
X60413
X60906Y7835
X59882Y10079
X58701
X57520
X58110Y8898
X56929
Y11260
X55748
X56339Y12441
X58941Y11613
X63425Y10079
X66378Y13622
X53386
X52717Y12677
X53976Y14803
Y17165
X52717Y19921
X55748Y20709
X57464Y20471
X58448
X57956Y19487
X53386Y8898
X50433Y10079
X49252
X49843Y11260
X51024
X50433Y12441
X49252
X49843Y13622
X51024
X51772Y12677
X50433Y14803
X49252Y17165
X48661Y18346
X50533Y18937
X48303Y20671
X47402Y21102
X46791Y19528
X45807
X44823
X43839
X44331Y20512
X45315
Y18543
X46299
X46791Y17559
X45807
X44823
X43839
X42854
X41870
X40886
X39902
X38917
X39409Y18543
X40394
X41378
X40886Y19528
X39902
X38917
X38425Y18543
Y16575
X39409
X40394
X41378
X42362
X43346
X44331
X45315
X46299
X44331Y18543
X43346
X42362Y20512
X37323Y20984
X42165Y7717
X41575Y6535
X31831
X31535Y7126
X32126
X31831Y7717
X31240
X30650
X30059
X30354Y7126
X30945
X30059Y6535
X30354Y5945
X32126
Y8898
X33031Y9409
X31535Y10079
X30354
X30709Y11220
X30630Y8622
X27697Y7717
X27323Y6575
X27756Y9882
X25000Y9764
Y10157
Y10551
X23819Y10551
Y10157
Y9764
X22087Y7717
X23268Y14803
X24449
X25630
X26220Y18346
X27402
X26811Y19528
X26220Y20709
X22756Y19843
X22087Y17165
X30354
X31535
X32717
X33307Y18346
X32205Y18858
Y19252
Y19646
X31024Y19646
Y19252
Y18858
X30945Y15984
X32126
X32717Y14803
X30354
X29685Y15748
X28425Y13071
X34528Y12165
Y11719
X34524Y11273
X34528Y10827
X35945Y10827
Y11273
X35949Y11719
X35945Y12165
X35669Y15984
X36260Y17165
X35079Y18032
X34528Y19016
X20315Y20709
X17362Y19528
X16181
X13228Y17598
X12835Y17953
X13622Y17205
X13228Y15984
X14409
X13819Y14803
X15662Y14324
X16181Y14331
X16732
X16181Y12441
X15591Y11260
X14409
X13228
X13819Y12441
X12638
X12047Y13622
X10276
X9094
X7913
X6732
X7323Y14803
X8504
X9685
X10276Y15984
X9094
X7913
X6732
X7323Y17165
X8504
X9685
X10276Y18346
X9094
X7913
X6732
X7323Y19528
X8504
X6142
X6732Y20709
X6142Y17165
Y14803
Y12441
X7323
X8504
X9685
X10276Y11260
X9094
X7913
X6732
X8504Y10079
X9685
X10276Y8898
X9094
X9685Y7717
X10276Y6535
X9094
X7913
X16772
X17953
X17362Y7717
X16181
X15591Y8898
X19409Y10315
X20905Y10079
Y14803
X5551Y15984
X3780
X2598
X1417
X2008Y17165
X3189
X3780Y18346
X2598
X1417
X2008Y19528
X3189
X3780Y20709
X2598
X1417
X827Y19528
Y17165
Y14803
X2008
X3189
X3780Y13622
X2598
X1417
X2008Y12441
X3189
X3780Y11260
X2598
X1417
X2008Y10079
X3189
X3780Y8898
X2598
X1417
X2008Y7717
X3189
X3780Y6535
X2598
X1417
X827Y7717
Y10079
Y12441
X5551Y13622
Y11260
Y6535
Y18346
Y21890
X4370
X3189
X2008
X827
X1417Y23071
X2598
X3780
X4961
X3189Y24252
X2008
X827
X1417Y25433
X2598
X2008Y26614
X827
X866Y29685
X906Y30315
X827Y31339
X1417Y32520
X2008Y33701
X827
X1417Y34882
X2008Y36063
X827
X3937Y32795
X4488Y32760
X4724Y32323
X4046Y29891
X4509Y28914
X4160Y28565
X3937Y27598
X7323Y27795
X8504
X9685
X10866
X12047
X13228
X13819Y28976
X15000
X15591Y30157
X14409
X13228
X12047
X10866
X11457Y28976
X12638
Y31339
X13819
X15000
Y33701
X16181
X17362
X19724
X20905
X19134Y30157
Y27795
Y25433
X18543Y24252
X17362
X16181
X15000
X13819
X12638
X13228Y23071
X14409
X15591
X16772
X16181Y21890
X15000
X13819
X12047Y23071
X12638Y26614
X11457
X10276
X9094
X9094Y25315
X9488Y24921
X8031Y21811
X6142Y23071
X10276Y28976
X9390Y31339
X8406
X8898Y34291
X9882
X10866
X11358Y33307
X13819Y33701
X14409Y34882
X15591
X13228
X9390Y35276
X8406
X7913Y34291
X6929
X15000Y26614
X15591Y25433
X14409
X18543Y21890
X20905
X21496Y23071
X22677
X24991Y23022
X25630Y21890
X29173
X32717
X33898
X36378Y22756
X36969
X36486Y24094
X35433Y25630
X34449
X33465
X32480
X31496
X30512
X31004Y26614
X31988
X32972
X32480Y27598
X31496
X30512
X30630Y29331
X31614
X32598
X33583
X34567
X35551
X36043Y30315
X35059
X34075
X33091
X32106
X31122
X30138
X29646Y29331
X28661
X27677
X26693
X25709
X24724
X25217Y30315
X24724Y31299
X23268Y31339
Y33701
X24449
X25630
X26811
X27992
X29173
X30354
X31535
X32717
X33307Y34882
X32126
X30945
X29764
X28583
X27402
X26220
X26811Y36063
X27992
X29173
X30354
X31535
X32717
X33091Y32283
X32106
X31122
X31614Y31299
X32598
X33583
X34075Y32283
X35059
X35433Y27598
X34449
X33465
X27559
Y25630
X28543
X24606
Y27598
X23268Y26614
Y28976
X22244Y25197
X27185Y30315
X28169
X27677Y31299
X27185Y32283
X28169
X30630Y31299
X24449Y36063
X23268
X22677Y34882
X37559Y35197
X41968Y35591
Y36102
Y36654
X46850Y29173
X47283Y28430
X47598Y28114
X47911Y27796
X48229Y27483
X48285Y29432
X48603Y29119
X48916Y28801
X49232Y28485
X46102Y28150
X46414Y24764
X44685Y24843
X41900Y23022
X42953Y21969
X46890Y21261
X47992Y22283
X49606Y21378
X38898Y23110
X38858Y23858
X39016Y24409
X52913Y25236
X52953Y23228
X55748Y23071
X57618Y23465
X58602
X59587
X60571
X61555
X62539
X63524
X64016Y24449
X63032
X62047
X61063
X60079
X59094
X58110
X58602Y25433
X57618
X56811Y27835
X55079Y27520
X59764Y27205
X59803Y26654
X61555Y25433
X62539
X63307Y26535
Y26969
Y27402
X64236Y26439
X65000Y26378
X65569Y27874
X67520Y28110
Y25433
X68013
X63032Y22480
X62047
X61063
X60079
X59094
X58110
X68780Y25197
X68661Y27165
X68543Y28189
X70787Y34528
X71181
X71575
X71575Y35709
X71181
X70787
X70748Y36811
X70354
X69961
X75709
X76102
X76496
X75780Y35709
X75315Y35709
X74953Y35709
Y34528
X75315Y34528
X75780Y34528
X75709Y37992
X76102
X76496
X76772Y40236
X77218
X77664Y40232
X78110Y40236
X78110Y41654
X77664
X77218Y41657
X76772Y41654
X76772Y44055
X77218
X77664Y44051
X78110Y44055
X78110Y45472
X77664
X77218Y45476
X76772Y45472
X78189Y46732
X78193Y47274
Y47795
X78150Y49961
X78150Y50512
X78228Y51260
X75787Y49567
X69685Y45472
X69239
X68793Y45476
X68346Y45472
X68346Y44055
X68793
X69239Y44051
X69685Y44055
X69331Y43150
X69239Y41654
X69685
X68793Y41657
X68346Y41654
X68322Y40266
X68793Y40236
X69239Y40232
X69685Y40236
X69961Y37992
X70354
X70748
X68268Y39724
X66969Y40197
X65984
X65000
X64016
X63032
X62047
X61063
X60079
X59094
X58110
X57126
X56142
X55157
X54173
X53189
X53681Y41181
X54665
X55650
X56634
X57618
X58602
X58110Y42165
X57126
X56142
X55157
X54173
X53189
X53681Y43150
X54665
X55650
X56634
X57618
X58602
X59094Y44134
X58110
X57126
X56142
X55157
X54173
X53189
X52697Y43150
Y41181
X53189Y46102
X54173
X55157
X56142
X57126
X58110
X59094
X60079
X61063
X62047
X63032
X64016
X63524Y47087
X64016Y48071
X65000
X65492Y49055
Y47087
X65984Y44134
X66969
X65000
X64016
X63032
X62047
X62539Y43150
X63032Y42165
X62539Y41181
X63032Y48071
X61654Y51339
X63494Y52372
X57618Y49055
X56634
X55650
X54665
X53681
X52697
X53189Y48071
X54173
X55157
X56142
X57126
X58110
X57618Y47087
X56634
X55650
X54665
X53681
X52697
X68189Y46299
X52205Y46102
Y44134
X51024Y44331
X50039Y45984
X50433Y47874
X49252
X49843Y49055
X48661
X49252Y50236
X50433
X51024Y51417
X49843
X49567Y52315
X48661Y51417
X47480
X48071Y50236
X45197Y49724
X45568Y49062
X44356Y47140
X44441Y45079
X45039Y44331
X46968Y45000
X47402Y45551
X47638Y42992
X47126Y41220
X47362Y39724
X48543Y40315
X48724Y39155
X49040Y39471
X49646Y39921
X50042Y38469
X49726Y38153
X49411Y37838
X49095Y37522
X48093Y38524
X48406Y38842
X52205Y40197
Y42165
X51102Y41614
X52205Y48071
X41614Y47559
X41181Y48504
Y49016
X40394Y50354
X37767Y50573
X38031Y46693
X39213
X40394
X39803Y45512
X38622
X37441
Y43150
X38622
X38031Y41968
Y39606
X39213
X40394
X43110Y39842
X43495Y40187
X43898Y40472
X42756Y41968
X41575
X42165Y43150
X43346
X43001Y37804
X42480Y51850
X43937Y52283
X36604Y52073
Y51073
X34105Y51573
X32942Y52073
Y51073
X31535Y50236
X31142Y52355
X30394
X27677Y52008
X27087Y51142
X25630Y50236
X25747Y48271
X27126Y47087
Y46640
X27122Y46194
X27126Y45748
X28543Y45748
Y46194
Y46640
Y47087
X28583Y49055
X29528Y48268
X30039Y45315
X29173Y41968
X26811
X25630
X24449
X23268
X22087
X22677Y43150
X23858
X25039
X26220
Y39606
X27126Y39193
Y38747
X27122Y38301
X28543Y38301
X28547Y38747
X28543Y39193
Y37479
X30945Y39606
X32126
X33898Y38425
X34488Y37244
X36850Y39606
Y41968
X35669
X36260Y43150
X35079
Y45512
X36260
X36850Y46693
X35669
X34252Y47441
X32756Y47953
X24921Y46378
X22480Y47874
X21929
X22126Y48858
Y51299
X21496Y43150
X23858Y39606
X20905Y41968
X19724
X18543
X17362
X16181
X15591Y40787
X15942Y39303
X17953Y39606
Y43150
X19134
X20315
X16575Y47874
X15236
X14697Y47883
X15236Y48425
X16979Y49945
X17494Y49449
X17494Y51385
Y52427
X16979Y51945
X18898Y52126
X14567Y51693
X13819
X11142Y51457
X10354Y51968
X8490Y52445
Y51445
Y50445
Y49445
X9005Y49945
X7283Y51968
X11242Y48411
X10906Y47835
X12047Y46850
X12532Y46228
X11299Y45512
X10906Y44803
X9094Y45512
X9195Y42545
X8465Y42795
X7783Y42661
X7795Y43049
Y43425
X7922Y41763
X8386Y40787
X7500Y40575
X9331Y40945
X10276Y41024
X12362Y41102
X8780Y39409
X8898Y38228
X9882
X10374Y37244
X7913Y38228
X6929
X6102Y43583
X3780Y44331
X4370Y45512
X2362Y42008
X2598Y41102
Y40512
X2008Y39921
X3346Y39291
X5000Y39331
X4750Y38473
X4724Y37973
X4750Y37480
X3780Y37323
X3780Y51417
X2008Y51024
X1024
X1516Y52008
X1024Y49055
Y52992
X2008
X1516Y53976
X2008Y54961
X1024
X3976Y54449
X4370Y57323
X5551
X3189
X6732
X7913
X9005Y54945
Y52945
X7283Y52874
X7267Y53881
X15000Y54961
X16979Y54945
Y53945
X17494Y54445
Y53445
X18307Y52717
X17494Y55489
X21614Y54724
X21929Y56063
X23350Y55276
X25512Y56181
X25315Y56693
X26102Y58472
X22441Y58661
X21693Y52520
X26535Y53622
X27677Y52992
X29843Y54291
X29787Y56733
X32717Y57323
X35492Y56732
X35512Y58110
X34843Y53701
X34685Y52913
X34105Y52573
X31850Y53307
X39026Y54123
X40394Y56142
X41772Y56614
X42835Y57047
X42244Y57756
X44449Y57992
Y58486
X44890Y58708
X44449Y57480
X46535Y57598
Y58110
X46181Y56968
X45827Y56457
X48071Y57323
X49252
X50433
X51024Y56142
X49843
X51024Y53780
X48661
X47480
X39173Y58543
X75276Y52913
X76378Y53858
T05
X56614Y14461
X67795Y17087
X48465Y14173
X20787Y35000
X20322Y37158
X19134Y37874
T06
X11811Y11850
X827Y27795
X17205Y35394
Y36535
X51929Y23937
X20000Y49646
Y50945
Y53032
Y54173
T07
X24608Y17874
Y18858
Y19646
Y20630
X28895Y20648
Y19664
Y18876
Y17892
T08
X19016Y15551
Y16535
Y19134
Y20118
T09
X65945Y5197
X67126
X68307
X20787Y8622
X19606
X18425
T10
X17236Y490
X18416Y1260
X19596
X20776Y490
Y4080
X19596Y4850
X18416
X17236Y4080
X43348Y3416
X44528Y4186
X45708
X46888Y3416
X48388Y2227
X49568Y1457
X50748
X51928Y2227
Y5206
X50748Y4436
X49568
X48388Y5206
X46888Y437
X45708Y1207
X44528
X43348Y437
X68896Y9353
Y12790
Y16227
X67716Y15457
X66536
X65356Y16227
Y12790
X66536Y12020
X67716
Y8583
X66536
X65356Y9353
X51928Y8185
X50748Y7415
X49568
X48388Y8185
X46888Y6395
X45708Y7165
X44528
X43348Y6395
X20776Y11120
X19596Y11890
X18416
X17236Y11120
X10707Y32065
X9527Y32835
X8347
X7167Y32065
Y35765
X8347Y36535
X9527
X10707Y35765
T11
X69488Y5984
X64764
X21969Y9409
X17244
T12
X42283Y9980
Y19232
X39961Y42520
X30709
T13
X23541Y16665
X27828Y16683
Y21857
X23541Y21839
T14
X1575Y1378
X26969
X35630
X40945
X77559
X35630Y13976
X26969
X24409Y38386
X1575
Y57677
X24409
X40945
X77559
T15
X6843Y2677
X12843Y2677
Y8583
X6843
T16
X17763Y26772
X21043
Y31339
X17763
X26043
X29323
Y26772
X26043
T17
X60551Y42276
Y48276
T18
X18150Y14921
Y18504
M30
