G04*
G04 #@! TF.GenerationSoftware,Altium Limited,Altium Designer,22.4.2 (48)*
G04*
G04 Layer_Color=16711935*
%FSLAX25Y25*%
%MOIN*%
G70*
G04*
G04 #@! TF.SameCoordinates,ADF7678F-E04A-471E-9A80-21D1EAF96518*
G04*
G04*
G04 #@! TF.FilePolarity,Negative*
G04*
G01*
G75*
%ADD86C,0.04737*%
%ADD87C,0.12611*%
%ADD88C,0.02473*%
%ADD89R,0.30800X0.30800*%
%ADD90C,0.30800*%
%ADD91C,0.00800*%
%ADD92C,0.08300*%
%ADD93R,0.08300X0.08300*%
%ADD94C,0.35800*%
%ADD95R,0.35800X0.35800*%
%ADD96C,0.20800*%
%ADD97C,0.06800*%
%ADD98O,0.04934X0.09068*%
%ADD99R,0.04737X0.04737*%
%ADD100R,0.04147X0.04147*%
%ADD101O,0.04343X0.07887*%
%ADD102O,0.10642X0.05721*%
%ADD103C,0.05800*%
%ADD104C,0.08800*%
%ADD105R,0.08800X0.08800*%
%ADD106C,0.04724*%
%ADD107C,0.06102*%
%ADD108R,0.06102X0.06102*%
%ADD109R,0.06706X0.06706*%
%ADD110C,0.06706*%
%ADD111C,0.02769*%
D86*
X269685Y487795D02*
D03*
X205512Y489370D02*
D03*
Y507480D02*
D03*
Y498425D02*
D03*
X191339Y584646D02*
D03*
X202362Y555905D02*
D03*
X391732Y520472D02*
D03*
X393701Y531890D02*
D03*
X8268Y277953D02*
D03*
X118110Y118504D02*
D03*
X671260Y32283D02*
D03*
X300787Y169291D02*
D03*
X194095Y103150D02*
D03*
X292126Y161024D02*
D03*
X519291Y239370D02*
D03*
X518898Y90551D02*
D03*
X87795Y394094D02*
D03*
X53543Y494882D02*
D03*
X621654Y52756D02*
D03*
X306299Y86221D02*
D03*
D87*
X307087Y425197D02*
D03*
X399606D02*
D03*
X422835Y192323D02*
D03*
Y99803D02*
D03*
D88*
X656594Y243576D02*
D03*
X658821Y245803D02*
D03*
X661048Y248030D02*
D03*
X652418Y247752D02*
D03*
X650191Y249979D02*
D03*
X654645Y249979D02*
D03*
X652418Y252206D02*
D03*
X656872D02*
D03*
X654645Y254433D02*
D03*
X664291Y252387D02*
D03*
X662064Y254614D02*
D03*
X659837Y256841D02*
D03*
X657610Y259068D02*
D03*
X666518Y254614D02*
D03*
X664291Y256841D02*
D03*
X662064Y259068D02*
D03*
X659837Y261295D02*
D03*
D89*
X128425Y26772D02*
D03*
Y85827D02*
D03*
D90*
X68425Y26772D02*
D03*
Y85827D02*
D03*
D91*
X483880Y81853D02*
D03*
X519280D02*
D03*
Y52060D02*
D03*
X483880D02*
D03*
X433476Y34160D02*
D03*
X468876D02*
D03*
X98806Y345450D02*
D03*
X63406D02*
D03*
X172363Y4898D02*
D03*
X207763D02*
D03*
Y40804D02*
D03*
X172363D02*
D03*
X433476Y63954D02*
D03*
X468876D02*
D03*
Y4367D02*
D03*
X433476D02*
D03*
X653560Y127901D02*
D03*
X688960D02*
D03*
X653560Y162267D02*
D03*
X688960D02*
D03*
X653560Y93535D02*
D03*
X688960D02*
D03*
X63406Y308442D02*
D03*
X98806D02*
D03*
X519280Y22267D02*
D03*
X483880D02*
D03*
X172363Y111198D02*
D03*
X207763D02*
D03*
D92*
X495680Y74154D02*
D03*
Y44360D02*
D03*
X457076Y41860D02*
D03*
X87006Y353150D02*
D03*
X195963Y12598D02*
D03*
Y48504D02*
D03*
X457076Y71653D02*
D03*
X457076Y12067D02*
D03*
X665360Y120201D02*
D03*
Y154567D02*
D03*
Y85835D02*
D03*
X87006Y316142D02*
D03*
X495680Y14567D02*
D03*
X195963Y118898D02*
D03*
D93*
X507480Y74154D02*
D03*
Y44360D02*
D03*
X445276Y41860D02*
D03*
X75206Y353150D02*
D03*
X184163Y12598D02*
D03*
Y48504D02*
D03*
X445276Y71653D02*
D03*
X445276Y12067D02*
D03*
X677160Y120201D02*
D03*
Y154567D02*
D03*
Y85835D02*
D03*
X75206Y316142D02*
D03*
X507480Y14567D02*
D03*
X184163Y118898D02*
D03*
D94*
X605512Y422756D02*
D03*
D95*
Y482756D02*
D03*
D96*
X293233Y267717D02*
D03*
X260433D02*
D03*
X177633D02*
D03*
X210433D02*
D03*
Y313386D02*
D03*
X177633D02*
D03*
X260433D02*
D03*
X293233D02*
D03*
D97*
X269685Y139764D02*
D03*
Y13780D02*
D03*
X356299D02*
D03*
Y139764D02*
D03*
X409449Y576772D02*
D03*
X775591D02*
D03*
X15748D02*
D03*
Y383858D02*
D03*
Y13780D02*
D03*
X775591D02*
D03*
X409449D02*
D03*
X244094Y383858D02*
D03*
Y576772D02*
D03*
D98*
X242992Y213386D02*
D03*
Y185827D02*
D03*
D99*
X270866Y215748D02*
D03*
Y210827D02*
D03*
X276378Y215748D02*
D03*
Y210827D02*
D03*
Y188386D02*
D03*
Y183465D02*
D03*
X270866Y188386D02*
D03*
Y183465D02*
D03*
D100*
X276378Y206102D02*
D03*
Y201772D02*
D03*
Y197441D02*
D03*
X270866Y201772D02*
D03*
Y197441D02*
D03*
Y193110D02*
D03*
D101*
X242992Y203543D02*
D03*
X242992Y195669D02*
D03*
D102*
X256299Y224803D02*
D03*
Y174409D02*
D03*
D103*
X694882Y59842D02*
D03*
X647638D02*
D03*
X219685Y94095D02*
D03*
X172441D02*
D03*
D104*
X683071Y51968D02*
D03*
X671260D02*
D03*
X207874Y86221D02*
D03*
X196063D02*
D03*
D105*
X659449Y51968D02*
D03*
X184252Y86221D02*
D03*
D106*
X181496Y149213D02*
D03*
Y184646D02*
D03*
D107*
X190157Y165354D02*
D03*
Y200787D02*
D03*
D108*
Y155512D02*
D03*
Y190945D02*
D03*
D109*
X671260Y177402D02*
D03*
D110*
Y187402D02*
D03*
Y197402D02*
D03*
Y207402D02*
D03*
D111*
X453792Y420208D02*
D03*
X451009Y422992D02*
D03*
X456576Y417424D02*
D03*
X459360Y420208D02*
D03*
X462144Y422992D02*
D03*
X464928Y425775D02*
D03*
X459360Y431343D02*
D03*
X462144Y428559D02*
D03*
X456576Y428559D02*
D03*
X459360Y425775D02*
D03*
X453792D02*
D03*
X456576Y422992D02*
D03*
X455212Y224280D02*
D03*
X452428Y221496D02*
D03*
X457996Y227064D02*
D03*
X455212Y229848D02*
D03*
X452428Y232631D02*
D03*
X449644Y235415D02*
D03*
X444077Y229848D02*
D03*
X446861Y232631D02*
D03*
X446861Y227064D02*
D03*
X449645Y229848D02*
D03*
X449645Y224280D02*
D03*
X452428Y227064D02*
D03*
M02*
