G04*
G04 #@! TF.GenerationSoftware,Altium Limited,Altium Designer,22.11.1 (43)*
G04*
G04 Layer_Color=32768*
%FSLAX25Y25*%
%MOIN*%
G70*
G04*
G04 #@! TF.SameCoordinates,E00A9952-D2AD-4094-941F-04495088175D*
G04*
G04*
G04 #@! TF.FilePolarity,Positive*
G04*
G01*
G75*
%ADD14C,0.00787*%
D14*
X47244Y369685D02*
X53543D01*
X47244Y360236D02*
Y369685D01*
Y360236D02*
X53543D01*
Y369685D01*
X72835Y294488D02*
Y303937D01*
X79134D01*
Y294488D02*
Y303937D01*
X72835Y294488D02*
X79134D01*
X83465D02*
Y303937D01*
X89764D01*
Y294488D02*
Y303937D01*
X83465Y294488D02*
X89764D01*
X18098Y438386D02*
X29934D01*
Y426181D02*
Y438386D01*
X18098Y426181D02*
X29934D01*
X18098D02*
Y438386D01*
X6681Y419488D02*
X18516D01*
Y407283D02*
Y419488D01*
X6681Y407283D02*
X18516D01*
X6681D02*
Y419488D01*
X42520Y360236D02*
Y369685D01*
X36220Y360236D02*
X42520D01*
X36220D02*
Y369685D01*
X42520D01*
X139764Y467323D02*
Y473622D01*
X130315D02*
X139764D01*
X130315Y467323D02*
Y473622D01*
Y467323D02*
X139764D01*
X116142Y466142D02*
Y472441D01*
X106693D02*
X116142D01*
X106693Y466142D02*
Y472441D01*
Y466142D02*
X116142D01*
X399213Y529134D02*
Y535433D01*
X389764D02*
X399213D01*
X389764Y529134D02*
Y535433D01*
Y529134D02*
X399213D01*
X194882Y581496D02*
Y587795D01*
X185433D02*
X194882D01*
X185433Y581496D02*
Y587795D01*
Y581496D02*
X194882D01*
X398031Y518504D02*
Y524803D01*
X388583D02*
X398031D01*
X388583Y518504D02*
Y524803D01*
Y518504D02*
X398031D01*
X198425Y552756D02*
Y559055D01*
X188976D02*
X198425D01*
X188976Y552756D02*
Y559055D01*
Y552756D02*
X198425D01*
X283622Y538484D02*
X296457D01*
Y527658D02*
Y538484D01*
X283622Y527658D02*
X296457D01*
X283622D02*
Y538484D01*
X483021Y196836D02*
X492208Y206023D01*
X482604Y215627D02*
X492208Y206023D01*
X473417Y206440D02*
X482604Y215627D01*
X473417Y206440D02*
X483021Y196836D01*
X616043Y264173D02*
Y277165D01*
Y264173D02*
X629626D01*
Y277165D01*
X616043D02*
X629626D01*
X480130Y437061D02*
X489317Y446248D01*
X479712Y455852D02*
X489317Y446248D01*
X470526Y446665D02*
X479712Y455852D01*
X470526Y446665D02*
X480130Y437061D01*
X92126Y486181D02*
Y589528D01*
Y486181D02*
X167717D01*
Y589528D01*
X92126D02*
X167717D01*
X175984Y144882D02*
X204331D01*
Y175984D01*
X175984D02*
X204331D01*
X175984Y144882D02*
Y175984D01*
Y180709D02*
X204331D01*
Y211811D01*
X175984Y211811D02*
X204331Y211811D01*
X175984Y180709D02*
Y211811D01*
M02*
