G04*
G04 #@! TF.GenerationSoftware,Altium Limited,Altium Designer,22.4.2 (48)*
G04*
G04 Layer_Color=2752767*
%FSLAX25Y25*%
%MOIN*%
G70*
G04*
G04 #@! TF.SameCoordinates,43EAD1C5-17A3-47DC-85D2-FB09855483F6*
G04*
G04*
G04 #@! TF.FilePolarity,Positive*
G04*
G01*
G75*
%ADD18C,0.00500*%
%ADD233C,0.00667*%
%ADD234C,0.00400*%
D18*
X267685Y485795D02*
Y489795D01*
X271685D01*
Y485795D01*
X267685D01*
X203512Y487370D02*
Y491370D01*
X207512D01*
Y487370D01*
X203512D01*
Y505480D02*
Y509480D01*
X207512D01*
Y505480D01*
X203512D01*
Y496425D02*
Y500425D01*
X207512D01*
Y496425D01*
X203512D01*
X189339Y582646D02*
Y586646D01*
X193339D01*
Y582646D01*
X189339D01*
X200362Y553905D02*
Y557905D01*
X204362D01*
Y553905D01*
X200362D01*
X389732Y518472D02*
Y522472D01*
X393732D01*
Y518472D01*
X389732D01*
X391701Y529890D02*
Y533890D01*
X395701D01*
Y529890D01*
X391701D01*
X6268Y275953D02*
Y279953D01*
X10268D01*
Y275953D01*
X6268D01*
X116110Y116504D02*
Y120504D01*
X120110D01*
Y116504D01*
X116110D01*
X669260Y30283D02*
Y34284D01*
X673260D01*
Y30283D01*
X669260D01*
X298787Y167291D02*
Y171291D01*
X302787D01*
Y167291D01*
X298787D01*
X192095Y101150D02*
Y105150D01*
X196095D01*
Y101150D01*
X192095D01*
X290126Y159024D02*
Y163024D01*
X294126D01*
Y159024D01*
X290126D01*
X517291Y237370D02*
Y241370D01*
X521291D01*
Y237370D01*
X517291D01*
X516898Y88551D02*
Y92551D01*
X520898D01*
Y88551D01*
X516898D01*
X85795Y392094D02*
Y396094D01*
X89795D01*
Y392094D01*
X85795D01*
X51543Y492882D02*
Y496882D01*
X55543D01*
Y492882D01*
X51543D01*
X619654Y50756D02*
Y54756D01*
X623654D01*
Y50756D01*
X619654D01*
X656594Y241576D02*
X654594Y245576D01*
X658594D01*
X656594Y241576D01*
X658821Y243803D02*
X656821Y247803D01*
X660821D01*
X658821Y243803D01*
X661048Y246030D02*
X659048Y250030D01*
X663048D01*
X661048Y246030D01*
X652418Y245752D02*
X650418Y249752D01*
X654418D01*
X652418Y245752D01*
X650191Y247979D02*
X648191Y251979D01*
X652191D01*
X650191Y247979D01*
X654645Y247979D02*
X652645Y251979D01*
X656645D01*
X654645Y247979D01*
X652418Y250206D02*
X650418Y254206D01*
X654418D01*
X652418Y250206D01*
X656872D02*
X654872Y254206D01*
X658872D01*
X656872Y250206D01*
X654645Y252433D02*
X652645Y256433D01*
X656645D01*
X654645Y252433D01*
X664291Y250387D02*
X662291Y254387D01*
X666291D01*
X664291Y250387D01*
X662064Y252614D02*
X660064Y256614D01*
X664064D01*
X662064Y252614D01*
X659837Y254841D02*
X657837Y258841D01*
X661837D01*
X659837Y254841D01*
X657610Y257068D02*
X655610Y261068D01*
X659610D01*
X657610Y257068D01*
X666518Y252614D02*
X664518Y256614D01*
X668518D01*
X666518Y252614D01*
X664291Y254841D02*
X662291Y258841D01*
X666291D01*
X664291Y254841D01*
X662064Y257068D02*
X660064Y261068D01*
X664064D01*
X662064Y257068D01*
X659837Y259295D02*
X657837Y263295D01*
X661837D01*
X659837Y259295D01*
X128425Y24772D02*
X129425Y25772D01*
X130425D01*
X129425Y26772D01*
X130425Y27772D01*
X129425D01*
X128425Y28772D01*
X127425Y27772D01*
X126425D01*
X127425Y26772D01*
X126425Y25772D01*
X127425D01*
X128425Y24772D01*
X68425Y24772D02*
X69425Y25772D01*
X70425D01*
X69425Y26772D01*
X70425Y27772D01*
X69425D01*
X68425Y28772D01*
X67425Y27772D01*
X66425D01*
X67425Y26772D01*
X66425Y25772D01*
X67425D01*
X68425Y24772D01*
X481880Y79853D02*
X482880Y81853D01*
X481880Y83854D01*
X483880Y82854D01*
X485880Y83854D01*
X484880Y81853D01*
X485880Y79853D01*
X483880Y80853D01*
X481880Y79853D01*
X517280D02*
X518280Y81853D01*
X517280Y83854D01*
X519280Y82854D01*
X521280Y83854D01*
X520280Y81853D01*
X521280Y79853D01*
X519280Y80853D01*
X517280Y79853D01*
X493680Y72154D02*
X494680Y74154D01*
X493680Y76153D01*
X495680Y75153D01*
X497680Y76153D01*
X496680Y74154D01*
X497680Y72154D01*
X495680Y73154D01*
X493680Y72154D01*
X505480D02*
X506480Y74154D01*
X505480Y76153D01*
X507480Y75153D01*
X509480Y76153D01*
X508480Y74154D01*
X509480Y72154D01*
X507480Y73154D01*
X505480Y72154D01*
Y42360D02*
X506480Y44360D01*
X505480Y46360D01*
X507480Y45360D01*
X509480Y46360D01*
X508480Y44360D01*
X509480Y42360D01*
X507480Y43360D01*
X505480Y42360D01*
X493680D02*
X494680Y44360D01*
X493680Y46360D01*
X495680Y45360D01*
X497680Y46360D01*
X496680Y44360D01*
X497680Y42360D01*
X495680Y43360D01*
X493680Y42360D01*
X517280Y50060D02*
X518280Y52060D01*
X517280Y54060D01*
X519280Y53060D01*
X521280Y54060D01*
X520280Y52060D01*
X521280Y50060D01*
X519280Y51060D01*
X517280Y50060D01*
X481880D02*
X482880Y52060D01*
X481880Y54060D01*
X483880Y53060D01*
X485880Y54060D01*
X484880Y52060D01*
X485880Y50060D01*
X483880Y51060D01*
X481880Y50060D01*
X443276Y39860D02*
X444276Y41860D01*
X443276Y43860D01*
X445276Y42860D01*
X447276Y43860D01*
X446276Y41860D01*
X447276Y39860D01*
X445276Y40860D01*
X443276Y39860D01*
X455076D02*
X456076Y41860D01*
X455076Y43860D01*
X457076Y42860D01*
X459076Y43860D01*
X458076Y41860D01*
X459076Y39860D01*
X457076Y40860D01*
X455076Y39860D01*
X431476Y32160D02*
X432476Y34160D01*
X431476Y36160D01*
X433476Y35160D01*
X435476Y36160D01*
X434476Y34160D01*
X435476Y32160D01*
X433476Y33160D01*
X431476Y32160D01*
X466876D02*
X467876Y34160D01*
X466876Y36160D01*
X468876Y35160D01*
X470876Y36160D01*
X469876Y34160D01*
X470876Y32160D01*
X468876Y33160D01*
X466876Y32160D01*
X604512Y421756D02*
Y420756D01*
X606512D01*
Y421756D01*
X607512D01*
Y423756D01*
X606512D01*
Y424756D01*
X604512D01*
Y423756D01*
X603512D01*
Y421756D01*
X604512D01*
Y481756D02*
Y480756D01*
X606512D01*
Y481756D01*
X607512D01*
Y483756D01*
X606512D01*
Y484756D01*
X604512D01*
Y483756D01*
X603512D01*
Y481756D01*
X604512D01*
X291233Y265717D02*
X292233D01*
X293233Y266717D01*
X294233Y265717D01*
X295233D01*
Y266717D01*
X294233Y267717D01*
X295233Y268717D01*
Y269717D01*
X294233D01*
X293233Y268717D01*
X292233Y269717D01*
X291233D01*
Y268717D01*
X292233Y267717D01*
X291233Y266717D01*
Y265717D01*
X258433D02*
X259433D01*
X260433Y266717D01*
X261433Y265717D01*
X262433D01*
Y266717D01*
X261433Y267717D01*
X262433Y268717D01*
Y269717D01*
X261433D01*
X260433Y268717D01*
X259433Y269717D01*
X258433D01*
Y268717D01*
X259433Y267717D01*
X258433Y266717D01*
Y265717D01*
X175633D02*
X176633D01*
X177633Y266717D01*
X178633Y265717D01*
X179633D01*
Y266717D01*
X178633Y267717D01*
X179633Y268717D01*
Y269717D01*
X178633D01*
X177633Y268717D01*
X176633Y269717D01*
X175633D01*
Y268717D01*
X176633Y267717D01*
X175633Y266717D01*
Y265717D01*
X208433D02*
X209433D01*
X210433Y266717D01*
X211433Y265717D01*
X212433D01*
Y266717D01*
X211433Y267717D01*
X212433Y268717D01*
Y269717D01*
X211433D01*
X210433Y268717D01*
X209433Y269717D01*
X208433D01*
Y268717D01*
X209433Y267717D01*
X208433Y266717D01*
Y265717D01*
X267685Y139764D02*
X269685Y141764D01*
X271685Y139764D01*
X269685Y137764D01*
X267685Y139764D01*
Y13780D02*
X269685Y15779D01*
X271685Y13780D01*
X269685Y11779D01*
X267685Y13780D01*
X354299D02*
X356299Y15779D01*
X358299Y13780D01*
X356299Y11779D01*
X354299Y13780D01*
Y139764D02*
X356299Y141764D01*
X358299Y139764D01*
X356299Y137764D01*
X354299Y139764D01*
X96806Y343450D02*
X97806Y345450D01*
X96806Y347450D01*
X98806Y346450D01*
X100806Y347450D01*
X99806Y345450D01*
X100806Y343450D01*
X98806Y344450D01*
X96806Y343450D01*
X61406D02*
X62406Y345450D01*
X61406Y347450D01*
X63406Y346450D01*
X65406Y347450D01*
X64406Y345450D01*
X65406Y343450D01*
X63406Y344450D01*
X61406Y343450D01*
X85006Y351150D02*
X86006Y353150D01*
X85006Y355150D01*
X87006Y354150D01*
X89006Y355150D01*
X88006Y353150D01*
X89006Y351150D01*
X87006Y352150D01*
X85006Y351150D01*
X73206D02*
X74206Y353150D01*
X73206Y355150D01*
X75206Y354150D01*
X77206Y355150D01*
X76206Y353150D01*
X77206Y351150D01*
X75206Y352150D01*
X73206Y351150D01*
X304299Y84220D02*
Y88221D01*
X308299D01*
Y84220D01*
X304299D01*
X240992Y211386D02*
Y215386D01*
X244992D01*
Y211386D01*
X240992D01*
X241792Y212186D02*
Y214586D01*
X244192D01*
Y212186D01*
X241792D01*
X240992Y183827D02*
Y187827D01*
X244992D01*
Y183827D01*
X240992D01*
X241792Y184627D02*
Y187027D01*
X244192D01*
Y184627D01*
X241792D01*
X242992Y201543D02*
X240992Y205543D01*
X244992D01*
X242992Y201543D01*
Y202343D02*
X241792Y204743D01*
X244192D01*
X242992Y202343D01*
X242992Y193669D02*
X240992Y197669D01*
X244992D01*
X242992Y193669D01*
Y194469D02*
X241792Y196869D01*
X244192D01*
X242992Y194469D01*
X256299Y222803D02*
X257299Y223803D01*
X258299D01*
X257299Y224803D01*
X258299Y225803D01*
X257299D01*
X256299Y226803D01*
X255299Y225803D01*
X254299D01*
X255299Y224803D01*
X254299Y223803D01*
X255299D01*
X256299Y222803D01*
Y223603D02*
X256899Y224203D01*
X257499D01*
X256899Y224803D01*
X257499Y225403D01*
X256899D01*
X256299Y226003D01*
X255699Y225403D01*
X255099D01*
X255699Y224803D01*
X255099Y224203D01*
X255699D01*
X256299Y223603D01*
Y172409D02*
X257299Y173409D01*
X258299D01*
X257299Y174409D01*
X258299Y175409D01*
X257299D01*
X256299Y176409D01*
X255299Y175409D01*
X254299D01*
X255299Y174409D01*
X254299Y173409D01*
X255299D01*
X256299Y172409D01*
Y173209D02*
X256899Y173809D01*
X257499D01*
X256899Y174409D01*
X257499Y175009D01*
X256899D01*
X256299Y175609D01*
X255699Y175009D01*
X255099D01*
X255699Y174409D01*
X255099Y173809D01*
X255699D01*
X256299Y173209D01*
X692882Y57842D02*
X693882Y59842D01*
X692882Y61843D01*
X694882Y60843D01*
X696882Y61843D01*
X695882Y59842D01*
X696882Y57842D01*
X694882Y58842D01*
X692882Y57842D01*
X693682Y58643D02*
X694282Y59842D01*
X693682Y61042D01*
X694882Y60443D01*
X696082Y61042D01*
X695482Y59842D01*
X696082Y58643D01*
X694882Y59242D01*
X693682Y58643D01*
X645638Y57842D02*
X646638Y59842D01*
X645638Y61843D01*
X647638Y60843D01*
X649638Y61843D01*
X648638Y59842D01*
X649638Y57842D01*
X647638Y58842D01*
X645638Y57842D01*
X646438Y58643D02*
X647038Y59842D01*
X646438Y61042D01*
X647638Y60443D01*
X648838Y61042D01*
X648238Y59842D01*
X648838Y58643D01*
X647638Y59242D01*
X646438Y58643D01*
X682071Y50968D02*
Y49968D01*
X684071D01*
Y50968D01*
X685071D01*
Y52969D01*
X684071D01*
Y53969D01*
X682071D01*
Y52969D01*
X681071D01*
Y50968D01*
X682071D01*
X682471Y51368D02*
Y50769D01*
X683671D01*
Y51368D01*
X684271D01*
Y52569D01*
X683671D01*
Y53168D01*
X682471D01*
Y52569D01*
X681871D01*
Y51368D01*
X682471D01*
X658449Y50968D02*
Y49968D01*
X660449D01*
Y50968D01*
X661449D01*
Y52969D01*
X660449D01*
Y53969D01*
X658449D01*
Y52969D01*
X657449D01*
Y50968D01*
X658449D01*
X658849Y51368D02*
Y50769D01*
X660049D01*
Y51368D01*
X660649D01*
Y52569D01*
X660049D01*
Y53168D01*
X658849D01*
Y52569D01*
X658249D01*
Y51368D01*
X658849D01*
X670260Y50968D02*
Y49968D01*
X672260D01*
Y50968D01*
X673260D01*
Y52969D01*
X672260D01*
Y53969D01*
X670260D01*
Y52969D01*
X669260D01*
Y50968D01*
X670260D01*
X670660Y51368D02*
Y50769D01*
X671860D01*
Y51368D01*
X672460D01*
Y52569D01*
X671860D01*
Y53168D01*
X670660D01*
Y52569D01*
X670060D01*
Y51368D01*
X670660D01*
X182163Y10598D02*
X183163Y12598D01*
X182163Y14598D01*
X184163Y13598D01*
X186163Y14598D01*
X185163Y12598D01*
X186163Y10598D01*
X184163Y11598D01*
X182163Y10598D01*
X193963D02*
X194963Y12598D01*
X193963Y14598D01*
X195963Y13598D01*
X197963Y14598D01*
X196963Y12598D01*
X197963Y10598D01*
X195963Y11598D01*
X193963Y10598D01*
X170363Y2898D02*
X171363Y4898D01*
X170363Y6898D01*
X172363Y5898D01*
X174363Y6898D01*
X173363Y4898D01*
X174363Y2898D01*
X172363Y3898D01*
X170363Y2898D01*
X205763D02*
X206763Y4898D01*
X205763Y6898D01*
X207763Y5898D01*
X209763Y6898D01*
X208763Y4898D01*
X209763Y2898D01*
X207763Y3898D01*
X205763Y2898D01*
Y38804D02*
X206763Y40804D01*
X205763Y42804D01*
X207763Y41804D01*
X209763Y42804D01*
X208763Y40804D01*
X209763Y38804D01*
X207763Y39804D01*
X205763Y38804D01*
X170363D02*
X171363Y40804D01*
X170363Y42804D01*
X172363Y41804D01*
X174363Y42804D01*
X173363Y40804D01*
X174363Y38804D01*
X172363Y39804D01*
X170363Y38804D01*
X193963Y46504D02*
X194963Y48504D01*
X193963Y50504D01*
X195963Y49504D01*
X197963Y50504D01*
X196963Y48504D01*
X197963Y46504D01*
X195963Y47504D01*
X193963Y46504D01*
X182163D02*
X183163Y48504D01*
X182163Y50504D01*
X184163Y49504D01*
X186163Y50504D01*
X185163Y48504D01*
X186163Y46504D01*
X184163Y47504D01*
X182163Y46504D01*
X68425Y83827D02*
X69425Y84827D01*
X70425D01*
X69425Y85827D01*
X70425Y86827D01*
X69425D01*
X68425Y87827D01*
X67425Y86827D01*
X66425D01*
X67425Y85827D01*
X66425Y84827D01*
X67425D01*
X68425Y83827D01*
X128425D02*
X129425Y84827D01*
X130425D01*
X129425Y85827D01*
X130425Y86827D01*
X129425D01*
X128425Y87827D01*
X127425Y86827D01*
X126425D01*
X127425Y85827D01*
X126425Y84827D01*
X127425D01*
X128425Y83827D01*
X443276Y69653D02*
X444276Y71653D01*
X443276Y73654D01*
X445276Y72654D01*
X447276Y73654D01*
X446276Y71653D01*
X447276Y69653D01*
X445276Y70653D01*
X443276Y69653D01*
X455076D02*
X456076Y71653D01*
X455076Y73654D01*
X457076Y72654D01*
X459076Y73654D01*
X458076Y71653D01*
X459076Y69653D01*
X457076Y70653D01*
X455076Y69653D01*
X431476Y61954D02*
X432476Y63954D01*
X431476Y65953D01*
X433476Y64954D01*
X435476Y65953D01*
X434476Y63954D01*
X435476Y61954D01*
X433476Y62954D01*
X431476Y61954D01*
X466876D02*
X467876Y63954D01*
X466876Y65953D01*
X468876Y64954D01*
X470876Y65953D01*
X469876Y63954D01*
X470876Y61954D01*
X468876Y62954D01*
X466876Y61954D01*
X407449Y576772D02*
X409449Y578772D01*
X411449Y576772D01*
X409449Y574772D01*
X407449Y576772D01*
X179496Y147213D02*
X180496D01*
X181496Y148213D01*
X182496Y147213D01*
X183496D01*
Y148213D01*
X182496Y149213D01*
X183496Y150213D01*
Y151213D01*
X182496D01*
X181496Y150213D01*
X180496Y151213D01*
X179496D01*
Y150213D01*
X180496Y149213D01*
X179496Y148213D01*
Y147213D01*
X180296Y148013D02*
X180896D01*
X181496Y148613D01*
X182096Y148013D01*
X182696D01*
Y148613D01*
X182096Y149213D01*
X182696Y149813D01*
Y150413D01*
X182096D01*
X181496Y149813D01*
X180896Y150413D01*
X180296D01*
Y149813D01*
X180896Y149213D01*
X180296Y148613D01*
Y148013D01*
X190157Y165354D02*
Y168687D01*
X191824Y170353D01*
X193490Y168687D01*
Y165354D01*
Y167853D01*
X190157D01*
Y155512D02*
Y158844D01*
X191824Y160510D01*
X193490Y158844D01*
Y155512D01*
Y158011D01*
X190157D01*
X773591Y576772D02*
X775591Y578772D01*
X777591Y576772D01*
X775591Y574772D01*
X773591Y576772D01*
X13748D02*
X15748Y578772D01*
X17748Y576772D01*
X15748Y574772D01*
X13748Y576772D01*
Y383858D02*
X15748Y385858D01*
X17748Y383858D01*
X15748Y381858D01*
X13748Y383858D01*
Y13780D02*
X15748Y15779D01*
X17748Y13780D01*
X15748Y11779D01*
X13748Y13780D01*
X773591D02*
X775591Y15779D01*
X777591Y13780D01*
X775591Y11779D01*
X773591Y13780D01*
X407449D02*
X409449Y15779D01*
X411449Y13780D01*
X409449Y11779D01*
X407449Y13780D01*
X242094Y383858D02*
X244094Y385858D01*
X246094Y383858D01*
X244094Y381858D01*
X242094Y383858D01*
Y576772D02*
X244094Y578772D01*
X246094Y576772D01*
X244094Y574772D01*
X242094Y576772D01*
X466876Y2367D02*
X467876Y4367D01*
X466876Y6367D01*
X468876Y5367D01*
X470876Y6367D01*
X469876Y4367D01*
X470876Y2367D01*
X468876Y3367D01*
X466876Y2367D01*
X431476D02*
X432476Y4367D01*
X431476Y6367D01*
X433476Y5367D01*
X435476Y6367D01*
X434476Y4367D01*
X435476Y2367D01*
X433476Y3367D01*
X431476Y2367D01*
X455076Y10067D02*
X456076Y12067D01*
X455076Y14067D01*
X457076Y13067D01*
X459076Y14067D01*
X458076Y12067D01*
X459076Y10067D01*
X457076Y11067D01*
X455076Y10067D01*
X443276D02*
X444276Y12067D01*
X443276Y14067D01*
X445276Y13067D01*
X447276Y14067D01*
X446276Y12067D01*
X447276Y10067D01*
X445276Y11067D01*
X443276Y10067D01*
X651560Y125901D02*
X652560Y127901D01*
X651560Y129901D01*
X653560Y128901D01*
X655560Y129901D01*
X654560Y127901D01*
X655560Y125901D01*
X653560Y126901D01*
X651560Y125901D01*
X686960D02*
X687960Y127901D01*
X686960Y129901D01*
X688960Y128901D01*
X690960Y129901D01*
X689960Y127901D01*
X690960Y125901D01*
X688960Y126901D01*
X686960Y125901D01*
X663360Y118201D02*
X664360Y120201D01*
X663360Y122201D01*
X665360Y121201D01*
X667360Y122201D01*
X666360Y120201D01*
X667360Y118201D01*
X665360Y119201D01*
X663360Y118201D01*
X675160D02*
X676160Y120201D01*
X675160Y122201D01*
X677160Y121201D01*
X679160Y122201D01*
X678160Y120201D01*
X679160Y118201D01*
X677160Y119201D01*
X675160Y118201D01*
X651560Y160267D02*
X652560Y162267D01*
X651560Y164267D01*
X653560Y163267D01*
X655560Y164267D01*
X654560Y162267D01*
X655560Y160267D01*
X653560Y161267D01*
X651560Y160267D01*
X686960D02*
X687960Y162267D01*
X686960Y164267D01*
X688960Y163267D01*
X690960Y164267D01*
X689960Y162267D01*
X690960Y160267D01*
X688960Y161267D01*
X686960Y160267D01*
X663360Y152567D02*
X664360Y154567D01*
X663360Y156567D01*
X665360Y155567D01*
X667360Y156567D01*
X666360Y154567D01*
X667360Y152567D01*
X665360Y153567D01*
X663360Y152567D01*
X675160D02*
X676160Y154567D01*
X675160Y156567D01*
X677160Y155567D01*
X679160Y156567D01*
X678160Y154567D01*
X679160Y152567D01*
X677160Y153567D01*
X675160Y152567D01*
X651560Y91535D02*
X652560Y93535D01*
X651560Y95535D01*
X653560Y94535D01*
X655560Y95535D01*
X654560Y93535D01*
X655560Y91535D01*
X653560Y92535D01*
X651560Y91535D01*
X686960D02*
X687960Y93535D01*
X686960Y95535D01*
X688960Y94535D01*
X690960Y95535D01*
X689960Y93535D01*
X690960Y91535D01*
X688960Y92535D01*
X686960Y91535D01*
X663360Y83835D02*
X664360Y85835D01*
X663360Y87835D01*
X665360Y86835D01*
X667360Y87835D01*
X666360Y85835D01*
X667360Y83835D01*
X665360Y84835D01*
X663360Y83835D01*
X675160D02*
X676160Y85835D01*
X675160Y87835D01*
X677160Y86835D01*
X679160Y87835D01*
X678160Y85835D01*
X679160Y83835D01*
X677160Y84835D01*
X675160Y83835D01*
X73206Y314142D02*
X74206Y316142D01*
X73206Y318142D01*
X75206Y317142D01*
X77206Y318142D01*
X76206Y316142D01*
X77206Y314142D01*
X75206Y315142D01*
X73206Y314142D01*
X85006D02*
X86006Y316142D01*
X85006Y318142D01*
X87006Y317142D01*
X89006Y318142D01*
X88006Y316142D01*
X89006Y314142D01*
X87006Y315142D01*
X85006Y314142D01*
X61406Y306442D02*
X62406Y308442D01*
X61406Y310442D01*
X63406Y309442D01*
X65406Y310442D01*
X64406Y308442D01*
X65406Y306442D01*
X63406Y307442D01*
X61406Y306442D01*
X96806D02*
X97806Y308442D01*
X96806Y310442D01*
X98806Y309442D01*
X100806Y310442D01*
X99806Y308442D01*
X100806Y306442D01*
X98806Y307442D01*
X96806Y306442D01*
X217685Y92094D02*
X218685Y94095D01*
X217685Y96095D01*
X219685Y95095D01*
X221685Y96095D01*
X220685Y94095D01*
X221685Y92094D01*
X219685Y93094D01*
X217685Y92094D01*
X218485Y92895D02*
X219085Y94095D01*
X218485Y95294D01*
X219685Y94695D01*
X220885Y95294D01*
X220285Y94095D01*
X220885Y92895D01*
X219685Y93494D01*
X218485Y92895D01*
X170441Y92094D02*
X171441Y94095D01*
X170441Y96095D01*
X172441Y95095D01*
X174441Y96095D01*
X173441Y94095D01*
X174441Y92094D01*
X172441Y93094D01*
X170441Y92094D01*
X171241Y92895D02*
X171841Y94095D01*
X171241Y95294D01*
X172441Y94695D01*
X173641Y95294D01*
X173041Y94095D01*
X173641Y92895D01*
X172441Y93494D01*
X171241Y92895D01*
X206874Y85220D02*
Y84220D01*
X208874D01*
Y85220D01*
X209874D01*
Y87221D01*
X208874D01*
Y88221D01*
X206874D01*
Y87221D01*
X205874D01*
Y85220D01*
X206874D01*
X207274Y85620D02*
Y85021D01*
X208474D01*
Y85620D01*
X209074D01*
Y86821D01*
X208474D01*
Y87420D01*
X207274D01*
Y86821D01*
X206674D01*
Y85620D01*
X207274D01*
X183252Y85220D02*
Y84220D01*
X185252D01*
Y85220D01*
X186252D01*
Y87221D01*
X185252D01*
Y88221D01*
X183252D01*
Y87221D01*
X182252D01*
Y85220D01*
X183252D01*
X183652Y85620D02*
Y85021D01*
X184852D01*
Y85620D01*
X185452D01*
Y86821D01*
X184852D01*
Y87420D01*
X183652D01*
Y86821D01*
X183052D01*
Y85620D01*
X183652D01*
X195063Y85220D02*
Y84220D01*
X197063D01*
Y85220D01*
X198063D01*
Y87221D01*
X197063D01*
Y88221D01*
X195063D01*
Y87221D01*
X194063D01*
Y85220D01*
X195063D01*
X195463Y85620D02*
Y85021D01*
X196663D01*
Y85620D01*
X197263D01*
Y86821D01*
X196663D01*
Y87420D01*
X195463D01*
Y86821D01*
X194863D01*
Y85620D01*
X195463D01*
X671260Y182400D02*
Y177402D01*
X673759D01*
X674592Y178235D01*
Y179068D01*
X673759Y179901D01*
X671260D01*
X673759D01*
X674592Y180734D01*
Y181567D01*
X673759Y182400D01*
X671260D01*
Y192400D02*
Y187402D01*
X673759D01*
X674592Y188235D01*
Y189068D01*
X673759Y189901D01*
X671260D01*
X673759D01*
X674592Y190734D01*
Y191567D01*
X673759Y192400D01*
X671260D01*
Y202400D02*
Y197402D01*
X673759D01*
X674592Y198235D01*
Y199068D01*
X673759Y199901D01*
X671260D01*
X673759D01*
X674592Y200734D01*
Y201567D01*
X673759Y202400D01*
X671260D01*
Y212400D02*
Y207402D01*
X673759D01*
X674592Y208235D01*
Y209068D01*
X673759Y209901D01*
X671260D01*
X673759D01*
X674592Y210734D01*
Y211567D01*
X673759Y212400D01*
X671260D01*
X179496Y182646D02*
X180496D01*
X181496Y183646D01*
X182496Y182646D01*
X183496D01*
Y183646D01*
X182496Y184646D01*
X183496Y185646D01*
Y186646D01*
X182496D01*
X181496Y185646D01*
X180496Y186646D01*
X179496D01*
Y185646D01*
X180496Y184646D01*
X179496Y183646D01*
Y182646D01*
X180296Y183446D02*
X180896D01*
X181496Y184046D01*
X182096Y183446D01*
X182696D01*
Y184046D01*
X182096Y184646D01*
X182696Y185246D01*
Y185846D01*
X182096D01*
X181496Y185246D01*
X180896Y185846D01*
X180296D01*
Y185246D01*
X180896Y184646D01*
X180296Y184046D01*
Y183446D01*
X190157Y200787D02*
Y204120D01*
X191824Y205786D01*
X193490Y204120D01*
Y200787D01*
Y203287D01*
X190157D01*
Y190945D02*
Y194277D01*
X191824Y195943D01*
X193490Y194277D01*
Y190945D01*
Y193444D01*
X190157D01*
X505480Y12567D02*
X506480Y14567D01*
X505480Y16567D01*
X507480Y15567D01*
X509480Y16567D01*
X508480Y14567D01*
X509480Y12567D01*
X507480Y13567D01*
X505480Y12567D01*
X493680D02*
X494680Y14567D01*
X493680Y16567D01*
X495680Y15567D01*
X497680Y16567D01*
X496680Y14567D01*
X497680Y12567D01*
X495680Y13567D01*
X493680Y12567D01*
X517280Y20267D02*
X518280Y22267D01*
X517280Y24267D01*
X519280Y23267D01*
X521280Y24267D01*
X520280Y22267D01*
X521280Y20267D01*
X519280Y21267D01*
X517280Y20267D01*
X481880D02*
X482880Y22267D01*
X481880Y24267D01*
X483880Y23267D01*
X485880Y24267D01*
X484880Y22267D01*
X485880Y20267D01*
X483880Y21267D01*
X481880Y20267D01*
X182163Y116898D02*
X183163Y118898D01*
X182163Y120898D01*
X184163Y119898D01*
X186163Y120898D01*
X185163Y118898D01*
X186163Y116898D01*
X184163Y117898D01*
X182163Y116898D01*
X193963D02*
X194963Y118898D01*
X193963Y120898D01*
X195963Y119898D01*
X197963Y120898D01*
X196963Y118898D01*
X197963Y116898D01*
X195963Y117898D01*
X193963Y116898D01*
X170363Y109198D02*
X171363Y111198D01*
X170363Y113198D01*
X172363Y112198D01*
X174363Y113198D01*
X173363Y111198D01*
X174363Y109198D01*
X172363Y110198D01*
X170363Y109198D01*
X205763D02*
X206763Y111198D01*
X205763Y113198D01*
X207763Y112198D01*
X209763Y113198D01*
X208763Y111198D01*
X209763Y109198D01*
X207763Y110198D01*
X205763Y109198D01*
X208433Y311386D02*
X209433D01*
X210433Y312386D01*
X211433Y311386D01*
X212433D01*
Y312386D01*
X211433Y313386D01*
X212433Y314386D01*
Y315386D01*
X211433D01*
X210433Y314386D01*
X209433Y315386D01*
X208433D01*
Y314386D01*
X209433Y313386D01*
X208433Y312386D01*
Y311386D01*
X175633D02*
X176633D01*
X177633Y312386D01*
X178633Y311386D01*
X179633D01*
Y312386D01*
X178633Y313386D01*
X179633Y314386D01*
Y315386D01*
X178633D01*
X177633Y314386D01*
X176633Y315386D01*
X175633D01*
Y314386D01*
X176633Y313386D01*
X175633Y312386D01*
Y311386D01*
X258433D02*
X259433D01*
X260433Y312386D01*
X261433Y311386D01*
X262433D01*
Y312386D01*
X261433Y313386D01*
X262433Y314386D01*
Y315386D01*
X261433D01*
X260433Y314386D01*
X259433Y315386D01*
X258433D01*
Y314386D01*
X259433Y313386D01*
X258433Y312386D01*
Y311386D01*
X291233D02*
X292233D01*
X293233Y312386D01*
X294233Y311386D01*
X295233D01*
Y312386D01*
X294233Y313386D01*
X295233Y314386D01*
Y315386D01*
X294233D01*
X293233Y314386D01*
X292233Y315386D01*
X291233D01*
Y314386D01*
X292233Y313386D01*
X291233Y312386D01*
Y311386D01*
X775953Y201937D02*
Y205937D01*
X779953D01*
Y201937D01*
X775953D01*
X780874Y192095D02*
Y196095D01*
X784874D01*
Y192095D01*
X780874D01*
X775953Y182252D02*
Y186252D01*
X779953D01*
Y182252D01*
X775953D01*
X780874Y172409D02*
Y176409D01*
X784874D01*
Y172409D01*
X780874D01*
Y152724D02*
Y156724D01*
X784874D01*
Y152724D01*
X780874D01*
X775953Y142882D02*
Y146882D01*
X779953D01*
Y142882D01*
X775953D01*
X780874Y133039D02*
Y137039D01*
X784874D01*
Y133039D01*
X780874D01*
X775953Y123197D02*
Y127197D01*
X779953D01*
Y123197D01*
X775953D01*
X780874Y113354D02*
Y117354D01*
X784874D01*
Y113354D01*
X780874D01*
X775953Y103512D02*
Y107512D01*
X779953D01*
Y103512D01*
X775953D01*
X780874Y93669D02*
Y97669D01*
X784874D01*
Y93669D01*
X780874D01*
X775953Y83827D02*
Y87827D01*
X779953D01*
Y83827D01*
X775953D01*
X780874Y73984D02*
Y77984D01*
X784874D01*
Y73984D01*
X780874D01*
X775953Y64142D02*
Y68142D01*
X779953D01*
Y64142D01*
X775953D01*
X780874Y54299D02*
Y58299D01*
X784874D01*
Y54299D01*
X780874D01*
X775953Y44457D02*
Y48457D01*
X779953D01*
Y44457D01*
X775953D01*
X780874Y34614D02*
Y38614D01*
X784874D01*
Y34614D01*
X780874D01*
X775953Y24772D02*
Y28772D01*
X779953D01*
Y24772D01*
X775953D01*
X766110Y201937D02*
Y205937D01*
X770110D01*
Y201937D01*
X766110D01*
X771032Y192095D02*
Y196095D01*
X775032D01*
Y192095D01*
X771032D01*
X766110Y182252D02*
Y186252D01*
X770110D01*
Y182252D01*
X766110D01*
X771032Y172409D02*
Y176409D01*
X775032D01*
Y172409D01*
X771032D01*
X766110Y103512D02*
Y107512D01*
X770110D01*
Y103512D01*
X766110D01*
X771032Y93669D02*
Y97669D01*
X775032D01*
Y93669D01*
X771032D01*
Y73984D02*
Y77984D01*
X775032D01*
Y73984D01*
X771032D01*
Y54299D02*
Y58299D01*
X775032D01*
Y54299D01*
X771032D01*
Y34614D02*
Y38614D01*
X775032D01*
Y34614D01*
X771032D01*
X766110Y24772D02*
Y28772D01*
X770110D01*
Y24772D01*
X766110D01*
Y5087D02*
Y9087D01*
X770110D01*
Y5087D01*
X766110D01*
X756268Y201937D02*
Y205937D01*
X760268D01*
Y201937D01*
X756268D01*
X761189Y192095D02*
Y196095D01*
X765189D01*
Y192095D01*
X761189D01*
X756268Y182252D02*
Y186252D01*
X760268D01*
Y182252D01*
X756268D01*
X761189Y172409D02*
Y176409D01*
X765189D01*
Y172409D01*
X761189D01*
X756268Y103512D02*
Y107512D01*
X760268D01*
Y103512D01*
X756268D01*
X761189Y93669D02*
Y97669D01*
X765189D01*
Y93669D01*
X761189D01*
Y14929D02*
Y18929D01*
X765189D01*
Y14929D01*
X761189D01*
X756268Y5087D02*
Y9087D01*
X760268D01*
Y5087D01*
X756268D01*
X751346Y192095D02*
Y196095D01*
X755346D01*
Y192095D01*
X751346D01*
X746425Y103512D02*
Y107512D01*
X750425D01*
Y103512D01*
X746425D01*
X751346Y93669D02*
Y97669D01*
X755346D01*
Y93669D01*
X751346D01*
Y54299D02*
Y58299D01*
X755346D01*
Y54299D01*
X751346D01*
Y34614D02*
Y38614D01*
X755346D01*
Y34614D01*
X751346D01*
Y14929D02*
Y18929D01*
X755346D01*
Y14929D01*
X751346D01*
X746425Y5087D02*
Y9087D01*
X750425D01*
Y5087D01*
X746425D01*
X741504Y93669D02*
Y97669D01*
X745504D01*
Y93669D01*
X741504D01*
Y54299D02*
Y58299D01*
X745504D01*
Y54299D01*
X741504D01*
Y14929D02*
Y18929D01*
X745504D01*
Y14929D01*
X741504D01*
X736583Y5087D02*
Y9087D01*
X740583D01*
Y5087D01*
X736583D01*
X731661Y14929D02*
Y18929D01*
X735661D01*
Y14929D01*
X731661D01*
X726740Y5087D02*
Y9087D01*
X730740D01*
Y5087D01*
X726740D01*
X721819Y192095D02*
Y196095D01*
X725819D01*
Y192095D01*
X721819D01*
X716898Y182252D02*
Y186252D01*
X720898D01*
Y182252D01*
X716898D01*
X721819Y172409D02*
Y176409D01*
X725819D01*
Y172409D01*
X721819D01*
Y152724D02*
Y156724D01*
X725819D01*
Y152724D01*
X721819D01*
X716898Y103512D02*
Y107512D01*
X720898D01*
Y103512D01*
X716898D01*
X721819Y93669D02*
Y97669D01*
X725819D01*
Y93669D01*
X721819D01*
X716898Y64142D02*
Y68142D01*
X720898D01*
Y64142D01*
X716898D01*
X721819Y34614D02*
Y38614D01*
X725819D01*
Y34614D01*
X721819D01*
Y14929D02*
Y18929D01*
X725819D01*
Y14929D01*
X721819D01*
X716898Y5087D02*
Y9087D01*
X720898D01*
Y5087D01*
X716898D01*
X711976Y192095D02*
Y196095D01*
X715976D01*
Y192095D01*
X711976D01*
X707055Y182252D02*
Y186252D01*
X711055D01*
Y182252D01*
X707055D01*
X711976Y172409D02*
Y176409D01*
X715976D01*
Y172409D01*
X711976D01*
X707055Y162567D02*
Y166567D01*
X711055D01*
Y162567D01*
X707055D01*
X711976Y152724D02*
Y156724D01*
X715976D01*
Y152724D01*
X711976D01*
X707055Y103512D02*
Y107512D01*
X711055D01*
Y103512D01*
X707055D01*
X711976Y93669D02*
Y97669D01*
X715976D01*
Y93669D01*
X711976D01*
X707055Y64142D02*
Y68142D01*
X711055D01*
Y64142D01*
X707055D01*
X711976Y34614D02*
Y38614D01*
X715976D01*
Y34614D01*
X711976D01*
Y14929D02*
Y18929D01*
X715976D01*
Y14929D01*
X711976D01*
X707055Y5087D02*
Y9087D01*
X711055D01*
Y5087D01*
X707055D01*
X702134Y192095D02*
Y196095D01*
X706134D01*
Y192095D01*
X702134D01*
X697213Y182252D02*
Y186252D01*
X701213D01*
Y182252D01*
X697213D01*
X702134Y172409D02*
Y176409D01*
X706134D01*
Y172409D01*
X702134D01*
X697213Y162567D02*
Y166567D01*
X701213D01*
Y162567D01*
X697213D01*
X702134Y152724D02*
Y156724D01*
X706134D01*
Y152724D01*
X702134D01*
X697213Y123197D02*
Y127197D01*
X701213D01*
Y123197D01*
X697213D01*
Y103512D02*
Y107512D01*
X701213D01*
Y103512D01*
X697213D01*
X702134Y93669D02*
Y97669D01*
X706134D01*
Y93669D01*
X702134D01*
Y73984D02*
Y77984D01*
X706134D01*
Y73984D01*
X702134D01*
X697213Y64142D02*
Y68142D01*
X701213D01*
Y64142D01*
X697213D01*
Y44457D02*
Y48457D01*
X701213D01*
Y44457D01*
X697213D01*
X702134Y34614D02*
Y38614D01*
X706134D01*
Y34614D01*
X702134D01*
Y14929D02*
Y18929D01*
X706134D01*
Y14929D01*
X702134D01*
X697213Y5087D02*
Y9087D01*
X701213D01*
Y5087D01*
X697213D01*
X692291Y428315D02*
Y432315D01*
X696291D01*
Y428315D01*
X692291D01*
Y270835D02*
Y274835D01*
X696291D01*
Y270835D01*
X692291D01*
Y192095D02*
Y196095D01*
X696291D01*
Y192095D01*
X692291D01*
X687370Y182252D02*
Y186252D01*
X691370D01*
Y182252D01*
X687370D01*
X692291Y172409D02*
Y176409D01*
X696291D01*
Y172409D01*
X692291D01*
Y152724D02*
Y156724D01*
X696291D01*
Y152724D01*
X692291D01*
X687370Y103512D02*
Y107512D01*
X691370D01*
Y103512D01*
X687370D01*
X692291Y93669D02*
Y97669D01*
X696291D01*
Y93669D01*
X692291D01*
X687370Y83827D02*
Y87827D01*
X691370D01*
Y83827D01*
X687370D01*
X692291Y73984D02*
Y77984D01*
X696291D01*
Y73984D01*
X692291D01*
X687370Y64142D02*
Y68142D01*
X691370D01*
Y64142D01*
X687370D01*
Y44457D02*
Y48457D01*
X691370D01*
Y44457D01*
X687370D01*
X692291Y34614D02*
Y38614D01*
X696291D01*
Y34614D01*
X692291D01*
Y14929D02*
Y18929D01*
X696291D01*
Y14929D01*
X692291D01*
X687370Y5087D02*
Y9087D01*
X691370D01*
Y5087D01*
X687370D01*
X682449Y428315D02*
Y432315D01*
X686449D01*
Y428315D01*
X682449D01*
Y192095D02*
Y196095D01*
X686449D01*
Y192095D01*
X682449D01*
X677528Y182252D02*
Y186252D01*
X681528D01*
Y182252D01*
X677528D01*
X682449Y172409D02*
Y176409D01*
X686449D01*
Y172409D01*
X682449D01*
X677528Y162567D02*
Y166567D01*
X681528D01*
Y162567D01*
X677528D01*
X682449Y152724D02*
Y156724D01*
X686449D01*
Y152724D01*
X682449D01*
X677528Y103512D02*
Y107512D01*
X681528D01*
Y103512D01*
X677528D01*
Y64142D02*
Y68142D01*
X681528D01*
Y64142D01*
X677528D01*
X682449Y34614D02*
Y38614D01*
X686449D01*
Y34614D01*
X682449D01*
Y14929D02*
Y18929D01*
X686449D01*
Y14929D01*
X682449D01*
X677528Y5087D02*
Y9087D01*
X681528D01*
Y5087D01*
X677528D01*
X667685Y162567D02*
Y166567D01*
X671685D01*
Y162567D01*
X667685D01*
Y103512D02*
Y107512D01*
X671685D01*
Y103512D01*
X667685D01*
X672606Y93669D02*
Y97669D01*
X676606D01*
Y93669D01*
X672606D01*
X667685Y64142D02*
Y68142D01*
X671685D01*
Y64142D01*
X667685D01*
X672606Y14929D02*
Y18929D01*
X676606D01*
Y14929D01*
X672606D01*
X667685Y5087D02*
Y9087D01*
X671685D01*
Y5087D01*
X667685D01*
X662764Y211779D02*
Y215779D01*
X666764D01*
Y211779D01*
X662764D01*
X657842Y182252D02*
Y186252D01*
X661842D01*
Y182252D01*
X657842D01*
X662764Y172409D02*
Y176409D01*
X666764D01*
Y172409D01*
X662764D01*
X657842Y162567D02*
Y166567D01*
X661842D01*
Y162567D01*
X657842D01*
Y142882D02*
Y146882D01*
X661842D01*
Y142882D01*
X657842D01*
X662764Y133039D02*
Y137039D01*
X666764D01*
Y133039D01*
X662764D01*
X657842Y123197D02*
Y127197D01*
X661842D01*
Y123197D01*
X657842D01*
X662764Y93669D02*
Y97669D01*
X666764D01*
Y93669D01*
X662764D01*
Y73984D02*
Y77984D01*
X666764D01*
Y73984D01*
X662764D01*
Y34614D02*
Y38614D01*
X666764D01*
Y34614D01*
X662764D01*
Y14929D02*
Y18929D01*
X666764D01*
Y14929D01*
X662764D01*
X657842Y5087D02*
Y9087D01*
X661842D01*
Y5087D01*
X657842D01*
X652921Y192095D02*
Y196095D01*
X656921D01*
Y192095D01*
X652921D01*
X648000Y182252D02*
Y186252D01*
X652000D01*
Y182252D01*
X648000D01*
X652921Y172409D02*
Y176409D01*
X656921D01*
Y172409D01*
X652921D01*
Y152724D02*
Y156724D01*
X656921D01*
Y152724D01*
X652921D01*
X648000Y142882D02*
Y146882D01*
X652000D01*
Y142882D01*
X648000D01*
X652921Y133039D02*
Y137039D01*
X656921D01*
Y133039D01*
X652921D01*
Y113354D02*
Y117354D01*
X656921D01*
Y113354D01*
X652921D01*
X648000Y103512D02*
Y107512D01*
X652000D01*
Y103512D01*
X648000D01*
Y83827D02*
Y87827D01*
X652000D01*
Y83827D01*
X648000D01*
X652921Y73984D02*
Y77984D01*
X656921D01*
Y73984D01*
X652921D01*
X648000Y44457D02*
Y48457D01*
X652000D01*
Y44457D01*
X648000D01*
X652921Y34614D02*
Y38614D01*
X656921D01*
Y34614D01*
X652921D01*
Y14929D02*
Y18929D01*
X656921D01*
Y14929D01*
X652921D01*
X648000Y5087D02*
Y9087D01*
X652000D01*
Y5087D01*
X648000D01*
X643079Y192095D02*
Y196095D01*
X647079D01*
Y192095D01*
X643079D01*
X638158Y182252D02*
Y186252D01*
X642158D01*
Y182252D01*
X638158D01*
X643079Y152724D02*
Y156724D01*
X647079D01*
Y152724D01*
X643079D01*
X638158Y142882D02*
Y146882D01*
X642158D01*
Y142882D01*
X638158D01*
X643079Y133039D02*
Y137039D01*
X647079D01*
Y133039D01*
X643079D01*
X638158Y123197D02*
Y127197D01*
X642158D01*
Y123197D01*
X638158D01*
X643079Y113354D02*
Y117354D01*
X647079D01*
Y113354D01*
X643079D01*
X638158Y103512D02*
Y107512D01*
X642158D01*
Y103512D01*
X638158D01*
X643079Y73984D02*
Y77984D01*
X647079D01*
Y73984D01*
X643079D01*
X638158Y44457D02*
Y48457D01*
X642158D01*
Y44457D01*
X638158D01*
X643079Y34614D02*
Y38614D01*
X647079D01*
Y34614D01*
X643079D01*
Y14929D02*
Y18929D01*
X647079D01*
Y14929D01*
X643079D01*
X638158Y5087D02*
Y9087D01*
X642158D01*
Y5087D01*
X638158D01*
X633236Y270835D02*
Y274835D01*
X637236D01*
Y270835D01*
X633236D01*
Y192095D02*
Y196095D01*
X637236D01*
Y192095D01*
X633236D01*
Y152724D02*
Y156724D01*
X637236D01*
Y152724D01*
X633236D01*
Y133039D02*
Y137039D01*
X637236D01*
Y133039D01*
X633236D01*
X628315Y123197D02*
Y127197D01*
X632315D01*
Y123197D01*
X628315D01*
X633236Y113354D02*
Y117354D01*
X637236D01*
Y113354D01*
X633236D01*
X628315Y103512D02*
Y107512D01*
X632315D01*
Y103512D01*
X628315D01*
X633236Y93669D02*
Y97669D01*
X637236D01*
Y93669D01*
X633236D01*
X628315Y44457D02*
Y48457D01*
X632315D01*
Y44457D01*
X628315D01*
X633236Y34614D02*
Y38614D01*
X637236D01*
Y34614D01*
X633236D01*
Y14929D02*
Y18929D01*
X637236D01*
Y14929D01*
X633236D01*
X628315Y5087D02*
Y9087D01*
X632315D01*
Y5087D01*
X628315D01*
X623394Y93669D02*
Y97669D01*
X627394D01*
Y93669D01*
X623394D01*
X618472Y44457D02*
Y48457D01*
X622472D01*
Y44457D01*
X618472D01*
X623394Y34614D02*
Y38614D01*
X627394D01*
Y34614D01*
X623394D01*
Y14929D02*
Y18929D01*
X627394D01*
Y14929D01*
X623394D01*
X618472Y5087D02*
Y9087D01*
X622472D01*
Y5087D01*
X618472D01*
X608630Y103512D02*
Y107512D01*
X612630D01*
Y103512D01*
X608630D01*
Y44457D02*
Y48457D01*
X612630D01*
Y44457D01*
X608630D01*
X613551Y34614D02*
Y38614D01*
X617551D01*
Y34614D01*
X613551D01*
X608630Y24772D02*
Y28772D01*
X612630D01*
Y24772D01*
X608630D01*
Y5087D02*
Y9087D01*
X612630D01*
Y5087D01*
X608630D01*
X603709Y93669D02*
Y97669D01*
X607709D01*
Y93669D01*
X603709D01*
X598787Y44457D02*
Y48457D01*
X602787D01*
Y44457D01*
X598787D01*
X603709Y34614D02*
Y38614D01*
X607709D01*
Y34614D01*
X603709D01*
X598787Y24772D02*
Y28772D01*
X602787D01*
Y24772D01*
X598787D01*
X593866Y93669D02*
Y97669D01*
X597866D01*
Y93669D01*
X593866D01*
X588945Y5087D02*
Y9087D01*
X592945D01*
Y5087D01*
X588945D01*
X579102Y103512D02*
Y107512D01*
X583102D01*
Y103512D01*
X579102D01*
X584024Y93669D02*
Y97669D01*
X588024D01*
Y93669D01*
X584024D01*
X579102Y44457D02*
Y48457D01*
X583102D01*
Y44457D01*
X579102D01*
Y5087D02*
Y9087D01*
X583102D01*
Y5087D01*
X579102D01*
X569260Y103512D02*
Y107512D01*
X573260D01*
Y103512D01*
X569260D01*
X574181Y93669D02*
Y97669D01*
X578181D01*
Y93669D01*
X574181D01*
X569260Y83827D02*
Y87827D01*
X573260D01*
Y83827D01*
X569260D01*
Y64142D02*
Y68142D01*
X573260D01*
Y64142D01*
X569260D01*
Y44457D02*
Y48457D01*
X573260D01*
Y44457D01*
X569260D01*
Y24772D02*
Y28772D01*
X573260D01*
Y24772D01*
X569260D01*
Y5087D02*
Y9087D01*
X573260D01*
Y5087D01*
X569260D01*
X564339Y270835D02*
Y274835D01*
X568339D01*
Y270835D01*
X564339D01*
X559417Y241307D02*
Y245307D01*
X563417D01*
Y241307D01*
X559417D01*
Y201937D02*
Y205937D01*
X563417D01*
Y201937D01*
X559417D01*
Y182252D02*
Y186252D01*
X563417D01*
Y182252D01*
X559417D01*
X564339Y152724D02*
Y156724D01*
X568339D01*
Y152724D01*
X564339D01*
X559417Y142882D02*
Y146882D01*
X563417D01*
Y142882D01*
X559417D01*
X564339Y133039D02*
Y137039D01*
X568339D01*
Y133039D01*
X564339D01*
X559417Y123197D02*
Y127197D01*
X563417D01*
Y123197D01*
X559417D01*
X564339Y113354D02*
Y117354D01*
X568339D01*
Y113354D01*
X564339D01*
Y14929D02*
Y18929D01*
X568339D01*
Y14929D01*
X564339D01*
X549575Y260992D02*
Y264992D01*
X553575D01*
Y260992D01*
X549575D01*
X554496Y211779D02*
Y215779D01*
X558496D01*
Y211779D01*
X554496D01*
Y192095D02*
Y196095D01*
X558496D01*
Y192095D01*
X554496D01*
Y152724D02*
Y156724D01*
X558496D01*
Y152724D01*
X554496D01*
Y113354D02*
Y117354D01*
X558496D01*
Y113354D01*
X554496D01*
Y93669D02*
Y97669D01*
X558496D01*
Y93669D01*
X554496D01*
X549575Y64142D02*
Y68142D01*
X553575D01*
Y64142D01*
X549575D01*
X539732Y83827D02*
Y87827D01*
X543732D01*
Y83827D01*
X539732D01*
X544654Y14929D02*
Y18929D01*
X548654D01*
Y14929D01*
X544654D01*
X534811Y192095D02*
Y196095D01*
X538811D01*
Y192095D01*
X534811D01*
Y172409D02*
Y176409D01*
X538811D01*
Y172409D01*
X534811D01*
X529890Y142882D02*
Y146882D01*
X533890D01*
Y142882D01*
X529890D01*
X534811Y133039D02*
Y137039D01*
X538811D01*
Y133039D01*
X534811D01*
X529890Y103512D02*
Y107512D01*
X533890D01*
Y103512D01*
X529890D01*
X534811Y93669D02*
Y97669D01*
X538811D01*
Y93669D01*
X534811D01*
X529890Y83827D02*
Y87827D01*
X533890D01*
Y83827D01*
X529890D01*
Y64142D02*
Y68142D01*
X533890D01*
Y64142D01*
X529890D01*
X534811Y54299D02*
Y58299D01*
X538811D01*
Y54299D01*
X534811D01*
Y14929D02*
Y18929D01*
X538811D01*
Y14929D01*
X534811D01*
X524968Y211779D02*
Y215779D01*
X528968D01*
Y211779D01*
X524968D01*
Y93669D02*
Y97669D01*
X528968D01*
Y93669D01*
X524968D01*
X520047Y44457D02*
Y48457D01*
X524047D01*
Y44457D01*
X520047D01*
X524968Y14929D02*
Y18929D01*
X528968D01*
Y14929D01*
X524968D01*
X510205Y575953D02*
Y579953D01*
X514205D01*
Y575953D01*
X510205D01*
Y556268D02*
Y560268D01*
X514205D01*
Y556268D01*
X510205D01*
Y536583D02*
Y540583D01*
X514205D01*
Y536583D01*
X510205D01*
Y438158D02*
Y442158D01*
X514205D01*
Y438158D01*
X510205D01*
Y221622D02*
Y225622D01*
X514205D01*
Y221622D01*
X510205D01*
Y201937D02*
Y205937D01*
X514205D01*
Y201937D01*
X510205D01*
Y162567D02*
Y166567D01*
X514205D01*
Y162567D01*
X510205D01*
Y142882D02*
Y146882D01*
X514205D01*
Y142882D01*
X510205D01*
Y123197D02*
Y127197D01*
X514205D01*
Y123197D01*
X510205D01*
X515126Y113354D02*
Y117354D01*
X519126D01*
Y113354D01*
X515126D01*
X510205Y103512D02*
Y107512D01*
X514205D01*
Y103512D01*
X510205D01*
X515126Y73984D02*
Y77984D01*
X519126D01*
Y73984D01*
X515126D01*
X510205Y64142D02*
Y68142D01*
X514205D01*
Y64142D01*
X510205D01*
X515126Y14929D02*
Y18929D01*
X519126D01*
Y14929D01*
X515126D01*
X500362Y575953D02*
Y579953D01*
X504362D01*
Y575953D01*
X500362D01*
X505283Y566110D02*
Y570110D01*
X509283D01*
Y566110D01*
X505283D01*
X500362Y556268D02*
Y560268D01*
X504362D01*
Y556268D01*
X500362D01*
Y536583D02*
Y540583D01*
X504362D01*
Y536583D01*
X500362D01*
X505283Y507055D02*
Y511055D01*
X509283D01*
Y507055D01*
X505283D01*
X500362Y497213D02*
Y501213D01*
X504362D01*
Y497213D01*
X500362D01*
X505283Y487370D02*
Y491370D01*
X509283D01*
Y487370D01*
X505283D01*
X500362Y477528D02*
Y481528D01*
X504362D01*
Y477528D01*
X500362D01*
X505283Y467685D02*
Y471685D01*
X509283D01*
Y467685D01*
X505283D01*
Y448000D02*
Y452000D01*
X509283D01*
Y448000D01*
X505283D01*
X500362Y201937D02*
Y205937D01*
X504362D01*
Y201937D01*
X500362D01*
X505283Y192095D02*
Y196095D01*
X509283D01*
Y192095D01*
X505283D01*
X500362Y182252D02*
Y186252D01*
X504362D01*
Y182252D01*
X500362D01*
X505283Y152724D02*
Y156724D01*
X509283D01*
Y152724D01*
X505283D01*
X500362Y142882D02*
Y146882D01*
X504362D01*
Y142882D01*
X500362D01*
X505283Y133039D02*
Y137039D01*
X509283D01*
Y133039D01*
X505283D01*
X500362Y123197D02*
Y127197D01*
X504362D01*
Y123197D01*
X500362D01*
X505283Y113354D02*
Y117354D01*
X509283D01*
Y113354D01*
X505283D01*
X500362Y103512D02*
Y107512D01*
X504362D01*
Y103512D01*
X500362D01*
Y64142D02*
Y68142D01*
X504362D01*
Y64142D01*
X500362D01*
X490520Y575953D02*
Y579953D01*
X494520D01*
Y575953D01*
X490520D01*
X495441Y566110D02*
Y570110D01*
X499441D01*
Y566110D01*
X495441D01*
X490520Y556268D02*
Y560268D01*
X494520D01*
Y556268D01*
X490520D01*
Y516898D02*
Y520898D01*
X494520D01*
Y516898D01*
X490520D01*
X495441Y507055D02*
Y511055D01*
X499441D01*
Y507055D01*
X495441D01*
X490520Y497213D02*
Y501213D01*
X494520D01*
Y497213D01*
X490520D01*
X495441Y487370D02*
Y491370D01*
X499441D01*
Y487370D01*
X495441D01*
X490520Y477528D02*
Y481528D01*
X494520D01*
Y477528D01*
X490520D01*
X495441Y467685D02*
Y471685D01*
X499441D01*
Y467685D01*
X495441D01*
X490520Y221622D02*
Y225622D01*
X494520D01*
Y221622D01*
X490520D01*
Y182252D02*
Y186252D01*
X494520D01*
Y182252D01*
X490520D01*
X495441Y172409D02*
Y176409D01*
X499441D01*
Y172409D01*
X495441D01*
X490520Y162567D02*
Y166567D01*
X494520D01*
Y162567D01*
X490520D01*
X495441Y152724D02*
Y156724D01*
X499441D01*
Y152724D01*
X495441D01*
X490520Y142882D02*
Y146882D01*
X494520D01*
Y142882D01*
X490520D01*
X495441Y133039D02*
Y137039D01*
X499441D01*
Y133039D01*
X495441D01*
X490520Y123197D02*
Y127197D01*
X494520D01*
Y123197D01*
X490520D01*
X495441Y113354D02*
Y117354D01*
X499441D01*
Y113354D01*
X495441D01*
X490520Y103512D02*
Y107512D01*
X494520D01*
Y103512D01*
X490520D01*
X495441Y93669D02*
Y97669D01*
X499441D01*
Y93669D01*
X495441D01*
X490520Y83827D02*
Y87827D01*
X494520D01*
Y83827D01*
X490520D01*
Y64142D02*
Y68142D01*
X494520D01*
Y64142D01*
X490520D01*
Y24772D02*
Y28772D01*
X494520D01*
Y24772D01*
X490520D01*
X480677Y575953D02*
Y579953D01*
X484677D01*
Y575953D01*
X480677D01*
X485598Y566110D02*
Y570110D01*
X489598D01*
Y566110D01*
X485598D01*
X480677Y536583D02*
Y540583D01*
X484677D01*
Y536583D01*
X480677D01*
Y516898D02*
Y520898D01*
X484677D01*
Y516898D01*
X480677D01*
X485598Y507055D02*
Y511055D01*
X489598D01*
Y507055D01*
X485598D01*
X480677Y497213D02*
Y501213D01*
X484677D01*
Y497213D01*
X480677D01*
X485598Y487370D02*
Y491370D01*
X489598D01*
Y487370D01*
X485598D01*
X480677Y477528D02*
Y481528D01*
X484677D01*
Y477528D01*
X480677D01*
Y182252D02*
Y186252D01*
X484677D01*
Y182252D01*
X480677D01*
X485598Y172409D02*
Y176409D01*
X489598D01*
Y172409D01*
X485598D01*
X480677Y162567D02*
Y166567D01*
X484677D01*
Y162567D01*
X480677D01*
X485598Y133039D02*
Y137039D01*
X489598D01*
Y133039D01*
X485598D01*
X480677Y123197D02*
Y127197D01*
X484677D01*
Y123197D01*
X480677D01*
X485598Y113354D02*
Y117354D01*
X489598D01*
Y113354D01*
X485598D01*
Y93669D02*
Y97669D01*
X489598D01*
Y93669D01*
X485598D01*
X480677Y64142D02*
Y68142D01*
X484677D01*
Y64142D01*
X480677D01*
Y44457D02*
Y48457D01*
X484677D01*
Y44457D01*
X480677D01*
X485598Y14929D02*
Y18929D01*
X489598D01*
Y14929D01*
X485598D01*
X470835Y575953D02*
Y579953D01*
X474835D01*
Y575953D01*
X470835D01*
Y556268D02*
Y560268D01*
X474835D01*
Y556268D01*
X470835D01*
Y536583D02*
Y540583D01*
X474835D01*
Y536583D01*
X470835D01*
Y516898D02*
Y520898D01*
X474835D01*
Y516898D01*
X470835D01*
X475756Y507055D02*
Y511055D01*
X479756D01*
Y507055D01*
X475756D01*
X470835Y497213D02*
Y501213D01*
X474835D01*
Y497213D01*
X470835D01*
X475756Y487370D02*
Y491370D01*
X479756D01*
Y487370D01*
X475756D01*
X470835Y260992D02*
Y264992D01*
X474835D01*
Y260992D01*
X470835D01*
Y44457D02*
Y48457D01*
X474835D01*
Y44457D01*
X470835D01*
X475756Y34614D02*
Y38614D01*
X479756D01*
Y34614D01*
X475756D01*
Y14929D02*
Y18929D01*
X479756D01*
Y14929D01*
X475756D01*
X465913Y566110D02*
Y570110D01*
X469913D01*
Y566110D01*
X465913D01*
Y507055D02*
Y511055D01*
X469913D01*
Y507055D01*
X465913D01*
X460992Y497213D02*
Y501213D01*
X464992D01*
Y497213D01*
X460992D01*
Y64142D02*
Y68142D01*
X464992D01*
Y64142D01*
X460992D01*
Y44457D02*
Y48457D01*
X464992D01*
Y44457D01*
X460992D01*
X465913Y14929D02*
Y18929D01*
X469913D01*
Y14929D01*
X465913D01*
X451150Y516898D02*
Y520898D01*
X455150D01*
Y516898D01*
X451150D01*
X446228Y566110D02*
Y570110D01*
X450228D01*
Y566110D01*
X446228D01*
X441307Y241307D02*
Y245307D01*
X445307D01*
Y241307D01*
X441307D01*
X436386Y566110D02*
Y570110D01*
X440386D01*
Y566110D01*
X436386D01*
X431465Y457842D02*
Y461842D01*
X435465D01*
Y457842D01*
X431465D01*
X436386Y231465D02*
Y235465D01*
X440386D01*
Y231465D01*
X436386D01*
Y73984D02*
Y77984D01*
X440386D01*
Y73984D01*
X436386D01*
Y54299D02*
Y58299D01*
X440386D01*
Y54299D01*
X436386D01*
X431465Y44457D02*
Y48457D01*
X435465D01*
Y44457D01*
X431465D01*
X436386Y14929D02*
Y18929D01*
X440386D01*
Y14929D01*
X436386D01*
X421622Y497213D02*
Y501213D01*
X425622D01*
Y497213D01*
X421622D01*
X426543Y73984D02*
Y77984D01*
X430543D01*
Y73984D01*
X426543D01*
X421622Y64142D02*
Y68142D01*
X425622D01*
Y64142D01*
X421622D01*
X426543Y54299D02*
Y58299D01*
X430543D01*
Y54299D01*
X426543D01*
X421622Y44457D02*
Y48457D01*
X425622D01*
Y44457D01*
X421622D01*
X426543Y14929D02*
Y18929D01*
X430543D01*
Y14929D01*
X426543D01*
X411779Y556268D02*
Y560268D01*
X415779D01*
Y556268D01*
X411779D01*
Y536583D02*
Y540583D01*
X415779D01*
Y536583D01*
X411779D01*
X416701Y73984D02*
Y77984D01*
X420701D01*
Y73984D01*
X416701D01*
X411779Y64142D02*
Y68142D01*
X415779D01*
Y64142D01*
X411779D01*
X416701Y54299D02*
Y58299D01*
X420701D01*
Y54299D01*
X416701D01*
X411779Y44457D02*
Y48457D01*
X415779D01*
Y44457D01*
X411779D01*
X416701Y34614D02*
Y38614D01*
X420701D01*
Y34614D01*
X416701D01*
Y14929D02*
Y18929D01*
X420701D01*
Y14929D01*
X416701D01*
X406858Y566110D02*
Y570110D01*
X410858D01*
Y566110D01*
X406858D01*
X401937Y556268D02*
Y560268D01*
X405937D01*
Y556268D01*
X401937D01*
Y536583D02*
Y540583D01*
X405937D01*
Y536583D01*
X401937D01*
Y457842D02*
Y461842D01*
X405937D01*
Y457842D01*
X401937D01*
Y398787D02*
Y402787D01*
X405937D01*
Y398787D01*
X401937D01*
X406858Y388945D02*
Y392945D01*
X410858D01*
Y388945D01*
X406858D01*
X401937Y359417D02*
Y363417D01*
X405937D01*
Y359417D01*
X401937D01*
Y221622D02*
Y225622D01*
X405937D01*
Y221622D01*
X401937D01*
Y64142D02*
Y68142D01*
X405937D01*
Y64142D01*
X401937D01*
X406858Y54299D02*
Y58299D01*
X410858D01*
Y54299D01*
X406858D01*
Y34614D02*
Y38614D01*
X410858D01*
Y34614D01*
X406858D01*
X397016Y566110D02*
Y570110D01*
X401016D01*
Y566110D01*
X397016D01*
Y487370D02*
Y491370D01*
X401016D01*
Y487370D01*
X397016D01*
Y467685D02*
Y471685D01*
X401016D01*
Y467685D01*
X397016D01*
X392094Y457842D02*
Y461842D01*
X396094D01*
Y457842D01*
X392094D01*
X397016Y448000D02*
Y452000D01*
X401016D01*
Y448000D01*
X397016D01*
X392094Y398787D02*
Y402787D01*
X396094D01*
Y398787D01*
X392094D01*
X397016Y388945D02*
Y392945D01*
X401016D01*
Y388945D01*
X397016D01*
X392094Y221622D02*
Y225622D01*
X396094D01*
Y221622D01*
X392094D01*
X397016Y14929D02*
Y18929D01*
X401016D01*
Y14929D01*
X397016D01*
X382252Y556268D02*
Y560268D01*
X386252D01*
Y556268D01*
X382252D01*
X387173Y507055D02*
Y511055D01*
X391173D01*
Y507055D01*
X387173D01*
Y487370D02*
Y491370D01*
X391173D01*
Y487370D01*
X387173D01*
Y467685D02*
Y471685D01*
X391173D01*
Y467685D01*
X387173D01*
X382252Y457842D02*
Y461842D01*
X386252D01*
Y457842D01*
X382252D01*
X387173Y448000D02*
Y452000D01*
X391173D01*
Y448000D01*
X387173D01*
X382252Y398787D02*
Y402787D01*
X386252D01*
Y398787D01*
X382252D01*
X387173Y388945D02*
Y392945D01*
X391173D01*
Y388945D01*
X387173D01*
X382252Y359417D02*
Y363417D01*
X386252D01*
Y359417D01*
X382252D01*
X387173Y14929D02*
Y18929D01*
X391173D01*
Y14929D01*
X387173D01*
X372410Y556268D02*
Y560268D01*
X376410D01*
Y556268D01*
X372410D01*
X377331Y487370D02*
Y491370D01*
X381331D01*
Y487370D01*
X377331D01*
Y467685D02*
Y471685D01*
X381331D01*
Y467685D01*
X377331D01*
X372410Y457842D02*
Y461842D01*
X376410D01*
Y457842D01*
X372410D01*
X377331Y448000D02*
Y452000D01*
X381331D01*
Y448000D01*
X377331D01*
X372410Y398787D02*
Y402787D01*
X376410D01*
Y398787D01*
X372410D01*
X377331Y388945D02*
Y392945D01*
X381331D01*
Y388945D01*
X377331D01*
X372410Y359417D02*
Y363417D01*
X376410D01*
Y359417D01*
X372410D01*
Y221622D02*
Y225622D01*
X376410D01*
Y221622D01*
X372410D01*
X377331Y14929D02*
Y18929D01*
X381331D01*
Y14929D01*
X377331D01*
X362567Y556268D02*
Y560268D01*
X366567D01*
Y556268D01*
X362567D01*
X367488Y487370D02*
Y491370D01*
X371488D01*
Y487370D01*
X367488D01*
Y467685D02*
Y471685D01*
X371488D01*
Y467685D01*
X367488D01*
X362567Y457842D02*
Y461842D01*
X366567D01*
Y457842D01*
X362567D01*
X367488Y448000D02*
Y452000D01*
X371488D01*
Y448000D01*
X367488D01*
X362567Y398787D02*
Y402787D01*
X366567D01*
Y398787D01*
X362567D01*
X367488Y388945D02*
Y392945D01*
X371488D01*
Y388945D01*
X367488D01*
X362567Y359417D02*
Y363417D01*
X366567D01*
Y359417D01*
X362567D01*
X367488Y349575D02*
Y353575D01*
X371488D01*
Y349575D01*
X367488D01*
X362567Y182252D02*
Y186252D01*
X366567D01*
Y182252D01*
X362567D01*
X367488Y172409D02*
Y176409D01*
X371488D01*
Y172409D01*
X367488D01*
X362567Y162567D02*
Y166567D01*
X366567D01*
Y162567D01*
X362567D01*
X367488Y152724D02*
Y156724D01*
X371488D01*
Y152724D01*
X367488D01*
X362567Y142882D02*
Y146882D01*
X366567D01*
Y142882D01*
X362567D01*
X367488Y133039D02*
Y137039D01*
X371488D01*
Y133039D01*
X367488D01*
Y113354D02*
Y117354D01*
X371488D01*
Y113354D01*
X367488D01*
X362567Y103512D02*
Y107512D01*
X366567D01*
Y103512D01*
X362567D01*
X367488Y14929D02*
Y18929D01*
X371488D01*
Y14929D01*
X367488D01*
X352724Y556268D02*
Y560268D01*
X356724D01*
Y556268D01*
X352724D01*
Y516898D02*
Y520898D01*
X356724D01*
Y516898D01*
X352724D01*
X357646Y487370D02*
Y491370D01*
X361646D01*
Y487370D01*
X357646D01*
Y467685D02*
Y471685D01*
X361646D01*
Y467685D01*
X357646D01*
X352724Y457842D02*
Y461842D01*
X356724D01*
Y457842D01*
X352724D01*
X357646Y448000D02*
Y452000D01*
X361646D01*
Y448000D01*
X357646D01*
X352724Y398787D02*
Y402787D01*
X356724D01*
Y398787D01*
X352724D01*
X357646Y349575D02*
Y353575D01*
X361646D01*
Y349575D01*
X357646D01*
Y211779D02*
Y215779D01*
X361646D01*
Y211779D01*
X357646D01*
Y172409D02*
Y176409D01*
X361646D01*
Y172409D01*
X357646D01*
X352724Y162567D02*
Y166567D01*
X356724D01*
Y162567D01*
X352724D01*
X357646Y152724D02*
Y156724D01*
X361646D01*
Y152724D01*
X357646D01*
X352724Y24772D02*
Y28772D01*
X356724D01*
Y24772D01*
X352724D01*
X342882Y556268D02*
Y560268D01*
X346882D01*
Y556268D01*
X342882D01*
X347803Y487370D02*
Y491370D01*
X351803D01*
Y487370D01*
X347803D01*
Y467685D02*
Y471685D01*
X351803D01*
Y467685D01*
X347803D01*
Y448000D02*
Y452000D01*
X351803D01*
Y448000D01*
X347803D01*
X342882Y379102D02*
Y383102D01*
X346882D01*
Y379102D01*
X342882D01*
X347803Y369260D02*
Y373260D01*
X351803D01*
Y369260D01*
X347803D01*
X342882Y359417D02*
Y363417D01*
X346882D01*
Y359417D01*
X342882D01*
Y339732D02*
Y343732D01*
X346882D01*
Y339732D01*
X342882D01*
Y221622D02*
Y225622D01*
X346882D01*
Y221622D01*
X342882D01*
X347803Y211779D02*
Y215779D01*
X351803D01*
Y211779D01*
X347803D01*
X342882Y201937D02*
Y205937D01*
X346882D01*
Y201937D01*
X342882D01*
X347803Y172409D02*
Y176409D01*
X351803D01*
Y172409D01*
X347803D01*
X342882Y162567D02*
Y166567D01*
X346882D01*
Y162567D01*
X342882D01*
X347803Y152724D02*
Y156724D01*
X351803D01*
Y152724D01*
X347803D01*
X342882Y142882D02*
Y146882D01*
X346882D01*
Y142882D01*
X342882D01*
Y24772D02*
Y28772D01*
X346882D01*
Y24772D01*
X342882D01*
X333039Y556268D02*
Y560268D01*
X337039D01*
Y556268D01*
X333039D01*
Y379102D02*
Y383102D01*
X337039D01*
Y379102D01*
X333039D01*
X337961Y369260D02*
Y373260D01*
X341961D01*
Y369260D01*
X337961D01*
Y349575D02*
Y353575D01*
X341961D01*
Y349575D01*
X337961D01*
X333039Y339732D02*
Y343732D01*
X337039D01*
Y339732D01*
X333039D01*
Y221622D02*
Y225622D01*
X337039D01*
Y221622D01*
X333039D01*
Y182252D02*
Y186252D01*
X337039D01*
Y182252D01*
X333039D01*
X337961Y113354D02*
Y117354D01*
X341961D01*
Y113354D01*
X337961D01*
X333039Y24772D02*
Y28772D01*
X337039D01*
Y24772D01*
X333039D01*
X337961Y14929D02*
Y18929D01*
X341961D01*
Y14929D01*
X337961D01*
X323197Y556268D02*
Y560268D01*
X327197D01*
Y556268D01*
X323197D01*
Y497213D02*
Y501213D01*
X327197D01*
Y497213D01*
X323197D01*
Y398787D02*
Y402787D01*
X327197D01*
Y398787D01*
X323197D01*
X328118Y388945D02*
Y392945D01*
X332118D01*
Y388945D01*
X328118D01*
X323197Y379102D02*
Y383102D01*
X327197D01*
Y379102D01*
X323197D01*
Y359417D02*
Y363417D01*
X327197D01*
Y359417D01*
X323197D01*
X328118Y349575D02*
Y353575D01*
X332118D01*
Y349575D01*
X328118D01*
X323197Y339732D02*
Y343732D01*
X327197D01*
Y339732D01*
X323197D01*
X328118Y329890D02*
Y333890D01*
X332118D01*
Y329890D01*
X328118D01*
X323197Y221622D02*
Y225622D01*
X327197D01*
Y221622D01*
X323197D01*
X328118Y211779D02*
Y215779D01*
X332118D01*
Y211779D01*
X328118D01*
X323197Y182252D02*
Y186252D01*
X327197D01*
Y182252D01*
X323197D01*
Y162567D02*
Y166567D01*
X327197D01*
Y162567D01*
X323197D01*
Y123197D02*
Y127197D01*
X327197D01*
Y123197D01*
X323197D01*
X328118Y113354D02*
Y117354D01*
X332118D01*
Y113354D01*
X328118D01*
X323197Y83827D02*
Y87827D01*
X327197D01*
Y83827D01*
X323197D01*
X328118Y34614D02*
Y38614D01*
X332118D01*
Y34614D01*
X328118D01*
Y14929D02*
Y18929D01*
X332118D01*
Y14929D01*
X328118D01*
X313354Y556268D02*
Y560268D01*
X317354D01*
Y556268D01*
X313354D01*
Y497213D02*
Y501213D01*
X317354D01*
Y497213D01*
X313354D01*
X318276Y487370D02*
Y491370D01*
X322276D01*
Y487370D01*
X318276D01*
X313354Y398787D02*
Y402787D01*
X317354D01*
Y398787D01*
X313354D01*
X318276Y388945D02*
Y392945D01*
X322276D01*
Y388945D01*
X318276D01*
X313354Y359417D02*
Y363417D01*
X317354D01*
Y359417D01*
X313354D01*
X318276Y349575D02*
Y353575D01*
X322276D01*
Y349575D01*
X318276D01*
X313354Y339732D02*
Y343732D01*
X317354D01*
Y339732D01*
X313354D01*
X318276Y329890D02*
Y333890D01*
X322276D01*
Y329890D01*
X318276D01*
X313354Y221622D02*
Y225622D01*
X317354D01*
Y221622D01*
X313354D01*
Y182252D02*
Y186252D01*
X317354D01*
Y182252D01*
X313354D01*
Y103512D02*
Y107512D01*
X317354D01*
Y103512D01*
X313354D01*
X318276Y93669D02*
Y97669D01*
X322276D01*
Y93669D01*
X318276D01*
X313354Y24772D02*
Y28772D01*
X317354D01*
Y24772D01*
X313354D01*
Y5087D02*
Y9087D01*
X317354D01*
Y5087D01*
X313354D01*
X303512Y556268D02*
Y560268D01*
X307512D01*
Y556268D01*
X303512D01*
Y398787D02*
Y402787D01*
X307512D01*
Y398787D01*
X303512D01*
X308433Y388945D02*
Y392945D01*
X312433D01*
Y388945D01*
X308433D01*
X303512Y379102D02*
Y383102D01*
X307512D01*
Y379102D01*
X303512D01*
Y359417D02*
Y363417D01*
X307512D01*
Y359417D01*
X303512D01*
X308433Y349575D02*
Y353575D01*
X312433D01*
Y349575D01*
X308433D01*
X303512Y339732D02*
Y343732D01*
X307512D01*
Y339732D01*
X303512D01*
X308433Y329890D02*
Y333890D01*
X312433D01*
Y329890D01*
X308433D01*
X303512Y103512D02*
Y107512D01*
X307512D01*
Y103512D01*
X303512D01*
X308433Y93669D02*
Y97669D01*
X312433D01*
Y93669D01*
X308433D01*
X303512Y24772D02*
Y28772D01*
X307512D01*
Y24772D01*
X303512D01*
X308433Y14929D02*
Y18929D01*
X312433D01*
Y14929D01*
X308433D01*
X303512Y5087D02*
Y9087D01*
X307512D01*
Y5087D01*
X303512D01*
X293669Y556268D02*
Y560268D01*
X297669D01*
Y556268D01*
X293669D01*
X298590Y507055D02*
Y511055D01*
X302590D01*
Y507055D01*
X298590D01*
Y487370D02*
Y491370D01*
X302590D01*
Y487370D01*
X298590D01*
Y467685D02*
Y471685D01*
X302590D01*
Y467685D01*
X298590D01*
X293669Y379102D02*
Y383102D01*
X297669D01*
Y379102D01*
X293669D01*
Y359417D02*
Y363417D01*
X297669D01*
Y359417D01*
X293669D01*
X298590Y349575D02*
Y353575D01*
X302590D01*
Y349575D01*
X298590D01*
X293669Y339732D02*
Y343732D01*
X297669D01*
Y339732D01*
X293669D01*
X298590Y329890D02*
Y333890D01*
X302590D01*
Y329890D01*
X298590D01*
Y192095D02*
Y196095D01*
X302590D01*
Y192095D01*
X298590D01*
X293669Y162567D02*
Y166567D01*
X297669D01*
Y162567D01*
X293669D01*
X298590Y133039D02*
Y137039D01*
X302590D01*
Y133039D01*
X298590D01*
Y93669D02*
Y97669D01*
X302590D01*
Y93669D01*
X298590D01*
X293669Y83827D02*
Y87827D01*
X297669D01*
Y83827D01*
X293669D01*
Y24772D02*
Y28772D01*
X297669D01*
Y24772D01*
X293669D01*
X298590Y14929D02*
Y18929D01*
X302590D01*
Y14929D01*
X298590D01*
X293669Y5087D02*
Y9087D01*
X297669D01*
Y5087D01*
X293669D01*
X283827Y556268D02*
Y560268D01*
X287827D01*
Y556268D01*
X283827D01*
X288748Y507055D02*
Y511055D01*
X292748D01*
Y507055D01*
X288748D01*
X283827Y497213D02*
Y501213D01*
X287827D01*
Y497213D01*
X283827D01*
Y398787D02*
Y402787D01*
X287827D01*
Y398787D01*
X283827D01*
X288748Y388945D02*
Y392945D01*
X292748D01*
Y388945D01*
X288748D01*
X283827Y359417D02*
Y363417D01*
X287827D01*
Y359417D01*
X283827D01*
X288748Y349575D02*
Y353575D01*
X292748D01*
Y349575D01*
X288748D01*
X283827Y339732D02*
Y343732D01*
X287827D01*
Y339732D01*
X283827D01*
X288748Y329890D02*
Y333890D01*
X292748D01*
Y329890D01*
X288748D01*
X283827Y201937D02*
Y205937D01*
X287827D01*
Y201937D01*
X283827D01*
Y162567D02*
Y166567D01*
X287827D01*
Y162567D01*
X283827D01*
X288748Y133039D02*
Y137039D01*
X292748D01*
Y133039D01*
X288748D01*
Y93669D02*
Y97669D01*
X292748D01*
Y93669D01*
X288748D01*
X283827Y83827D02*
Y87827D01*
X287827D01*
Y83827D01*
X283827D01*
X288748Y54299D02*
Y58299D01*
X292748D01*
Y54299D01*
X288748D01*
X283827Y24772D02*
Y28772D01*
X287827D01*
Y24772D01*
X283827D01*
X288748Y14929D02*
Y18929D01*
X292748D01*
Y14929D01*
X288748D01*
X283827Y5087D02*
Y9087D01*
X287827D01*
Y5087D01*
X283827D01*
X273984Y556268D02*
Y560268D01*
X277984D01*
Y556268D01*
X273984D01*
Y497213D02*
Y501213D01*
X277984D01*
Y497213D01*
X273984D01*
X278906Y487370D02*
Y491370D01*
X282906D01*
Y487370D01*
X278906D01*
X273984Y398787D02*
Y402787D01*
X277984D01*
Y398787D01*
X273984D01*
Y359417D02*
Y363417D01*
X277984D01*
Y359417D01*
X273984D01*
X278906Y349575D02*
Y353575D01*
X282906D01*
Y349575D01*
X278906D01*
X273984Y339732D02*
Y343732D01*
X277984D01*
Y339732D01*
X273984D01*
X278906Y329890D02*
Y333890D01*
X282906D01*
Y329890D01*
X278906D01*
Y172409D02*
Y176409D01*
X282906D01*
Y172409D01*
X278906D01*
Y133039D02*
Y137039D01*
X282906D01*
Y133039D01*
X278906D01*
Y54299D02*
Y58299D01*
X282906D01*
Y54299D01*
X278906D01*
Y34614D02*
Y38614D01*
X282906D01*
Y34614D01*
X278906D01*
Y14929D02*
Y18929D01*
X282906D01*
Y14929D01*
X278906D01*
X273984Y5087D02*
Y9087D01*
X277984D01*
Y5087D01*
X273984D01*
X269063Y546425D02*
Y550425D01*
X273063D01*
Y546425D01*
X269063D01*
X264142Y379102D02*
Y383102D01*
X268142D01*
Y379102D01*
X264142D01*
Y359417D02*
Y363417D01*
X268142D01*
Y359417D01*
X264142D01*
X269063Y349575D02*
Y353575D01*
X273063D01*
Y349575D01*
X269063D01*
X264142Y339732D02*
Y343732D01*
X268142D01*
Y339732D01*
X264142D01*
X269063Y329890D02*
Y333890D01*
X273063D01*
Y329890D01*
X269063D01*
X264142Y24772D02*
Y28772D01*
X268142D01*
Y24772D01*
X264142D01*
X259221Y546425D02*
Y550425D01*
X263221D01*
Y546425D01*
X259221D01*
Y467685D02*
Y471685D01*
X263221D01*
Y467685D01*
X259221D01*
Y388945D02*
Y392945D01*
X263221D01*
Y388945D01*
X259221D01*
X254299Y379102D02*
Y383102D01*
X258299D01*
Y379102D01*
X254299D01*
X259221Y349575D02*
Y353575D01*
X263221D01*
Y349575D01*
X259221D01*
X254299Y339732D02*
Y343732D01*
X258299D01*
Y339732D01*
X254299D01*
X259221Y329890D02*
Y333890D01*
X263221D01*
Y329890D01*
X259221D01*
X254299Y201937D02*
Y205937D01*
X258299D01*
Y201937D01*
X254299D01*
Y182252D02*
Y186252D01*
X258299D01*
Y182252D01*
X254299D01*
Y142882D02*
Y146882D01*
X258299D01*
Y142882D01*
X254299D01*
X259221Y93669D02*
Y97669D01*
X263221D01*
Y93669D01*
X259221D01*
X254299Y24772D02*
Y28772D01*
X258299D01*
Y24772D01*
X254299D01*
X259221Y14929D02*
Y18929D01*
X263221D01*
Y14929D01*
X259221D01*
X254299Y5087D02*
Y9087D01*
X258299D01*
Y5087D01*
X254299D01*
X249378Y546425D02*
Y550425D01*
X253378D01*
Y546425D01*
X249378D01*
Y388945D02*
Y392945D01*
X253378D01*
Y388945D01*
X249378D01*
X244457Y359417D02*
Y363417D01*
X248457D01*
Y359417D01*
X244457D01*
Y339732D02*
Y343732D01*
X248457D01*
Y339732D01*
X244457D01*
X249378Y329890D02*
Y333890D01*
X253378D01*
Y329890D01*
X249378D01*
X244457Y162567D02*
Y166567D01*
X248457D01*
Y162567D01*
X244457D01*
Y142882D02*
Y146882D01*
X248457D01*
Y142882D01*
X244457D01*
X249378Y54299D02*
Y58299D01*
X253378D01*
Y54299D01*
X249378D01*
X244457Y24772D02*
Y28772D01*
X248457D01*
Y24772D01*
X244457D01*
X249378Y14929D02*
Y18929D01*
X253378D01*
Y14929D01*
X249378D01*
X244457Y5087D02*
Y9087D01*
X248457D01*
Y5087D01*
X244457D01*
X239535Y566110D02*
Y570110D01*
X243535D01*
Y566110D01*
X239535D01*
X234614Y556268D02*
Y560268D01*
X238614D01*
Y556268D01*
X234614D01*
X239535Y526740D02*
Y530740D01*
X243535D01*
Y526740D01*
X239535D01*
Y231465D02*
Y235465D01*
X243535D01*
Y231465D01*
X239535D01*
X234614Y221622D02*
Y225622D01*
X238614D01*
Y221622D01*
X234614D01*
Y201937D02*
Y205937D01*
X238614D01*
Y201937D01*
X234614D01*
Y162567D02*
Y166567D01*
X238614D01*
Y162567D01*
X234614D01*
Y142882D02*
Y146882D01*
X238614D01*
Y142882D01*
X234614D01*
X239535Y73984D02*
Y77984D01*
X243535D01*
Y73984D01*
X239535D01*
Y54299D02*
Y58299D01*
X243535D01*
Y54299D01*
X239535D01*
X234614Y24772D02*
Y28772D01*
X238614D01*
Y24772D01*
X234614D01*
X239535Y14929D02*
Y18929D01*
X243535D01*
Y14929D01*
X239535D01*
X234614Y5087D02*
Y9087D01*
X238614D01*
Y5087D01*
X234614D01*
X224772Y556268D02*
Y560268D01*
X228772D01*
Y556268D01*
X224772D01*
X229693Y388945D02*
Y392945D01*
X233693D01*
Y388945D01*
X229693D01*
X224772Y379102D02*
Y383102D01*
X228772D01*
Y379102D01*
X224772D01*
X229693Y349575D02*
Y353575D01*
X233693D01*
Y349575D01*
X229693D01*
Y231465D02*
Y235465D01*
X233693D01*
Y231465D01*
X229693D01*
X224772Y221622D02*
Y225622D01*
X228772D01*
Y221622D01*
X224772D01*
Y182252D02*
Y186252D01*
X228772D01*
Y182252D01*
X224772D01*
X229693Y172409D02*
Y176409D01*
X233693D01*
Y172409D01*
X229693D01*
X224772Y162567D02*
Y166567D01*
X228772D01*
Y162567D01*
X224772D01*
Y103512D02*
Y107512D01*
X228772D01*
Y103512D01*
X224772D01*
X229693Y93669D02*
Y97669D01*
X233693D01*
Y93669D01*
X229693D01*
X224772Y44457D02*
Y48457D01*
X228772D01*
Y44457D01*
X224772D01*
X229693Y14929D02*
Y18929D01*
X233693D01*
Y14929D01*
X229693D01*
X224772Y5087D02*
Y9087D01*
X228772D01*
Y5087D01*
X224772D01*
X214929Y556268D02*
Y560268D01*
X218929D01*
Y556268D01*
X214929D01*
Y379102D02*
Y383102D01*
X218929D01*
Y379102D01*
X214929D01*
Y359417D02*
Y363417D01*
X218929D01*
Y359417D01*
X214929D01*
Y339732D02*
Y343732D01*
X218929D01*
Y339732D01*
X214929D01*
X219850Y231465D02*
Y235465D01*
X223850D01*
Y231465D01*
X219850D01*
X214929Y221622D02*
Y225622D01*
X218929D01*
Y221622D01*
X214929D01*
X219850Y211779D02*
Y215779D01*
X223850D01*
Y211779D01*
X219850D01*
X214929Y182252D02*
Y186252D01*
X218929D01*
Y182252D01*
X214929D01*
X219850Y172409D02*
Y176409D01*
X223850D01*
Y172409D01*
X219850D01*
X214929Y103512D02*
Y107512D01*
X218929D01*
Y103512D01*
X214929D01*
X219850Y73984D02*
Y77984D01*
X223850D01*
Y73984D01*
X219850D01*
X214929Y44457D02*
Y48457D01*
X218929D01*
Y44457D01*
X214929D01*
X219850Y14929D02*
Y18929D01*
X223850D01*
Y14929D01*
X219850D01*
X214929Y5087D02*
Y9087D01*
X218929D01*
Y5087D01*
X214929D01*
X205087Y398787D02*
Y402787D01*
X209087D01*
Y398787D01*
X205087D01*
X210008Y388945D02*
Y392945D01*
X214008D01*
Y388945D01*
X210008D01*
X205087Y379102D02*
Y383102D01*
X209087D01*
Y379102D01*
X205087D01*
Y339732D02*
Y343732D01*
X209087D01*
Y339732D01*
X205087D01*
X210008Y329890D02*
Y333890D01*
X214008D01*
Y329890D01*
X210008D01*
Y211779D02*
Y215779D01*
X214008D01*
Y211779D01*
X210008D01*
X205087Y182252D02*
Y186252D01*
X209087D01*
Y182252D01*
X205087D01*
X210008Y172409D02*
Y176409D01*
X214008D01*
Y172409D01*
X210008D01*
X205087Y142882D02*
Y146882D01*
X209087D01*
Y142882D01*
X205087D01*
Y103512D02*
Y107512D01*
X209087D01*
Y103512D01*
X205087D01*
X210008Y93669D02*
Y97669D01*
X214008D01*
Y93669D01*
X210008D01*
Y73984D02*
Y77984D01*
X214008D01*
Y73984D01*
X210008D01*
Y54299D02*
Y58299D01*
X214008D01*
Y54299D01*
X210008D01*
X205087Y44457D02*
Y48457D01*
X209087D01*
Y44457D01*
X205087D01*
X210008Y14929D02*
Y18929D01*
X214008D01*
Y14929D01*
X210008D01*
X195244Y398787D02*
Y402787D01*
X199244D01*
Y398787D01*
X195244D01*
X200165Y388945D02*
Y392945D01*
X204165D01*
Y388945D01*
X200165D01*
X195244Y379102D02*
Y383102D01*
X199244D01*
Y379102D01*
X195244D01*
X200165Y349575D02*
Y353575D01*
X204165D01*
Y349575D01*
X200165D01*
X195244Y339732D02*
Y343732D01*
X199244D01*
Y339732D01*
X195244D01*
X200165Y329890D02*
Y333890D01*
X204165D01*
Y329890D01*
X200165D01*
Y211779D02*
Y215779D01*
X204165D01*
Y211779D01*
X200165D01*
X195244Y182252D02*
Y186252D01*
X199244D01*
Y182252D01*
X195244D01*
Y142882D02*
Y146882D01*
X199244D01*
Y142882D01*
X195244D01*
X200165Y93669D02*
Y97669D01*
X204165D01*
Y93669D01*
X200165D01*
Y73984D02*
Y77984D01*
X204165D01*
Y73984D01*
X200165D01*
X195244Y24772D02*
Y28772D01*
X199244D01*
Y24772D01*
X195244D01*
X185402Y575953D02*
Y579953D01*
X189402D01*
Y575953D01*
X185402D01*
X190323Y566110D02*
Y570110D01*
X194323D01*
Y566110D01*
X190323D01*
X185402Y398787D02*
Y402787D01*
X189402D01*
Y398787D01*
X185402D01*
X190323Y388945D02*
Y392945D01*
X194323D01*
Y388945D01*
X190323D01*
X185402Y379102D02*
Y383102D01*
X189402D01*
Y379102D01*
X185402D01*
X190323Y349575D02*
Y353575D01*
X194323D01*
Y349575D01*
X190323D01*
X185402Y339732D02*
Y343732D01*
X189402D01*
Y339732D01*
X185402D01*
X190323Y329890D02*
Y333890D01*
X194323D01*
Y329890D01*
X190323D01*
X185402Y221622D02*
Y225622D01*
X189402D01*
Y221622D01*
X185402D01*
X190323Y172409D02*
Y176409D01*
X194323D01*
Y172409D01*
X190323D01*
X185402Y142882D02*
Y146882D01*
X189402D01*
Y142882D01*
X185402D01*
Y103512D02*
Y107512D01*
X189402D01*
Y103512D01*
X185402D01*
X190323Y93669D02*
Y97669D01*
X194323D01*
Y93669D01*
X190323D01*
Y73984D02*
Y77984D01*
X194323D01*
Y73984D01*
X190323D01*
X185402Y64142D02*
Y68142D01*
X189402D01*
Y64142D01*
X185402D01*
X190323Y54299D02*
Y58299D01*
X194323D01*
Y54299D01*
X190323D01*
X185402Y24772D02*
Y28772D01*
X189402D01*
Y24772D01*
X185402D01*
X175559Y575953D02*
Y579953D01*
X179559D01*
Y575953D01*
X175559D01*
Y398787D02*
Y402787D01*
X179559D01*
Y398787D01*
X175559D01*
X180480Y388945D02*
Y392945D01*
X184480D01*
Y388945D01*
X180480D01*
X175559Y379102D02*
Y383102D01*
X179559D01*
Y379102D01*
X175559D01*
X180480Y349575D02*
Y353575D01*
X184480D01*
Y349575D01*
X180480D01*
X175559Y339732D02*
Y343732D01*
X179559D01*
Y339732D01*
X175559D01*
X180480Y329890D02*
Y333890D01*
X184480D01*
Y329890D01*
X180480D01*
X175559Y162567D02*
Y166567D01*
X179559D01*
Y162567D01*
X175559D01*
X180480Y152724D02*
Y156724D01*
X184480D01*
Y152724D01*
X180480D01*
X175559Y123197D02*
Y127197D01*
X179559D01*
Y123197D01*
X175559D01*
Y103512D02*
Y107512D01*
X179559D01*
Y103512D01*
X175559D01*
Y64142D02*
Y68142D01*
X179559D01*
Y64142D01*
X175559D01*
X180480Y54299D02*
Y58299D01*
X184480D01*
Y54299D01*
X180480D01*
X175559Y24772D02*
Y28772D01*
X179559D01*
Y24772D01*
X175559D01*
X170638Y566110D02*
Y570110D01*
X174638D01*
Y566110D01*
X170638D01*
X165717Y398787D02*
Y402787D01*
X169717D01*
Y398787D01*
X165717D01*
X170638Y388945D02*
Y392945D01*
X174638D01*
Y388945D01*
X170638D01*
X165717Y379102D02*
Y383102D01*
X169717D01*
Y379102D01*
X165717D01*
X170638Y349575D02*
Y353575D01*
X174638D01*
Y349575D01*
X170638D01*
Y329890D02*
Y333890D01*
X174638D01*
Y329890D01*
X170638D01*
X165717Y201937D02*
Y205937D01*
X169717D01*
Y201937D01*
X165717D01*
X170638Y192095D02*
Y196095D01*
X174638D01*
Y192095D01*
X170638D01*
X165717Y182252D02*
Y186252D01*
X169717D01*
Y182252D01*
X165717D01*
X170638Y172409D02*
Y176409D01*
X174638D01*
Y172409D01*
X170638D01*
X165717Y162567D02*
Y166567D01*
X169717D01*
Y162567D01*
X165717D01*
Y142882D02*
Y146882D01*
X169717D01*
Y142882D01*
X165717D01*
X170638Y133039D02*
Y137039D01*
X174638D01*
Y133039D01*
X170638D01*
X165717Y123197D02*
Y127197D01*
X169717D01*
Y123197D01*
X165717D01*
Y83827D02*
Y87827D01*
X169717D01*
Y83827D01*
X165717D01*
X170638Y73984D02*
Y77984D01*
X174638D01*
Y73984D01*
X170638D01*
X165717Y64142D02*
Y68142D01*
X169717D01*
Y64142D01*
X165717D01*
X170638Y54299D02*
Y58299D01*
X174638D01*
Y54299D01*
X170638D01*
X165717Y44457D02*
Y48457D01*
X169717D01*
Y44457D01*
X165717D01*
Y24772D02*
Y28772D01*
X169717D01*
Y24772D01*
X165717D01*
X170638Y14929D02*
Y18929D01*
X174638D01*
Y14929D01*
X170638D01*
X160795Y448000D02*
Y452000D01*
X164795D01*
Y448000D01*
X160795D01*
X155874Y438158D02*
Y442158D01*
X159874D01*
Y438158D01*
X155874D01*
Y379102D02*
Y383102D01*
X159874D01*
Y379102D01*
X155874D01*
Y339732D02*
Y343732D01*
X159874D01*
Y339732D01*
X155874D01*
X160795Y329890D02*
Y333890D01*
X164795D01*
Y329890D01*
X160795D01*
Y192095D02*
Y196095D01*
X164795D01*
Y192095D01*
X160795D01*
X155874Y182252D02*
Y186252D01*
X159874D01*
Y182252D01*
X155874D01*
X160795Y172409D02*
Y176409D01*
X164795D01*
Y172409D01*
X160795D01*
X155874Y142882D02*
Y146882D01*
X159874D01*
Y142882D01*
X155874D01*
X160795Y133039D02*
Y137039D01*
X164795D01*
Y133039D01*
X160795D01*
X155874Y123197D02*
Y127197D01*
X159874D01*
Y123197D01*
X155874D01*
Y83827D02*
Y87827D01*
X159874D01*
Y83827D01*
X155874D01*
X160795Y73984D02*
Y77984D01*
X164795D01*
Y73984D01*
X160795D01*
X155874Y44457D02*
Y48457D01*
X159874D01*
Y44457D01*
X155874D01*
X160795Y34614D02*
Y38614D01*
X164795D01*
Y34614D01*
X160795D01*
X155874Y24772D02*
Y28772D01*
X159874D01*
Y24772D01*
X155874D01*
X160795Y14929D02*
Y18929D01*
X164795D01*
Y14929D01*
X160795D01*
X155874Y5087D02*
Y9087D01*
X159874D01*
Y5087D01*
X155874D01*
X150953Y546425D02*
Y550425D01*
X154953D01*
Y546425D01*
X150953D01*
Y526740D02*
Y530740D01*
X154953D01*
Y526740D01*
X150953D01*
X146031Y339732D02*
Y343732D01*
X150031D01*
Y339732D01*
X146031D01*
X150953Y329890D02*
Y333890D01*
X154953D01*
Y329890D01*
X150953D01*
X146031Y280677D02*
Y284677D01*
X150031D01*
Y280677D01*
X146031D01*
X150953Y192095D02*
Y196095D01*
X154953D01*
Y192095D01*
X150953D01*
X146031Y182252D02*
Y186252D01*
X150031D01*
Y182252D01*
X146031D01*
Y162567D02*
Y166567D01*
X150031D01*
Y162567D01*
X146031D01*
X150953Y152724D02*
Y156724D01*
X154953D01*
Y152724D01*
X150953D01*
X146031Y142882D02*
Y146882D01*
X150031D01*
Y142882D01*
X146031D01*
X150953Y133039D02*
Y137039D01*
X154953D01*
Y133039D01*
X150953D01*
Y93669D02*
Y97669D01*
X154953D01*
Y93669D01*
X150953D01*
Y73984D02*
Y77984D01*
X154953D01*
Y73984D01*
X150953D01*
X146031Y64142D02*
Y68142D01*
X150031D01*
Y64142D01*
X146031D01*
X150953Y54299D02*
Y58299D01*
X154953D01*
Y54299D01*
X150953D01*
X146031Y44457D02*
Y48457D01*
X150031D01*
Y44457D01*
X146031D01*
X150953Y34614D02*
Y38614D01*
X154953D01*
Y34614D01*
X150953D01*
X146031Y24772D02*
Y28772D01*
X150031D01*
Y24772D01*
X146031D01*
X150953Y14929D02*
Y18929D01*
X154953D01*
Y14929D01*
X150953D01*
X146031Y5087D02*
Y9087D01*
X150031D01*
Y5087D01*
X146031D01*
X136189Y556268D02*
Y560268D01*
X140189D01*
Y556268D01*
X136189D01*
X141110Y448000D02*
Y452000D01*
X145110D01*
Y448000D01*
X141110D01*
X136189Y438158D02*
Y442158D01*
X140189D01*
Y438158D01*
X136189D01*
X141110Y428315D02*
Y432315D01*
X145110D01*
Y428315D01*
X141110D01*
X136189Y418472D02*
Y422472D01*
X140189D01*
Y418472D01*
X136189D01*
Y359417D02*
Y363417D01*
X140189D01*
Y359417D01*
X136189D01*
X141110Y349575D02*
Y353575D01*
X145110D01*
Y349575D01*
X141110D01*
X136189Y339732D02*
Y343732D01*
X140189D01*
Y339732D01*
X136189D01*
X141110Y329890D02*
Y333890D01*
X145110D01*
Y329890D01*
X141110D01*
X136189Y280677D02*
Y284677D01*
X140189D01*
Y280677D01*
X136189D01*
X141110Y192095D02*
Y196095D01*
X145110D01*
Y192095D01*
X141110D01*
X136189Y162567D02*
Y166567D01*
X140189D01*
Y162567D01*
X136189D01*
X141110Y152724D02*
Y156724D01*
X145110D01*
Y152724D01*
X141110D01*
X136189Y142882D02*
Y146882D01*
X140189D01*
Y142882D01*
X136189D01*
Y123197D02*
Y127197D01*
X140189D01*
Y123197D01*
X136189D01*
X141110Y113354D02*
Y117354D01*
X145110D01*
Y113354D01*
X141110D01*
X136189Y103512D02*
Y107512D01*
X140189D01*
Y103512D01*
X136189D01*
Y64142D02*
Y68142D01*
X140189D01*
Y64142D01*
X136189D01*
X141110Y54299D02*
Y58299D01*
X145110D01*
Y54299D01*
X141110D01*
X136189Y44457D02*
Y48457D01*
X140189D01*
Y44457D01*
X136189D01*
Y5087D02*
Y9087D01*
X140189D01*
Y5087D01*
X136189D01*
X126347Y556268D02*
Y560268D01*
X130347D01*
Y556268D01*
X126347D01*
X131268Y349575D02*
Y353575D01*
X135268D01*
Y349575D01*
X131268D01*
X126347Y339732D02*
Y343732D01*
X130347D01*
Y339732D01*
X126347D01*
X131268Y329890D02*
Y333890D01*
X135268D01*
Y329890D01*
X131268D01*
X126347Y280677D02*
Y284677D01*
X130347D01*
Y280677D01*
X126347D01*
X131268Y270835D02*
Y274835D01*
X135268D01*
Y270835D01*
X131268D01*
X126347Y260992D02*
Y264992D01*
X130347D01*
Y260992D01*
X126347D01*
Y123197D02*
Y127197D01*
X130347D01*
Y123197D01*
X126347D01*
X131268Y113354D02*
Y117354D01*
X135268D01*
Y113354D01*
X131268D01*
X126347Y103512D02*
Y107512D01*
X130347D01*
Y103512D01*
X126347D01*
Y64142D02*
Y68142D01*
X130347D01*
Y64142D01*
X126347D01*
X131268Y54299D02*
Y58299D01*
X135268D01*
Y54299D01*
X131268D01*
X126347Y44457D02*
Y48457D01*
X130347D01*
Y44457D01*
X126347D01*
Y5087D02*
Y9087D01*
X130347D01*
Y5087D01*
X126347D01*
X116504Y556268D02*
Y560268D01*
X120504D01*
Y556268D01*
X116504D01*
Y457842D02*
Y461842D01*
X120504D01*
Y457842D01*
X116504D01*
X121425Y428315D02*
Y432315D01*
X125425D01*
Y428315D01*
X121425D01*
X116504Y418472D02*
Y422472D01*
X120504D01*
Y418472D01*
X116504D01*
X121425Y408630D02*
Y412630D01*
X125425D01*
Y408630D01*
X121425D01*
Y270835D02*
Y274835D01*
X125425D01*
Y270835D01*
X121425D01*
X116504Y260992D02*
Y264992D01*
X120504D01*
Y260992D01*
X116504D01*
Y142882D02*
Y146882D01*
X120504D01*
Y142882D01*
X116504D01*
X121425Y133039D02*
Y137039D01*
X125425D01*
Y133039D01*
X121425D01*
X116504Y123197D02*
Y127197D01*
X120504D01*
Y123197D01*
X116504D01*
X121425Y113354D02*
Y117354D01*
X125425D01*
Y113354D01*
X121425D01*
X116504Y103512D02*
Y107512D01*
X120504D01*
Y103512D01*
X116504D01*
Y64142D02*
Y68142D01*
X120504D01*
Y64142D01*
X116504D01*
X121425Y54299D02*
Y58299D01*
X125425D01*
Y54299D01*
X121425D01*
X116504Y44457D02*
Y48457D01*
X120504D01*
Y44457D01*
X116504D01*
Y5087D02*
Y9087D01*
X120504D01*
Y5087D01*
X116504D01*
X106661Y556268D02*
Y560268D01*
X110661D01*
Y556268D01*
X106661D01*
X111583Y526740D02*
Y530740D01*
X115583D01*
Y526740D01*
X111583D01*
X106661Y477528D02*
Y481528D01*
X110661D01*
Y477528D01*
X106661D01*
Y457842D02*
Y461842D01*
X110661D01*
Y457842D01*
X106661D01*
X111583Y448000D02*
Y452000D01*
X115583D01*
Y448000D01*
X111583D01*
X106661Y260992D02*
Y264992D01*
X110661D01*
Y260992D01*
X106661D01*
X111583Y251150D02*
Y255150D01*
X115583D01*
Y251150D01*
X111583D01*
X96819Y477528D02*
Y481528D01*
X100819D01*
Y477528D01*
X96819D01*
Y457842D02*
Y461842D01*
X100819D01*
Y457842D01*
X96819D01*
Y398787D02*
Y402787D01*
X100819D01*
Y398787D01*
X96819D01*
X101740Y251150D02*
Y255150D01*
X105740D01*
Y251150D01*
X101740D01*
X96819Y241307D02*
Y245307D01*
X100819D01*
Y241307D01*
X96819D01*
X86976Y516898D02*
Y520898D01*
X90976D01*
Y516898D01*
X86976D01*
X91898Y487370D02*
Y491370D01*
X95898D01*
Y487370D01*
X91898D01*
X86976Y457842D02*
Y461842D01*
X90976D01*
Y457842D01*
X86976D01*
Y398787D02*
Y402787D01*
X90976D01*
Y398787D01*
X86976D01*
X91898Y251150D02*
Y255150D01*
X95898D01*
Y251150D01*
X91898D01*
X77134Y575953D02*
Y579953D01*
X81134D01*
Y575953D01*
X77134D01*
X82055Y566110D02*
Y570110D01*
X86055D01*
Y566110D01*
X82055D01*
Y546425D02*
Y550425D01*
X86055D01*
Y546425D01*
X82055D01*
Y448000D02*
Y452000D01*
X86055D01*
Y448000D01*
X82055D01*
X77134Y398787D02*
Y402787D01*
X81134D01*
Y398787D01*
X77134D01*
X67291Y575953D02*
Y579953D01*
X71291D01*
Y575953D01*
X67291D01*
X72213Y566110D02*
Y570110D01*
X76213D01*
Y566110D01*
X72213D01*
Y546425D02*
Y550425D01*
X76213D01*
Y546425D01*
X72213D01*
Y487370D02*
Y491370D01*
X76213D01*
Y487370D01*
X72213D01*
X57449Y575953D02*
Y579953D01*
X61449D01*
Y575953D01*
X57449D01*
X62370Y566110D02*
Y570110D01*
X66370D01*
Y566110D01*
X62370D01*
Y546425D02*
Y550425D01*
X66370D01*
Y546425D01*
X62370D01*
Y507055D02*
Y511055D01*
X66370D01*
Y507055D01*
X62370D01*
X57449Y497213D02*
Y501213D01*
X61449D01*
Y497213D01*
X57449D01*
X62370Y487370D02*
Y491370D01*
X66370D01*
Y487370D01*
X62370D01*
X57449Y438158D02*
Y442158D01*
X61449D01*
Y438158D01*
X57449D01*
X62370Y428315D02*
Y432315D01*
X66370D01*
Y428315D01*
X62370D01*
X57449Y418472D02*
Y422472D01*
X61449D01*
Y418472D01*
X57449D01*
X47606Y575953D02*
Y579953D01*
X51606D01*
Y575953D01*
X47606D01*
X52527Y566110D02*
Y570110D01*
X56528D01*
Y566110D01*
X52527D01*
Y546425D02*
Y550425D01*
X56528D01*
Y546425D01*
X52527D01*
Y507055D02*
Y511055D01*
X56528D01*
Y507055D01*
X52527D01*
X47606Y497213D02*
Y501213D01*
X51606D01*
Y497213D01*
X47606D01*
Y457842D02*
Y461842D01*
X51606D01*
Y457842D01*
X47606D01*
Y438158D02*
Y442158D01*
X51606D01*
Y438158D01*
X47606D01*
X52527Y428315D02*
Y432315D01*
X56528D01*
Y428315D01*
X52527D01*
X37764Y575953D02*
Y579953D01*
X41764D01*
Y575953D01*
X37764D01*
X42685Y566110D02*
Y570110D01*
X46685D01*
Y566110D01*
X42685D01*
Y546425D02*
Y550425D01*
X46685D01*
Y546425D01*
X42685D01*
X37764Y536583D02*
Y540583D01*
X41764D01*
Y536583D01*
X37764D01*
Y516898D02*
Y520898D01*
X41764D01*
Y516898D01*
X37764D01*
X42685Y507055D02*
Y511055D01*
X46685D01*
Y507055D01*
X42685D01*
X37764Y457842D02*
Y461842D01*
X41764D01*
Y457842D01*
X37764D01*
X42685Y448000D02*
Y452000D01*
X46685D01*
Y448000D01*
X42685D01*
X37764Y438158D02*
Y442158D01*
X41764D01*
Y438158D01*
X37764D01*
X42685Y428315D02*
Y432315D01*
X46685D01*
Y428315D01*
X42685D01*
X37764Y418472D02*
Y422472D01*
X41764D01*
Y418472D01*
X37764D01*
Y398787D02*
Y402787D01*
X41764D01*
Y398787D01*
X37764D01*
X27921Y575953D02*
Y579953D01*
X31921D01*
Y575953D01*
X27921D01*
X32842Y566110D02*
Y570110D01*
X36843D01*
Y566110D01*
X32842D01*
Y546425D02*
Y550425D01*
X36843D01*
Y546425D01*
X32842D01*
X27921Y536583D02*
Y540583D01*
X31921D01*
Y536583D01*
X27921D01*
X32842Y526740D02*
Y530740D01*
X36843D01*
Y526740D01*
X32842D01*
X27921Y516898D02*
Y520898D01*
X31921D01*
Y516898D01*
X27921D01*
Y438158D02*
Y442158D01*
X31921D01*
Y438158D01*
X27921D01*
X32842Y428315D02*
Y432315D01*
X36843D01*
Y428315D01*
X32842D01*
X27921Y418472D02*
Y422472D01*
X31921D01*
Y418472D01*
X27921D01*
X32842Y408630D02*
Y412630D01*
X36843D01*
Y408630D01*
X32842D01*
X27921Y398787D02*
Y402787D01*
X31921D01*
Y398787D01*
X27921D01*
X23000Y566110D02*
Y570110D01*
X27000D01*
Y566110D01*
X23000D01*
X18079Y438158D02*
Y442158D01*
X22079D01*
Y438158D01*
X18079D01*
X23000Y428315D02*
Y432315D01*
X27000D01*
Y428315D01*
X23000D01*
X18079Y418472D02*
Y422472D01*
X22079D01*
Y418472D01*
X18079D01*
X23000Y408630D02*
Y412630D01*
X27000D01*
Y408630D01*
X23000D01*
X18079Y398787D02*
Y402787D01*
X22079D01*
Y398787D01*
X18079D01*
X23000Y388945D02*
Y392945D01*
X27000D01*
Y388945D01*
X23000D01*
Y369260D02*
Y373260D01*
X27000D01*
Y369260D01*
X23000D01*
X18079Y359417D02*
Y363417D01*
X22079D01*
Y359417D01*
X18079D01*
X23000Y349575D02*
Y353575D01*
X27000D01*
Y349575D01*
X23000D01*
X18079Y339732D02*
Y343732D01*
X22079D01*
Y339732D01*
X18079D01*
X23000Y329890D02*
Y333890D01*
X27000D01*
Y329890D01*
X23000D01*
X18079Y320047D02*
Y324047D01*
X22079D01*
Y320047D01*
X18079D01*
X23000Y310205D02*
Y314205D01*
X27000D01*
Y310205D01*
X23000D01*
X18079Y300362D02*
Y304362D01*
X22079D01*
Y300362D01*
X18079D01*
X23000Y290520D02*
Y294520D01*
X27000D01*
Y290520D01*
X23000D01*
X18079Y280677D02*
Y284677D01*
X22079D01*
Y280677D01*
X18079D01*
X13158Y566110D02*
Y570110D01*
X17157D01*
Y566110D01*
X13158D01*
X8236Y438158D02*
Y442158D01*
X12236D01*
Y438158D01*
X8236D01*
X13158Y428315D02*
Y432315D01*
X17157D01*
Y428315D01*
X13158D01*
X8236Y418472D02*
Y422472D01*
X12236D01*
Y418472D01*
X8236D01*
X13158Y408630D02*
Y412630D01*
X17157D01*
Y408630D01*
X13158D01*
X8236Y398787D02*
Y402787D01*
X12236D01*
Y398787D01*
X8236D01*
X13158Y369260D02*
Y373260D01*
X17157D01*
Y369260D01*
X13158D01*
X8236Y359417D02*
Y363417D01*
X12236D01*
Y359417D01*
X8236D01*
X13158Y349575D02*
Y353575D01*
X17157D01*
Y349575D01*
X13158D01*
X8236Y339732D02*
Y343732D01*
X12236D01*
Y339732D01*
X8236D01*
X13158Y329890D02*
Y333890D01*
X17157D01*
Y329890D01*
X13158D01*
X8236Y320047D02*
Y324047D01*
X12236D01*
Y320047D01*
X8236D01*
X13158Y310205D02*
Y314205D01*
X17157D01*
Y310205D01*
X13158D01*
X8236Y300362D02*
Y304362D01*
X12236D01*
Y300362D01*
X8236D01*
X13158Y290520D02*
Y294520D01*
X17157D01*
Y290520D01*
X13158D01*
X8236Y280677D02*
Y284677D01*
X12236D01*
Y280677D01*
X8236D01*
X437370Y520835D02*
Y524835D01*
X441370D01*
Y520835D01*
X437370D01*
X98197Y46819D02*
Y50819D01*
X102197D01*
Y46819D01*
X98197D01*
X103118Y36976D02*
Y40976D01*
X107118D01*
Y36976D01*
X103118D01*
X98197Y27134D02*
Y31134D01*
X102197D01*
Y27134D01*
X98197D01*
X103118Y17291D02*
Y21291D01*
X107118D01*
Y17291D01*
X103118D01*
X98197Y7449D02*
Y11449D01*
X102197D01*
Y7449D01*
X98197D01*
X88354Y46819D02*
Y50819D01*
X92354D01*
Y46819D01*
X88354D01*
X93276Y36976D02*
Y40976D01*
X97276D01*
Y36976D01*
X93276D01*
X88354Y27134D02*
Y31134D01*
X92354D01*
Y27134D01*
X88354D01*
X93276Y17291D02*
Y21291D01*
X97276D01*
Y17291D01*
X93276D01*
X88354Y7449D02*
Y11449D01*
X92354D01*
Y7449D01*
X88354D01*
X78512Y46819D02*
Y50819D01*
X82512D01*
Y46819D01*
X78512D01*
X83433Y36976D02*
Y40976D01*
X87433D01*
Y36976D01*
X83433D01*
Y17291D02*
Y21291D01*
X87433D01*
Y17291D01*
X83433D01*
X78512Y7449D02*
Y11449D01*
X82512D01*
Y7449D01*
X78512D01*
X68669Y46819D02*
Y50819D01*
X72669D01*
Y46819D01*
X68669D01*
X63748Y233827D02*
Y237827D01*
X67748D01*
Y233827D01*
X63748D01*
X58827Y223984D02*
Y227984D01*
X62827D01*
Y223984D01*
X58827D01*
Y46819D02*
Y50819D01*
X62827D01*
Y46819D01*
X58827D01*
Y7449D02*
Y11449D01*
X62827D01*
Y7449D01*
X58827D01*
X53905Y253512D02*
Y257512D01*
X57906D01*
Y253512D01*
X53905D01*
Y233827D02*
Y237827D01*
X57906D01*
Y233827D01*
X53905D01*
X48984Y223984D02*
Y227984D01*
X52984D01*
Y223984D01*
X48984D01*
X53905Y214142D02*
Y218142D01*
X57906D01*
Y214142D01*
X53905D01*
X48984Y46819D02*
Y50819D01*
X52984D01*
Y46819D01*
X48984D01*
Y7449D02*
Y11449D01*
X52984D01*
Y7449D01*
X48984D01*
X44063Y253512D02*
Y257512D01*
X48063D01*
Y253512D01*
X44063D01*
X39142Y243669D02*
Y247669D01*
X43142D01*
Y243669D01*
X39142D01*
X44063Y233827D02*
Y237827D01*
X48063D01*
Y233827D01*
X44063D01*
X39142Y223984D02*
Y227984D01*
X43142D01*
Y223984D01*
X39142D01*
X44063Y214142D02*
Y218142D01*
X48063D01*
Y214142D01*
X44063D01*
X39142Y204299D02*
Y208299D01*
X43142D01*
Y204299D01*
X39142D01*
Y184614D02*
Y188614D01*
X43142D01*
Y184614D01*
X39142D01*
Y164929D02*
Y168929D01*
X43142D01*
Y164929D01*
X39142D01*
Y145244D02*
Y149244D01*
X43142D01*
Y145244D01*
X39142D01*
Y125559D02*
Y129559D01*
X43142D01*
Y125559D01*
X39142D01*
Y105874D02*
Y109874D01*
X43142D01*
Y105874D01*
X39142D01*
Y86189D02*
Y90189D01*
X43142D01*
Y86189D01*
X39142D01*
Y66504D02*
Y70504D01*
X43142D01*
Y66504D01*
X39142D01*
Y46819D02*
Y50819D01*
X43142D01*
Y46819D01*
X39142D01*
X44063Y36976D02*
Y40976D01*
X48063D01*
Y36976D01*
X44063D01*
X39142Y27134D02*
Y31134D01*
X43142D01*
Y27134D01*
X39142D01*
X44063Y17291D02*
Y21291D01*
X48063D01*
Y17291D01*
X44063D01*
X39142Y7449D02*
Y11449D01*
X43142D01*
Y7449D01*
X39142D01*
X34220Y253512D02*
Y257512D01*
X38221D01*
Y253512D01*
X34220D01*
X29299Y243669D02*
Y247669D01*
X33299D01*
Y243669D01*
X29299D01*
X34220Y233827D02*
Y237827D01*
X38221D01*
Y233827D01*
X34220D01*
X29299Y223984D02*
Y227984D01*
X33299D01*
Y223984D01*
X29299D01*
X34220Y214142D02*
Y218142D01*
X38221D01*
Y214142D01*
X34220D01*
X29299Y204299D02*
Y208299D01*
X33299D01*
Y204299D01*
X29299D01*
X34220Y194457D02*
Y198457D01*
X38221D01*
Y194457D01*
X34220D01*
X29299Y184614D02*
Y188614D01*
X33299D01*
Y184614D01*
X29299D01*
X34220Y174772D02*
Y178772D01*
X38221D01*
Y174772D01*
X34220D01*
X29299Y164929D02*
Y168929D01*
X33299D01*
Y164929D01*
X29299D01*
X34220Y155087D02*
Y159087D01*
X38221D01*
Y155087D01*
X34220D01*
X29299Y145244D02*
Y149244D01*
X33299D01*
Y145244D01*
X29299D01*
X34220Y135402D02*
Y139402D01*
X38221D01*
Y135402D01*
X34220D01*
X29299Y125559D02*
Y129559D01*
X33299D01*
Y125559D01*
X29299D01*
X34220Y115717D02*
Y119717D01*
X38221D01*
Y115717D01*
X34220D01*
X29299Y105874D02*
Y109874D01*
X33299D01*
Y105874D01*
X29299D01*
X34220Y96031D02*
Y100031D01*
X38221D01*
Y96031D01*
X34220D01*
X29299Y86189D02*
Y90189D01*
X33299D01*
Y86189D01*
X29299D01*
X34220Y76346D02*
Y80347D01*
X38221D01*
Y76346D01*
X34220D01*
X29299Y66504D02*
Y70504D01*
X33299D01*
Y66504D01*
X29299D01*
X34220Y56661D02*
Y60661D01*
X38221D01*
Y56661D01*
X34220D01*
X29299Y46819D02*
Y50819D01*
X33299D01*
Y46819D01*
X29299D01*
X34220Y36976D02*
Y40976D01*
X38221D01*
Y36976D01*
X34220D01*
X29299Y27134D02*
Y31134D01*
X33299D01*
Y27134D01*
X29299D01*
X34220Y17291D02*
Y21291D01*
X38221D01*
Y17291D01*
X34220D01*
X29299Y7449D02*
Y11449D01*
X33299D01*
Y7449D01*
X29299D01*
X19457Y263354D02*
Y267354D01*
X23457D01*
Y263354D01*
X19457D01*
X24378Y253512D02*
Y257512D01*
X28378D01*
Y253512D01*
X24378D01*
X19457Y243669D02*
Y247669D01*
X23457D01*
Y243669D01*
X19457D01*
X24378Y233827D02*
Y237827D01*
X28378D01*
Y233827D01*
X24378D01*
X19457Y223984D02*
Y227984D01*
X23457D01*
Y223984D01*
X19457D01*
X24378Y214142D02*
Y218142D01*
X28378D01*
Y214142D01*
X24378D01*
X19457Y204299D02*
Y208299D01*
X23457D01*
Y204299D01*
X19457D01*
X24378Y194457D02*
Y198457D01*
X28378D01*
Y194457D01*
X24378D01*
X19457Y184614D02*
Y188614D01*
X23457D01*
Y184614D01*
X19457D01*
X24378Y174772D02*
Y178772D01*
X28378D01*
Y174772D01*
X24378D01*
X19457Y164929D02*
Y168929D01*
X23457D01*
Y164929D01*
X19457D01*
X24378Y155087D02*
Y159087D01*
X28378D01*
Y155087D01*
X24378D01*
X19457Y145244D02*
Y149244D01*
X23457D01*
Y145244D01*
X19457D01*
X24378Y135402D02*
Y139402D01*
X28378D01*
Y135402D01*
X24378D01*
X19457Y125559D02*
Y129559D01*
X23457D01*
Y125559D01*
X19457D01*
X24378Y115717D02*
Y119717D01*
X28378D01*
Y115717D01*
X24378D01*
X19457Y105874D02*
Y109874D01*
X23457D01*
Y105874D01*
X19457D01*
X24378Y96031D02*
Y100031D01*
X28378D01*
Y96031D01*
X24378D01*
X19457Y86189D02*
Y90189D01*
X23457D01*
Y86189D01*
X19457D01*
X24378Y76346D02*
Y80347D01*
X28378D01*
Y76346D01*
X24378D01*
X19457Y66504D02*
Y70504D01*
X23457D01*
Y66504D01*
X19457D01*
X24378Y56661D02*
Y60661D01*
X28378D01*
Y56661D01*
X24378D01*
X19457Y46819D02*
Y50819D01*
X23457D01*
Y46819D01*
X19457D01*
X24378Y36976D02*
Y40976D01*
X28378D01*
Y36976D01*
X24378D01*
X19457Y27134D02*
Y31134D01*
X23457D01*
Y27134D01*
X19457D01*
X24378Y17291D02*
Y21291D01*
X28378D01*
Y17291D01*
X24378D01*
X9614Y263354D02*
Y267354D01*
X13614D01*
Y263354D01*
X9614D01*
X14535Y253512D02*
Y257512D01*
X18535D01*
Y253512D01*
X14535D01*
X9614Y243669D02*
Y247669D01*
X13614D01*
Y243669D01*
X9614D01*
X14535Y233827D02*
Y237827D01*
X18535D01*
Y233827D01*
X14535D01*
X9614Y223984D02*
Y227984D01*
X13614D01*
Y223984D01*
X9614D01*
X14535Y214142D02*
Y218142D01*
X18535D01*
Y214142D01*
X14535D01*
X9614Y204299D02*
Y208299D01*
X13614D01*
Y204299D01*
X9614D01*
X14535Y194457D02*
Y198457D01*
X18535D01*
Y194457D01*
X14535D01*
X9614Y184614D02*
Y188614D01*
X13614D01*
Y184614D01*
X9614D01*
X14535Y174772D02*
Y178772D01*
X18535D01*
Y174772D01*
X14535D01*
X9614Y164929D02*
Y168929D01*
X13614D01*
Y164929D01*
X9614D01*
X14535Y155087D02*
Y159087D01*
X18535D01*
Y155087D01*
X14535D01*
X9614Y145244D02*
Y149244D01*
X13614D01*
Y145244D01*
X9614D01*
X14535Y135402D02*
Y139402D01*
X18535D01*
Y135402D01*
X14535D01*
X9614Y125559D02*
Y129559D01*
X13614D01*
Y125559D01*
X9614D01*
X14535Y115717D02*
Y119717D01*
X18535D01*
Y115717D01*
X14535D01*
X9614Y105874D02*
Y109874D01*
X13614D01*
Y105874D01*
X9614D01*
X14535Y96031D02*
Y100031D01*
X18535D01*
Y96031D01*
X14535D01*
X9614Y86189D02*
Y90189D01*
X13614D01*
Y86189D01*
X9614D01*
X14535Y76346D02*
Y80347D01*
X18535D01*
Y76346D01*
X14535D01*
X9614Y66504D02*
Y70504D01*
X13614D01*
Y66504D01*
X9614D01*
X14535Y56661D02*
Y60661D01*
X18535D01*
Y56661D01*
X14535D01*
X9614Y46819D02*
Y50819D01*
X13614D01*
Y46819D01*
X9614D01*
X14535Y36976D02*
Y40976D01*
X18535D01*
Y36976D01*
X14535D01*
X9614Y27134D02*
Y31134D01*
X13614D01*
Y27134D01*
X9614D01*
X462137Y245637D02*
Y249637D01*
X466137D01*
Y245637D01*
X462137D01*
X428012Y376043D02*
Y380043D01*
X432012D01*
Y376043D01*
X428012D01*
X259024Y582721D02*
Y586721D01*
X263024D01*
Y582721D01*
X259024D01*
X172942Y522272D02*
Y526272D01*
X176942D01*
Y522272D01*
X172942D01*
X694850Y400362D02*
Y404362D01*
X698850D01*
Y400362D01*
X694850D01*
X747532Y343276D02*
Y347276D01*
X751532D01*
Y343276D01*
X747532D01*
Y355087D02*
Y359087D01*
X751532D01*
Y355087D01*
X747532D01*
X493669Y521146D02*
Y525146D01*
X497669D01*
Y521146D01*
X493669D01*
X638158Y242488D02*
Y246488D01*
X642158D01*
Y242488D01*
X638158D01*
X628315D02*
Y246488D01*
X632315D01*
Y242488D01*
X628315D01*
X633236Y232646D02*
Y236646D01*
X637236D01*
Y232646D01*
X633236D01*
X628315Y222803D02*
Y226803D01*
X632315D01*
Y222803D01*
X628315D01*
X623394Y252331D02*
Y256331D01*
X627394D01*
Y252331D01*
X623394D01*
X618472Y242488D02*
Y246488D01*
X622472D01*
Y242488D01*
X618472D01*
X623394Y232646D02*
Y236646D01*
X627394D01*
Y232646D01*
X623394D01*
X618472Y222803D02*
Y226803D01*
X622472D01*
Y222803D01*
X618472D01*
X613551Y252331D02*
Y256331D01*
X617551D01*
Y252331D01*
X613551D01*
X608630Y242488D02*
Y246488D01*
X612630D01*
Y242488D01*
X608630D01*
X613551Y232646D02*
Y236646D01*
X617551D01*
Y232646D01*
X613551D01*
X608630Y222803D02*
Y226803D01*
X612630D01*
Y222803D01*
X608630D01*
X598787Y242488D02*
Y246488D01*
X602787D01*
Y242488D01*
X598787D01*
X603709Y232646D02*
Y236646D01*
X607709D01*
Y232646D01*
X603709D01*
X598787Y222803D02*
Y226803D01*
X602787D01*
Y222803D01*
X598787D01*
X588945Y242488D02*
Y246488D01*
X592945D01*
Y242488D01*
X588945D01*
X593866Y232646D02*
Y236646D01*
X597866D01*
Y232646D01*
X593866D01*
X588945Y222803D02*
Y226803D01*
X592945D01*
Y222803D01*
X588945D01*
X584024Y252331D02*
Y256331D01*
X588024D01*
Y252331D01*
X584024D01*
X579102Y242488D02*
Y246488D01*
X583102D01*
Y242488D01*
X579102D01*
X584024Y232646D02*
Y236646D01*
X588024D01*
Y232646D01*
X584024D01*
X579102Y222803D02*
Y226803D01*
X583102D01*
Y222803D01*
X579102D01*
X574181Y252331D02*
Y256331D01*
X578181D01*
Y252331D01*
X574181D01*
Y232646D02*
Y236646D01*
X578181D01*
Y232646D01*
X574181D01*
X621854Y202714D02*
Y206714D01*
X625854D01*
Y202714D01*
X621854D01*
X616933Y192872D02*
Y196872D01*
X620933D01*
Y192872D01*
X616933D01*
X621854Y183029D02*
Y187029D01*
X625854D01*
Y183029D01*
X621854D01*
Y163344D02*
Y167344D01*
X625854D01*
Y163344D01*
X621854D01*
X616933Y153502D02*
Y157502D01*
X620933D01*
Y153502D01*
X616933D01*
X612012Y202714D02*
Y206714D01*
X616012D01*
Y202714D01*
X612012D01*
Y183029D02*
Y187029D01*
X616012D01*
Y183029D01*
X612012D01*
X607091Y153502D02*
Y157502D01*
X611091D01*
Y153502D01*
X607091D01*
X612012Y143659D02*
Y147659D01*
X616012D01*
Y143659D01*
X612012D01*
Y123974D02*
Y127974D01*
X616012D01*
Y123974D01*
X612012D01*
X602169Y183029D02*
Y187029D01*
X606169D01*
Y183029D01*
X602169D01*
X597248Y153502D02*
Y157502D01*
X601248D01*
Y153502D01*
X597248D01*
X602169Y143659D02*
Y147659D01*
X606169D01*
Y143659D01*
X602169D01*
Y123974D02*
Y127974D01*
X606169D01*
Y123974D01*
X602169D01*
X592327Y183029D02*
Y187029D01*
X596327D01*
Y183029D01*
X592327D01*
X587406Y153502D02*
Y157502D01*
X591406D01*
Y153502D01*
X587406D01*
X592327Y143659D02*
Y147659D01*
X596327D01*
Y143659D01*
X592327D01*
Y123974D02*
Y127974D01*
X596327D01*
Y123974D01*
X592327D01*
X587406Y114131D02*
Y118131D01*
X591406D01*
Y114131D01*
X587406D01*
X582484Y202714D02*
Y206714D01*
X586484D01*
Y202714D01*
X582484D01*
X577563Y192872D02*
Y196872D01*
X581563D01*
Y192872D01*
X577563D01*
X582484Y183029D02*
Y187029D01*
X586484D01*
Y183029D01*
X582484D01*
X577563Y153502D02*
Y157502D01*
X581563D01*
Y153502D01*
X577563D01*
X582484Y143659D02*
Y147659D01*
X586484D01*
Y143659D01*
X582484D01*
Y123974D02*
Y127974D01*
X586484D01*
Y123974D01*
X582484D01*
X572642Y202714D02*
Y206714D01*
X576642D01*
Y202714D01*
X572642D01*
Y183029D02*
Y187029D01*
X576642D01*
Y183029D01*
X572642D01*
Y163344D02*
Y167344D01*
X576642D01*
Y163344D01*
X572642D01*
X631662Y66504D02*
Y70504D01*
X635662D01*
Y66504D01*
X631662D01*
X626740Y76346D02*
Y80347D01*
X630740D01*
Y76346D01*
X626740D01*
X621819Y66504D02*
Y70504D01*
X625819D01*
Y66504D01*
X621819D01*
X611977D02*
Y70504D01*
X615977D01*
Y66504D01*
X611977D01*
X607055Y76346D02*
Y80347D01*
X611055D01*
Y76346D01*
X607055D01*
X602134Y66504D02*
Y70504D01*
X606134D01*
Y66504D01*
X602134D01*
X352331Y273984D02*
Y277984D01*
X356331D01*
Y273984D01*
X352331D01*
Y254299D02*
Y258299D01*
X356331D01*
Y254299D01*
X352331D01*
X342488Y273984D02*
Y277984D01*
X346488D01*
Y273984D01*
X342488D01*
Y254299D02*
Y258299D01*
X346488D01*
Y254299D01*
X342488D01*
X332646Y273984D02*
Y277984D01*
X336646D01*
Y273984D01*
X332646D01*
Y254299D02*
Y258299D01*
X336646D01*
Y254299D01*
X332646D01*
X322803Y273984D02*
Y277984D01*
X326803D01*
Y273984D01*
X322803D01*
X327725Y264142D02*
Y268142D01*
X331725D01*
Y264142D01*
X327725D01*
X322803Y254299D02*
Y258299D01*
X326803D01*
Y254299D01*
X322803D01*
X312961Y273984D02*
Y277984D01*
X316961D01*
Y273984D01*
X312961D01*
X317882Y264142D02*
Y268142D01*
X321882D01*
Y264142D01*
X317882D01*
X312961Y254299D02*
Y258299D01*
X316961D01*
Y254299D01*
X312961D01*
X303118Y273984D02*
Y277984D01*
X307118D01*
Y273984D01*
X303118D01*
X308039Y264142D02*
Y268142D01*
X312039D01*
Y264142D01*
X308039D01*
X303118Y254299D02*
Y258299D01*
X307118D01*
Y254299D01*
X303118D01*
X283433D02*
Y258299D01*
X287433D01*
Y254299D01*
X283433D01*
X273591Y273984D02*
Y277984D01*
X277591D01*
Y273984D01*
X273591D01*
Y254299D02*
Y258299D01*
X277591D01*
Y254299D01*
X273591D01*
X244063Y273984D02*
Y277984D01*
X248063D01*
Y273984D01*
X244063D01*
Y254299D02*
Y258299D01*
X248063D01*
Y254299D01*
X244063D01*
X358433Y301150D02*
Y305150D01*
X362433D01*
Y301150D01*
X358433D01*
X353512Y291307D02*
Y295307D01*
X357512D01*
Y291307D01*
X353512D01*
X348591Y320835D02*
Y324835D01*
X352591D01*
Y320835D01*
X348591D01*
Y301150D02*
Y305150D01*
X352591D01*
Y301150D01*
X348591D01*
X343669Y291307D02*
Y295307D01*
X347669D01*
Y291307D01*
X343669D01*
X338748Y320835D02*
Y324835D01*
X342748D01*
Y320835D01*
X338748D01*
X333827Y310992D02*
Y314992D01*
X337827D01*
Y310992D01*
X333827D01*
X338748Y301150D02*
Y305150D01*
X342748D01*
Y301150D01*
X338748D01*
X333827Y291307D02*
Y295307D01*
X337827D01*
Y291307D01*
X333827D01*
X328906Y320835D02*
Y324835D01*
X332906D01*
Y320835D01*
X328906D01*
X323984Y310992D02*
Y314992D01*
X327984D01*
Y310992D01*
X323984D01*
X328906Y301150D02*
Y305150D01*
X332906D01*
Y301150D01*
X328906D01*
X323984Y291307D02*
Y295307D01*
X327984D01*
Y291307D01*
X323984D01*
X319063Y320835D02*
Y324835D01*
X323063D01*
Y320835D01*
X319063D01*
X314142Y310992D02*
Y314992D01*
X318142D01*
Y310992D01*
X314142D01*
X319063Y301150D02*
Y305150D01*
X323063D01*
Y301150D01*
X319063D01*
X314142Y291307D02*
Y295307D01*
X318142D01*
Y291307D01*
X314142D01*
X309221Y320835D02*
Y324835D01*
X313221D01*
Y320835D01*
X309221D01*
X304299Y310992D02*
Y314992D01*
X308299D01*
Y310992D01*
X304299D01*
X309221Y301150D02*
Y305150D01*
X313221D01*
Y301150D01*
X309221D01*
X304299Y291307D02*
Y295307D01*
X308299D01*
Y291307D01*
X304299D01*
X299378Y301150D02*
Y305150D01*
X303378D01*
Y301150D01*
X299378D01*
X294457Y291307D02*
Y295307D01*
X298457D01*
Y291307D01*
X294457D01*
X284614D02*
Y295307D01*
X288614D01*
Y291307D01*
X284614D01*
X279693Y320835D02*
Y324835D01*
X283693D01*
Y320835D01*
X279693D01*
X274772Y310992D02*
Y314992D01*
X278772D01*
Y310992D01*
X274772D01*
X279693Y301150D02*
Y305150D01*
X283693D01*
Y301150D01*
X279693D01*
X274772Y291307D02*
Y295307D01*
X278772D01*
Y291307D01*
X274772D01*
X269850Y320835D02*
Y324835D01*
X273850D01*
Y320835D01*
X269850D01*
Y301150D02*
Y305150D01*
X273850D01*
Y301150D01*
X269850D01*
X264929Y291307D02*
Y295307D01*
X268929D01*
Y291307D01*
X264929D01*
X255087D02*
Y295307D01*
X259087D01*
Y291307D01*
X255087D01*
X245244Y310992D02*
Y314992D01*
X249244D01*
Y310992D01*
X245244D01*
X250166Y301150D02*
Y305150D01*
X254166D01*
Y301150D01*
X250166D01*
X245244Y291307D02*
Y295307D01*
X249244D01*
Y291307D01*
X245244D01*
X37764Y488551D02*
Y492551D01*
X41764D01*
Y488551D01*
X37764D01*
X42685Y478709D02*
Y482709D01*
X46685D01*
Y478709D01*
X42685D01*
X37764Y468866D02*
Y472866D01*
X41764D01*
Y468866D01*
X37764D01*
X32842Y498394D02*
Y502394D01*
X36843D01*
Y498394D01*
X32842D01*
X27921Y488551D02*
Y492551D01*
X31921D01*
Y488551D01*
X27921D01*
X32842Y478709D02*
Y482709D01*
X36843D01*
Y478709D01*
X32842D01*
X18079Y547606D02*
Y551606D01*
X22079D01*
Y547606D01*
X18079D01*
Y527921D02*
Y531921D01*
X22079D01*
Y527921D01*
X18079D01*
Y508236D02*
Y512236D01*
X22079D01*
Y508236D01*
X18079D01*
X23000Y478709D02*
Y482709D01*
X27000D01*
Y478709D01*
X23000D01*
X8236Y547606D02*
Y551606D01*
X12236D01*
Y547606D01*
X8236D01*
X13158Y537764D02*
Y541764D01*
X17157D01*
Y537764D01*
X13158D01*
X8236Y527921D02*
Y531921D01*
X12236D01*
Y527921D01*
X8236D01*
X13158Y518079D02*
Y522079D01*
X17157D01*
Y518079D01*
X13158D01*
X8236Y508236D02*
Y512236D01*
X12236D01*
Y508236D01*
X8236D01*
Y488551D02*
Y492551D01*
X12236D01*
Y488551D01*
X8236D01*
X13158Y478709D02*
Y482709D01*
X17157D01*
Y478709D01*
X13158D01*
X762173Y69260D02*
Y73260D01*
X766173D01*
Y69260D01*
X762173D01*
Y57449D02*
Y61449D01*
X766173D01*
Y57449D01*
X762173D01*
Y45638D02*
Y49638D01*
X766173D01*
Y45638D01*
X762173D01*
X319260Y69260D02*
Y73260D01*
X323260D01*
Y69260D01*
X319260D01*
Y57449D02*
Y61449D01*
X323260D01*
Y57449D01*
X319260D01*
X316307Y75165D02*
Y79165D01*
X320307D01*
Y75165D01*
X316307D01*
X313354Y69260D02*
Y73260D01*
X317354D01*
Y69260D01*
X313354D01*
X316307Y63354D02*
Y67354D01*
X320307D01*
Y63354D01*
X316307D01*
X310401Y75165D02*
Y79165D01*
X314401D01*
Y75165D01*
X310401D01*
X307449Y69260D02*
Y73260D01*
X311449D01*
Y69260D01*
X307449D01*
X304496Y75165D02*
Y79165D01*
X308496D01*
Y75165D01*
X304496D01*
X301543Y69260D02*
Y73260D01*
X305543D01*
Y69260D01*
X301543D01*
Y57449D02*
Y61449D01*
X305543D01*
Y57449D01*
X301543D01*
X298590Y75165D02*
Y79165D01*
X302590D01*
Y75165D01*
X298590D01*
Y63354D02*
Y67354D01*
X302590D01*
Y63354D01*
X298590D01*
Y51543D02*
Y55543D01*
X302590D01*
Y51543D01*
X298590D01*
X295638Y45638D02*
Y49638D01*
X299638D01*
Y45638D01*
X295638D01*
X274968Y75165D02*
Y79165D01*
X278968D01*
Y75165D01*
X274968D01*
X465913Y193276D02*
Y197276D01*
X469913D01*
Y193276D01*
X465913D01*
X460992Y183433D02*
Y187433D01*
X464992D01*
Y183433D01*
X460992D01*
X465913Y173591D02*
Y177591D01*
X469913D01*
Y173591D01*
X465913D01*
X460992Y163748D02*
Y167748D01*
X464992D01*
Y163748D01*
X460992D01*
X451150Y203118D02*
Y207118D01*
X455150D01*
Y203118D01*
X451150D01*
X456071Y193276D02*
Y197276D01*
X460071D01*
Y193276D01*
X456071D01*
X451150Y183433D02*
Y187433D01*
X455150D01*
Y183433D01*
X451150D01*
X456071Y173591D02*
Y177591D01*
X460071D01*
Y173591D01*
X456071D01*
X451150Y163748D02*
Y167748D01*
X455150D01*
Y163748D01*
X451150D01*
X441307Y203118D02*
Y207118D01*
X445307D01*
Y203118D01*
X441307D01*
X446228Y193276D02*
Y197276D01*
X450228D01*
Y193276D01*
X446228D01*
X441307Y183433D02*
Y187433D01*
X445307D01*
Y183433D01*
X441307D01*
X446228Y173591D02*
Y177591D01*
X450228D01*
Y173591D01*
X446228D01*
X441307Y163748D02*
Y167748D01*
X445307D01*
Y163748D01*
X441307D01*
X436386Y193276D02*
Y197276D01*
X440386D01*
Y193276D01*
X436386D01*
X431465Y183433D02*
Y187433D01*
X435465D01*
Y183433D01*
X431465D01*
X436386Y173591D02*
Y177591D01*
X440386D01*
Y173591D01*
X436386D01*
X431465Y163748D02*
Y167748D01*
X435465D01*
Y163748D01*
X431465D01*
X421622Y203118D02*
Y207118D01*
X425622D01*
Y203118D01*
X421622D01*
X426543Y173591D02*
Y177591D01*
X430543D01*
Y173591D01*
X426543D01*
X421622Y163748D02*
Y167748D01*
X425622D01*
Y163748D01*
X421622D01*
X411779Y183433D02*
Y187433D01*
X415779D01*
Y183433D01*
X411779D01*
X416701Y173591D02*
Y177591D01*
X420701D01*
Y173591D01*
X416701D01*
X411779Y163748D02*
Y167748D01*
X415779D01*
Y163748D01*
X411779D01*
X406858Y193276D02*
Y197276D01*
X410858D01*
Y193276D01*
X406858D01*
X401937Y183433D02*
Y187433D01*
X405937D01*
Y183433D01*
X401937D01*
X406858Y173591D02*
Y177591D01*
X410858D01*
Y173591D01*
X406858D01*
X401937Y163748D02*
Y167748D01*
X405937D01*
Y163748D01*
X401937D01*
X397016Y193276D02*
Y197276D01*
X401016D01*
Y193276D01*
X397016D01*
X392094Y183433D02*
Y187433D01*
X396094D01*
Y183433D01*
X392094D01*
X397016Y173591D02*
Y177591D01*
X401016D01*
Y173591D01*
X397016D01*
X392094Y163748D02*
Y167748D01*
X396094D01*
Y163748D01*
X392094D01*
X387173Y193276D02*
Y197276D01*
X391173D01*
Y193276D01*
X387173D01*
X382252Y183433D02*
Y187433D01*
X386252D01*
Y183433D01*
X382252D01*
X387173Y173591D02*
Y177591D01*
X391173D01*
Y173591D01*
X387173D01*
X382252Y163748D02*
Y167748D01*
X386252D01*
Y163748D01*
X382252D01*
X667685Y439339D02*
Y443339D01*
X671685D01*
Y439339D01*
X667685D01*
Y399969D02*
Y403968D01*
X671685D01*
Y399969D01*
X667685D01*
X657842Y439339D02*
Y443339D01*
X661842D01*
Y439339D01*
X657842D01*
Y399969D02*
Y403968D01*
X661842D01*
Y399969D01*
X657842D01*
X648000Y439339D02*
Y443339D01*
X652000D01*
Y439339D01*
X648000D01*
Y399969D02*
Y403968D01*
X652000D01*
Y399969D01*
X648000D01*
X638158Y439339D02*
Y443339D01*
X642158D01*
Y439339D01*
X638158D01*
Y399969D02*
Y403968D01*
X642158D01*
Y399969D01*
X638158D01*
X628315Y439339D02*
Y443339D01*
X632315D01*
Y439339D01*
X628315D01*
Y419654D02*
Y423654D01*
X632315D01*
Y419654D01*
X628315D01*
Y399969D02*
Y403968D01*
X632315D01*
Y399969D01*
X628315D01*
X618472Y439339D02*
Y443339D01*
X622472D01*
Y439339D01*
X618472D01*
X623394Y429496D02*
Y433496D01*
X627394D01*
Y429496D01*
X623394D01*
Y409811D02*
Y413811D01*
X627394D01*
Y409811D01*
X623394D01*
X618472Y399969D02*
Y403968D01*
X622472D01*
Y399969D01*
X618472D01*
X608630D02*
Y403968D01*
X612630D01*
Y399969D01*
X608630D01*
X598787D02*
Y403968D01*
X602787D01*
Y399969D01*
X598787D01*
X588945Y439339D02*
Y443339D01*
X592945D01*
Y439339D01*
X588945D01*
Y399969D02*
Y403968D01*
X592945D01*
Y399969D01*
X588945D01*
X579102Y439339D02*
Y443339D01*
X583102D01*
Y439339D01*
X579102D01*
X584024Y429496D02*
Y433496D01*
X588024D01*
Y429496D01*
X584024D01*
X579102Y419654D02*
Y423654D01*
X583102D01*
Y419654D01*
X579102D01*
X584024Y409811D02*
Y413811D01*
X588024D01*
Y409811D01*
X584024D01*
X579102Y399969D02*
Y403968D01*
X583102D01*
Y399969D01*
X579102D01*
X569260Y439339D02*
Y443339D01*
X573260D01*
Y439339D01*
X569260D01*
X574181Y429496D02*
Y433496D01*
X578181D01*
Y429496D01*
X574181D01*
X569260Y419654D02*
Y423654D01*
X573260D01*
Y419654D01*
X569260D01*
X574181Y409811D02*
Y413811D01*
X578181D01*
Y409811D01*
X574181D01*
X569260Y399969D02*
Y403968D01*
X573260D01*
Y399969D01*
X569260D01*
X559417Y439339D02*
Y443339D01*
X563417D01*
Y439339D01*
X559417D01*
X564339Y429496D02*
Y433496D01*
X568339D01*
Y429496D01*
X564339D01*
X559417Y419654D02*
Y423654D01*
X563417D01*
Y419654D01*
X559417D01*
X564339Y409811D02*
Y413811D01*
X568339D01*
Y409811D01*
X564339D01*
X559417Y399969D02*
Y403968D01*
X563417D01*
Y399969D01*
X559417D01*
X549575Y439339D02*
Y443339D01*
X553575D01*
Y439339D01*
X549575D01*
X554496Y429496D02*
Y433496D01*
X558496D01*
Y429496D01*
X554496D01*
X549575Y419654D02*
Y423654D01*
X553575D01*
Y419654D01*
X549575D01*
X554496Y409811D02*
Y413811D01*
X558496D01*
Y409811D01*
X554496D01*
X549575Y399969D02*
Y403968D01*
X553575D01*
Y399969D01*
X549575D01*
X539732Y439339D02*
Y443339D01*
X543732D01*
Y439339D01*
X539732D01*
X544654Y429496D02*
Y433496D01*
X548654D01*
Y429496D01*
X544654D01*
X539732Y419654D02*
Y423654D01*
X543732D01*
Y419654D01*
X539732D01*
X544654Y409811D02*
Y413811D01*
X548654D01*
Y409811D01*
X544654D01*
X539732Y399969D02*
Y403968D01*
X543732D01*
Y399969D01*
X539732D01*
X529890Y439339D02*
Y443339D01*
X533890D01*
Y439339D01*
X529890D01*
X534811Y429496D02*
Y433496D01*
X538811D01*
Y429496D01*
X534811D01*
X529890Y419654D02*
Y423654D01*
X533890D01*
Y419654D01*
X529890D01*
X534811Y409811D02*
Y413811D01*
X538811D01*
Y409811D01*
X534811D01*
X529890Y399969D02*
Y403968D01*
X533890D01*
Y399969D01*
X529890D01*
X520047Y439339D02*
Y443339D01*
X524047D01*
Y439339D01*
X520047D01*
X524968Y429496D02*
Y433496D01*
X528968D01*
Y429496D01*
X524968D01*
X520047Y419654D02*
Y423654D01*
X524047D01*
Y419654D01*
X520047D01*
X524968Y409811D02*
Y413811D01*
X528968D01*
Y409811D01*
X524968D01*
X520047Y399969D02*
Y403968D01*
X524047D01*
Y399969D01*
X520047D01*
X652921Y488551D02*
Y492551D01*
X656921D01*
Y488551D01*
X652921D01*
X648000Y478709D02*
Y482709D01*
X652000D01*
Y478709D01*
X648000D01*
X652921Y468866D02*
Y472866D01*
X656921D01*
Y468866D01*
X652921D01*
X638158Y478709D02*
Y482709D01*
X642158D01*
Y478709D01*
X638158D01*
Y459024D02*
Y463024D01*
X642158D01*
Y459024D01*
X638158D01*
X628315Y478709D02*
Y482709D01*
X632315D01*
Y478709D01*
X628315D01*
X633236Y468866D02*
Y472866D01*
X637236D01*
Y468866D01*
X633236D01*
X628315Y459024D02*
Y463024D01*
X632315D01*
Y459024D01*
X628315D01*
X618472D02*
Y463024D01*
X622472D01*
Y459024D01*
X618472D01*
X608630D02*
Y463024D01*
X612630D01*
Y459024D01*
X608630D01*
X598787D02*
Y463024D01*
X602787D01*
Y459024D01*
X598787D01*
X588945D02*
Y463024D01*
X592945D01*
Y459024D01*
X588945D01*
X579102Y478709D02*
Y482709D01*
X583102D01*
Y478709D01*
X579102D01*
Y459024D02*
Y463024D01*
X583102D01*
Y459024D01*
X579102D01*
X574181Y488551D02*
Y492551D01*
X578181D01*
Y488551D01*
X574181D01*
X569260Y478709D02*
Y482709D01*
X573260D01*
Y478709D01*
X569260D01*
X574181Y468866D02*
Y472866D01*
X578181D01*
Y468866D01*
X574181D01*
X569260Y459024D02*
Y463024D01*
X573260D01*
Y459024D01*
X569260D01*
X564339Y488551D02*
Y492551D01*
X568339D01*
Y488551D01*
X564339D01*
X559417Y478709D02*
Y482709D01*
X563417D01*
Y478709D01*
X559417D01*
X564339Y468866D02*
Y472866D01*
X568339D01*
Y468866D01*
X564339D01*
X559417Y459024D02*
Y463024D01*
X563417D01*
Y459024D01*
X559417D01*
X554496Y488551D02*
Y492551D01*
X558496D01*
Y488551D01*
X554496D01*
X549575Y478709D02*
Y482709D01*
X553575D01*
Y478709D01*
X549575D01*
X554496Y468866D02*
Y472866D01*
X558496D01*
Y468866D01*
X554496D01*
X549575Y459024D02*
Y463024D01*
X553575D01*
Y459024D01*
X549575D01*
X544654Y488551D02*
Y492551D01*
X548654D01*
Y488551D01*
X544654D01*
X539732Y478709D02*
Y482709D01*
X543732D01*
Y478709D01*
X539732D01*
X544654Y468866D02*
Y472866D01*
X548654D01*
Y468866D01*
X544654D01*
X539732Y459024D02*
Y463024D01*
X543732D01*
Y459024D01*
X539732D01*
X534811Y488551D02*
Y492551D01*
X538811D01*
Y488551D01*
X534811D01*
X529890Y478709D02*
Y482709D01*
X533890D01*
Y478709D01*
X529890D01*
X534811Y468866D02*
Y472866D01*
X538811D01*
Y468866D01*
X534811D01*
X529890Y459024D02*
Y463024D01*
X533890D01*
Y459024D01*
X529890D01*
X524968Y488551D02*
Y492551D01*
X528968D01*
Y488551D01*
X524968D01*
X520047Y478709D02*
Y482709D01*
X524047D01*
Y478709D01*
X520047D01*
X524968Y468866D02*
Y472866D01*
X528968D01*
Y468866D01*
X524968D01*
X520047Y459024D02*
Y463024D01*
X524047D01*
Y459024D01*
X520047D01*
X432252Y429496D02*
Y433496D01*
X436252D01*
Y429496D01*
X432252D01*
X427331Y439339D02*
Y443339D01*
X431331D01*
Y439339D01*
X427331D01*
X422410Y429496D02*
Y433496D01*
X426410D01*
Y429496D01*
X422410D01*
X427331Y419654D02*
Y423654D01*
X431331D01*
Y419654D01*
X427331D01*
X422410Y409811D02*
Y413811D01*
X426410D01*
Y409811D01*
X422410D01*
X412567Y429496D02*
Y433496D01*
X416567D01*
Y429496D01*
X412567D01*
X417488Y419654D02*
Y423654D01*
X421488D01*
Y419654D01*
X417488D01*
X412567Y409811D02*
Y413811D01*
X416567D01*
Y409811D01*
X412567D01*
X407646Y439339D02*
Y443339D01*
X411646D01*
Y439339D01*
X407646D01*
Y419654D02*
Y423654D01*
X411646D01*
Y419654D01*
X407646D01*
X402725Y409811D02*
Y413811D01*
X406725D01*
Y409811D01*
X402725D01*
X397803Y439339D02*
Y443339D01*
X401803D01*
Y439339D01*
X397803D01*
X392882Y409811D02*
Y413811D01*
X396882D01*
Y409811D01*
X392882D01*
X387961Y439339D02*
Y443339D01*
X391961D01*
Y439339D01*
X387961D01*
X383039Y429496D02*
Y433496D01*
X387039D01*
Y429496D01*
X383039D01*
X387961Y419654D02*
Y423654D01*
X391961D01*
Y419654D01*
X387961D01*
X383039Y409811D02*
Y413811D01*
X387039D01*
Y409811D01*
X383039D01*
X378118Y439339D02*
Y443339D01*
X382118D01*
Y439339D01*
X378118D01*
X373197Y429496D02*
Y433496D01*
X377197D01*
Y429496D01*
X373197D01*
X378118Y419654D02*
Y423654D01*
X382118D01*
Y419654D01*
X378118D01*
X373197Y409811D02*
Y413811D01*
X377197D01*
Y409811D01*
X373197D01*
X368276Y439339D02*
Y443339D01*
X372276D01*
Y439339D01*
X368276D01*
X363354Y429496D02*
Y433496D01*
X367354D01*
Y429496D01*
X363354D01*
X368276Y419654D02*
Y423654D01*
X372276D01*
Y419654D01*
X368276D01*
X363354Y409811D02*
Y413811D01*
X367354D01*
Y409811D01*
X363354D01*
X358433Y439339D02*
Y443339D01*
X362433D01*
Y439339D01*
X358433D01*
X353512Y429496D02*
Y433496D01*
X357512D01*
Y429496D01*
X353512D01*
X358433Y419654D02*
Y423654D01*
X362433D01*
Y419654D01*
X358433D01*
X353512Y409811D02*
Y413811D01*
X357512D01*
Y409811D01*
X353512D01*
X348591Y439339D02*
Y443339D01*
X352591D01*
Y439339D01*
X348591D01*
Y419654D02*
Y423654D01*
X352591D01*
Y419654D01*
X348591D01*
X311189Y429890D02*
Y433890D01*
X315189D01*
Y429890D01*
X311189D01*
X316110Y420047D02*
Y424047D01*
X320110D01*
Y420047D01*
X316110D01*
X311189Y410205D02*
Y414205D01*
X315189D01*
Y410205D01*
X311189D01*
X301347D02*
Y414205D01*
X305347D01*
Y410205D01*
X301347D01*
X291504Y429890D02*
Y433890D01*
X295504D01*
Y429890D01*
X291504D01*
X296425Y420047D02*
Y424047D01*
X300425D01*
Y420047D01*
X296425D01*
X291504Y410205D02*
Y414205D01*
X295504D01*
Y410205D01*
X291504D01*
X286583Y420047D02*
Y424047D01*
X290583D01*
Y420047D01*
X286583D01*
X261977Y429890D02*
Y433890D01*
X265977D01*
Y429890D01*
X261977D01*
X266898Y420047D02*
Y424047D01*
X270898D01*
Y420047D01*
X266898D01*
X261977Y410205D02*
Y414205D01*
X265977D01*
Y410205D01*
X261977D01*
X252134Y429890D02*
Y433890D01*
X256134D01*
Y429890D01*
X252134D01*
X257055Y420047D02*
Y424047D01*
X261055D01*
Y420047D01*
X257055D01*
X252134Y410205D02*
Y414205D01*
X256134D01*
Y410205D01*
X252134D01*
X242291Y429890D02*
Y433890D01*
X246291D01*
Y429890D01*
X242291D01*
X247213Y420047D02*
Y424047D01*
X251213D01*
Y420047D01*
X247213D01*
X242291Y410205D02*
Y414205D01*
X246291D01*
Y410205D01*
X242291D01*
X232449Y429890D02*
Y433890D01*
X236449D01*
Y429890D01*
X232449D01*
X237370Y420047D02*
Y424047D01*
X241370D01*
Y420047D01*
X237370D01*
X232449Y410205D02*
Y414205D01*
X236449D01*
Y410205D01*
X232449D01*
X222606Y429890D02*
Y433890D01*
X226606D01*
Y429890D01*
X222606D01*
X227528Y420047D02*
Y424047D01*
X231528D01*
Y420047D01*
X227528D01*
X222606Y410205D02*
Y414205D01*
X226606D01*
Y410205D01*
X222606D01*
X212764Y429890D02*
Y433890D01*
X216764D01*
Y429890D01*
X212764D01*
X217685Y420047D02*
Y424047D01*
X221685D01*
Y420047D01*
X217685D01*
X212764Y410205D02*
Y414205D01*
X216764D01*
Y410205D01*
X212764D01*
X202921Y429890D02*
Y433890D01*
X206921D01*
Y429890D01*
X202921D01*
X207843Y420047D02*
Y424047D01*
X211843D01*
Y420047D01*
X207843D01*
X202921Y410205D02*
Y414205D01*
X206921D01*
Y410205D01*
X202921D01*
X193079Y429890D02*
Y433890D01*
X197079D01*
Y429890D01*
X193079D01*
X198000Y420047D02*
Y424047D01*
X202000D01*
Y420047D01*
X198000D01*
X193079Y410205D02*
Y414205D01*
X197079D01*
Y410205D01*
X193079D01*
X183236Y429890D02*
Y433890D01*
X187236D01*
Y429890D01*
X183236D01*
X188158Y420047D02*
Y424047D01*
X192158D01*
Y420047D01*
X188158D01*
X183236Y410205D02*
Y414205D01*
X187236D01*
Y410205D01*
X183236D01*
X173394Y429890D02*
Y433890D01*
X177394D01*
Y429890D01*
X173394D01*
X178315Y420047D02*
Y424047D01*
X182315D01*
Y420047D01*
X178315D01*
X173394Y410205D02*
Y414205D01*
X177394D01*
Y410205D01*
X173394D01*
X163551Y429890D02*
Y433890D01*
X167551D01*
Y429890D01*
X163551D01*
X168473Y420047D02*
Y424047D01*
X172473D01*
Y420047D01*
X168473D01*
X163551Y410205D02*
Y414205D01*
X167551D01*
Y410205D01*
X163551D01*
X158630Y420047D02*
Y424047D01*
X162630D01*
Y420047D01*
X158630D01*
X153709Y410205D02*
Y414205D01*
X157709D01*
Y410205D01*
X153709D01*
X158630Y400362D02*
Y404362D01*
X162630D01*
Y400362D01*
X158630D01*
X143866Y410205D02*
Y414205D01*
X147866D01*
Y410205D01*
X143866D01*
X148788Y400362D02*
Y404362D01*
X152788D01*
Y400362D01*
X148788D01*
X138945D02*
Y404362D01*
X142945D01*
Y400362D01*
X138945D01*
X116504Y350756D02*
Y354756D01*
X120504D01*
Y350756D01*
X116504D01*
Y331071D02*
Y335071D01*
X120504D01*
Y331071D01*
X116504D01*
X106661Y370441D02*
Y374441D01*
X110661D01*
Y370441D01*
X106661D01*
X111583Y360598D02*
Y364598D01*
X115583D01*
Y360598D01*
X111583D01*
X106661Y350756D02*
Y354756D01*
X110661D01*
Y350756D01*
X106661D01*
X111583Y340913D02*
Y344913D01*
X115583D01*
Y340913D01*
X111583D01*
X106661Y331071D02*
Y335071D01*
X110661D01*
Y331071D01*
X106661D01*
X111583Y321228D02*
Y325228D01*
X115583D01*
Y321228D01*
X111583D01*
X101740Y380283D02*
Y384283D01*
X105740D01*
Y380283D01*
X101740D01*
X96819Y370441D02*
Y374441D01*
X100819D01*
Y370441D01*
X96819D01*
X101740Y360598D02*
Y364598D01*
X105740D01*
Y360598D01*
X101740D01*
X96819Y350756D02*
Y354756D01*
X100819D01*
Y350756D01*
X96819D01*
X101740Y340913D02*
Y344913D01*
X105740D01*
Y340913D01*
X101740D01*
X96819Y331071D02*
Y335071D01*
X100819D01*
Y331071D01*
X96819D01*
X101740Y321228D02*
Y325228D01*
X105740D01*
Y321228D01*
X101740D01*
X91898Y380283D02*
Y384283D01*
X95898D01*
Y380283D01*
X91898D01*
X86976Y370441D02*
Y374441D01*
X90976D01*
Y370441D01*
X86976D01*
X91898Y360598D02*
Y364598D01*
X95898D01*
Y360598D01*
X91898D01*
Y340913D02*
Y344913D01*
X95898D01*
Y340913D01*
X91898D01*
X86976Y331071D02*
Y335071D01*
X90976D01*
Y331071D01*
X86976D01*
X91898Y321228D02*
Y325228D01*
X95898D01*
Y321228D01*
X91898D01*
Y301543D02*
Y305543D01*
X95898D01*
Y301543D01*
X91898D01*
X82055Y380283D02*
Y384283D01*
X86055D01*
Y380283D01*
X82055D01*
X77134Y370441D02*
Y374441D01*
X81134D01*
Y370441D01*
X77134D01*
X82055Y360598D02*
Y364598D01*
X86055D01*
Y360598D01*
X82055D01*
Y340913D02*
Y344913D01*
X86055D01*
Y340913D01*
X82055D01*
X77134Y331071D02*
Y335071D01*
X81134D01*
Y331071D01*
X77134D01*
X82055Y321228D02*
Y325228D01*
X86055D01*
Y321228D01*
X82055D01*
Y301543D02*
Y305543D01*
X86055D01*
Y301543D01*
X82055D01*
X72213Y380283D02*
Y384283D01*
X76213D01*
Y380283D01*
X72213D01*
X67291Y370441D02*
Y374441D01*
X71291D01*
Y370441D01*
X67291D01*
X72213Y360598D02*
Y364598D01*
X76213D01*
Y360598D01*
X72213D01*
Y340913D02*
Y344913D01*
X76213D01*
Y340913D01*
X72213D01*
X67291Y331071D02*
Y335071D01*
X71291D01*
Y331071D01*
X67291D01*
X72213Y321228D02*
Y325228D01*
X76213D01*
Y321228D01*
X72213D01*
Y301543D02*
Y305543D01*
X76213D01*
Y301543D01*
X72213D01*
X210008Y292095D02*
Y296095D01*
X214008D01*
Y292095D01*
X210008D01*
X195244Y321622D02*
Y325622D01*
X199244D01*
Y321622D01*
X195244D01*
Y301937D02*
Y305937D01*
X199244D01*
Y301937D01*
X195244D01*
X200166Y292095D02*
Y296095D01*
X204166D01*
Y292095D01*
X200166D01*
X185402Y321622D02*
Y325622D01*
X189402D01*
Y321622D01*
X185402D01*
X190323Y311780D02*
Y315780D01*
X194323D01*
Y311780D01*
X190323D01*
X185402Y301937D02*
Y305937D01*
X189402D01*
Y301937D01*
X185402D01*
X190323Y292095D02*
Y296095D01*
X194323D01*
Y292095D01*
X190323D01*
X180480D02*
Y296095D01*
X184480D01*
Y292095D01*
X180480D01*
X165717Y321622D02*
Y325622D01*
X169717D01*
Y321622D01*
X165717D01*
Y301937D02*
Y305937D01*
X169717D01*
Y301937D01*
X165717D01*
X170638Y292095D02*
Y296095D01*
X174638D01*
Y292095D01*
X170638D01*
X155874Y321622D02*
Y325622D01*
X159874D01*
Y321622D01*
X155874D01*
X160795Y311780D02*
Y315780D01*
X164795D01*
Y311780D01*
X160795D01*
X155874Y301937D02*
Y305937D01*
X159874D01*
Y301937D01*
X155874D01*
X160795Y292095D02*
Y296095D01*
X164795D01*
Y292095D01*
X160795D01*
X146032Y321622D02*
Y325622D01*
X150032D01*
Y321622D01*
X146032D01*
X150953Y311780D02*
Y315780D01*
X154953D01*
Y311780D01*
X150953D01*
X146032Y301937D02*
Y305937D01*
X150032D01*
Y301937D01*
X146032D01*
X150953Y292095D02*
Y296095D01*
X154953D01*
Y292095D01*
X150953D01*
X136189Y321622D02*
Y325622D01*
X140189D01*
Y321622D01*
X136189D01*
X141110Y311780D02*
Y315780D01*
X145110D01*
Y311780D01*
X141110D01*
X136189Y301937D02*
Y305937D01*
X140189D01*
Y301937D01*
X136189D01*
X141110Y292095D02*
Y296095D01*
X145110D01*
Y292095D01*
X141110D01*
X126347Y321622D02*
Y325622D01*
X130347D01*
Y321622D01*
X126347D01*
X131268Y311780D02*
Y315780D01*
X135268D01*
Y311780D01*
X131268D01*
X126347Y301937D02*
Y305937D01*
X130347D01*
Y301937D01*
X126347D01*
X131268Y292095D02*
Y296095D01*
X135268D01*
Y292095D01*
X131268D01*
X121425Y311780D02*
Y315780D01*
X125425D01*
Y311780D01*
X121425D01*
X116504Y301937D02*
Y305937D01*
X120504D01*
Y301937D01*
X116504D01*
X121425Y292095D02*
Y296095D01*
X125425D01*
Y292095D01*
X121425D01*
X116504Y282252D02*
Y286252D01*
X120504D01*
Y282252D01*
X116504D01*
X111583Y311780D02*
Y315780D01*
X115583D01*
Y311780D01*
X111583D01*
X106661Y301937D02*
Y305937D01*
X110661D01*
Y301937D01*
X106661D01*
X111583Y292095D02*
Y296095D01*
X115583D01*
Y292095D01*
X111583D01*
X106661Y282252D02*
Y286252D01*
X110661D01*
Y282252D01*
X106661D01*
X101740Y292095D02*
Y296095D01*
X105740D01*
Y292095D01*
X101740D01*
X96819Y282252D02*
Y286252D01*
X100819D01*
Y282252D01*
X96819D01*
X101740Y272410D02*
Y276410D01*
X105740D01*
Y272410D01*
X101740D01*
X96819Y262567D02*
Y266567D01*
X100819D01*
Y262567D01*
X96819D01*
X91898Y292095D02*
Y296095D01*
X95898D01*
Y292095D01*
X91898D01*
X86976Y282252D02*
Y286252D01*
X90977D01*
Y282252D01*
X86976D01*
X91898Y272410D02*
Y276410D01*
X95898D01*
Y272410D01*
X91898D01*
X86976Y262567D02*
Y266567D01*
X90977D01*
Y262567D01*
X86976D01*
X77134Y282252D02*
Y286252D01*
X81134D01*
Y282252D01*
X77134D01*
X82055Y272410D02*
Y276410D01*
X86055D01*
Y272410D01*
X82055D01*
X77134Y262567D02*
Y266567D01*
X81134D01*
Y262567D01*
X77134D01*
X72213Y272410D02*
Y276410D01*
X76213D01*
Y272410D01*
X72213D01*
X213354Y253118D02*
Y257118D01*
X217354D01*
Y253118D01*
X213354D01*
X203512D02*
Y257118D01*
X207512D01*
Y253118D01*
X203512D01*
X208433Y243276D02*
Y247276D01*
X212433D01*
Y243276D01*
X208433D01*
X193669Y272803D02*
Y276803D01*
X197669D01*
Y272803D01*
X193669D01*
Y253118D02*
Y257118D01*
X197669D01*
Y253118D01*
X193669D01*
X198591Y243276D02*
Y247276D01*
X202591D01*
Y243276D01*
X198591D01*
X188748Y262961D02*
Y266961D01*
X192748D01*
Y262961D01*
X188748D01*
X183827Y253118D02*
Y257118D01*
X187827D01*
Y253118D01*
X183827D01*
X188748Y243276D02*
Y247276D01*
X192748D01*
Y243276D01*
X188748D01*
X183827Y233433D02*
Y237433D01*
X187827D01*
Y233433D01*
X183827D01*
X178906Y243276D02*
Y247276D01*
X182906D01*
Y243276D01*
X178906D01*
X173984Y233433D02*
Y237433D01*
X177984D01*
Y233433D01*
X173984D01*
X164142Y272803D02*
Y276803D01*
X168142D01*
Y272803D01*
X164142D01*
Y253118D02*
Y257118D01*
X168142D01*
Y253118D01*
X164142D01*
X169063Y243276D02*
Y247276D01*
X173063D01*
Y243276D01*
X169063D01*
X164142Y233433D02*
Y237433D01*
X168142D01*
Y233433D01*
X164142D01*
X169063Y223591D02*
Y227591D01*
X173063D01*
Y223591D01*
X169063D01*
X164142Y213748D02*
Y217748D01*
X168142D01*
Y213748D01*
X164142D01*
X154299Y272803D02*
Y276803D01*
X158299D01*
Y272803D01*
X154299D01*
X159221Y262961D02*
Y266961D01*
X163221D01*
Y262961D01*
X159221D01*
X154299Y253118D02*
Y257118D01*
X158299D01*
Y253118D01*
X154299D01*
X159221Y243276D02*
Y247276D01*
X163221D01*
Y243276D01*
X159221D01*
X154299Y233433D02*
Y237433D01*
X158299D01*
Y233433D01*
X154299D01*
X159221Y223591D02*
Y227591D01*
X163221D01*
Y223591D01*
X159221D01*
X154299Y213748D02*
Y217748D01*
X158299D01*
Y213748D01*
X154299D01*
X149378Y262961D02*
Y266961D01*
X153378D01*
Y262961D01*
X149378D01*
X144457Y253118D02*
Y257118D01*
X148457D01*
Y253118D01*
X144457D01*
X149378Y243276D02*
Y247276D01*
X153378D01*
Y243276D01*
X149378D01*
X144457Y233433D02*
Y237433D01*
X148457D01*
Y233433D01*
X144457D01*
X149378Y223591D02*
Y227591D01*
X153378D01*
Y223591D01*
X149378D01*
X144457Y213748D02*
Y217748D01*
X148457D01*
Y213748D01*
X144457D01*
X139535Y262961D02*
Y266961D01*
X143535D01*
Y262961D01*
X139535D01*
X134614Y253118D02*
Y257118D01*
X138614D01*
Y253118D01*
X134614D01*
X139535Y243276D02*
Y247276D01*
X143535D01*
Y243276D01*
X139535D01*
X134614Y233433D02*
Y237433D01*
X138614D01*
Y233433D01*
X134614D01*
X139535Y223591D02*
Y227591D01*
X143535D01*
Y223591D01*
X139535D01*
X134614Y213748D02*
Y217748D01*
X138614D01*
Y213748D01*
X134614D01*
X129693Y243276D02*
Y247276D01*
X133693D01*
Y243276D01*
X129693D01*
X124772Y233433D02*
Y237433D01*
X128772D01*
Y233433D01*
X124772D01*
X129693Y223591D02*
Y227591D01*
X133693D01*
Y223591D01*
X129693D01*
X124772Y213748D02*
Y217748D01*
X128772D01*
Y213748D01*
X124772D01*
X119851Y243276D02*
Y247276D01*
X123851D01*
Y243276D01*
X119851D01*
Y223591D02*
Y227591D01*
X123851D01*
Y223591D01*
X119851D01*
X110008D02*
Y227591D01*
X114008D01*
Y223591D01*
X110008D01*
X96819Y203118D02*
Y207118D01*
X100819D01*
Y203118D01*
X96819D01*
Y183433D02*
Y187433D01*
X100819D01*
Y183433D01*
X96819D01*
X101740Y173591D02*
Y177591D01*
X105740D01*
Y173591D01*
X101740D01*
X96819Y163748D02*
Y167748D01*
X100819D01*
Y163748D01*
X96819D01*
X101740Y153905D02*
Y157905D01*
X105740D01*
Y153905D01*
X101740D01*
X96819Y144063D02*
Y148063D01*
X100819D01*
Y144063D01*
X96819D01*
X101740Y134221D02*
Y138221D01*
X105740D01*
Y134221D01*
X101740D01*
X96819Y124378D02*
Y128378D01*
X100819D01*
Y124378D01*
X96819D01*
X101740Y114535D02*
Y118535D01*
X105740D01*
Y114535D01*
X101740D01*
X96819Y104693D02*
Y108693D01*
X100819D01*
Y104693D01*
X96819D01*
X101740Y94850D02*
Y98850D01*
X105740D01*
Y94850D01*
X101740D01*
X96819Y85008D02*
Y89008D01*
X100819D01*
Y85008D01*
X96819D01*
X101740Y75165D02*
Y79165D01*
X105740D01*
Y75165D01*
X101740D01*
X96819Y65323D02*
Y69323D01*
X100819D01*
Y65323D01*
X96819D01*
X86976Y183433D02*
Y187433D01*
X90976D01*
Y183433D01*
X86976D01*
X91898Y173591D02*
Y177591D01*
X95898D01*
Y173591D01*
X91898D01*
X86976Y163748D02*
Y167748D01*
X90976D01*
Y163748D01*
X86976D01*
X91898Y153905D02*
Y157905D01*
X95898D01*
Y153905D01*
X91898D01*
X86976Y144063D02*
Y148063D01*
X90976D01*
Y144063D01*
X86976D01*
X91898Y134221D02*
Y138221D01*
X95898D01*
Y134221D01*
X91898D01*
X86976Y124378D02*
Y128378D01*
X90976D01*
Y124378D01*
X86976D01*
X91898Y114535D02*
Y118535D01*
X95898D01*
Y114535D01*
X91898D01*
X86976Y104693D02*
Y108693D01*
X90976D01*
Y104693D01*
X86976D01*
X91898Y94850D02*
Y98850D01*
X95898D01*
Y94850D01*
X91898D01*
X86976Y85008D02*
Y89008D01*
X90976D01*
Y85008D01*
X86976D01*
X91898Y75165D02*
Y79165D01*
X95898D01*
Y75165D01*
X91898D01*
X86976Y65323D02*
Y69323D01*
X90976D01*
Y65323D01*
X86976D01*
X77134Y222803D02*
Y226803D01*
X81134D01*
Y222803D01*
X77134D01*
Y203118D02*
Y207118D01*
X81134D01*
Y203118D01*
X77134D01*
X82055Y193276D02*
Y197276D01*
X86055D01*
Y193276D01*
X82055D01*
X77134Y183433D02*
Y187433D01*
X81134D01*
Y183433D01*
X77134D01*
X82055Y173591D02*
Y177591D01*
X86055D01*
Y173591D01*
X82055D01*
X77134Y163748D02*
Y167748D01*
X81134D01*
Y163748D01*
X77134D01*
X82055Y153905D02*
Y157905D01*
X86055D01*
Y153905D01*
X82055D01*
X77134Y144063D02*
Y148063D01*
X81134D01*
Y144063D01*
X77134D01*
X82055Y134221D02*
Y138221D01*
X86055D01*
Y134221D01*
X82055D01*
X77134Y124378D02*
Y128378D01*
X81134D01*
Y124378D01*
X77134D01*
X82055Y114535D02*
Y118535D01*
X86055D01*
Y114535D01*
X82055D01*
X77134Y104693D02*
Y108693D01*
X81134D01*
Y104693D01*
X77134D01*
X82055Y94850D02*
Y98850D01*
X86055D01*
Y94850D01*
X82055D01*
X77134Y65323D02*
Y69323D01*
X81134D01*
Y65323D01*
X77134D01*
X72213Y212961D02*
Y216961D01*
X76213D01*
Y212961D01*
X72213D01*
X67291Y203118D02*
Y207118D01*
X71291D01*
Y203118D01*
X67291D01*
X72213Y193276D02*
Y197276D01*
X76213D01*
Y193276D01*
X72213D01*
X67291Y183433D02*
Y187433D01*
X71291D01*
Y183433D01*
X67291D01*
X72213Y173591D02*
Y177591D01*
X76213D01*
Y173591D01*
X72213D01*
X67291Y163748D02*
Y167748D01*
X71291D01*
Y163748D01*
X67291D01*
X72213Y153905D02*
Y157905D01*
X76213D01*
Y153905D01*
X72213D01*
X67291Y144063D02*
Y148063D01*
X71291D01*
Y144063D01*
X67291D01*
X72213Y134221D02*
Y138221D01*
X76213D01*
Y134221D01*
X72213D01*
X67291Y124378D02*
Y128378D01*
X71291D01*
Y124378D01*
X67291D01*
X72213Y114535D02*
Y118535D01*
X76213D01*
Y114535D01*
X72213D01*
X67291Y104693D02*
Y108693D01*
X71291D01*
Y104693D01*
X67291D01*
Y65323D02*
Y69323D01*
X71291D01*
Y65323D01*
X67291D01*
X57449Y203118D02*
Y207118D01*
X61449D01*
Y203118D01*
X57449D01*
X62370Y193276D02*
Y197276D01*
X66370D01*
Y193276D01*
X62370D01*
X57449Y183433D02*
Y187433D01*
X61449D01*
Y183433D01*
X57449D01*
X62370Y173591D02*
Y177591D01*
X66370D01*
Y173591D01*
X62370D01*
X57449Y163748D02*
Y167748D01*
X61449D01*
Y163748D01*
X57449D01*
X62370Y153905D02*
Y157905D01*
X66370D01*
Y153905D01*
X62370D01*
X57449Y144063D02*
Y148063D01*
X61449D01*
Y144063D01*
X57449D01*
X62370Y134221D02*
Y138221D01*
X66370D01*
Y134221D01*
X62370D01*
X57449Y124378D02*
Y128378D01*
X61449D01*
Y124378D01*
X57449D01*
X62370Y114535D02*
Y118535D01*
X66370D01*
Y114535D01*
X62370D01*
X57449Y104693D02*
Y108693D01*
X61449D01*
Y104693D01*
X57449D01*
Y65323D02*
Y69323D01*
X61449D01*
Y65323D01*
X57449D01*
X216898Y541382D02*
Y545382D01*
X220898D01*
Y541382D01*
X216898D01*
X231071Y550756D02*
Y554756D01*
X235071D01*
Y550756D01*
X231071D01*
X172942Y552893D02*
Y556893D01*
X176942D01*
Y552893D01*
X172942D01*
X172920Y502427D02*
Y506427D01*
X176920D01*
Y502427D01*
X172920D01*
X474378Y427921D02*
Y431921D01*
X478378D01*
Y427921D01*
X474378D01*
X271532Y164051D02*
Y168051D01*
X275532D01*
Y164051D01*
X271532D01*
X340520Y472409D02*
Y476409D01*
X344520D01*
Y472409D01*
X340520D01*
X466504Y289732D02*
Y293732D01*
X470504D01*
Y289732D01*
X466504D01*
X417685Y364535D02*
Y368535D01*
X421685D01*
Y364535D01*
X417685D01*
Y359024D02*
Y363024D01*
X421685D01*
Y359024D01*
X417685D01*
Y353906D02*
Y357906D01*
X421685D01*
Y353906D01*
X417685D01*
X471622Y395244D02*
Y399244D01*
X475622D01*
Y395244D01*
X471622D01*
X515717Y124772D02*
Y128772D01*
X519717D01*
Y124772D01*
X515717D01*
X525165Y197213D02*
Y201213D01*
X529165D01*
Y197213D01*
X525165D01*
Y124772D02*
Y128772D01*
X529165D01*
Y124772D01*
X525165D01*
X484034Y289190D02*
Y293190D01*
X488034D01*
Y289190D01*
X484034D01*
X653693Y276740D02*
Y280740D01*
X657693D01*
Y276740D01*
X653693D01*
X751150Y355087D02*
Y359087D01*
X755150D01*
Y355087D01*
X751150D01*
Y343276D02*
Y347276D01*
X755150D01*
Y343276D01*
X751150D01*
X295244Y213354D02*
Y217354D01*
X299244D01*
Y213354D01*
X295244D01*
X361779Y225559D02*
Y229559D01*
X365779D01*
Y225559D01*
X361779D01*
X362862Y238945D02*
Y242945D01*
X366862D01*
Y238945D01*
X362862D01*
X367685Y225559D02*
Y229559D01*
X371685D01*
Y225559D01*
X367685D01*
X416996Y228217D02*
Y232217D01*
X420996D01*
Y228217D01*
X416996D01*
X481032Y204708D02*
Y208707D01*
X485032D01*
Y204708D01*
X481032D01*
X593669Y45638D02*
Y49638D01*
X597669D01*
Y45638D01*
X593669D01*
X678134Y252331D02*
Y256331D01*
X682134D01*
Y252331D01*
X678134D01*
X673197D02*
Y256331D01*
X677197D01*
Y252331D01*
X673197D01*
X648000Y261779D02*
Y265779D01*
X652000D01*
Y261779D01*
X648000D01*
X640365Y262389D02*
Y266389D01*
X644365D01*
Y262389D01*
X640365D01*
X298394Y445638D02*
Y449638D01*
X302394D01*
Y445638D01*
X298394D01*
X779496Y497606D02*
Y501606D01*
X783496D01*
Y497606D01*
X779496D01*
X779496Y503118D02*
Y507118D01*
X783496D01*
Y503118D01*
X779496D01*
X346425Y535008D02*
Y539008D01*
X350425D01*
Y535008D01*
X346425D01*
X344850Y527134D02*
Y531134D01*
X348850D01*
Y527134D01*
X344850D01*
X409811Y488158D02*
Y492158D01*
X413811D01*
Y488158D01*
X409811D01*
Y483039D02*
Y487039D01*
X413811D01*
Y483039D01*
X409811D01*
X442413Y448787D02*
Y452787D01*
X446413D01*
Y448787D01*
X442413D01*
X448394Y441307D02*
Y445307D01*
X452394D01*
Y441307D01*
X448394D01*
X432945Y399874D02*
Y403874D01*
X436945D01*
Y399874D01*
X432945D01*
X436976Y402724D02*
Y406724D01*
X440976D01*
Y402724D01*
X436976D01*
X429102Y396424D02*
Y400424D01*
X433102D01*
Y396424D01*
X429102D01*
X494063Y211779D02*
Y215779D01*
X498063D01*
Y211779D01*
X494063D01*
X459811Y567685D02*
Y571685D01*
X463811D01*
Y567685D01*
X459811D01*
X498394Y457842D02*
Y461842D01*
X502394D01*
Y457842D01*
X498394D01*
X453682Y488622D02*
Y492622D01*
X457682D01*
Y488622D01*
X453682D01*
X483433Y401150D02*
Y405150D01*
X487433D01*
Y401150D01*
X483433D01*
X494457Y397213D02*
Y401213D01*
X498457D01*
Y397213D01*
X494457D01*
X482060Y386424D02*
Y390424D01*
X486060D01*
Y386424D01*
X482060D01*
X527134Y250362D02*
Y254362D01*
X531134D01*
Y250362D01*
X527134D01*
X566110Y276346D02*
Y280346D01*
X570110D01*
Y276346D01*
X566110D01*
X172942Y512449D02*
Y516449D01*
X176942D01*
Y512449D01*
X172942D01*
X198394Y520122D02*
Y524122D01*
X202394D01*
Y520122D01*
X198394D01*
X293276Y480677D02*
Y484677D01*
X297276D01*
Y480677D01*
X293276D01*
X283433Y455480D02*
Y459480D01*
X287433D01*
Y455480D01*
X283433D01*
X195244Y446425D02*
Y450425D01*
X199244D01*
Y446425D01*
X195244D01*
X194850Y463354D02*
Y467354D01*
X198850D01*
Y463354D01*
X194850D01*
X178132Y508447D02*
Y512447D01*
X182132D01*
Y508447D01*
X178132D01*
X163748Y476740D02*
Y480740D01*
X167748D01*
Y476740D01*
X163748D01*
X150555Y482240D02*
Y486240D01*
X154555D01*
Y482240D01*
X150555D01*
X247213Y461779D02*
Y465779D01*
X251213D01*
Y461779D01*
X247213D01*
X298394Y451150D02*
Y455150D01*
X302394D01*
Y451150D01*
X298394D01*
X409024Y374772D02*
Y378772D01*
X413024D01*
Y374772D01*
X409024D01*
X480852Y292318D02*
Y296318D01*
X484852D01*
Y292318D01*
X480852D01*
X490317Y282853D02*
Y286853D01*
X494317D01*
Y282853D01*
X490317D01*
X487162Y286008D02*
Y290008D01*
X491162D01*
Y286008D01*
X487162D01*
X531465Y235008D02*
Y239008D01*
X535465D01*
Y235008D01*
X531465D01*
X353118Y579102D02*
Y583102D01*
X357118D01*
Y579102D01*
X353118D01*
X216504Y133039D02*
Y137039D01*
X220504D01*
Y133039D01*
X216504D01*
X190520D02*
Y137039D01*
X194520D01*
Y133039D01*
X190520D01*
X27921Y276346D02*
Y280346D01*
X31921D01*
Y276346D01*
X27921D01*
X227752Y526149D02*
Y530149D01*
X231752D01*
Y526149D01*
X227752D01*
X222803Y476740D02*
Y480740D01*
X226803D01*
Y476740D01*
X222803D01*
X269260Y455480D02*
Y459480D01*
X273260D01*
Y455480D01*
X269260D01*
X269221Y459942D02*
Y463942D01*
X273221D01*
Y459942D01*
X269221D01*
X212961Y398787D02*
Y402787D01*
X216961D01*
Y398787D01*
X212961D01*
X386976Y229102D02*
Y233102D01*
X390976D01*
Y229102D01*
X386976D01*
X386583Y236583D02*
Y240583D01*
X390583D01*
Y236583D01*
X386583D01*
X388158Y242094D02*
Y246094D01*
X392158D01*
Y242094D01*
X388158D01*
X136189Y514929D02*
Y518929D01*
X140189D01*
Y514929D01*
X136189D01*
X143669D02*
Y518929D01*
X147669D01*
Y514929D01*
X143669D01*
X136189Y502724D02*
Y506724D01*
X140189D01*
Y502724D01*
X136189D01*
X84614Y432646D02*
Y436646D01*
X88614D01*
Y432646D01*
X84614D01*
X80283Y437764D02*
Y441764D01*
X84284D01*
Y437764D01*
X80283D01*
X108327Y403208D02*
Y407208D01*
X112327D01*
Y403208D01*
X108327D01*
X150362Y510598D02*
Y514598D01*
X154362D01*
Y510598D01*
X150362D01*
X240520Y490520D02*
Y494520D01*
X244520D01*
Y490520D01*
X240520D01*
X241083Y501543D02*
Y505543D01*
X245083D01*
Y501543D01*
X241083D01*
X241083Y496425D02*
Y500425D01*
X245082D01*
Y496425D01*
X241083D01*
X169260Y475953D02*
Y479953D01*
X173260D01*
Y475953D01*
X169260D01*
X257055Y228709D02*
Y232709D01*
X261055D01*
Y228709D01*
X257055D01*
X253118Y559811D02*
Y563811D01*
X257118D01*
Y559811D01*
X253118D01*
X150991Y476899D02*
Y480899D01*
X154991D01*
Y476899D01*
X150991D01*
X145421Y476956D02*
Y480956D01*
X149421D01*
Y476956D01*
X145421D01*
X118472Y466504D02*
Y470504D01*
X122472D01*
Y466504D01*
X118472D01*
X459024Y279496D02*
Y283496D01*
X463024D01*
Y279496D01*
X459024D01*
X251150Y564929D02*
Y568929D01*
X255150D01*
Y564929D01*
X251150D01*
X456268Y562567D02*
Y566567D01*
X460268D01*
Y562567D01*
X456268D01*
X449968Y495244D02*
Y499244D01*
X453968D01*
Y495244D01*
X449968D01*
X472016Y453512D02*
Y457512D01*
X476016D01*
Y453512D01*
X472016D01*
X548787Y273197D02*
Y277197D01*
X552787D01*
Y273197D01*
X548787D01*
X415717Y564142D02*
Y568142D01*
X419717D01*
Y564142D01*
X415717D01*
X414142Y473591D02*
Y477591D01*
X418142D01*
Y473591D01*
X414142D01*
X420441Y575559D02*
Y579559D01*
X424441D01*
Y575559D01*
X420441D01*
X422803Y516504D02*
Y520504D01*
X426803D01*
Y516504D01*
X422803D01*
X373590Y349969D02*
Y353969D01*
X377590D01*
Y349969D01*
X373590D01*
X233357Y504163D02*
Y508163D01*
X237357D01*
Y504163D01*
X233357D01*
X228146Y498984D02*
Y502984D01*
X232146D01*
Y498984D01*
X228146D01*
X230677Y509417D02*
Y513417D01*
X234677D01*
Y509417D01*
X230677D01*
X235402Y487764D02*
Y491764D01*
X239402D01*
Y487764D01*
X235402D01*
X527528Y230283D02*
Y234283D01*
X531528D01*
Y230283D01*
X527528D01*
X101543Y517685D02*
Y521685D01*
X105543D01*
Y517685D01*
X101543D01*
X173591Y466898D02*
Y470898D01*
X177591D01*
Y466898D01*
X173591D01*
X530677Y241307D02*
Y245307D01*
X534677D01*
Y241307D01*
X530677D01*
X217291Y476740D02*
Y480740D01*
X221291D01*
Y476740D01*
X217291D01*
X325559Y477528D02*
Y481528D01*
X329559D01*
Y477528D01*
X325559D01*
X478933Y383242D02*
Y387242D01*
X482933D01*
Y383242D01*
X478933D01*
X343276Y188157D02*
Y192157D01*
X347276D01*
Y188157D01*
X343276D01*
X509024Y414142D02*
Y418142D01*
X513024D01*
Y414142D01*
X509024D01*
X124772Y459811D02*
Y463811D01*
X128772D01*
Y459811D01*
X124772D01*
X426346Y568472D02*
Y572472D01*
X430346D01*
Y568472D01*
X426346D01*
X388264Y539232D02*
Y543232D01*
X392264D01*
Y539232D01*
X388264D01*
X755874Y493669D02*
Y497669D01*
X759874D01*
Y493669D01*
X755874D01*
X401937Y501543D02*
Y505543D01*
X405937D01*
Y501543D01*
X401937D01*
X750756Y527134D02*
Y531134D01*
X754756D01*
Y527134D01*
X750756D01*
X697606Y377921D02*
Y381921D01*
X701606D01*
Y377921D01*
X697606D01*
X681218Y400665D02*
Y404665D01*
X685218D01*
Y400665D01*
X681218D01*
X685926Y400362D02*
Y404362D01*
X689926D01*
Y400362D01*
X685926D01*
X690388Y400324D02*
Y404324D01*
X694388D01*
Y400324D01*
X690388D01*
X680677Y395244D02*
Y399244D01*
X684677D01*
Y395244D01*
X680677D01*
X673197Y279102D02*
Y283102D01*
X677197D01*
Y279102D01*
X673197D01*
X684614Y269654D02*
Y273654D01*
X688614D01*
Y269654D01*
X684614D01*
X683433Y279890D02*
Y283890D01*
X687433D01*
Y279890D01*
X683433D01*
X685795Y249969D02*
Y253969D01*
X689795D01*
Y249969D01*
X685795D01*
X629496Y210205D02*
Y214205D01*
X633496D01*
Y210205D01*
X629496D01*
X779933Y475953D02*
Y479953D01*
X783933D01*
Y475953D01*
X779933D01*
X779890Y465323D02*
Y469323D01*
X783890D01*
Y465323D01*
X779890D01*
X779933Y470736D02*
Y474736D01*
X783933D01*
Y470736D01*
X779933D01*
X713354Y108827D02*
Y112827D01*
X717354D01*
Y108827D01*
X713354D01*
X735008Y68398D02*
Y72398D01*
X739008D01*
Y68398D01*
X735008D01*
X765717Y438551D02*
Y442551D01*
X769717D01*
Y438551D01*
X765717D01*
X770179D02*
Y442551D01*
X774179D01*
Y438551D01*
X770179D01*
X755799Y343276D02*
Y347276D01*
X759799D01*
Y343276D01*
X755799D01*
Y355087D02*
Y359087D01*
X759799D01*
Y355087D01*
X755799D01*
X725165Y157055D02*
Y161055D01*
X729165D01*
Y157055D01*
X725165D01*
X297606Y184221D02*
Y188221D01*
X301606D01*
Y184221D01*
X297606D01*
X297213Y179102D02*
Y183102D01*
X301213D01*
Y179102D01*
X297213D01*
X308236Y190520D02*
Y194520D01*
X312236D01*
Y190520D01*
X308236D01*
X316110Y155087D02*
Y159087D01*
X320110D01*
Y155087D01*
X316110D01*
X269260Y376543D02*
Y380543D01*
X273260D01*
Y376543D01*
X269260D01*
X269221Y381005D02*
Y385005D01*
X273221D01*
Y381005D01*
X269221D01*
X283433Y464404D02*
Y468404D01*
X287433D01*
Y464404D01*
X283433D01*
X248000Y99575D02*
Y103575D01*
X252000D01*
Y99575D01*
X248000D01*
Y103512D02*
Y107512D01*
X252000D01*
Y103512D01*
X248000D01*
X275559Y96819D02*
Y100819D01*
X279559D01*
Y96819D01*
X275559D01*
X283433Y389929D02*
Y393929D01*
X287433D01*
Y389929D01*
X283433D01*
X283471Y385467D02*
Y389467D01*
X287472D01*
Y385467D01*
X283471D01*
X283433Y381005D02*
Y385005D01*
X287433D01*
Y381005D01*
X283433D01*
X632941Y521721D02*
Y525721D01*
X636941D01*
Y521721D01*
X632941D01*
X498420Y382685D02*
Y386685D01*
X502420D01*
Y382685D01*
X498420D01*
X60205Y390520D02*
Y394520D01*
X64205D01*
Y390520D01*
X60205D01*
X75953Y423197D02*
Y427197D01*
X79953D01*
Y423197D01*
X75953D01*
Y427724D02*
Y431724D01*
X79953D01*
Y427724D01*
X75953D01*
X81858Y405874D02*
Y409874D01*
X85858D01*
Y405874D01*
X81858D01*
X357449Y119654D02*
Y123654D01*
X361449D01*
Y119654D01*
X357449D01*
X357487Y115192D02*
Y119192D01*
X361487D01*
Y115192D01*
X357487D01*
X357449Y110730D02*
Y114730D01*
X361449D01*
Y110730D01*
X357449D01*
X343276Y119653D02*
Y123653D01*
X347276D01*
Y119653D01*
X343276D01*
Y115192D02*
Y119192D01*
X347276D01*
Y115192D01*
X343276D01*
X357449Y106268D02*
Y110268D01*
X361449D01*
Y106268D01*
X357449D01*
X343237Y110730D02*
Y114730D01*
X347237D01*
Y110730D01*
X343237D01*
X343276Y106268D02*
Y110268D01*
X347276D01*
Y106268D01*
X343276D01*
X495265Y379530D02*
Y383530D01*
X499265D01*
Y379530D01*
X495265D01*
X389732Y583433D02*
Y587433D01*
X393732D01*
Y583433D01*
X389732D01*
X268866Y509417D02*
Y513417D01*
X272866D01*
Y509417D01*
X268866D01*
X256193Y504102D02*
Y508102D01*
X260193D01*
Y504102D01*
X256193D01*
X328315Y92094D02*
Y96095D01*
X332315D01*
Y92094D01*
X328315D01*
X371228Y207842D02*
Y211842D01*
X375228D01*
Y207842D01*
X371228D01*
X7449Y494063D02*
Y498063D01*
X11449D01*
Y494063D01*
X7449D01*
X591307Y36189D02*
Y40189D01*
X595307D01*
Y36189D01*
X591307D01*
X348787Y178315D02*
Y182315D01*
X352787D01*
Y178315D01*
X348787D01*
X594850Y4693D02*
Y8693D01*
X598850D01*
Y4693D01*
X594850D01*
X309417Y520441D02*
Y524441D01*
X313417D01*
Y520441D01*
X309417D01*
X301937D02*
Y524441D01*
X305937D01*
Y520441D01*
X301937D01*
X596032Y264535D02*
Y268535D01*
X600032D01*
Y264535D01*
X596032D01*
X551937Y160598D02*
Y164598D01*
X555937D01*
Y160598D01*
X551937D01*
X560861Y160560D02*
Y164560D01*
X564861D01*
Y160560D01*
X560861D01*
X556399Y160598D02*
Y164598D01*
X560399D01*
Y160598D01*
X556399D01*
X222410Y584614D02*
Y588614D01*
X226410D01*
Y584614D01*
X222410D01*
X316504Y531071D02*
Y535071D01*
X320504D01*
Y531071D01*
X316504D01*
X503333Y187370D02*
Y191370D01*
X507333D01*
Y187370D01*
X503333D01*
X75953Y432252D02*
Y436252D01*
X79953D01*
Y432252D01*
X75953D01*
X766898Y159811D02*
Y163811D01*
X770898D01*
Y159811D01*
X766898D01*
X761779D02*
Y163811D01*
X765779D01*
Y159811D01*
X761779D01*
X772409D02*
Y163811D01*
X776409D01*
Y159811D01*
X772409D01*
X753118Y135811D02*
Y139811D01*
X757118D01*
Y135811D01*
X753118D01*
X772016Y131858D02*
Y135858D01*
X776016D01*
Y131858D01*
X772016D01*
X766701D02*
Y135858D01*
X770701D01*
Y131858D01*
X766701D01*
X761386D02*
Y135858D01*
X765386D01*
Y131858D01*
X761386D01*
X298394Y110205D02*
Y114205D01*
X302394D01*
Y110205D01*
X298394D01*
X614535Y511386D02*
Y515386D01*
X618535D01*
Y511386D01*
X614535D01*
X352921Y565323D02*
Y569323D01*
X356921D01*
Y565323D01*
X352921D01*
X295872Y565329D02*
Y569329D01*
X299872D01*
Y565329D01*
X295872D01*
X263354Y534221D02*
Y538221D01*
X267354D01*
Y534221D01*
X263354D01*
X70666Y536808D02*
Y540808D01*
X74666D01*
Y536808D01*
X70666D01*
X70835Y526740D02*
Y530740D01*
X74835D01*
Y526740D01*
X70835D01*
Y517685D02*
Y521685D01*
X74835D01*
Y517685D01*
X70835D01*
X296425Y540913D02*
Y544913D01*
X300425D01*
Y540913D01*
X296425D01*
X274772Y527921D02*
Y531921D01*
X278772D01*
Y527921D01*
X274772D01*
X446896Y585083D02*
Y589083D01*
X450896D01*
Y585083D01*
X446896D01*
X442488Y582858D02*
Y586858D01*
X446488D01*
Y582858D01*
X442488D01*
X463354Y579102D02*
Y583102D01*
X467354D01*
Y579102D01*
X463354D01*
Y573984D02*
Y577984D01*
X467354D01*
Y573984D01*
X463354D01*
X442488Y577921D02*
Y581921D01*
X446488D01*
Y577921D01*
X442488D01*
Y572803D02*
Y576803D01*
X446488D01*
Y572803D01*
X442488D01*
X467685Y448000D02*
Y452000D01*
X471685D01*
Y448000D01*
X467685D01*
X472016Y209024D02*
Y213024D01*
X476016D01*
Y209024D01*
X472016D01*
X466898Y210606D02*
Y214606D01*
X470898D01*
Y210606D01*
X466898D01*
X752331Y111386D02*
Y115386D01*
X756331D01*
Y111386D01*
X752331D01*
X734221Y35402D02*
Y39402D01*
X738221D01*
Y35402D01*
X734221D01*
X270835Y33433D02*
Y37433D01*
X274835D01*
Y33433D01*
X270835D01*
X271228Y63748D02*
Y67748D01*
X275228D01*
Y63748D01*
X271228D01*
X477921Y220835D02*
Y224835D01*
X481921D01*
Y220835D01*
X477921D01*
X444850Y246425D02*
Y250425D01*
X448850D01*
Y246425D01*
X444850D01*
X713748Y355087D02*
Y359087D01*
X717748D01*
Y355087D01*
X713748D01*
X709811D02*
Y359087D01*
X713811D01*
Y355087D01*
X709811D01*
X705874D02*
Y359087D01*
X709874D01*
Y355087D01*
X705874D01*
X713748Y343276D02*
Y347276D01*
X717748D01*
Y343276D01*
X713748D01*
X709811D02*
Y347276D01*
X713811D01*
Y343276D01*
X709811D01*
X705874D02*
Y347276D01*
X709874D01*
Y343276D01*
X705874D01*
X441562Y469399D02*
Y473399D01*
X445562D01*
Y469399D01*
X441562D01*
X427528Y217685D02*
Y221685D01*
X431528D01*
Y217685D01*
X427528D01*
X469260Y410205D02*
Y414205D01*
X473260D01*
Y410205D01*
X469260D01*
X492110Y376375D02*
Y380375D01*
X496110D01*
Y376375D01*
X492110D01*
X488954Y373220D02*
Y377220D01*
X492954D01*
Y373220D01*
X488954D01*
X364035Y518728D02*
Y522728D01*
X368035D01*
Y518728D01*
X364035D01*
Y508728D02*
Y512728D01*
X368035D01*
Y508728D01*
X364035D01*
X375665Y503728D02*
Y507728D01*
X379665D01*
Y503728D01*
X375665D01*
X339051Y523728D02*
Y527728D01*
X343051D01*
Y523728D01*
X339051D01*
X327421Y518728D02*
Y522728D01*
X331421D01*
Y518728D01*
X327421D01*
X339051Y513728D02*
Y517728D01*
X343051D01*
Y513728D01*
X339051D01*
X327421Y508728D02*
Y512728D01*
X331421D01*
Y508728D01*
X327421D01*
X551937Y174772D02*
Y178772D01*
X555937D01*
Y174772D01*
X551937D01*
X556399Y174810D02*
Y178810D01*
X560399D01*
Y174810D01*
X556399D01*
X560861Y174772D02*
Y178772D01*
X564861D01*
Y174772D01*
X560861D01*
X565323Y160598D02*
Y164598D01*
X569323D01*
Y160598D01*
X565323D01*
X565323Y174772D02*
Y178772D01*
X569323D01*
Y174772D01*
X565323D01*
X755087Y366110D02*
Y370110D01*
X759087D01*
Y366110D01*
X755087D01*
X759024D02*
Y370110D01*
X763024D01*
Y366110D01*
X759024D01*
X762961D02*
Y370110D01*
X766961D01*
Y366110D01*
X762961D01*
X755087Y377921D02*
Y381921D01*
X759087D01*
Y377921D01*
X755087D01*
X759024D02*
Y381921D01*
X763024D01*
Y377921D01*
X759024D01*
X762961D02*
Y381921D01*
X766961D01*
Y377921D01*
X762961D01*
X705480D02*
Y381921D01*
X709480D01*
Y377921D01*
X705480D01*
X701543D02*
Y381921D01*
X705543D01*
Y377921D01*
X701543D01*
X705480Y366110D02*
Y370110D01*
X709480D01*
Y366110D01*
X705480D01*
X701543D02*
Y370110D01*
X705543D01*
Y366110D01*
X701543D01*
X697606D02*
Y370110D01*
X701606D01*
Y366110D01*
X697606D01*
X725165Y160992D02*
Y164992D01*
X729165D01*
Y160992D01*
X725165D01*
Y164929D02*
Y168929D01*
X729165D01*
Y164929D01*
X725165D01*
X713354Y157055D02*
Y161055D01*
X717354D01*
Y157055D01*
X713354D01*
Y160992D02*
Y164992D01*
X717354D01*
Y160992D01*
X713354D01*
Y164929D02*
Y168929D01*
X717354D01*
Y164929D01*
X713354D01*
X725165Y108827D02*
Y112827D01*
X729165D01*
Y108827D01*
X725165D01*
Y112764D02*
Y116764D01*
X729165D01*
Y112764D01*
X725165D01*
Y116701D02*
Y120701D01*
X729165D01*
Y116701D01*
X725165D01*
X713354Y112764D02*
Y116764D01*
X717354D01*
Y112764D01*
X713354D01*
Y116701D02*
Y120701D01*
X717354D01*
Y116701D01*
X713354D01*
X320047Y186583D02*
Y190583D01*
X324047D01*
Y186583D01*
X320047D01*
Y190520D02*
Y194520D01*
X324047D01*
Y190520D01*
X320047D01*
Y194457D02*
Y198457D01*
X324047D01*
Y194457D01*
X320047D01*
X308236Y186583D02*
Y190583D01*
X312236D01*
Y186583D01*
X308236D01*
Y194457D02*
Y198457D01*
X312236D01*
Y194457D01*
X308236D01*
X248000Y95638D02*
Y99638D01*
X252000D01*
Y95638D01*
X248000D01*
X236189Y95638D02*
Y99638D01*
X240189D01*
Y95638D01*
X236189D01*
Y99575D02*
Y103575D01*
X240189D01*
Y99575D01*
X236189D01*
Y103512D02*
Y107512D01*
X240189D01*
Y103512D01*
X236189D01*
X619654Y131071D02*
Y135071D01*
X623654D01*
Y131071D01*
X619654D01*
X623591D02*
Y135071D01*
X627591D01*
Y131071D01*
X623591D01*
X627528D02*
Y135071D01*
X631528D01*
Y131071D01*
X627528D01*
X619654Y142882D02*
Y146882D01*
X623654D01*
Y142882D01*
X619654D01*
X623591D02*
Y146882D01*
X627591D01*
Y142882D01*
X623591D01*
X627528D02*
Y146882D01*
X631528D01*
Y142882D01*
X627528D01*
X283433Y468866D02*
Y472866D01*
X287433D01*
Y468866D01*
X283433D01*
Y459942D02*
Y463942D01*
X287433D01*
Y459942D01*
X283433D01*
X269260Y464404D02*
Y468404D01*
X273260D01*
Y464404D01*
X269260D01*
Y468866D02*
Y472866D01*
X273260D01*
Y468866D01*
X269260D01*
X283433Y376543D02*
Y380543D01*
X287433D01*
Y376543D01*
X283433D01*
X269260Y385467D02*
Y389467D01*
X273260D01*
Y385467D01*
X269260D01*
Y389929D02*
Y393929D01*
X273260D01*
Y389929D01*
X269260D01*
X577134Y142882D02*
Y146882D01*
X581134D01*
Y142882D01*
X577134D01*
X573197D02*
Y146882D01*
X577197D01*
Y142882D01*
X573197D01*
X569260D02*
Y146882D01*
X573260D01*
Y142882D01*
X569260D01*
X403118Y51543D02*
Y55543D01*
X407118D01*
Y51543D01*
X403118D01*
X389732D02*
Y55543D01*
X393732D01*
Y51543D01*
X389732D01*
X394194Y51582D02*
Y55582D01*
X398194D01*
Y51582D01*
X394194D01*
X398656Y51543D02*
Y55543D01*
X402656D01*
Y51543D01*
X398656D01*
X394194Y37370D02*
Y41370D01*
X398194D01*
Y37370D01*
X394194D01*
X398656Y37332D02*
Y41332D01*
X402656D01*
Y37332D01*
X398656D01*
X403118Y37370D02*
Y41370D01*
X407118D01*
Y37370D01*
X403118D01*
X389732D02*
Y41370D01*
X393732D01*
Y37370D01*
X389732D01*
X473985Y279141D02*
Y283141D01*
X477985D01*
Y279141D01*
X473985D01*
X477113Y275959D02*
Y279959D01*
X481113D01*
Y275959D01*
X477113D01*
X480295Y272831D02*
Y276831D01*
X484295D01*
Y272831D01*
X480295D01*
X470830Y282296D02*
Y286296D01*
X474830D01*
Y282296D01*
X470830D01*
X485243Y389552D02*
Y393552D01*
X489243D01*
Y389552D01*
X485243D01*
X488398Y392707D02*
Y396707D01*
X492398D01*
Y392707D01*
X488398D01*
X681465Y438551D02*
Y442551D01*
X685465D01*
Y438551D01*
X681465D01*
X694850D02*
Y442551D01*
X698850D01*
Y438551D01*
X694850D01*
X690388Y438513D02*
Y442513D01*
X694388D01*
Y438513D01*
X690388D01*
X685926Y438551D02*
Y442551D01*
X689926D01*
Y438551D01*
X685926D01*
X690388Y452724D02*
Y456724D01*
X694388D01*
Y452724D01*
X690388D01*
X685926Y452763D02*
Y456763D01*
X689926D01*
Y452763D01*
X685926D01*
X681465Y452724D02*
Y456724D01*
X685465D01*
Y452724D01*
X681465D01*
X694850D02*
Y456724D01*
X698850D01*
Y452724D01*
X694850D01*
X779102Y438551D02*
Y442551D01*
X783102D01*
Y438551D01*
X779102D01*
X774640Y438513D02*
Y442513D01*
X778640D01*
Y438513D01*
X774640D01*
X774640Y452724D02*
Y456724D01*
X778640D01*
Y452724D01*
X774640D01*
X770179Y452763D02*
Y456763D01*
X774179D01*
Y452763D01*
X770179D01*
X765717Y452724D02*
Y456724D01*
X769717D01*
Y452724D01*
X765717D01*
X779102D02*
Y456724D01*
X783102D01*
Y452724D01*
X779102D01*
X765717Y400362D02*
Y404362D01*
X769717D01*
Y400362D01*
X765717D01*
X779102D02*
Y404362D01*
X783102D01*
Y400362D01*
X779102D01*
X774640Y400324D02*
Y404324D01*
X778640D01*
Y400324D01*
X774640D01*
X770179Y400362D02*
Y404362D01*
X774179D01*
Y400362D01*
X770179D01*
X774640Y414535D02*
Y418535D01*
X778640D01*
Y414535D01*
X774640D01*
X770179Y414574D02*
Y418574D01*
X774179D01*
Y414574D01*
X770179D01*
X765717Y414535D02*
Y418535D01*
X769717D01*
Y414535D01*
X765717D01*
X779102D02*
Y418535D01*
X783102D01*
Y414535D01*
X779102D01*
X690388D02*
Y418535D01*
X694388D01*
Y414535D01*
X690388D01*
X685926Y414574D02*
Y418574D01*
X689926D01*
Y414574D01*
X685926D01*
X681465Y414535D02*
Y418535D01*
X685465D01*
Y414535D01*
X681465D01*
X694850D02*
Y418535D01*
X698850D01*
Y414535D01*
X694850D01*
X631465Y160598D02*
Y164598D01*
X635465D01*
Y160598D01*
X631465D01*
X644850D02*
Y164598D01*
X648850D01*
Y160598D01*
X644850D01*
X640388Y160560D02*
Y164560D01*
X644388D01*
Y160560D01*
X640388D01*
X635926Y160598D02*
Y164598D01*
X639926D01*
Y160598D01*
X635926D01*
X640388Y174772D02*
Y178772D01*
X644388D01*
Y174772D01*
X640388D01*
X635926Y174810D02*
Y178810D01*
X639926D01*
Y174810D01*
X635926D01*
X631464Y174772D02*
Y178772D01*
X635464D01*
Y174772D01*
X631464D01*
X644850D02*
Y178772D01*
X648850D01*
Y174772D01*
X644850D01*
X577134Y131071D02*
Y135071D01*
X581134D01*
Y131071D01*
X577134D01*
X573197D02*
Y135071D01*
X577197D01*
Y131071D01*
X573197D01*
X569260D02*
Y135071D01*
X573260D01*
Y131071D01*
X569260D01*
X212704Y523590D02*
Y527590D01*
X216704D01*
Y523590D01*
X212704D01*
Y533827D02*
Y537827D01*
X216704D01*
Y533827D01*
X212704D01*
X232903Y531268D02*
Y535268D01*
X236903D01*
Y531268D01*
X232903D01*
X213097Y496425D02*
Y500425D01*
X217097D01*
Y496425D01*
X213097D01*
X167791Y547449D02*
Y551449D01*
X171791D01*
Y547449D01*
X167791D01*
X172942Y542449D02*
Y546449D01*
X176942D01*
Y542449D01*
X172942D01*
X167791Y537449D02*
Y541449D01*
X171791D01*
Y537449D01*
X167791D01*
X172942Y532449D02*
Y536449D01*
X176942D01*
Y532449D01*
X172942D01*
X167791Y517449D02*
Y521449D01*
X171791D01*
Y517449D01*
X167791D01*
Y497449D02*
Y501449D01*
X171791D01*
Y497449D01*
X167791D01*
X172942Y492449D02*
Y496449D01*
X176942D01*
Y492449D01*
X172942D01*
X88051Y547449D02*
Y551449D01*
X92051D01*
Y547449D01*
X88051D01*
Y527449D02*
Y531449D01*
X92051D01*
Y527449D01*
X88051D01*
X82901Y522449D02*
Y526449D01*
X86901D01*
Y522449D01*
X82901D01*
Y512449D02*
Y516449D01*
X86901D01*
Y512449D01*
X82901D01*
Y502449D02*
Y506449D01*
X86901D01*
Y502449D01*
X82901D01*
X88051Y497449D02*
Y501449D01*
X92051D01*
Y497449D01*
X88051D01*
X82901Y492449D02*
Y496449D01*
X86901D01*
Y492449D01*
X82901D01*
X110421Y482106D02*
Y486106D01*
X114421D01*
Y482106D01*
X110421D01*
X679890Y460992D02*
Y464992D01*
X683890D01*
Y460992D01*
X679890D01*
X780283Y510598D02*
Y514598D01*
X784283D01*
Y510598D01*
X780283D01*
X347213Y37764D02*
Y41764D01*
X351213D01*
Y37764D01*
X347213D01*
X157424Y391028D02*
Y395028D01*
X161424D01*
Y391028D01*
X157424D01*
X617685Y122803D02*
Y126803D01*
X621685D01*
Y122803D01*
X617685D01*
X33039Y266504D02*
Y270504D01*
X37039D01*
Y266504D01*
X33039D01*
X78315Y216110D02*
Y220110D01*
X82315D01*
Y216110D01*
X78315D01*
X457125Y424373D02*
X456292Y425206D01*
X454625D01*
X453792Y424373D01*
Y421041D01*
X454625Y420208D01*
X456292D01*
X457125Y421041D01*
X454341Y427157D02*
X453508Y427990D01*
X451841D01*
X451009Y427157D01*
Y423825D01*
X451841Y422992D01*
X453508D01*
X454341Y423825D01*
X459908Y421589D02*
X459075Y422422D01*
X457409D01*
X456576Y421589D01*
Y418257D01*
X457409Y417424D01*
X459075D01*
X459908Y418257D01*
X462692Y424373D02*
X461859Y425206D01*
X460193D01*
X459360Y424373D01*
Y421041D01*
X460193Y420208D01*
X461859D01*
X462692Y421041D01*
X465476Y427157D02*
X464643Y427990D01*
X462977D01*
X462144Y427157D01*
Y423825D01*
X462977Y422992D01*
X464643D01*
X465476Y423825D01*
X468260Y429941D02*
X467427Y430774D01*
X465761D01*
X464928Y429941D01*
Y426609D01*
X465761Y425775D01*
X467427D01*
X468260Y426609D01*
X462692Y435508D02*
X461859Y436342D01*
X460193D01*
X459360Y435508D01*
Y432176D01*
X460193Y431343D01*
X461859D01*
X462692Y432176D01*
X465476Y432725D02*
X464643Y433558D01*
X462977D01*
X462144Y432725D01*
Y429392D01*
X462977Y428559D01*
X464643D01*
X465476Y429392D01*
X459908Y432725D02*
X459075Y433558D01*
X457409D01*
X456576Y432725D01*
Y429392D01*
X457409Y428559D01*
X459075D01*
X459908Y429392D01*
X462692Y429941D02*
X461859Y430774D01*
X460193D01*
X459360Y429941D01*
Y426609D01*
X460193Y425775D01*
X461859D01*
X462692Y426609D01*
X457125Y429941D02*
X456292Y430774D01*
X454625D01*
X453792Y429941D01*
Y426609D01*
X454625Y425775D01*
X456292D01*
X457125Y426609D01*
X459908Y427157D02*
X459075Y427990D01*
X457409D01*
X456576Y427157D01*
Y423825D01*
X457409Y422992D01*
X459075D01*
X459908Y423825D01*
X458544Y228445D02*
X457711Y229278D01*
X456045D01*
X455212Y228445D01*
Y225113D01*
X456045Y224280D01*
X457711D01*
X458544Y225113D01*
X455761Y225661D02*
X454927Y226494D01*
X453261D01*
X452428Y225661D01*
Y222329D01*
X453261Y221496D01*
X454927D01*
X455761Y222329D01*
X461328Y231229D02*
X460495Y232062D01*
X458829D01*
X457996Y231229D01*
Y227897D01*
X458829Y227064D01*
X460495D01*
X461328Y227897D01*
X458544Y234013D02*
X457711Y234846D01*
X456045D01*
X455212Y234013D01*
Y230680D01*
X456045Y229848D01*
X457711D01*
X458544Y230680D01*
X455761Y236797D02*
X454927Y237630D01*
X453261D01*
X452428Y236797D01*
Y233464D01*
X453261Y232631D01*
X454927D01*
X455761Y233464D01*
X452977Y239581D02*
X452144Y240414D01*
X450478D01*
X449644Y239581D01*
Y236248D01*
X450478Y235415D01*
X452144D01*
X452977Y236248D01*
X447409Y234013D02*
X446576Y234846D01*
X444910D01*
X444077Y234013D01*
Y230681D01*
X444910Y229848D01*
X446576D01*
X447409Y230681D01*
X450193Y236797D02*
X449360Y237630D01*
X447694D01*
X446861Y236797D01*
Y233464D01*
X447694Y232631D01*
X449360D01*
X450193Y233464D01*
X450193Y231229D02*
X449360Y232062D01*
X447694D01*
X446861Y231229D01*
Y227897D01*
X447694Y227064D01*
X449360D01*
X450193Y227897D01*
X452977Y234013D02*
X452144Y234846D01*
X450478D01*
X449645Y234013D01*
Y230680D01*
X450478Y229848D01*
X452144D01*
X452977Y230680D01*
X452977Y228445D02*
X452144Y229278D01*
X450478D01*
X449645Y228445D01*
Y225113D01*
X450478Y224280D01*
X452144D01*
X452977Y225113D01*
X455761Y231229D02*
X454927Y232062D01*
X453261D01*
X452428Y231229D01*
Y227897D01*
X453261Y227064D01*
X454927D01*
X455761Y227897D01*
D233*
X309087Y425197D02*
X308857Y426126D01*
X308223Y426843D01*
X307328Y427182D01*
X306377Y427067D01*
X305590Y426523D01*
X305145Y425675D01*
Y424718D01*
X305590Y423871D01*
X306377Y423327D01*
X307328Y423211D01*
X308223Y423551D01*
X308857Y424267D01*
X309087Y425197D01*
X401606D02*
X401377Y426126D01*
X400742Y426843D01*
X399847Y427182D01*
X398897Y427067D01*
X398109Y426523D01*
X397664Y425675D01*
Y424718D01*
X398109Y423871D01*
X398897Y423327D01*
X399847Y423211D01*
X400742Y423551D01*
X401377Y424267D01*
X401606Y425197D01*
X424835Y192323D02*
X424606Y193252D01*
X423971Y193969D01*
X423076Y194308D01*
X422125Y194193D01*
X421338Y193649D01*
X420893Y192801D01*
Y191844D01*
X421338Y190997D01*
X422125Y190453D01*
X423076Y190337D01*
X423971Y190677D01*
X424606Y191393D01*
X424835Y192323D01*
Y99803D02*
X424606Y100733D01*
X423971Y101449D01*
X423076Y101789D01*
X422125Y101673D01*
X421338Y101129D01*
X420893Y100282D01*
Y99325D01*
X421338Y98477D01*
X422125Y97933D01*
X423076Y97818D01*
X423971Y98157D01*
X424606Y98874D01*
X424835Y99803D01*
X272866Y215748D02*
X272637Y216677D01*
X272002Y217394D01*
X271107Y217733D01*
X270157Y217618D01*
X269369Y217074D01*
X268924Y216227D01*
Y215269D01*
X269369Y214422D01*
X270157Y213878D01*
X271107Y213763D01*
X272002Y214102D01*
X272637Y214819D01*
X272866Y215748D01*
Y210827D02*
X272637Y211756D01*
X272002Y212473D01*
X271107Y212812D01*
X270157Y212697D01*
X269369Y212153D01*
X268924Y211305D01*
Y210348D01*
X269369Y209501D01*
X270157Y208957D01*
X271107Y208841D01*
X272002Y209181D01*
X272637Y209897D01*
X272866Y210827D01*
X278378Y215748D02*
X278149Y216677D01*
X277514Y217394D01*
X276619Y217733D01*
X275669Y217618D01*
X274881Y217074D01*
X274436Y216227D01*
Y215269D01*
X274881Y214422D01*
X275669Y213878D01*
X276619Y213763D01*
X277514Y214102D01*
X278149Y214819D01*
X278378Y215748D01*
Y210827D02*
X278149Y211756D01*
X277514Y212473D01*
X276619Y212812D01*
X275669Y212697D01*
X274881Y212153D01*
X274436Y211305D01*
Y210348D01*
X274881Y209501D01*
X275669Y208957D01*
X276619Y208841D01*
X277514Y209181D01*
X278149Y209897D01*
X278378Y210827D01*
Y206102D02*
X278149Y207032D01*
X277514Y207748D01*
X276619Y208088D01*
X275669Y207972D01*
X274881Y207429D01*
X274436Y206581D01*
Y205624D01*
X274881Y204776D01*
X275669Y204232D01*
X276619Y204117D01*
X277514Y204456D01*
X278149Y205173D01*
X278378Y206102D01*
Y201772D02*
X278149Y202701D01*
X277514Y203418D01*
X276619Y203757D01*
X275669Y203642D01*
X274881Y203098D01*
X274436Y202250D01*
Y201293D01*
X274881Y200445D01*
X275669Y199902D01*
X276619Y199786D01*
X277514Y200126D01*
X278149Y200842D01*
X278378Y201772D01*
Y197441D02*
X278149Y198370D01*
X277514Y199087D01*
X276619Y199426D01*
X275669Y199311D01*
X274881Y198767D01*
X274436Y197920D01*
Y196962D01*
X274881Y196115D01*
X275669Y195571D01*
X276619Y195456D01*
X277514Y195795D01*
X278149Y196511D01*
X278378Y197441D01*
Y188386D02*
X278149Y189315D01*
X277514Y190032D01*
X276619Y190371D01*
X275669Y190256D01*
X274881Y189712D01*
X274436Y188865D01*
Y187907D01*
X274881Y187060D01*
X275669Y186516D01*
X276619Y186400D01*
X277514Y186740D01*
X278149Y187456D01*
X278378Y188386D01*
Y183465D02*
X278149Y184394D01*
X277514Y185110D01*
X276619Y185450D01*
X275669Y185335D01*
X274881Y184791D01*
X274436Y183943D01*
Y182986D01*
X274881Y182138D01*
X275669Y181595D01*
X276619Y181479D01*
X277514Y181819D01*
X278149Y182535D01*
X278378Y183465D01*
X272866Y201772D02*
X272637Y202701D01*
X272002Y203418D01*
X271107Y203757D01*
X270157Y203642D01*
X269369Y203098D01*
X268924Y202250D01*
Y201293D01*
X269369Y200445D01*
X270157Y199902D01*
X271107Y199786D01*
X272002Y200126D01*
X272637Y200842D01*
X272866Y201772D01*
Y197441D02*
X272637Y198370D01*
X272002Y199087D01*
X271107Y199426D01*
X270157Y199311D01*
X269369Y198767D01*
X268924Y197920D01*
Y196962D01*
X269369Y196115D01*
X270157Y195571D01*
X271107Y195456D01*
X272002Y195795D01*
X272637Y196511D01*
X272866Y197441D01*
Y193110D02*
X272637Y194040D01*
X272002Y194756D01*
X271107Y195096D01*
X270157Y194980D01*
X269369Y194437D01*
X268924Y193589D01*
Y192632D01*
X269369Y191784D01*
X270157Y191240D01*
X271107Y191125D01*
X272002Y191464D01*
X272637Y192181D01*
X272866Y193110D01*
Y188386D02*
X272637Y189315D01*
X272002Y190032D01*
X271107Y190371D01*
X270157Y190256D01*
X269369Y189712D01*
X268924Y188865D01*
Y187907D01*
X269369Y187060D01*
X270157Y186516D01*
X271107Y186400D01*
X272002Y186740D01*
X272637Y187456D01*
X272866Y188386D01*
Y183465D02*
X272637Y184394D01*
X272002Y185110D01*
X271107Y185450D01*
X270157Y185335D01*
X269369Y184791D01*
X268924Y183943D01*
Y182986D01*
X269369Y182138D01*
X270157Y181595D01*
X271107Y181479D01*
X272002Y181819D01*
X272637Y182535D01*
X272866Y183465D01*
D234*
X272066Y215748D02*
X271715Y216597D01*
X270866Y216948D01*
X270018Y216597D01*
X269666Y215748D01*
X270018Y214899D01*
X270866Y214548D01*
X271715Y214899D01*
X272066Y215748D01*
Y210827D02*
X271715Y211675D01*
X270866Y212027D01*
X270018Y211675D01*
X269666Y210827D01*
X270018Y209978D01*
X270866Y209627D01*
X271715Y209978D01*
X272066Y210827D01*
X277578Y215748D02*
X277226Y216597D01*
X276378Y216948D01*
X275529Y216597D01*
X275178Y215748D01*
X275529Y214899D01*
X276378Y214548D01*
X277226Y214899D01*
X277578Y215748D01*
Y210827D02*
X277226Y211675D01*
X276378Y212027D01*
X275529Y211675D01*
X275178Y210827D01*
X275529Y209978D01*
X276378Y209627D01*
X277226Y209978D01*
X277578Y210827D01*
Y206102D02*
X277226Y206951D01*
X276378Y207302D01*
X275529Y206951D01*
X275178Y206102D01*
X275529Y205254D01*
X276378Y204902D01*
X277226Y205254D01*
X277578Y206102D01*
Y201772D02*
X277226Y202620D01*
X276378Y202972D01*
X275529Y202620D01*
X275178Y201772D01*
X275529Y200923D01*
X276378Y200572D01*
X277226Y200923D01*
X277578Y201772D01*
Y197441D02*
X277226Y198290D01*
X276378Y198641D01*
X275529Y198290D01*
X275178Y197441D01*
X275529Y196592D01*
X276378Y196241D01*
X277226Y196592D01*
X277578Y197441D01*
Y188386D02*
X277226Y189234D01*
X276378Y189586D01*
X275529Y189234D01*
X275178Y188386D01*
X275529Y187537D01*
X276378Y187186D01*
X277226Y187537D01*
X277578Y188386D01*
Y183465D02*
X277226Y184313D01*
X276378Y184665D01*
X275529Y184313D01*
X275178Y183465D01*
X275529Y182616D01*
X276378Y182265D01*
X277226Y182616D01*
X277578Y183465D01*
X272066Y201772D02*
X271715Y202620D01*
X270866Y202972D01*
X270018Y202620D01*
X269666Y201772D01*
X270018Y200923D01*
X270866Y200572D01*
X271715Y200923D01*
X272066Y201772D01*
Y197441D02*
X271715Y198290D01*
X270866Y198641D01*
X270018Y198290D01*
X269666Y197441D01*
X270018Y196592D01*
X270866Y196241D01*
X271715Y196592D01*
X272066Y197441D01*
Y193110D02*
X271715Y193959D01*
X270866Y194310D01*
X270018Y193959D01*
X269666Y193110D01*
X270018Y192262D01*
X270866Y191910D01*
X271715Y192262D01*
X272066Y193110D01*
Y188386D02*
X271715Y189234D01*
X270866Y189586D01*
X270018Y189234D01*
X269666Y188386D01*
X270018Y187537D01*
X270866Y187186D01*
X271715Y187537D01*
X272066Y188386D01*
Y183465D02*
X271715Y184313D01*
X270866Y184665D01*
X270018Y184313D01*
X269666Y183465D01*
X270018Y182616D01*
X270866Y182265D01*
X271715Y182616D01*
X272066Y183465D01*
M02*
