G04*
G04 #@! TF.GenerationSoftware,Altium Limited,Altium Designer,22.11.1 (43)*
G04*
G04 Layer_Color=255*
%FSLAX25Y25*%
%MOIN*%
G70*
G04*
G04 #@! TF.SameCoordinates,E00A9952-D2AD-4094-941F-04495088175D*
G04*
G04*
G04 #@! TF.FilePolarity,Positive*
G04*
G01*
G75*
%ADD197C,0.04724*%
%ADD198C,0.06102*%
%ADD199R,0.06102X0.06102*%
%ADD206C,0.06693*%
%ADD207C,0.11811*%
%ADD208C,0.01673*%
%ADD209O,0.05906X0.05906*%
%ADD210O,0.03543X0.06299*%
%ADD211R,0.07500X0.07500*%
%ADD212C,0.07500*%
%ADD213C,0.03937*%
%ADD214R,0.30000X0.30000*%
%ADD215C,0.30000*%
%ADD216C,0.35000*%
%ADD217R,0.35000X0.35000*%
%ADD218C,0.20000*%
%ADD219C,0.06000*%
%ADD220C,0.05000*%
%ADD221C,0.08000*%
%ADD222R,0.08000X0.08000*%
D197*
X181496Y149213D02*
D03*
Y185039D02*
D03*
D198*
X190157Y165354D02*
D03*
Y201181D02*
D03*
D199*
Y155512D02*
D03*
Y191339D02*
D03*
D206*
X246083Y206299D02*
D03*
Y188583D02*
D03*
Y196457D02*
D03*
Y178740D02*
D03*
X288950Y178920D02*
D03*
Y196637D02*
D03*
Y188763D02*
D03*
Y206480D02*
D03*
D207*
X235413Y218386D02*
D03*
Y166654D02*
D03*
X278281Y166834D02*
D03*
Y218566D02*
D03*
X307087Y425197D02*
D03*
X399606D02*
D03*
X422835Y192323D02*
D03*
Y99803D02*
D03*
D208*
X654645Y254433D02*
D03*
X656872Y252206D02*
D03*
X654645Y249979D02*
D03*
X652418Y252206D02*
D03*
Y247752D02*
D03*
X650191Y249979D02*
D03*
X656594Y243576D02*
D03*
X658821Y245803D02*
D03*
X661048Y248030D02*
D03*
X664291Y252387D02*
D03*
X662064Y254614D02*
D03*
X659837Y256841D02*
D03*
X657610Y259068D02*
D03*
X666518Y254614D02*
D03*
X664291Y256841D02*
D03*
X662064Y259068D02*
D03*
X659837Y261295D02*
D03*
D209*
X200000Y541732D02*
D03*
Y530315D02*
D03*
Y496457D02*
D03*
X172047Y365354D02*
D03*
Y353937D02*
D03*
X200000Y509449D02*
D03*
X8268Y277953D02*
D03*
X118110Y118504D02*
D03*
X519291Y239370D02*
D03*
D210*
X313976Y149213D02*
D03*
Y127165D02*
D03*
X322441Y138189D02*
D03*
D211*
X83474Y365354D02*
D03*
X507480Y74154D02*
D03*
Y44360D02*
D03*
X445276Y41860D02*
D03*
X184163Y12598D02*
D03*
Y48504D02*
D03*
X445276Y71653D02*
D03*
X445276Y12067D02*
D03*
X677160Y120201D02*
D03*
Y154567D02*
D03*
Y85835D02*
D03*
X83474Y328346D02*
D03*
X507480Y14567D02*
D03*
X184163Y118898D02*
D03*
D212*
X95274Y365354D02*
D03*
X495680Y74154D02*
D03*
Y44360D02*
D03*
X457076Y41860D02*
D03*
X195963Y12598D02*
D03*
Y48504D02*
D03*
X457076Y71653D02*
D03*
X457076Y12067D02*
D03*
X665360Y120201D02*
D03*
Y154567D02*
D03*
Y85835D02*
D03*
X95274Y328346D02*
D03*
X495680Y14567D02*
D03*
X195963Y118898D02*
D03*
D213*
X671260Y32283D02*
D03*
X194095Y103150D02*
D03*
X763779Y538583D02*
D03*
X87795Y394094D02*
D03*
X39764Y544488D02*
D03*
X621654Y52756D02*
D03*
X306299Y86221D02*
D03*
D214*
X128425Y26772D02*
D03*
Y85827D02*
D03*
D215*
X68425Y26772D02*
D03*
Y85827D02*
D03*
D216*
X605512Y422756D02*
D03*
D217*
Y482756D02*
D03*
D218*
X293233Y267717D02*
D03*
X260433D02*
D03*
X177633D02*
D03*
X210433D02*
D03*
Y313386D02*
D03*
X177633D02*
D03*
X260433D02*
D03*
X293233D02*
D03*
D219*
X269685Y139764D02*
D03*
Y13780D02*
D03*
X356299D02*
D03*
Y139764D02*
D03*
X409449Y576772D02*
D03*
X775591D02*
D03*
X15748D02*
D03*
Y383858D02*
D03*
Y13780D02*
D03*
X775591D02*
D03*
X409449D02*
D03*
X244094Y383858D02*
D03*
Y576772D02*
D03*
D220*
X694882Y59842D02*
D03*
X647638D02*
D03*
X219685Y94095D02*
D03*
X172441D02*
D03*
D221*
X683071Y51968D02*
D03*
X671260D02*
D03*
X207874Y86221D02*
D03*
X196063D02*
D03*
D222*
X659449Y51968D02*
D03*
X184252Y86221D02*
D03*
M02*
