G04*
G04 #@! TF.GenerationSoftware,Altium Limited,Altium Designer,22.4.2 (48)*
G04*
G04 Layer_Color=16711935*
%FSLAX25Y25*%
%MOIN*%
G70*
G04*
G04 #@! TF.SameCoordinates,947A34DD-CEE6-4D0B-916E-FC4F334E4E1A*
G04*
G04*
G04 #@! TF.FilePolarity,Positive*
G04*
G01*
G75*
%ADD10C,0.00050*%
%ADD11C,0.00600*%
%ADD12C,0.01000*%
%ADD13C,0.00000*%
%ADD14C,0.00394*%
%ADD15C,0.00700*%
D10*
X13329913Y19117326D02*
G03*
X13329840Y19117435I-81J24D01*
G01*
Y19117435D02*
G03*
X13329283Y19117476I-867J-7992D01*
G01*
D02*
G03*
X13328229Y19117497I-1135J-29421D01*
G01*
D02*
G03*
X13325378Y19117502I-2854J-1046638D01*
G01*
X13319229Y19110123D02*
G03*
X13319664Y19112177I-2388015J507620D01*
G01*
X13318854Y19108365D02*
G03*
X13319229Y19110123I-1288896J275813D01*
G01*
X13318521Y19106815D02*
G03*
X13318854Y19108365I-5694981J1220297D01*
G01*
X13318488Y19106677D02*
G03*
X13318521Y19106815I-2077J591D01*
G01*
X13318488Y19106677D02*
G03*
X13318561Y19106567I82J-23D01*
G01*
Y19106567D02*
G03*
X13319125Y19106528I885J8355D01*
G01*
Y19106528D02*
G03*
X13320195Y19106505I1150J30189D01*
G01*
Y19106505D02*
G03*
X13323080Y19106502I2888J1072234D01*
G01*
X13328036Y19108012D02*
G03*
X13327946Y19107576I74348J-15743D01*
G01*
X13328128Y19108435D02*
G03*
X13328036Y19108012I65636J-14340D01*
G01*
X13328207Y19108797D02*
G03*
X13328128Y19108435I60125J-13516D01*
G01*
X13328255Y19108992D02*
G03*
X13328207Y19108797I6009J-1556D01*
G01*
X13328255Y19108992D02*
G03*
X13328285Y19109129I-1803J467D01*
G01*
X13328285Y19109129D02*
G03*
X13328302Y19109258I-1365J246D01*
G01*
X13328302D02*
G03*
X13328307Y19109364I-1179J100D01*
G01*
D02*
G03*
X13328291Y19109418I-101J-1D01*
G01*
X13328291D02*
G03*
X13328232Y19109451I-62J-38D01*
G01*
D02*
G03*
X13327419Y19109477I-7007J-212736D01*
G01*
D02*
G03*
X13326488Y19109496I-1504J-51669D01*
G01*
D02*
G03*
X13325394Y19109502I-1095J-98598D01*
G01*
X13322600Y19109726D02*
G03*
X13322624Y19109840I-7177J1669D01*
G01*
X13322624D02*
G03*
X13322659Y19110004I-28994J6263D01*
G01*
D02*
G03*
X13322696Y19110182I-32120J6749D01*
G01*
X13322696D02*
G03*
X13322731Y19110352I-25843J5282D01*
G01*
X13328023Y19112306D02*
G03*
X13327933Y19111877I100676J-21267D01*
G01*
X13328108Y19112703D02*
G03*
X13328023Y19112306I74854J-16227D01*
G01*
X13328180Y19113036D02*
G03*
X13328108Y19112703I77683J-17187D01*
G01*
X13328215Y19113176D02*
G03*
X13328180Y19113036I3463J-915D01*
G01*
X13323450Y19113727D02*
G03*
X13323485Y19113870I-19193J4856D01*
G01*
X13323485D02*
G03*
X13323526Y19114037I-33095J8110D01*
G01*
D02*
G03*
X13323564Y19114198I-31949J7660D01*
G01*
D02*
G03*
X13323593Y19114326I-13020J3052D01*
G01*
X13326503Y19114601D02*
G03*
X13327596Y19114606I-0J171392D01*
G01*
D02*
G03*
X13328514Y19114616I-551J86541D01*
G01*
D02*
G03*
X13329332Y19114630I-12224J719329D01*
G01*
D02*
G03*
X13329350Y19114650I-0J20D01*
G01*
X13329362Y19114760D02*
G03*
X13329350Y19114650I525J-110D01*
G01*
X13329611Y19115945D02*
G03*
X13329362Y19114760I1371959J-288035D01*
G01*
X13329848Y19117072D02*
G03*
X13329611Y19115945I533053J-113087D01*
G01*
X13329913Y19117326D02*
G03*
X13329848Y19117072I3264J-962D01*
G01*
X13318350Y19117380D02*
G03*
X13318286Y19117447I-67J0D01*
G01*
D02*
G03*
X13317393Y19117476I-3143J-83924D01*
G01*
Y19117476D02*
G03*
X13316093Y19117496I-1570J-58584D01*
G01*
Y19117496D02*
G03*
X13313812Y19117502I-2281J-494752D01*
G01*
X13309215Y19117273D02*
G03*
X13309056Y19116589I18629J-4676D01*
G01*
D02*
G03*
X13308037Y19111784I12644516J-2686429D01*
G01*
X11439393Y1292167D02*
G03*
X11439532Y1292825I-9675503J2051795D01*
G01*
X13306964Y19106728D02*
G03*
X13306950Y19106595I623J-132D01*
G01*
D02*
G03*
X13306995Y19106551I44J0D01*
G01*
D02*
G03*
X13308174Y19106532I7776J436595D01*
G01*
D02*
G03*
X13309622Y19106520I1495J98932D01*
G01*
D02*
G03*
X13311572Y19106526I155J319355D01*
G01*
X13316469Y19107852D02*
G03*
X13316576Y19108362I-54960J11647D01*
G01*
X13316576D02*
G03*
X13316664Y19108821I-35575J7194D01*
G01*
D02*
G03*
X13316736Y19109207I-48176J9099D01*
G01*
X13316736D02*
G03*
X13316748Y19109326I-731J132D01*
G01*
X13316748D02*
G03*
X13316664Y19109430I-103J2D01*
G01*
X13316664Y19109430D02*
G03*
X13316318Y19109476I-504J-2514D01*
G01*
Y19109476D02*
G03*
X13315640Y19109497I-734J-11984D01*
G01*
Y19109497D02*
G03*
X13313892Y19109502I-1749J-367550D01*
G01*
X13311250Y19110507D02*
G03*
X13311105Y19109926I3588J-1207D01*
G01*
X13311465Y19110722D02*
G03*
X13311250Y19110507I107J-323D01*
G01*
X13311894Y19110793D02*
G03*
X13311465Y19110722I13J-1405D01*
G01*
X13313742Y19110802D02*
G03*
X13311894Y19110793I0J-202856D01*
G01*
X13313742Y19110802D02*
G03*
X13315181Y19110806I0J230418D01*
G01*
D02*
G03*
X13315771Y19110829I-57J9086D01*
G01*
D02*
G03*
X13316083Y19110875I-146J2046D01*
G01*
D02*
G03*
X13316193Y19110977I-33J146D01*
G01*
D02*
G03*
X13316278Y19111305I-3356J1049D01*
G01*
X13316278D02*
G03*
X13316454Y19112166I-105953J22160D01*
G01*
X13316454Y19112166D02*
G03*
X13316632Y19113062I-181852J36498D01*
G01*
Y19113062D02*
G03*
X13316650Y19113263I-1029J201D01*
G01*
D02*
G03*
X13316583Y19113339I-78J0D01*
G01*
D02*
G03*
X13316194Y19113374I-730J-5866D01*
G01*
D02*
G03*
X13315543Y19113397I-753J-12994D01*
G01*
D02*
G03*
X13314253Y19113402I-1290J-165313D01*
G01*
X13311949Y19113869D02*
G03*
X13311920Y19113727I8795J-1878D01*
G01*
X13311984Y19114029D02*
G03*
X13311949Y19113869I14112J-3182D01*
G01*
X13312019Y19114183D02*
G03*
X13311984Y19114029I13367J-3175D01*
G01*
X13312050Y19114302D02*
G03*
X13312019Y19114183I4968J-1306D01*
G01*
X13318077Y19115932D02*
G03*
X13318182Y19116449I-76373J15788D01*
G01*
X13318182Y19116449D02*
G03*
X13318271Y19116904I-45808J9146D01*
G01*
X13318271Y19116904D02*
G03*
X13318343Y19117293I-82709J15661D01*
G01*
D02*
G03*
X13318350Y19117380I-474J87D01*
G01*
X13298891Y19117502D02*
G03*
X13298038Y19117496I0J-62070D01*
G01*
D02*
G03*
X13297485Y19117474I161J-11690D01*
G01*
D02*
G03*
X13297101Y19117444I657J-10742D01*
G01*
D02*
G03*
X13297050Y19117389I5J-55D01*
G01*
D02*
G03*
X13297057Y19117299I752J-0D01*
G01*
D02*
G03*
X13297241Y19115756I7719043J927128D01*
G01*
D02*
G03*
X13297452Y19114023I1113896J134011D01*
G01*
X13297452D02*
G03*
X13297701Y19111986I2112479J257478D01*
G01*
X13297951Y19109950D02*
G03*
X13297701Y19111986I-2446362J-298502D01*
G01*
X13298160Y19108221D02*
G03*
X13297951Y19109950I-1279417J-154357D01*
G01*
X13298346Y19106677D02*
G03*
X13298160Y19108221I-10163646J-1224688D01*
G01*
X13298351Y19106599D02*
G03*
X13298346Y19106677I-651J0D01*
G01*
X13298351Y19106599D02*
G03*
X13298390Y19106555I43J0D01*
G01*
D02*
G03*
X13298833Y19106528I1899J26617D01*
G01*
D02*
G03*
X13299394Y19106508I816J14918D01*
G01*
D02*
G03*
X13300128Y19106502I734J43064D01*
G01*
X13305788Y19113551D02*
G03*
X13304700Y19111577I11484805J-6325465D01*
G01*
X13306743Y19115286D02*
G03*
X13305788Y19113551I6771320J-3731726D01*
G01*
X13307558Y19116765D02*
G03*
X13306743Y19115286I12757178J-7032378D01*
G01*
X13307732Y19117076D02*
G03*
X13307558Y19116765I62126J-34653D01*
G01*
X13302777Y19114424D02*
G03*
X13302220Y19113220I573341J-265612D01*
G01*
X13302220D02*
G03*
X13301727Y19112144I364739J-168045D01*
G01*
X13301727D02*
G03*
X13301312Y19111235I529309J-241975D01*
G01*
X13301312D02*
G03*
X13301201Y19110977I6333J-2882D01*
G01*
X13301076Y19110683D02*
G03*
X13301201Y19110977I-8304J3724D01*
G01*
X13301009Y19110616D02*
G03*
X13301076Y19110683I-58J123D01*
G01*
X13300972Y19110643D02*
G03*
X13301009Y19110616I26J-3D01*
G01*
X13301013Y19110889D02*
G03*
X13300972Y19110643I3782J-756D01*
G01*
X13301013Y19110889D02*
G03*
X13301041Y19111230I-1460J292D01*
G01*
D02*
G03*
X13300983Y19112811I-278282J-9414D01*
G01*
D02*
G03*
X13300900Y19114606I-140401J-5548D01*
G01*
D02*
G03*
X13300790Y19116527I-185092J-9684D01*
G01*
X13289151Y19117426D02*
G03*
X13289122Y19117456I-31J0D01*
G01*
Y19117456D02*
G03*
X13288643Y19117479I-3237J-62119D01*
G01*
Y19117479D02*
G03*
X13288086Y19117496I-893J-20096D01*
G01*
D02*
G03*
X13287424Y19117502I-662J-39775D01*
G01*
X13284978Y19114076D02*
G03*
X13284396Y19111285I768838J-161348D01*
G01*
D02*
G03*
X13284229Y19110329I16657J-3432D01*
G01*
X13284229D02*
G03*
X13284190Y19109737I3540J-521D01*
G01*
X13284190D02*
G03*
X13284251Y19109146I3567J71D01*
G01*
D02*
G03*
X13284518Y19108307I3588J677D01*
G01*
X13284518D02*
G03*
X13284972Y19107591I2840J1297D01*
G01*
X13284972D02*
G03*
X13285602Y19107022I2393J2019D01*
G01*
X13285602Y19107022D02*
G03*
X13286388Y19106615I2080J3053D01*
G01*
Y19106615D02*
G03*
X13287695Y19106299I1964J5250D01*
G01*
D02*
G03*
X13289261Y19106233I1204J10193D01*
G01*
D02*
G03*
X13290788Y19106406I-352J9976D01*
G01*
D02*
G03*
X13291972Y19106812I-837J4365D01*
G01*
D02*
G03*
X13292665Y19107280I-1563J3064D01*
G01*
D02*
G03*
X13293288Y19107936I-3075J3538D01*
G01*
D02*
G03*
X13293805Y19108742I-4140J3226D01*
G01*
D02*
G03*
X13294185Y19109651I-5247J2728D01*
G01*
X13294185D02*
G03*
X13294362Y19110309I-6599J2132D01*
G01*
X13294362D02*
G03*
X13295076Y19113609I-1601870J348587D01*
G01*
D02*
G03*
X13295815Y19117044I-3366807J725403D01*
G01*
D02*
G03*
X13295851Y19117386I-1592J341D01*
G01*
D02*
G03*
X13295796Y19117447I-62J0D01*
G01*
Y19117447D02*
G03*
X13295476Y19117474I-604J-5190D01*
G01*
Y19117474D02*
G03*
X13294975Y19117487I-475J-8737D01*
G01*
Y19117487D02*
G03*
X13294131Y19117479I182J-64575D01*
G01*
X13291159Y19111586D02*
G03*
X13291685Y19114001I-157450J35632D01*
G01*
X13290825Y19110397D02*
G03*
X13291159Y19111586I-11555J3879D01*
G01*
X13290511Y19109712D02*
G03*
X13290825Y19110397I-2999J1797D01*
G01*
X13290109Y19109306D02*
G03*
X13290511Y19109712I-634J1026D01*
G01*
X13289728Y19109126D02*
G03*
X13290109Y19109306I-604J1775D01*
G01*
X13289319Y19109038D02*
G03*
X13289728Y19109126I-180J1821D01*
G01*
X13288901Y19109045D02*
G03*
X13289319Y19109038I239J1796D01*
G01*
X13288498Y19109148D02*
G03*
X13288901Y19109045I641J1678D01*
G01*
X13288147Y19109341D02*
G03*
X13288498Y19109148I867J1158D01*
G01*
X13287903Y19109607D02*
G03*
X13288147Y19109341I822J507D01*
G01*
X13287764Y19109958D02*
G03*
X13287903Y19109607I1053J213D01*
G01*
X13287724Y19110402D02*
G03*
X13287764Y19109958I2053J-37D01*
G01*
X13287755Y19110706D02*
G03*
X13287724Y19110402I1823J-338D01*
G01*
X13287938Y19111673D02*
G03*
X13287755Y19110706I112359J-21792D01*
G01*
X13288170Y19112822D02*
G03*
X13287938Y19111673I84534J-17590D01*
G01*
X13288441Y19114099D02*
G03*
X13288170Y19112822I129752J-28333D01*
G01*
X13288441Y19114099D02*
G03*
X13288713Y19115350I-678183J148093D01*
G01*
X13288713D02*
G03*
X13288942Y19116417I-358502J77589D01*
G01*
D02*
G03*
X13289145Y19117365I-2278264J486003D01*
G01*
D02*
G03*
X13289151Y19117426I-285J61D01*
G01*
X13338185Y19117657D02*
G03*
X13336877Y19117789I-1385J-7237D01*
G01*
D02*
G03*
X13335530Y19117691I-85J-8221D01*
G01*
D02*
G03*
X13334245Y19117380I1210J-7785D01*
G01*
D02*
G03*
X13333127Y19116872I1868J-5598D01*
G01*
D02*
G03*
X13332599Y19116484I1617J-2754D01*
G01*
D02*
G03*
X13332019Y19115900I5255J-5800D01*
G01*
X13332019Y19115900D02*
G03*
X13331488Y19115239I6064J-5421D01*
G01*
X13331488Y19115239D02*
G03*
X13331105Y19114610I3761J-2715D01*
G01*
D02*
G03*
X13330753Y19113805I7323J-3688D01*
G01*
D02*
G03*
X13330513Y19113014I6001J-2253D01*
G01*
Y19113014D02*
G03*
X13330373Y19112181I6532J-1530D01*
G01*
X13330373D02*
G03*
X13330319Y19111252I9855J-1030D01*
G01*
X13330319D02*
G03*
X13330392Y19110066I8298J-84D01*
G01*
D02*
G03*
X13330640Y19109076I4510J604D01*
G01*
D02*
G03*
X13331079Y19108237I3600J1346D01*
G01*
Y19108237D02*
G03*
X13331721Y19107500I3577J2474D01*
G01*
Y19107500D02*
G03*
X13332501Y19106920I3249J3555D01*
G01*
D02*
G03*
X13333348Y19106537I2088J3495D01*
G01*
Y19106538D02*
G03*
X13334351Y19106325I1554J4858D01*
G01*
D02*
G03*
X13335600Y19106259I1218J11190D01*
G01*
Y19106259D02*
G03*
X13336510Y19106294I-36J12532D01*
G01*
Y19106294D02*
G03*
X13337225Y19106401I-382J5054D01*
G01*
D02*
G03*
X13337871Y19106598I-930J4190D01*
G01*
D02*
G03*
X13338559Y19106915I-2486J6301D01*
G01*
X13338559Y19106915D02*
G03*
X13339406Y19107510I-1952J3680D01*
G01*
D02*
G03*
X13340193Y19108363I-4397J4848D01*
G01*
D02*
G03*
X13340819Y19109344I-5222J4024D01*
G01*
D02*
G03*
X13341188Y19110327I-3863J2009D01*
G01*
X13336829Y19109355D02*
G03*
X13337576Y19110161I-946J1629D01*
G01*
X13335756Y19109102D02*
G03*
X13336829Y19109355I118J1897D01*
G01*
X13334746Y19109488D02*
G03*
X13335756Y19109102I1122J1423D01*
G01*
X13334157Y19110374D02*
G03*
X13334746Y19109488I1649J458D01*
G01*
X13334032Y19111502D02*
G03*
X13334157Y19110374I3539J-180D01*
G01*
X13334253Y19112698D02*
G03*
X13334032Y19111502I4409J-1431D01*
G01*
X13334767Y19113766D02*
G03*
X13334253Y19112698I3689J-2434D01*
G01*
X13335504Y19114523D02*
G03*
X13334767Y19113766I1610J-2305D01*
G01*
X13336310Y19114865D02*
G03*
X13335504Y19114523I401J-2070D01*
G01*
X13337184Y19114848D02*
G03*
X13336310Y19114865I-475J-2040D01*
G01*
X13337880Y19114493D02*
G03*
X13337184Y19114848I-1065J-1224D01*
G01*
X13338214Y19113893D02*
G03*
X13337880Y19114493I-994J-159D01*
G01*
X13339908Y19113501D02*
G03*
X13340536Y19113507I0J34496D01*
G01*
D02*
G03*
X13341074Y19113525I-338J18532D01*
G01*
D02*
G03*
X13341534Y19113548I-2217J46872D01*
G01*
D02*
G03*
X13341588Y19113580I-4J68D01*
G01*
D02*
G03*
X13341635Y19113799I-280J173D01*
G01*
D02*
G03*
X13341530Y19114465I-15808J-2137D01*
G01*
D02*
G03*
X13341388Y19115131I-10174J-1816D01*
G01*
X13341388D02*
G03*
X13341232Y19115570I-2330J-576D01*
G01*
X13341234D02*
G03*
X13340758Y19116290I-2684J-1254D01*
G01*
X13340758D02*
G03*
X13340063Y19116901I-2868J-2565D01*
G01*
D02*
G03*
X13339191Y19117365I-2511J-3665D01*
G01*
Y19117365D02*
G03*
X13338185Y19117657I-2051J-5172D01*
G01*
X13349290Y19152443D02*
G03*
X13349142Y19152547I-150J-58D01*
G01*
Y19152547D02*
G03*
X13347182Y19152574I-5877J-344041D01*
G01*
Y19152574D02*
G03*
X13344017Y19152592I-3219J-282979D01*
G01*
Y19152592D02*
G03*
X13336415Y19152589I-1337J-6860804D01*
G01*
D02*
G03*
X13327386Y19152571I3365J-3682113D01*
G01*
D02*
G03*
X13323796Y19152509I440J-130771D01*
G01*
D02*
G03*
X13321404Y19152359I1152J-37352D01*
G01*
D02*
G03*
X13318851Y19152048I4696J-49296D01*
G01*
D02*
G03*
X13312198Y19150638I8029J-54257D01*
G01*
Y19150638D02*
G03*
X13305775Y19148415I14631J-52658D01*
G01*
Y19148415D02*
G03*
X13299680Y19145413I21046J-50419D01*
G01*
D02*
G03*
X13294000Y19141675I27204J-47528D01*
G01*
D02*
G03*
X13292274Y19140335I40815J-54353D01*
G01*
X13292274D02*
G03*
X13290794Y19139090I26101J-32526D01*
G01*
X13290794D02*
G03*
X13289085Y19137531I44400J-50357D01*
G01*
D02*
G03*
X13286487Y19135049I251517J-266179D01*
G01*
X13284250Y19132945D02*
G03*
X13286487Y19135049I-87041J94749D01*
G01*
X13282774Y19131708D02*
G03*
X13284250Y19132945I-13019J17014D01*
G01*
X13281447Y19130817D02*
G03*
X13282774Y19131708I-6559J11198D01*
G01*
X13279825Y19129951D02*
G03*
X13281447Y19130817I-9815J20393D01*
G01*
X13278696Y19129443D02*
G03*
X13279825Y19129951I-9673J22951D01*
G01*
X13277658Y19129047D02*
G03*
X13278696Y19129443I-5266J15355D01*
G01*
X13276601Y19128725D02*
G03*
X13277658Y19129047I-4139J15471D01*
G01*
X13275417Y19128441D02*
G03*
X13276601Y19128725I-4905J23045D01*
G01*
X13274567Y19128290D02*
G03*
X13275417Y19128441I-1763J12428D01*
G01*
X13273750Y19128207D02*
G03*
X13274567Y19128290I-629J10277D01*
G01*
X13272549Y19128157D02*
G03*
X13273750Y19128207I-734J31650D01*
G01*
X13269850Y19128099D02*
G03*
X13272549Y19128157I-11629J617351D01*
G01*
X13267175Y19128067D02*
G03*
X13269850Y19128099I-1095J200213D01*
G01*
X13261240Y19128040D02*
G03*
X13267175Y19128067I-14507J3737476D01*
G01*
X13254184Y19128018D02*
G03*
X13261240Y19128040I-7395J3721349D01*
G01*
X13246648Y19128009D02*
G03*
X13254184Y19128018I-2092J4844336D01*
G01*
X13246648Y19128009D02*
G03*
X13232631Y19127997I6449J-14911111D01*
G01*
Y19127997D02*
G03*
X13229068Y19127943I177J-128638D01*
G01*
D02*
G03*
X13227249Y19127786I466J-16019D01*
G01*
D02*
G03*
X13226001Y19127409I623J-4325D01*
G01*
Y19127409D02*
G03*
X13225737Y19127277I2425J-5116D01*
G01*
Y19127277D02*
G03*
X13225441Y19127110I4695J-8701D01*
G01*
Y19127110D02*
G03*
X13225159Y19126938I4831J-8261D01*
G01*
Y19126938D02*
G03*
X13224939Y19126788I2156J-3410D01*
G01*
D02*
G03*
X13224174Y19126151I4462J-6125D01*
G01*
X-98006Y-11968642D02*
G03*
X-94517Y-11965316I-8150203J8553841D01*
G01*
X-13404005Y-98337D02*
G03*
X-13405724Y-99975I13209683J-13852567D01*
G01*
X13205553Y19108395D02*
G03*
X13205382Y19108139I484J-508D01*
G01*
D02*
G03*
X13205371Y19108075I163J-63D01*
G01*
D02*
G03*
X13205380Y19107997I353J4D01*
G01*
D02*
G03*
X13205409Y19107918I384J92D01*
G01*
D02*
G03*
X13205452Y19107851I296J142D01*
G01*
D02*
G03*
X13205629Y19107762I189J157D01*
G01*
D02*
G03*
X13206491Y19107729I1830J36016D01*
G01*
D02*
G03*
X13207899Y19107707I1563J58228D01*
G01*
Y19107707D02*
G03*
X13210889Y19107704I2487J938559D01*
G01*
X13217639Y19109842D02*
G03*
X13216539Y19108266I11569J-9247D01*
G01*
X13219148Y19111591D02*
G03*
X13217639Y19109842I22424J-20879D01*
G01*
X13220912Y19113354D02*
G03*
X13219148Y19111591I23773J-25541D01*
G01*
X13222794Y19114983D02*
G03*
X13220912Y19113354I21624J-26880D01*
G01*
X13232881Y19115604D02*
G03*
X13242430Y19115646I-256J1110719D01*
G01*
D02*
G03*
X13248860Y19115790I-2121J240354D01*
G01*
D02*
G03*
X13253799Y19116061I-4577J128556D01*
G01*
D02*
G03*
X13258301Y19116508I-6656J89724D01*
G01*
Y19116508D02*
G03*
X13262881Y19117210I-10348J82798D01*
G01*
Y19117210D02*
G03*
X13266907Y19118108I-9383J51601D01*
G01*
D02*
G03*
X13270445Y19119212I-10774J40743D01*
G01*
D02*
G03*
X13273550Y19120541I-9896J27408D01*
G01*
D02*
G03*
X13275938Y19121866I-13829J27736D01*
G01*
D02*
G03*
X13278107Y19123349I-13908J22654D01*
G01*
X13278107D02*
G03*
X13280496Y19125316I-24027J31639D01*
G01*
X13280496D02*
G03*
X13283650Y19128212I-93871J105438D01*
G01*
X13287921Y19132172D02*
G03*
X13283650Y19128212I194468J-214000D01*
G01*
X13291060Y19134872D02*
G03*
X13287921Y19132172I48305J-59313D01*
G01*
X13293553Y19136751D02*
G03*
X13291060Y19134872I23678J-34014D01*
G01*
X13295700Y19138025D02*
G03*
X13293553Y19136751I7674J-15382D01*
G01*
X13299518Y19139490D02*
G03*
X13295700Y19138025I5677J-20496D01*
G01*
X13304109Y19140450D02*
G03*
X13299518Y19139490I5179J-36236D01*
G01*
X13310272Y19141054D02*
G03*
X13304109Y19140450I3707J-69660D01*
G01*
X13319301Y19141399D02*
G03*
X13310272Y19141054I7027J-302057D01*
G01*
X14318906Y19153032D02*
G03*
X14318304Y19153018I436070J-18768500D01*
G01*
X16313409Y19176190D02*
G03*
X16313586Y19176195I-205935J8872800D01*
G01*
X16313654Y19176196D02*
G03*
X16313806Y19176199I-178267J7686351D01*
G01*
X15317488Y19164642D02*
G03*
X15317839Y19164650I-290008J12519141D01*
G01*
X13328151Y19141603D02*
G03*
X13330069Y19141650I-14675J633441D01*
G01*
D02*
G03*
X13332069Y19141707I-19641J749821D01*
G01*
D02*
G03*
X13333873Y19141760I-19426J673090D01*
G01*
D02*
G03*
X13335101Y19141805I-4776J151371D01*
G01*
X13336064Y19141841D02*
G03*
X13335101Y19141805I9905J-274034D01*
G01*
X13336975Y19141872D02*
G03*
X13336064Y19141841I6975J-218155D01*
G01*
X13337743Y19141895D02*
G03*
X13336975Y19141872I6014J-212172D01*
G01*
X13338109Y19141901D02*
G03*
X13337743Y19141895I21J-13676D01*
G01*
X13342638Y19145644D02*
G03*
X13341414Y19144476I2535236J-2658888D01*
G01*
X13344089Y19147028D02*
G03*
X13342638Y19145644I5014455J-5261924D01*
G01*
X13345534Y19148404D02*
G03*
X13344089Y19147028I4985908J-5234855D01*
G01*
X13346732Y19149544D02*
G03*
X13345534Y19148404I2355227J-2475240D01*
G01*
X13346732Y19149544D02*
G03*
X13347736Y19150508I-102665J107895D01*
G01*
D02*
G03*
X13348581Y19151340I-54931J56660D01*
G01*
Y19151340D02*
G03*
X13349316Y19152077I-234805J235017D01*
G01*
Y19152077D02*
G03*
X13349352Y19152161I-84J84D01*
G01*
D02*
G03*
X13349347Y19152220I-410J0D01*
G01*
X13349347D02*
G03*
X13349333Y19152295I-1130J-164D01*
G01*
X13349333D02*
G03*
X13349313Y19152374I-1198J-257D01*
G01*
X13349313D02*
G03*
X13349290Y19152443I-796J-227D01*
G01*
X13276387Y19214769D02*
G03*
X13273651Y19214702I70J-57928D01*
G01*
X13279552Y19214725D02*
G03*
X13276387Y19214769I-3040J-103287D01*
G01*
X13282776Y19214581D02*
G03*
X13279552Y19214725I-6360J-106351D01*
G01*
X13285701Y19214346D02*
G03*
X13282776Y19214581I-7270J-72427D01*
G01*
X13295654Y19212704D02*
G03*
X13285701Y19214346I-17892J-77444D01*
G01*
X13305376Y19209808D02*
G03*
X13295654Y19212704I-28013J-76277D01*
G01*
X13314671Y19205721D02*
G03*
X13305376Y19209808I-37365J-72344D01*
G01*
X13323351Y19200520D02*
G03*
X13314671Y19205721I-45516J-66121D01*
G01*
X13326414Y19198311D02*
G03*
X13323351Y19200520I-52226J-69210D01*
G01*
X13329250Y19196059D02*
G03*
X13326414Y19198311I-46996J-56269D01*
G01*
X13331999Y19193646D02*
G03*
X13329250Y19196059I-50768J-55080D01*
G01*
X13334804Y19190955D02*
G03*
X13331999Y19193646I-67511J-67511D01*
G01*
X13337495Y19188150D02*
G03*
X13334804Y19190955I-70203J-64707D01*
G01*
X13339908Y19185400D02*
G03*
X13337495Y19188150I-57493J-48019D01*
G01*
X13342160Y19182565D02*
G03*
X13339908Y19185400I-58521J-44160D01*
G01*
X13344370Y19179501D02*
G03*
X13342160Y19182565I-71418J-49163D01*
G01*
X13349153Y19171614D02*
G03*
X13344370Y19179501I-70720J-37501D01*
G01*
X13353030Y19163182D02*
G03*
X13349153Y19171614I-76288J-29966D01*
G01*
X13355917Y19154396D02*
G03*
X13353030Y19163182I-78645J-20972D01*
G01*
X13357744Y19145451D02*
G03*
X13355917Y19154396I-76555J-10982D01*
G01*
X13358153Y19142287D02*
G03*
X13357744Y19145451I-111155J-12722D01*
G01*
X13358408Y19139528D02*
G03*
X13358153Y19142287I-63642J-4496D01*
G01*
X13358543Y19136743D02*
G03*
X13358408Y19139528I-64678J-1776D01*
G01*
X13358588Y19133502D02*
G03*
X13358543Y19136743I-118143J0D01*
G01*
Y19130260D02*
G03*
X13358588Y19133502I-118099J3242D01*
G01*
X13358408Y19127475D02*
G03*
X13358543Y19130260I-64541J4560D01*
G01*
X13358153Y19124716D02*
G03*
X13358408Y19127475I-63387J7255D01*
G01*
X13357744Y19121552D02*
G03*
X13358153Y19124716I-110747J15887D01*
G01*
X13355917Y19112607D02*
G03*
X13357744Y19121552I-74728J19927D01*
G01*
X13353030Y19103821D02*
G03*
X13355917Y19112607I-75758J29757D01*
G01*
X13349153Y19095389D02*
G03*
X13353030Y19103821I-72411J38397D01*
G01*
X13344370Y19087502D02*
G03*
X13349153Y19095389I-65935J45388D01*
G01*
X13342160Y19084438D02*
G03*
X13344370Y19087502I-69210J52226D01*
G01*
X13339908Y19081602D02*
G03*
X13342160Y19084438I-56269J46996D01*
G01*
X13337495Y19078853D02*
G03*
X13339908Y19081602I-55080J50768D01*
G01*
X13334804Y19076048D02*
G03*
X13337495Y19078853I-67511J67511D01*
G01*
X13331999Y19073357D02*
G03*
X13334804Y19076048I-64707J70203D01*
G01*
X13329250Y19070944D02*
G03*
X13331999Y19073357I-48019J57493D01*
G01*
X13326414Y19068692D02*
G03*
X13329250Y19070944I-44160J58521D01*
G01*
X13323351Y19066483D02*
G03*
X13326414Y19068692I-49163J71418D01*
G01*
X13314687Y19061290D02*
G03*
X13323351Y19066483I-36889J71368D01*
G01*
X13305414Y19057208D02*
G03*
X13314687Y19061290I-28042J76273D01*
G01*
X13295709Y19054312D02*
G03*
X13305414Y19057208I-18323J79131D01*
G01*
X13285751Y19052660D02*
G03*
X13295709Y19054312I-8121J79732D01*
G01*
X13281616Y19052348D02*
G03*
X13285751Y19052660I-3800J78205D01*
G01*
X13277351Y19052245D02*
G03*
X13281616Y19052348I0J87898D01*
G01*
X13273085D02*
G03*
X13277351Y19052245I4266J87794D01*
G01*
X13268951Y19052660D02*
G03*
X13273085Y19052348I7934J77894D01*
G01*
X13258994Y19054312D02*
G03*
X13268951Y19052660I18079J78079D01*
G01*
X13249287Y19057208D02*
G03*
X13258994Y19054312I28028J76235D01*
G01*
X13240015Y19061290D02*
G03*
X13249287Y19057208I37315J72192D01*
G01*
X13231351Y19066483D02*
G03*
X13240015Y19061290I45553J66175D01*
G01*
X13228287Y19068692D02*
G03*
X13231351Y19066483I52226J69210D01*
G01*
X13225452Y19070944D02*
G03*
X13228287Y19068692I46996J56269D01*
G01*
X13222702Y19073357D02*
G03*
X13225452Y19070944I50768J55080D01*
G01*
X13219897Y19076048D02*
G03*
X13222702Y19073357I67511J67511D01*
G01*
X13217206Y19078853D02*
G03*
X13219897Y19076048I70203J64707D01*
G01*
X13214793Y19081602D02*
G03*
X13217206Y19078853I57493J48019D01*
G01*
X13212541Y19084438D02*
G03*
X13214793Y19081602I58521J44160D01*
G01*
X13210333Y19087502D02*
G03*
X13212541Y19084438I71418J49163D01*
G01*
X13205139Y19096165D02*
G03*
X13210333Y19087502I71368J36889D01*
G01*
X13201057Y19105438D02*
G03*
X13205139Y19096165I76273J28042D01*
G01*
X13198161Y19115143D02*
G03*
X13201057Y19105438I79131J18323D01*
G01*
X13196509Y19125102D02*
G03*
X13198161Y19115143I79732J8121D01*
G01*
X13196198Y19129236D02*
G03*
X13196509Y19125102I78205J3800D01*
G01*
X13196094Y19133502D02*
G03*
X13196198Y19129236I87898J-0D01*
G01*
Y19137767D02*
G03*
X13196094Y19133502I87794J-4266D01*
G01*
X13196509Y19141902D02*
G03*
X13196198Y19137767I77894J-7934D01*
G01*
X13198161Y19151860D02*
G03*
X13196509Y19141902I78079J-18079D01*
G01*
X13201057Y19161565D02*
G03*
X13198161Y19151860I76235J-28028D01*
G01*
X13205139Y19170837D02*
G03*
X13201057Y19161565I72192J-37315D01*
G01*
X13210333Y19179501D02*
G03*
X13205139Y19170837I66175J-45553D01*
G01*
X13212541Y19182565D02*
G03*
X13210333Y19179501I69210J-52226D01*
G01*
X13214793Y19185400D02*
G03*
X13212541Y19182565I56269J-46996D01*
G01*
X13217206Y19188150D02*
G03*
X13214793Y19185400I55080J-50768D01*
G01*
X13219897Y19190955D02*
G03*
X13217206Y19188150I67511J-67511D01*
G01*
X13222702Y19193646D02*
G03*
X13219897Y19190955I64707J-70203D01*
G01*
X13225452Y19196059D02*
G03*
X13222702Y19193646I48019J-57493D01*
G01*
X13228287Y19198311D02*
G03*
X13225452Y19196059I44160J-58521D01*
G01*
X13231351Y19200520D02*
G03*
X13228287Y19198311I49163J-71418D01*
G01*
X13241045Y19206241D02*
G03*
X13231351Y19200520I36159J-72331D01*
G01*
X13251419Y19210550D02*
G03*
X13241045Y19206241I25513J-76098D01*
G01*
X13262338Y19213380D02*
G03*
X13251419Y19210550I14807J-79566D01*
G01*
X13273651Y19214702D02*
G03*
X13262338Y19213380I4072J-83987D01*
G01*
X13320792Y19117502D02*
X13325378D01*
X13319664Y19112177D02*
X13320792Y19117502D01*
X13323080Y19106502D02*
X13327725D01*
X13327946Y19107576D01*
X13322546Y19109502D02*
X13325394D01*
X13322546D02*
X13322600Y19109726D01*
X13322731Y19110352D02*
X13322810Y19110751D01*
X13325261Y19110779D01*
X13327711Y19110805D01*
X13327933Y19111877D01*
X13328215Y19113176D02*
X13328275Y19113402D01*
X13325821D02*
X13328275D01*
X13323367D02*
X13325821D01*
X13323367D02*
X13323450Y19113727D01*
X13323593Y19114326D02*
X13323654Y19114601D01*
X13326503D01*
X13309273Y19117502D02*
X13313812D01*
X13309215Y19117273D02*
X13309273Y19117502D01*
X13311572Y19106526D02*
X13316194Y19106552D01*
X13316469Y19107852D01*
X13311034Y19109502D02*
X13313892D01*
X13311034D02*
X13311105Y19109926D01*
X13311856Y19113402D02*
X13314253D01*
X13311856D02*
X13311920Y19113727D01*
X13312050Y19114302D02*
X13312115Y19114551D01*
X13314958Y19114578D01*
X13317802Y19114604D01*
X13318077Y19115932D01*
X13300729Y19117502D02*
X13300790Y19116527D01*
X13298891Y19117502D02*
X13300729D01*
X13300128Y19106502D02*
X13301906D01*
X13304700Y19111577D01*
X13307732Y19117076D02*
X13307968Y19117502D01*
X13306084Y19117500D02*
X13307968Y19117502D01*
X13304201Y19117497D02*
X13306084Y19117500D01*
X13302777Y19114424D02*
X13304201Y19117497D01*
X13285696Y19117502D02*
X13287424D01*
X13284978Y19114076D02*
X13285696Y19117502D01*
X13292410Y19117451D02*
X13294131Y19117479D01*
X13291685Y19114001D02*
X13292410Y19117451D01*
X13341188Y19110327D02*
X13341255Y19110602D01*
X13339523D02*
X13341255D01*
X13337791D02*
X13339523D01*
X13337576Y19110161D02*
X13337791Y19110602D01*
X13338214Y19113893D02*
X13338277Y19113501D01*
X13339908D01*
X13210889Y19107704D02*
X13216200Y19107707D01*
X13216539Y19108266D01*
X13222794Y19114983D02*
X13223563Y19115602D01*
X13232881Y19115604D01*
X13338109Y19141901D02*
X13338716Y19141902D01*
X13341414Y19144476D01*
D11*
X780555Y276350D02*
X780555Y335405D01*
X723468Y276350D02*
Y335405D01*
Y276350D02*
X780555Y276350D01*
X723468Y335405D02*
X780555D01*
X756146Y527138D02*
X756146Y586193D01*
X699059Y527138D02*
Y586193D01*
Y527138D02*
X756146Y527138D01*
X699059Y586193D02*
X756146D01*
X41630Y461781D02*
Y465113D01*
X40964Y465779D01*
X39631D01*
X38964Y465113D01*
Y461781D01*
X37631Y465779D02*
X36298D01*
X36965D01*
Y461781D01*
X37631Y462447D01*
X34299D02*
X33632Y461781D01*
X32300D01*
X31633Y462447D01*
Y465113D01*
X32300Y465779D01*
X33632D01*
X34299Y465113D01*
Y462447D01*
X-48643Y61676D02*
X-49643Y62676D01*
Y64675D01*
X-48643Y65675D01*
X-47644D01*
X-46644Y64675D01*
Y63675D01*
Y64675D01*
X-45644Y65675D01*
X-44645D01*
X-43645Y64675D01*
Y62676D01*
X-44645Y61676D01*
X-43645Y71673D02*
Y67674D01*
X-47644Y71673D01*
X-48643D01*
X-49643Y70673D01*
Y68674D01*
X-48643Y67674D01*
X-43645Y73672D02*
X-44645D01*
Y74672D01*
X-43645D01*
Y73672D01*
X-48643Y78671D02*
X-49643Y79670D01*
Y81670D01*
X-48643Y82669D01*
X-44645D01*
X-43645Y81670D01*
Y79670D01*
X-44645Y78671D01*
X-48643D01*
Y84669D02*
X-49643Y85668D01*
Y87668D01*
X-48643Y88667D01*
X-44645D01*
X-43645Y87668D01*
Y85668D01*
X-44645Y84669D01*
X-48643D01*
X301895Y-80371D02*
X297897D01*
X301895Y-76372D01*
Y-75372D01*
X300896Y-74373D01*
X298896D01*
X297897Y-75372D01*
X307893Y-80371D02*
X303894D01*
X307893Y-76372D01*
Y-75372D01*
X306894Y-74373D01*
X304894D01*
X303894Y-75372D01*
X309893Y-80371D02*
Y-79371D01*
X310892D01*
Y-80371D01*
X309893D01*
X314891Y-75372D02*
X315891Y-74373D01*
X317890D01*
X318890Y-75372D01*
Y-79371D01*
X317890Y-80371D01*
X315891D01*
X314891Y-79371D01*
Y-75372D01*
X320889D02*
X321889Y-74373D01*
X323888D01*
X324888Y-75372D01*
Y-79371D01*
X323888Y-80371D01*
X321889D01*
X320889Y-79371D01*
Y-75372D01*
X-80653Y277681D02*
Y279680D01*
Y278680D01*
X-86651D01*
X-85651Y277681D01*
X-86651Y286678D02*
Y282679D01*
X-83652D01*
X-84652Y284679D01*
Y285678D01*
X-83652Y286678D01*
X-81653D01*
X-80653Y285678D01*
Y283679D01*
X-81653Y282679D01*
X-85651Y288677D02*
X-86651Y289677D01*
Y291676D01*
X-85651Y292676D01*
X-81653D01*
X-80653Y291676D01*
Y289677D01*
X-81653Y288677D01*
X-85651D01*
X-80653Y294675D02*
X-81653D01*
Y295675D01*
X-80653D01*
Y294675D01*
X-85651Y299674D02*
X-86651Y300673D01*
Y302673D01*
X-85651Y303672D01*
X-81653D01*
X-80653Y302673D01*
Y300673D01*
X-81653Y299674D01*
X-85651D01*
Y305672D02*
X-86651Y306671D01*
Y308671D01*
X-85651Y309670D01*
X-81653D01*
X-80653Y308671D01*
Y306671D01*
X-81653Y305672D01*
X-85651D01*
X379605Y758212D02*
X375606D01*
X379605Y762211D01*
Y763210D01*
X378605Y764210D01*
X376606D01*
X375606Y763210D01*
X381604D02*
X382604Y764210D01*
X384603D01*
X385603Y763210D01*
Y759212D01*
X384603Y758212D01*
X382604D01*
X381604Y759212D01*
Y763210D01*
X387602D02*
X388602Y764210D01*
X390601D01*
X391601Y763210D01*
Y759212D01*
X390601Y758212D01*
X388602D01*
X387602Y759212D01*
Y763210D01*
X393600Y758212D02*
Y759212D01*
X394600D01*
Y758212D01*
X393600D01*
X398599Y763210D02*
X399598Y764210D01*
X401598D01*
X402597Y763210D01*
Y759212D01*
X401598Y758212D01*
X399598D01*
X398599Y759212D01*
Y763210D01*
X404597D02*
X405596Y764210D01*
X407596D01*
X408595Y763210D01*
Y759212D01*
X407596Y758212D01*
X405596D01*
X404597Y759212D01*
Y763210D01*
X834308Y277681D02*
Y279680D01*
Y278680D01*
X828310D01*
X829309Y277681D01*
X834308Y285678D02*
X828310D01*
X831309Y282679D01*
Y286678D01*
X829309Y288677D02*
X828310Y289677D01*
Y291676D01*
X829309Y292676D01*
X830309D01*
X831309Y291676D01*
Y290676D01*
Y291676D01*
X832308Y292676D01*
X833308D01*
X834308Y291676D01*
Y289677D01*
X833308Y288677D01*
X834308Y294675D02*
X833308D01*
Y295675D01*
X834308D01*
Y294675D01*
X829309Y299674D02*
X828310Y300673D01*
Y302673D01*
X829309Y303672D01*
X833308D01*
X834308Y302673D01*
Y300673D01*
X833308Y299674D01*
X829309D01*
Y305672D02*
X828310Y306671D01*
Y308671D01*
X829309Y309670D01*
X833308D01*
X834308Y308671D01*
Y306671D01*
X833308Y305672D01*
X829309D01*
X577424Y672991D02*
X578424Y671991D01*
X580423D01*
X581423Y672991D01*
Y676990D01*
X580423Y677990D01*
X578424D01*
X577424Y676990D01*
Y675990D01*
X578424Y674991D01*
X581423D01*
X583422Y676990D02*
X584422Y677990D01*
X586421D01*
X587421Y676990D01*
Y675990D01*
X586421Y674991D01*
X585422D01*
X586421D01*
X587421Y673991D01*
Y672991D01*
X586421Y671991D01*
X584422D01*
X583422Y672991D01*
X589420Y671991D02*
Y672991D01*
X590420D01*
Y671991D01*
X589420D01*
X594418Y676990D02*
X595418Y677990D01*
X597418D01*
X598417Y676990D01*
Y672991D01*
X597418Y671991D01*
X595418D01*
X594418Y672991D01*
Y676990D01*
X600417D02*
X601416Y677990D01*
X603416D01*
X604415Y676990D01*
Y672991D01*
X603416Y671991D01*
X601416D01*
X600417Y672991D01*
Y676990D01*
X118824Y719722D02*
X114826D01*
Y716723D01*
X116825Y717723D01*
X117825D01*
X118824Y716723D01*
Y714723D01*
X117825Y713724D01*
X115825D01*
X114826Y714723D01*
X120824Y718722D02*
X121823Y719722D01*
X123823D01*
X124822Y718722D01*
Y717723D01*
X123823Y716723D01*
X124822Y715723D01*
Y714723D01*
X123823Y713724D01*
X121823D01*
X120824Y714723D01*
Y715723D01*
X121823Y716723D01*
X120824Y717723D01*
Y718722D01*
X121823Y716723D02*
X123823D01*
X126822Y713724D02*
Y714723D01*
X127821D01*
Y713724D01*
X126822D01*
X131820Y718722D02*
X132820Y719722D01*
X134819D01*
X135819Y718722D01*
Y714723D01*
X134819Y713724D01*
X132820D01*
X131820Y714723D01*
Y718722D01*
X137818D02*
X138818Y719722D01*
X140817D01*
X141817Y718722D01*
Y714723D01*
X140817Y713724D01*
X138818D01*
X137818Y714723D01*
Y718722D01*
X-92464Y468218D02*
X-98462D01*
X-95463Y465219D01*
Y469218D01*
X-93464Y471217D02*
X-92464Y472217D01*
Y474216D01*
X-93464Y475216D01*
X-97462D01*
X-98462Y474216D01*
Y472217D01*
X-97462Y471217D01*
X-96463D01*
X-95463Y472217D01*
Y475216D01*
X-92464Y477215D02*
X-93464D01*
Y478215D01*
X-92464D01*
Y477215D01*
X-97462Y482214D02*
X-98462Y483214D01*
Y485213D01*
X-97462Y486212D01*
X-93464D01*
X-92464Y485213D01*
Y483214D01*
X-93464Y482214D01*
X-97462D01*
Y488212D02*
X-98462Y489212D01*
Y491211D01*
X-97462Y492211D01*
X-93464D01*
X-92464Y491211D01*
Y489212D01*
X-93464Y488212D01*
X-97462D01*
D12*
X481580Y84654D02*
X521580D01*
X481580Y61154D02*
X521580D01*
X481580D02*
Y84654D01*
X521580Y61154D02*
Y84654D01*
X521580Y31360D02*
Y54860D01*
X481580Y31360D02*
Y54860D01*
Y31360D02*
X521580D01*
X481580Y54860D02*
X521580D01*
X431176Y31360D02*
Y54860D01*
X471176Y31360D02*
Y54860D01*
X431176D02*
X471176D01*
X431176Y31360D02*
X471176Y31360D01*
X260685Y130764D02*
Y148764D01*
X278685Y130764D02*
Y148764D01*
X260685D02*
X278685D01*
X260685Y130764D02*
X278685D01*
X260685Y4780D02*
X278685D01*
X260685Y22780D02*
X278685D01*
Y4780D02*
Y22780D01*
X260685Y4780D02*
Y22780D01*
X347299Y4780D02*
X365299D01*
X347299Y22780D02*
X365299D01*
Y4780D02*
Y22780D01*
X347299Y4780D02*
Y22780D01*
Y130764D02*
X365299D01*
X347299Y148764D02*
X365299D01*
Y130764D02*
Y148764D01*
X347299Y130764D02*
Y148764D01*
X61106Y342650D02*
X101106D01*
X61106Y366150D02*
X101106D01*
Y342650D02*
Y366150D01*
X61106Y342650D02*
Y366150D01*
X170063Y2098D02*
Y25598D01*
X210063Y2098D02*
Y25598D01*
X170063D02*
X210063D01*
X170063Y2098D02*
X210063D01*
X170063Y38004D02*
X210063D01*
X170063Y61504D02*
X210063D01*
Y38004D02*
Y61504D01*
X170063Y38004D02*
Y61504D01*
X431176Y61154D02*
Y84654D01*
X471176Y61154D02*
Y84654D01*
X431176D02*
X471176D01*
X431176Y61154D02*
X471176D01*
X400449Y567772D02*
Y585772D01*
X418449Y567772D02*
Y585772D01*
X400449D02*
X418449D01*
X400449Y567772D02*
X418449D01*
X766590D02*
Y585772D01*
X784590Y567772D02*
Y585772D01*
X766590D02*
X784590D01*
X766590Y567772D02*
X784590D01*
X6748D02*
Y585772D01*
X24748Y567772D02*
Y585772D01*
X6748D02*
X24748D01*
X6748Y567772D02*
X24748D01*
X6748Y374858D02*
Y392858D01*
X24748Y374858D02*
Y392858D01*
X6748D02*
X24748D01*
X6748Y374858D02*
X24748D01*
X6748Y4780D02*
Y22780D01*
X24748Y4780D02*
Y22780D01*
X6748D02*
X24748D01*
X6748Y4780D02*
X24748D01*
X766590D02*
Y22780D01*
X784590Y4780D02*
Y22780D01*
X766590D02*
X784590D01*
X766590Y4780D02*
X784590D01*
X400449D02*
Y22780D01*
X418449Y4780D02*
Y22780D01*
X400449D02*
X418449D01*
X400449Y4780D02*
X418449D01*
X235094Y374858D02*
Y392858D01*
X253095Y374858D02*
Y392858D01*
X235094D02*
X253095D01*
X235094Y374858D02*
X253095D01*
X235094Y567772D02*
Y585772D01*
X253095Y567772D02*
Y585772D01*
X235094D02*
X253095D01*
X235094Y567772D02*
X253095D01*
X431176Y1567D02*
X471176Y1567D01*
X431176Y25067D02*
X471176Y25067D01*
X471176Y1567D02*
X471176Y25067D01*
X431176Y1567D02*
Y25067D01*
X651260Y130701D02*
X691260D01*
X651260Y107201D02*
X691260D01*
X651260D02*
Y130701D01*
X691260Y107201D02*
Y130701D01*
X651260Y165067D02*
X691260D01*
X651260Y141567D02*
X691260D01*
X651260D02*
Y165067D01*
X691260Y141567D02*
Y165067D01*
X651260Y96335D02*
X691260D01*
X651260Y72835D02*
X691260D01*
X651260D02*
Y96335D01*
X691260Y72835D02*
Y96335D01*
X61106Y305642D02*
Y329142D01*
X101106Y305642D02*
Y329142D01*
X61106D02*
X101106D01*
X61106Y305642D02*
X101106D01*
X521580Y1567D02*
Y25067D01*
X481580Y1567D02*
Y25067D01*
Y1567D02*
X521580D01*
X481580Y25067D02*
X521580D01*
X170063Y108398D02*
Y131898D01*
X210063Y108398D02*
Y131898D01*
X170063D02*
X210063D01*
X170063Y108398D02*
X210063D01*
X-47244Y139764D02*
X-45244Y133764D01*
X-49244D02*
X-47244Y139764D01*
X-49244Y19780D02*
X-47244Y13780D01*
X-45244Y19780D01*
X-47244Y90267D02*
Y139764D01*
Y13780D02*
Y60076D01*
X-48244Y139764D02*
X263469D01*
X-48244Y13780D02*
X263469D01*
X269685Y-76772D02*
X275685Y-74772D01*
X269685Y-76772D02*
X275685Y-78772D01*
X350299D02*
X356299Y-76772D01*
X350299Y-74772D02*
X356299Y-76772D01*
X269685D02*
X296297D01*
X326488D02*
X356299D01*
X269685Y-77772D02*
Y7563D01*
X356299Y-77772D02*
Y7563D01*
X-86252Y6000D02*
X-84252Y0D01*
X-82252Y6000D01*
X-84252Y590551D02*
X-82252Y584551D01*
X-86252D02*
X-84252Y590551D01*
Y0D02*
Y276081D01*
Y311270D02*
Y590551D01*
X-85252Y0D02*
X-1500D01*
X-85252Y590551D02*
X0D01*
Y761811D02*
X6000Y763811D01*
X0Y761811D02*
X6000Y759811D01*
X781402D02*
X787402Y761811D01*
X781402Y763811D02*
X787402Y761811D01*
X0D02*
X374006D01*
X410195D02*
X787402D01*
X0Y590551D02*
Y762811D01*
X787402Y592051D02*
Y762811D01*
X830709Y576772D02*
X832709Y570772D01*
X828709D02*
X830709Y576772D01*
X828709Y19780D02*
X830709Y13780D01*
X832709Y19780D01*
X830709Y311270D02*
Y576772D01*
Y13780D02*
Y276081D01*
X781807Y576772D02*
X831709D01*
X781807Y13780D02*
X831709D01*
X409449Y675591D02*
X415449Y677591D01*
X409449Y675591D02*
X415449Y673591D01*
X769591D02*
X775591Y675591D01*
X769591Y677591D02*
X775591Y675591D01*
X409449D02*
X575824D01*
X606015D02*
X775591D01*
X409449Y582988D02*
Y676590D01*
X775591Y582988D02*
Y676590D01*
X15748Y717323D02*
X21748Y719323D01*
X15748Y717323D02*
X21748Y715323D01*
X238094D02*
X244094Y717323D01*
X238094Y719323D02*
X244094Y717323D01*
X15748D02*
X113226D01*
X143417D02*
X244094D01*
X15748Y582988D02*
Y718323D01*
X244094Y582988D02*
Y718323D01*
X-96063Y576772D02*
X-94063Y570772D01*
X-98063D02*
X-96063Y576772D01*
X-98063Y389858D02*
X-96063Y383858D01*
X-94063Y389858D01*
X-96063Y493811D02*
Y576772D01*
Y383858D02*
Y463619D01*
X-97063Y576772D02*
X9532D01*
X-97063Y383858D02*
X9532D01*
D13*
X269980Y182283D02*
X271752D01*
X269980Y184646D02*
X271752D01*
X271752Y182283D01*
X269980D02*
X269980Y184646D01*
Y214567D02*
X271752D01*
X269980Y216929D02*
X271752D01*
Y214567D02*
Y216929D01*
X269980Y214567D02*
Y216929D01*
Y209646D02*
X271752D01*
X269980Y212008D02*
X271752D01*
Y209646D02*
Y212008D01*
X269980Y209646D02*
Y212008D01*
Y187205D02*
X271752D01*
X269980Y189567D02*
X271752D01*
Y187205D02*
Y189567D01*
X269980Y187205D02*
Y189567D01*
Y196555D02*
X271752D01*
X269980Y198327D02*
X271752D01*
Y196555D02*
Y198327D01*
X269980Y196555D02*
Y198327D01*
Y200886D02*
X271752D01*
X269980Y202658D02*
X271752D01*
Y200886D02*
Y202658D01*
X269980Y200886D02*
Y202658D01*
Y192224D02*
X271752D01*
X269980Y193996D02*
X271752D01*
Y192224D02*
Y193996D01*
X269980Y192224D02*
Y193996D01*
X275492Y182283D02*
X277264Y182283D01*
X275492Y184646D02*
X277264Y184646D01*
Y182283D02*
Y184646D01*
X275492Y182283D02*
Y184646D01*
Y214567D02*
X277264Y214567D01*
X275492Y216929D02*
X277264D01*
Y214567D02*
Y216929D01*
X275492Y214567D02*
Y216929D01*
Y209646D02*
X277264D01*
X275492Y212008D02*
X277264Y212008D01*
Y209646D02*
Y212008D01*
X275492Y209646D02*
Y212008D01*
Y187205D02*
X277264D01*
X275492Y189567D02*
X277264Y189567D01*
Y187205D02*
Y189567D01*
X275492Y187205D02*
Y189567D01*
Y196555D02*
X277264Y196555D01*
X275492Y198327D02*
X277264D01*
Y196555D02*
Y198327D01*
X275492Y196555D02*
Y198327D01*
Y200886D02*
X277264Y200886D01*
X275492Y202658D02*
X277264D01*
Y200886D02*
Y202658D01*
X275492Y200886D02*
Y202658D01*
Y205217D02*
X277264D01*
X275492Y206988D02*
X277264Y206988D01*
X277264Y205217D02*
X277264Y206988D01*
X275492Y205217D02*
Y206988D01*
D14*
X345543Y525664D02*
Y522384D01*
X346199Y521728D01*
X347511D01*
X348167Y522384D01*
Y525664D01*
X349479Y521728D02*
X350791D01*
X350135D01*
Y525664D01*
X349479Y525008D01*
X354727Y521728D02*
Y525664D01*
X352759Y523696D01*
X355383D01*
D15*
X460798Y418728D02*
X463154Y421084D01*
Y422026D01*
X462211Y422969D01*
X461269D01*
X458913Y420613D01*
X460798Y424383D02*
X459855Y425325D01*
X460326Y424854D01*
X457499Y422026D01*
X458441D01*
Y426739D02*
X457499Y427681D01*
X457970Y427210D01*
X455142Y424383D01*
X456085D01*
X456692Y231285D02*
X454336Y233641D01*
X453394D01*
X452451Y232699D01*
Y231756D01*
X454807Y229400D01*
X453394Y228929D02*
Y227986D01*
X452451Y227044D01*
X451509D01*
X451037Y227515D01*
Y228457D01*
X450095D01*
X449624Y228929D01*
Y229871D01*
X450566Y230814D01*
X451509D01*
X451980Y230342D01*
Y229400D01*
X452922D01*
X453394Y228929D01*
X451980Y229400D02*
X451037Y228457D01*
M02*
