G04*
G04 #@! TF.GenerationSoftware,Altium Limited,Altium Designer,22.4.2 (48)*
G04*
G04 Layer_Color=255*
%FSLAX25Y25*%
%MOIN*%
G70*
G04*
G04 #@! TF.SameCoordinates,43EAD1C5-17A3-47DC-85D2-FB09855483F6*
G04*
G04*
G04 #@! TF.FilePolarity,Positive*
G04*
G01*
G75*
%ADD191C,0.04724*%
%ADD192C,0.06102*%
%ADD193R,0.06102X0.06102*%
%ADD202C,0.03937*%
%ADD203C,0.11811*%
%ADD204C,0.01673*%
%ADD205R,0.30000X0.30000*%
%ADD206C,0.30000*%
%ADD207C,0.07500*%
%ADD208R,0.07500X0.07500*%
%ADD209C,0.35000*%
%ADD210R,0.35000X0.35000*%
%ADD211C,0.20000*%
%ADD212C,0.06000*%
%ADD213O,0.04134X0.08268*%
%ADD214R,0.03937X0.03937*%
%ADD215R,0.03347X0.03347*%
%ADD216O,0.03543X0.07087*%
%ADD217O,0.09843X0.04921*%
%ADD218C,0.05000*%
%ADD219C,0.08000*%
%ADD220R,0.08000X0.08000*%
%ADD221R,0.05906X0.05906*%
%ADD222C,0.05906*%
D191*
X181496Y149213D02*
D03*
Y184646D02*
D03*
D192*
X190157Y165354D02*
D03*
Y200787D02*
D03*
D193*
Y155512D02*
D03*
Y190945D02*
D03*
D202*
X269685Y487795D02*
D03*
X205512Y489370D02*
D03*
Y507480D02*
D03*
Y498425D02*
D03*
X191339Y584646D02*
D03*
X202362Y555905D02*
D03*
X391732Y520472D02*
D03*
X393701Y531890D02*
D03*
X8268Y277953D02*
D03*
X118110Y118504D02*
D03*
X671260Y32283D02*
D03*
X300787Y169291D02*
D03*
X194095Y103150D02*
D03*
X292126Y161024D02*
D03*
X519291Y239370D02*
D03*
X518898Y90551D02*
D03*
X87795Y394094D02*
D03*
X53543Y494882D02*
D03*
X621654Y52756D02*
D03*
X306299Y86221D02*
D03*
D203*
X307087Y425197D02*
D03*
X399606D02*
D03*
X422835Y192323D02*
D03*
Y99803D02*
D03*
D204*
X656594Y243576D02*
D03*
X658821Y245803D02*
D03*
X661048Y248030D02*
D03*
X652418Y247752D02*
D03*
X650191Y249979D02*
D03*
X654645Y249979D02*
D03*
X652418Y252206D02*
D03*
X656872D02*
D03*
X654645Y254433D02*
D03*
X664291Y252387D02*
D03*
X662064Y254614D02*
D03*
X659837Y256841D02*
D03*
X657610Y259068D02*
D03*
X666518Y254614D02*
D03*
X664291Y256841D02*
D03*
X662064Y259068D02*
D03*
X659837Y261295D02*
D03*
D205*
X128425Y26772D02*
D03*
Y85827D02*
D03*
D206*
X68425Y26772D02*
D03*
Y85827D02*
D03*
D207*
X495680Y74154D02*
D03*
Y44360D02*
D03*
X457076Y41860D02*
D03*
X87006Y353150D02*
D03*
X195963Y12598D02*
D03*
Y48504D02*
D03*
X457076Y71653D02*
D03*
X457076Y12067D02*
D03*
X665360Y120201D02*
D03*
Y154567D02*
D03*
Y85835D02*
D03*
X87006Y316142D02*
D03*
X495680Y14567D02*
D03*
X195963Y118898D02*
D03*
D208*
X507480Y74154D02*
D03*
Y44360D02*
D03*
X445276Y41860D02*
D03*
X75206Y353150D02*
D03*
X184163Y12598D02*
D03*
Y48504D02*
D03*
X445276Y71653D02*
D03*
X445276Y12067D02*
D03*
X677160Y120201D02*
D03*
Y154567D02*
D03*
Y85835D02*
D03*
X75206Y316142D02*
D03*
X507480Y14567D02*
D03*
X184163Y118898D02*
D03*
D209*
X605512Y422756D02*
D03*
D210*
Y482756D02*
D03*
D211*
X293233Y267717D02*
D03*
X260433D02*
D03*
X177633D02*
D03*
X210433D02*
D03*
Y313386D02*
D03*
X177633D02*
D03*
X260433D02*
D03*
X293233D02*
D03*
D212*
X269685Y139764D02*
D03*
Y13780D02*
D03*
X356299D02*
D03*
Y139764D02*
D03*
X409449Y576772D02*
D03*
X775591D02*
D03*
X15748D02*
D03*
Y383858D02*
D03*
Y13780D02*
D03*
X775591D02*
D03*
X409449D02*
D03*
X244094Y383858D02*
D03*
Y576772D02*
D03*
D213*
X242992Y213386D02*
D03*
Y185827D02*
D03*
D214*
X270866Y215748D02*
D03*
Y210827D02*
D03*
X276378Y215748D02*
D03*
Y210827D02*
D03*
Y188386D02*
D03*
Y183465D02*
D03*
X270866Y188386D02*
D03*
Y183465D02*
D03*
D215*
X276378Y206102D02*
D03*
Y201772D02*
D03*
Y197441D02*
D03*
X270866Y201772D02*
D03*
Y197441D02*
D03*
Y193110D02*
D03*
D216*
X242992Y203543D02*
D03*
X242992Y195669D02*
D03*
D217*
X256299Y224803D02*
D03*
Y174409D02*
D03*
D218*
X694882Y59842D02*
D03*
X647638D02*
D03*
X219685Y94095D02*
D03*
X172441D02*
D03*
D219*
X683071Y51968D02*
D03*
X671260D02*
D03*
X207874Y86221D02*
D03*
X196063D02*
D03*
D220*
X659449Y51968D02*
D03*
X184252Y86221D02*
D03*
D221*
X671260Y177402D02*
D03*
D222*
Y187402D02*
D03*
Y197402D02*
D03*
Y207402D02*
D03*
M02*
