M48
;Layer_Color=9474304
;FILE_FORMAT=2:4
INCH,TZ
;TYPE=PLATED
T1F00S00C0.0079
T2F00S00C0.0128
T3F00S00C0.0177
T4F00S00C0.0197
T6F00S00C0.0354
T7F00S00C0.0394
T8F00S00C0.0421
T9F00S00C0.0500
T10F00S00C0.0531
T11F00S00C0.0787
T12F00S00C0.1043
T13F00S00C0.1500
T14F00S00C0.1600
T15F00S00C0.2000
;TYPE=NON_PLATED
T16F00S00C0.0472
%
T01
X45243Y22150
X45521Y22428
Y22985
X45243Y22706
X44964Y22428
X44686Y22706
X44964Y22985
X45243Y23263
X44964Y23542
X44686Y23263
X44408Y22985
X45800Y22706
X45658Y41742
X45379Y42021
X45101Y42299
X45379Y42578
X45658Y42856
X45936Y42578
X45658Y42299
X45936Y42021
X46214Y42299
Y42856
X45936Y43134
X46493Y42578
T02
X65242Y24775
X65465Y24998
X65687Y25221
X65242
X65465Y25443
X66206Y25461
X65984Y25684
X66206Y25907
X65984Y26130
X65761Y25907
X66429Y25684
Y25239
X66652Y25461
X66105Y24803
X65882Y24580
X65659Y24358
X65019Y24998
T03
X27087Y18346
Y18839
Y19311
Y19744
Y20177
X27638Y20177
Y19744
Y20610
Y21083
X27087
X27638Y18839
Y18346
Y21575
X27087
T04
X3130Y945
X4114
X5098
X4606Y1929
X3622
X2638
X3130Y2913
X4114
X4606Y3898
X3622
X2638
X1654
X2146Y4882
X3130
X4114
X5098
X1161
Y2913
X2146
X6083Y4882
X7067
X8051
X9035
X10020
X10512Y3898
X9528
X8543
X9035Y2913
X10020
X10512Y1929
X9528
X8543
X9035Y945
X10020
X8051
X6083
X11850Y709
X12835
X13819
X14803
X15787
X16280Y1693
X17264
X17756Y2677
X18740
X19724
X21201Y1693
X20709Y4646
X16772
X15787
X14803
X13819
X12835
X11850
X15295Y3661
X16280
X16772Y2677
X15787
X14803
X15295Y1693
X22185
X23169
X24154
X25138
X26122
X26614Y2677
X25630
X24646
X23661
Y709
X24646
X25630
X27598
X28583
X29567
X30551
X31535
X31043Y1693
X30059
X29075
X28091
X28583Y2677
X29567
X30551
X31535
X33504
X34488
X35472
X34921Y3976
X33012Y3661
Y1693
X33996
X36949
X29764Y4764
X30059Y5354
X28091Y3661
X27283Y3543
X22677Y4646
X21693
Y709
X22677
X37933Y1693
X38917
X39902
X41870
X42854
X43839
X46791
X47776
X48760
X49252Y2677
X47776Y3661
X48268Y4646
X47283
X46299
X43346
X42362
X41378
X41870Y3661
X40886
X40512Y3937
X40066Y3933
X39619Y3937
X39173
X39173Y5354
X39619Y5358
X40066Y5354
X40512
X52205Y4646
X51713Y1693
X52697
X53681
X54665
X56634
X57126Y2677
Y4646
X58110
X59567Y4764
X60079Y4646
X61063
X62047
X62165Y5276
X63032Y4646
X64016
X65000
X65492Y3661
X66476
X67126Y3228
X67461Y1693
X66476
X65492
X64508
X63524
X62539
X63032Y709
X64016
X65000
X65984
X66968
X67953
X62047
X61063
X59685Y669
X59094Y709
X58110
X57126
X60079Y2677
X61063
X61555Y3661
X62539
X63524
X64508
X60571
X59331Y3819
X68445Y3661
X69429
X70413
X71398
X72382
X73622Y3740
X75335Y3661
X77303
X78287
X77795Y4646
X76417Y4764
X76811Y2677
X77795
X76319Y1693
X75335
X74350
X73366
X72382
X71398
X70413
X69429
X68445
X68937Y709
X69921
X70906
X71890
X72874
X73858
X74843
X75827
X76811
X69921Y4646
X68937
Y6614
X69921
X70906
X71890
X73701Y7040
X74350Y5630
X75335
X76417Y5945
Y7126
X77303Y7598
X78287
X77795Y8583
X78287Y9567
X77303
X76319
X75335
X74350
X74843Y10551
X75827
X76811
X77795
X78287Y11535
X77795Y12520
X77402Y13386
X76870
X76339
X75512Y13781
X75433Y11339
X72717Y11476
Y11083
Y11870
X71535Y11870
Y11476
Y11083
X71890Y10551
X70906
X69921
X68937
X69429Y9567
X70413
X71398
X72382
X70413Y7598
X69429
X68937Y8583
X69921Y12520
X70413Y15472
X71398
X71535Y15906
Y16299
Y16693
X70906Y16457
X69921
X70413Y17441
X71398
X72382
X72717Y16693
Y16299
Y15906
X72382Y15472
X69429
X68445
Y17441
X69429
X69921Y18425
X70906
X71890
X72382Y19409
X71398
X70413
X69429
X68445
X68937Y18425
X75827
X76811
X77795
X78287Y19409
X77303
X76319
X75335
X75827Y20394
X76811
X77795
X78287Y17441
X77303
X76319
X76378Y16181
X76890
X77441
X78287Y15472
X77795Y14488
X78287Y13504
X77795Y6614
X78287Y5630
X77303
X67953Y6614
X66968
X66476Y7598
X65492
X64508
X65000Y8583
Y10551
X64016
X63032
X63524Y11535
X64508
X65492
X65984Y12520
X66476Y13504
X65492
X64508
X63524
X62953Y13307
X62559
X62165
X61968Y12480
X61401Y12597
X60417
X59433
X58448
X57913Y13307
X57520
X57126
X56634Y13504
X56142Y14488
X57126Y14488
X57520
X57913
X58448Y14566
X59433
X60417
X61401
X62165Y14488
X62559
X62953
X64016Y14488
X65000
X65984
X65492Y15472
X64508
X64685Y16260
X64239Y16256
X63793Y16260
X63346
X63524Y15472
X61893Y15550
X60909
X59925
X58941
X57956
X56634Y15472
X56732Y16260
X56286Y16256
X55840Y16260
X55394
X55650Y15472
X55840Y17681
X55394Y17677
X56286
X56732
X56142Y18425
X57464Y18503
X58448
X59433
X60417
X61401
X62385
X61893Y19487
X62385Y20471
X61401
X63150Y21220
X63524Y19409
X64508
X65492
X65984Y18425
X65000
X64016
X63793Y17681
X64239Y17677
X64685
X65492Y17441
X66476
X66968Y16457
X67953
Y18425
X65984Y16457
X62385Y16534
X63346Y17677
X63032Y12520
X64016
X63524Y9567
X62539
X60571
X59587
X58602
X57618
X58110Y10551
X57126
X56634Y11535
X55650
X56142Y12520
X55650Y9567
X53681
X52697
X53189Y10551
Y8583
X54173
X57126
Y6614
X55157
X53189
X53681Y5630
Y13504
X53189Y14488
X52717Y12677
X53681Y17441
Y19409
X52717Y19921
X55650Y19409
X56142Y20394
X57464Y20471
X58448
X57956Y19487
X57464Y16534
X58941Y11613
X61063Y10551
X60906Y7835
X61398Y6850
X62382
X63366
X62874Y7835
X60413Y6850
X66476Y9567
X67461
X67953Y10551
X66968
X51220
X50236
X49252
X49744Y11535
X50728
X51713
X51772Y12677
X51220Y12520
X50236
X49252
X48268
X48760Y13504
X49744
X50728
X51220Y14488
X50236
X49252
X49744Y15472
X50728
X51220Y16457
X49252
X48268
X48760Y17441
X49744
X50236Y18425
X50533Y18937
X50728Y19409
X51220Y20394
X50236
X48303Y20671
X47402Y21102
X46791Y19528
X45807
X44823
X43839
X44331Y20512
X45315
Y18543
X46299
X46791Y17559
X45807
X44823
X43839
X42854
X41870
X40886
X39902
X38917
X39409Y18543
X40394
X41378
X40886Y19528
X39902
X38917
X38425Y18543
Y16575
X39409
X40394
X41378
X42362
X43346
X44331
X45315
X46299
X48268Y18425
X49252
X44331Y18543
X43346
X42362Y20512
X37323Y20984
X40394Y6614
X41378
X42362
X42854Y7598
X43839
Y5630
X42854
X41870
X40886
X41870Y7598
X46299Y6614
X48268
X49252
X50236
X51220
X51713Y7598
X51890Y9055
X49744Y9567
X48760
X49252Y8583
X48760Y11535
X36949
X35949Y11719
X35945Y12165
Y11273
Y10827
X36457Y10551
X34528Y10827
X34524Y11273
X34528Y11719
Y12165
X33996Y11535
X33012
X32520Y12520
X31535Y10551
X30551
X30039Y11220
X30059Y9567
X31043
X32028
X33031Y9409
X32520Y8583
X31831Y7717
X31240
X30650
X30059
X30354Y7126
X30945
X31535
X32126
X31831Y6535
X32126Y5945
X30354
X30059Y6535
X29075Y5630
X28091
X27323Y6575
X27697Y7717
X28583Y8583
X29567
X30630Y8622
X29075Y9567
X27756Y9882
X26122Y9567
X25000Y9764
Y10157
Y10551
X23819Y10551
Y10157
Y9764
X23169Y9567
X22677Y10551
X21693
X21850Y13504
X23661Y14488
X24646
X25630
X24646Y16457
X23661
X22677
X23169Y17441
X22185
X22677Y18425
X21693
X25630
Y20394
X23661
X28583
X30059Y19409
X29961Y18622
X29921Y18110
X30079Y16929
X29567Y16457
X29213Y16102
X28583Y16457
X27353Y16605
X28091Y17441
Y13504
X29075
X30059
X31811Y15709
X32520Y16457
X34488
X35472
X36457
X36949Y17441
X35965
X34980
X35079Y18032
X34528Y19016
X34488Y20394
X33504Y18425
X32520
X32205Y18858
Y19252
Y19646
X31024Y19646
Y19252
Y18858
X31535Y18425
X36457
X36949Y15472
X35965
X34980
X34488Y14488
X36457
X36949Y13504
X24154Y7598
Y5630
X25138
X22185Y7598
X21201
X20217
X19232
X18740Y6614
X17756
X16772
X17264Y7598
X16280
X15295
X15787Y8583
X16772
X15295Y9567
X13819Y10551
X12835
X11850
X11811Y11850
X11850Y12520
X12835
X13819
X14311Y11535
X13327
X12343
Y13504
X11850Y14488
X13819
X14803
X15787
X16772
X17264Y13504
X16280
X15295
X15787Y12520
X16772
X17756
Y10551
X18740
X19409Y10315
X19232Y9567
X20217
X21201
X20709Y10551
Y14488
X19724
X18740
X18248Y15472
X17756Y16457
X16772
X17264Y17441
X16280
X16772Y18425
X15787
X14803
X15295Y19409
X16280
X17264
X16772Y20394
X14311Y19409
X14803Y16457
X13819
X14311Y15472
X15295
X10374Y15591
X9390
X8406
X7421
X6437
X6929Y16575
X7913
X8898
X9882
X10374Y17559
X9390
X8406
X7421
X6437
X6929Y18543
X7913
X8898
X9882
Y20512
X7913
X6929
X5945
X6437Y19528
X7421
X8406
X5945Y18543
Y16575
Y14606
X6929
X7913
X8898
X9882
X10374Y13622
X9390
X8406
X7421
X6437
X6929Y12638
X7913
X8898
X9882
X10374Y11654
X9390
X8406
X7421
X6437
X6929Y10669
X7913
X8898
X9882
X10374Y9685
X9390
X8406
X8898Y8701
X9882
X10374Y7717
X9390
X9882Y6732
X8898
X7913
X6929
X5945
Y10669
Y12638
X11850Y6614
X12835
X13819
X14803
X15295Y5630
X14311
X13327
X12343
X17264
X18248
X19232
X21201
X19252Y13504
X19232Y17441
X19724Y18425
X20709
X21201Y17441
X3622Y17677
X2638
X1654
X2146Y18661
X3130
X4114
X3622Y19646
X2638
X1654
X2146Y20630
X3130
X4114
X1161
Y18661
Y16693
X2146
X3130
X4114
X3622Y15709
X2638
X1654
X2146Y14724
X3130
X4114
X3622Y13740
X2638
X1654
X2146Y12756
X3130
X4114
X3622Y11772
X2638
X1654
X2146Y10787
X3130
X4114
X3622Y9803
X2638
X1654
X2146Y8819
X3130
X4114
X3622Y7835
X2638
X1654
X2146Y6850
X3130
X4114
X3622Y5866
X2638
X1654
X1161Y6850
Y8819
Y10787
Y12756
Y14724
X1654Y21614
X2638
X3622
X4606
X5591
X5098Y22598
X4114
X3130
X2146
X1161
X1654Y23583
X2638
X3622
X4606
X5591
Y25551
X4606
X3622
X2638
X1654
X2146Y26535
X1161
X827Y27795
X1024Y28268
X2008
X2992Y27835
X3504Y26850
X3130Y24567
X4114
X2146
X1161
X1516Y29252
X2500
X2008Y30236
X1024
X1516Y31220
X2500
X2008Y32205
X1024
X1516Y33189
X2500
X2008Y34173
X1024
X1516Y35157
X2500
X2008Y36142
X1024
X7421Y36260
X8406
X9390
X10374
X11358
X11850Y35276
X10866
X9882
X10374Y34291
X11358
X11850Y33307
X10866
X9882
X8898
X7913
X6929
X7421Y34291
X8406
X9390
Y32323
X10374
X11358
X11358Y31378
X12343
X13327
X14311
X15295
X16280
X16772Y32362
X15787
X14803
X13819
X12835
X13327Y33189
X14311
X15295
X16280
X17264
X18248
X19232
X20217
X21201
X20709Y34173
X19724
X18740
X17756
X18248Y35157
X19232
X20217
X17264
X15787Y34173
X14803
X13819
X12835
X13327Y35157
X14311
X13819Y36142
X13819Y30394
X14803
X15787
X16772
X17264Y29409
X18248
X19232
X20217
X21201
X19724Y30394
X18740
X19232Y31378
X19724Y32362
X18740
X16280Y29409
X15295
X14311
X13327
X12343
X11358
X10374
X9390
X9390Y30354
X8406
X7421
Y32323
X8406
X7913Y28425
X8898
X9882
X10866
X11850
X12835Y28268
X13819
X14803
X15630Y27480
X16614
X16122Y26496
X15138
X14154
X14646Y25512
X15630
X16614
X17106Y24528
X18091
X19075
X20059
X21043
X20551Y25512
X19567
X18583
X19075Y26496
X19567Y27480
X18583Y23543
X17598
X16614
X15630
X14646
X13661
X12677
X13169Y24528
X14154
X15138
X16122
Y22559
X17106
X16614Y21575
X15630
X14646
X13661
X12677
X13169Y22559
X14154
X15138
X12185
X11201
X11358Y25315
X10374
X9390
X9882Y24331
X9882Y26457
X8898
X7913
X8406Y27441
X9390
X10374
X10866Y26299
X11850
X12835
X13327Y27283
X12343
X12185Y24528
X13661Y25512
X12835Y30394
X11850
X10866
X7421Y27441
X6575Y23583
X6083Y22598
X7913Y22480
X8031Y21811
X7421Y21496
X18740Y22362
X20217Y21378
X21201
X22185
X22677Y22362
X23661
X24154Y23346
X23169
X22185
X21693Y22362
X21535Y25512
X24606Y25630
Y27598
X24724Y29331
X25709
X26693
X27677
X28661
X29646
X30630
X31614
X32598
X33583
X34567
X35551
X36043Y30315
X35059
X34075
X33091
X32106
X31122
X30138
X30630Y31299
X31614
X32598
X33583
X34075Y32283
X35059
X33091
X33012Y33189
X32028
X32106Y32283
X31122
X31043Y33189
X30059
X29075
X28091
X28169Y32283
X27185
X27106Y33189
X26122
X25138
X25630Y34173
X26614
X27598
X28583
X29567
X30551
X31535
X32520
X33504
X34488
X33996Y35157
X33012
X32028
X31043
X30059
X29075
X28091
X27106
X26122
X26614Y36142
X27598
X28583
X29567
X30551
X31535
X32520
X34488
X36457
X36949Y35157
X35965
X35433Y27598
X34449
X33465
X32480
X31496
X30512
X31004Y26614
X31988
X32972
X33465Y25630
X34449
X35433
X36486Y24094
X36378Y22756
X36969
X35965Y21378
X34980
X34488Y22362
X33504
X32520
X31535
X33012Y21378
X29724Y21535
X30512Y25630
X31496
X32480
X28543
X27559
Y27598
X27185Y30315
X28169
X27677Y31299
X24724
X25217Y30315
X24646Y34173
Y36142
X23169Y35157
X21693Y36142
Y34173
X25906Y23071
X37441Y22362
X39409
X40394
X41900Y23022
X42953Y21969
X43839Y23346
X44331Y24331
X44685Y24843
X46414Y24764
X47283Y26299
X47911Y27796
X48229Y27483
X47598Y28114
X47283Y28430
X46850Y29173
X48285Y29432
X48603Y29119
X48916Y28801
X49232Y28485
X46102Y28150
X46890Y21261
X47992Y22283
X49252Y22362
X49606Y21378
X51220Y22362
X51929Y23937
X38858Y23858
X39016Y24409
X38898Y23110
X37559Y35197
X37441Y36142
X38425
X40394
X41968Y36102
Y35591
Y36654
X55079Y27520
X55157Y26299
X56634Y27283
X56811Y27835
X57618Y25433
X58602
X59094Y24449
X60079
X61063
X62047
X63032
X64016
X63524Y23465
X62539
X61555
X60571
X59587
X58602
X57618
X58110Y24449
Y22480
X59094
X60079
X61063
X62047
X63032
X62539Y25433
X61555
X59803Y26654
X63524Y27283
X64236Y26439
X65000Y26378
X65569Y27874
X67520Y28110
Y25433
X68013
X66476Y21378
X55650
X52697
X52953Y23228
X53346Y23701
X53268Y24331
X52913Y25236
X56142Y24331
X68780Y25197
X68661Y27165
X69429Y27283
X68543Y28189
X70787Y34528
X71181
X71575
X71575Y35709
X71181
X70787
X70748Y36811
X70354
X69961
X75709
X76102
X76496
X75780Y35709
X75315Y35709
X74953Y35709
Y34528
X75315Y34528
X75780Y34528
X75709Y37992
X76102
X76496
X76772Y40236
X77218
X77664Y40232
X78110Y40236
X78110Y41654
X77664
X77218Y41657
X76772Y41654
X76772Y44055
X77218
X77664Y44051
X78110Y44055
X78110Y45472
X77664
X77218Y45476
X76772Y45472
X78189Y46732
X78193Y47274
Y47795
X78150Y49961
X78150Y50512
X78228Y51260
X75787Y49567
X69685Y45472
X69239
X68793Y45476
X68346Y45472
X68346Y44055
X68793
X69239Y44051
X69685Y44055
X69429Y43032
X68445
X68346Y41654
X68793Y41657
X69239Y41654
X69685
X69685Y40236
X69239Y40232
X68793Y40236
X68322Y40266
X69961Y37992
X70354
X70748
X68268Y39724
X66969Y40197
X65984
X65000
X64016
X63032
X62047
X61063
X60079
X59094
X58110
X57126
X56142
X55157
X54173
X53189
X53681Y41181
X54665
X55650
X56634
X57618
X58602
X58110Y42165
X57126
X56142
X55157
X54173
X53189
X53681Y43150
X54665
X55650
X56634
X57618
X58602
X59094Y44134
X58110
X57126
X56142
X55157
X54173
X53189
X52697Y43150
Y41181
X53189Y46102
X54173
X55157
X56142
X57126
X58110
X59094
X60079
X61063
X62047
X63032
X64016
X63524Y47087
X64016Y48071
X65000
X65492Y49055
Y47087
X65984Y44134
X66969
X65000
X64016
X63032
X62047
X62539Y43150
X63032Y42165
X62539Y41181
X63032Y48071
X61654Y51339
X63494Y52372
X57618Y49055
X56634
X55650
X54665
X53681
X52697
X53189Y48071
X54173
X55157
X56142
X57126
X58110
X57618Y47087
X56634
X55650
X54665
X53681
X52697
X68189Y46299
X52205Y46102
Y44134
X51220Y44016
X50728Y45000
X50039Y45984
X49744Y46968
X50728
X50236Y47953
X49252
X48268
X48760Y48937
X49744
X50728
X50236Y49921
X49252
X48268
X47283
X46299
X45197Y49724
X45568Y49062
X47776Y48937
Y50906
X48760
X49744
X50728
X49252Y51890
X49567Y52315
X48268Y51890
X47283
X46791Y50906
X45315Y51890
X43937Y52283
X42480Y51850
X42362Y49921
X41181Y49016
Y48504
X41614Y47559
X39902Y46968
X38917
X37933
X38425Y45984
X39409
X40394
X39902Y45000
X39980Y44134
X40965
X41457Y43150
X42441
X43425
X42933Y44134
Y42165
X41949
X40965
X41457Y41181
X42441
X40472
X39488
X38504
X37520
X37441Y40079
X38425
X39409
X40394
X40886Y39094
X39902
X38917
X37933
X38012Y42165
X38996
X38504Y43150
X37520
X38012Y44134
X37933Y45000
X38917
X38996Y44134
X37441Y45984
X37933Y48937
X38917
X39902
X40394Y50354
X38917Y50906
X39173Y52047
X37767Y50573
X44356Y47140
X44441Y45079
X45039Y44331
X46968Y45000
X47402Y45551
X47638Y42992
X47126Y41220
X47362Y39724
X48543Y40315
X48724Y39155
X49040Y39471
X49646Y39921
X50042Y38469
X49726Y38153
X49411Y37838
X49095Y37522
X48093Y38524
X48406Y38842
X52205Y40197
Y42165
X51102Y41614
X52205Y48071
X43346Y45984
X43495Y40187
X43898Y40472
X43110Y39842
X43001Y37804
X41102Y37677
X36949Y39094
X36457Y40079
X35472
X35551Y41181
X36535
X37028Y42165
X36043
X35059
X35551Y43150
X36535
X37028Y44134
X36949Y45000
X35965
X36043Y44134
X35059
X34980Y45000
X35472Y45984
X36457
X36949Y46968
X35965
X34980
X34252Y47441
X32756Y47953
X32028Y48937
X32520Y49921
X31535
X30059Y50906
X29075
X28583Y49921
X27598
X28091Y48937
X26969Y48780
X27126Y47087
Y46640
X27122Y46194
X27126Y45748
X28543Y45748
Y46194
Y46640
Y47087
X30059Y46968
X30039Y45315
Y44764
X29350Y43189
X29843Y42205
X28858
X29350Y41220
X30335
X31319
X31535Y40079
X32520
X33012Y39094
X32028
X31043
X30551Y40079
Y38110
X29567
X28543Y38301
Y37854
X28547Y38747
X28543Y39193
X29075Y39094
X28583Y40079
X27598
X27126Y39193
Y38747
X27122Y38301
X27126Y37854
X26614Y38110
X25630
X26122Y39094
X25138
X23169
X22677Y38110
X21693
X21496Y40079
X21476Y41220
X22461
X23445
X24429
X25413
X26398
X26890Y42205
X25906
X24921
X23937
X22953
X21969
X22461Y43189
X23445
X24429
X25413
X26398
X26122Y46968
X24921Y46378
X24252Y49252
X24308Y49843
X24308Y50354
X23536Y50616
X23268Y51142
X23015Y50098
X21510Y49843
X21929Y47874
X22480
X23740Y48976
X25819Y50610
X27087Y51142
X30394Y52244
X31142
X32942Y52073
Y51073
X34105Y51573
X35472Y51890
X36604Y52073
Y51073
X36949Y48937
X35965
X34980
X30059
X29528Y48268
X31319Y43189
X31811Y42205
X32520Y38110
X33504
X34488
X34980Y37126
X33996
X21476Y43189
X20492
X19508
X18524
X17539
X16555
X17047Y42205
X18032
X19016
X20000
X20984
X20492Y41220
X19508
X18524
X17539
X16555
X15571
X14587
X15079Y40236
X16063
X16772Y40079
X17756
X18740
X19724
X20709
X21201Y39094
X20217
X19232
X18248
X17264
X17756Y38110
X18740
X19724
X20709
X16772
X15787
X15942Y39303
X14095Y40236
X13819Y42047
X14311Y43032
X13819Y44016
X14311Y45000
X16280
X15787Y44016
X16063Y42205
X11850Y42047
X12343Y43032
Y41063
X11033Y40521
X9882Y40079
X8898
X8780Y39409
X7913Y40079
X8386Y40787
X7795Y42520
Y42972
Y43425
X8661Y43465
X8228Y43976
X8406Y45000
X8898Y45984
X9882
X10866
X11850
X12677Y46181
X12047Y46850
X10866Y47953
X11242Y48411
X9882Y47953
X9390Y48937
X9005Y49945
X8490Y50445
Y51445
X8898Y51890
X8490Y52445
X7283Y51968
X6437Y50906
X5945Y49921
X6437Y48937
X7421
X8490Y49445
X10354Y51968
X13819Y51693
X14567
X15236Y51260
X13819Y50472
X15256Y48424
X15299Y47890
X14742Y47896
X16575Y47874
X17126Y47795
X17559Y46890
X19685Y46535
X19724Y44843
X20551Y48937
Y49843
Y50748
X20039Y52212
X17494Y52427
Y51445
X18013Y51045
X17492Y50443
X17494Y49445
X16979Y49945
Y51945
X11358Y45000
X5945Y44016
X6437Y43032
X5945Y42047
X6220Y39252
X7421Y38228
X8406
X9390
X10374
X10866Y37244
X9882
X8898
X7913
X6929
X2500Y37126
X1516
X2500Y39094
X2992Y40079
X3976
X3484Y41063
X2500
X1516
X2008Y42047
X2992
X3976
X4469Y43032
X5453
X4961Y44016
X3976
X2992
X2008
X1024
X1516Y43032
X2500
X3484
X4469Y45000
X4961Y45984
X3976
X3976Y47087
X4469Y48071
X3484
X2500
X1516
X1024Y49055
X945Y49606
X1024Y51024
X2008
X1516Y52008
X2992Y51890
X3976
X4469Y50906
X5453
X4961Y49921
X5354Y49488
X3976Y49055
X2992
X3484Y50039
X1024Y42047
Y40079
X2008
X2008Y52992
X1024
X1516Y53976
X2008Y54961
X1024
X1516Y56811
X2500
X3484
X4469
X5453
X4961Y57795
X3976
X2992
X3484Y54843
X4469
X5453
X3976Y53858
X2992
X3484Y52874
X7283Y52874
X7267Y53881
X7421Y54843
X8406
X9005Y54945
Y52945
X11358Y52874
X11850Y55827
X12835
X13819
X15295Y54843
X16979Y54945
Y53945
X17494Y54445
Y53445
Y55489
X17264Y56811
X17756Y57795
X18740
X19134Y58465
X19232Y56811
X20236Y55591
X15295Y52874
X10866Y55827
X8406Y56811
X7421
X6437
X6929Y57795
X7913
X5945
X6437Y54843
X21890Y54338
X21470Y53583
Y52559
X22975Y52815
X23490Y53327
X24154Y52874
X25138Y54843
X26122
X27106
X27598Y55827
X28583
X29567
X30551
X31535
X32520
X33504
X34488
X35472
X35492Y56732
X35512Y58110
X36457Y55827
X34843Y53701
X34685Y52913
X34105Y52573
X31850Y53307
X29843Y54291
X29787Y56733
X25315Y56693
X25512Y56181
X24154Y56811
X23661Y55827
X23307Y55276
X22677Y55827
X21693
X22441Y58661
X26102Y58472
X26535Y53622
X27677Y52992
X39370Y53189
X39026Y54123
X40394Y53858
X41378
Y55827
X40394
X40886Y56811
X39902
X41772Y56614
X42835Y57047
X43839Y56811
X44823
X44449Y57480
Y57992
Y58486
X44890Y58708
X46535Y58110
Y57598
X47283Y57795
X48268
X49252
X50236
X51220
X50728Y56811
X49744
X48760
X49252Y55827
X50236
X51220
Y53858
X50236
X48268
X47283
Y55827
X46791Y56811
X46181Y56968
X45827Y56457
X42244Y57756
X39173Y58543
X38425Y55827
X37441
X75276Y52913
T06
X67126Y17740
Y18740
Y19740
Y20740
T07
X19016Y15551
Y16535
Y19094
Y20079
T08
X65945Y5197
X67126
X68307
X20787Y8622
X19606
X18425
T09
X17236Y490
X18416Y1260
X19596
X20776Y490
Y4080
X19596Y4850
X18416
X17236Y4080
X43348Y3416
X44528Y4186
X45708
X46888Y3416
X48388Y2227
X49568Y1457
X50748
X51928Y2227
Y5206
X50748Y4436
X49568
X48388Y5206
X46888Y437
X45708Y1207
X44528
X43348Y437
X68896Y9353
Y12790
Y16227
X67716Y15457
X66536
X65356Y16227
Y12790
X66536Y12020
X67716
Y8583
X66536
X65356Y9353
X51928Y8185
X50748Y7415
X49568
X48388Y8185
X46888Y6395
X45708Y7165
X44528
X43348Y6395
X20776Y11120
X19596Y11890
X18416
X17236Y11120
X9881Y30844
X8701Y31614
X7521
X6341Y30844
Y34545
X7521Y35315
X8701
X9881Y34545
T10
X69488Y5984
X64764
X21969Y9409
X17244
T11
X42283Y9980
Y19232
X39961Y42520
X30709
T12
X1575Y1378
X26969
X35630
X40945
X77559
X35630Y13976
X26969
X24409Y38386
X1575
Y57677
X24409
X40945
X77559
T13
X6843Y2677
X12843Y2677
Y8583
X6843
T14
X17763Y26772
X21043
Y31339
X17763
X26043
X29323
Y26772
X26043
T15
X60551Y42276
Y48276
T16
X18150Y14921
Y18465
M30
