G04*
G04 #@! TF.GenerationSoftware,Altium Limited,Altium Designer,22.11.1 (43)*
G04*
G04 Layer_Color=255*
%FSLAX25Y25*%
%MOIN*%
G70*
G04*
G04 #@! TF.SameCoordinates,E00A9952-D2AD-4094-941F-04495088175D*
G04*
G04*
G04 #@! TF.FilePolarity,Positive*
G04*
G01*
G75*
%ADD27R,0.02756X0.01575*%
%ADD28R,0.05512X0.08661*%
%ADD29R,0.03543X0.03937*%
%ADD30R,0.12323X0.12323*%
%ADD31O,0.03347X0.00787*%
%ADD32O,0.00787X0.03347*%
%ADD33R,0.03740X0.03347*%
%ADD34R,0.04724X0.04724*%
%ADD35R,0.05512X0.05118*%
%ADD36R,0.04154X0.02057*%
G04:AMPARAMS|DCode=37|XSize=41.54mil|YSize=20.57mil|CornerRadius=10.29mil|HoleSize=0mil|Usage=FLASHONLY|Rotation=0.000|XOffset=0mil|YOffset=0mil|HoleType=Round|Shape=RoundedRectangle|*
%AMROUNDEDRECTD37*
21,1,0.04154,0.00000,0,0,0.0*
21,1,0.02098,0.02057,0,0,0.0*
1,1,0.02057,0.01049,0.00000*
1,1,0.02057,-0.01049,0.00000*
1,1,0.02057,-0.01049,0.00000*
1,1,0.02057,0.01049,0.00000*
%
%ADD37ROUNDEDRECTD37*%
%ADD38R,0.03347X0.03740*%
%ADD39R,0.39370X0.59055*%
%ADD40R,0.03937X0.03543*%
G04:AMPARAMS|DCode=41|XSize=21.65mil|YSize=49.21mil|CornerRadius=1.95mil|HoleSize=0mil|Usage=FLASHONLY|Rotation=180.000|XOffset=0mil|YOffset=0mil|HoleType=Round|Shape=RoundedRectangle|*
%AMROUNDEDRECTD41*
21,1,0.02165,0.04532,0,0,180.0*
21,1,0.01776,0.04921,0,0,180.0*
1,1,0.00390,-0.00888,0.02266*
1,1,0.00390,0.00888,0.02266*
1,1,0.00390,0.00888,-0.02266*
1,1,0.00390,-0.00888,-0.02266*
%
%ADD41ROUNDEDRECTD41*%
%ADD42O,0.05906X0.01772*%
%ADD43R,0.02362X0.01968*%
%ADD44R,0.02362X0.01575*%
%ADD45R,0.07874X0.03543*%
%ADD46R,0.09646X0.08465*%
%ADD47R,0.08661X0.05512*%
%ADD48R,0.04528X0.09843*%
%ADD49R,0.02362X0.01968*%
%ADD50R,0.06102X0.09646*%
%ADD51R,0.08661X0.16535*%
G04:AMPARAMS|DCode=52|XSize=21.65mil|YSize=66.93mil|CornerRadius=1.95mil|HoleSize=0mil|Usage=FLASHONLY|Rotation=90.000|XOffset=0mil|YOffset=0mil|HoleType=Round|Shape=RoundedRectangle|*
%AMROUNDEDRECTD52*
21,1,0.02165,0.06303,0,0,90.0*
21,1,0.01776,0.06693,0,0,90.0*
1,1,0.00390,0.03152,0.00888*
1,1,0.00390,0.03152,-0.00888*
1,1,0.00390,-0.03152,-0.00888*
1,1,0.00390,-0.03152,0.00888*
%
%ADD52ROUNDEDRECTD52*%
%ADD53R,0.09843X0.06693*%
%ADD54R,0.00984X0.01575*%
G04:AMPARAMS|DCode=55|XSize=39.37mil|YSize=35.43mil|CornerRadius=0mil|HoleSize=0mil|Usage=FLASHONLY|Rotation=45.000|XOffset=0mil|YOffset=0mil|HoleType=Round|Shape=Rectangle|*
%AMROTATEDRECTD55*
4,1,4,-0.00139,-0.02645,-0.02645,-0.00139,0.00139,0.02645,0.02645,0.00139,-0.00139,-0.02645,0.0*
%
%ADD55ROTATEDRECTD55*%

G04:AMPARAMS|DCode=56|XSize=37.4mil|YSize=33.47mil|CornerRadius=0mil|HoleSize=0mil|Usage=FLASHONLY|Rotation=225.000|XOffset=0mil|YOffset=0mil|HoleType=Round|Shape=Rectangle|*
%AMROTATEDRECTD56*
4,1,4,0.00139,0.02506,0.02506,0.00139,-0.00139,-0.02506,-0.02506,-0.00139,0.00139,0.02506,0.0*
%
%ADD56ROTATEDRECTD56*%

G04:AMPARAMS|DCode=57|XSize=39.37mil|YSize=35.43mil|CornerRadius=0mil|HoleSize=0mil|Usage=FLASHONLY|Rotation=135.000|XOffset=0mil|YOffset=0mil|HoleType=Round|Shape=Rectangle|*
%AMROTATEDRECTD57*
4,1,4,0.02645,-0.00139,0.00139,-0.02645,-0.02645,0.00139,-0.00139,0.02645,0.02645,-0.00139,0.0*
%
%ADD57ROTATEDRECTD57*%

G04:AMPARAMS|DCode=58|XSize=37.4mil|YSize=33.47mil|CornerRadius=0mil|HoleSize=0mil|Usage=FLASHONLY|Rotation=135.000|XOffset=0mil|YOffset=0mil|HoleType=Round|Shape=Rectangle|*
%AMROTATEDRECTD58*
4,1,4,0.02506,-0.00139,0.00139,-0.02506,-0.02506,0.00139,-0.00139,0.02506,0.02506,-0.00139,0.0*
%
%ADD58ROTATEDRECTD58*%

%ADD59R,0.08465X0.09646*%
G04:AMPARAMS|DCode=60|XSize=118.11mil|YSize=165.35mil|CornerRadius=1.77mil|HoleSize=0mil|Usage=FLASHONLY|Rotation=135.000|XOffset=0mil|YOffset=0mil|HoleType=Round|Shape=RoundedRectangle|*
%AMROUNDEDRECTD60*
21,1,0.11811,0.16181,0,0,135.0*
21,1,0.11457,0.16535,0,0,135.0*
1,1,0.00354,0.01670,0.09771*
1,1,0.00354,0.09771,0.01670*
1,1,0.00354,-0.01670,-0.09771*
1,1,0.00354,-0.09771,-0.01670*
%
%ADD60ROUNDEDRECTD60*%
G04:AMPARAMS|DCode=61|XSize=15.75mil|YSize=47.24mil|CornerRadius=1.97mil|HoleSize=0mil|Usage=FLASHONLY|Rotation=225.000|XOffset=0mil|YOffset=0mil|HoleType=Round|Shape=RoundedRectangle|*
%AMROUNDEDRECTD61*
21,1,0.01575,0.04331,0,0,225.0*
21,1,0.01181,0.04724,0,0,225.0*
1,1,0.00394,-0.01949,0.01114*
1,1,0.00394,-0.01114,0.01949*
1,1,0.00394,0.01949,-0.01114*
1,1,0.00394,0.01114,-0.01949*
%
%ADD61ROUNDEDRECTD61*%
G04:AMPARAMS|DCode=62|XSize=90.55mil|YSize=179.13mil|CornerRadius=0mil|HoleSize=0mil|Usage=FLASHONLY|Rotation=135.000|XOffset=0mil|YOffset=0mil|HoleType=Round|Shape=Rectangle|*
%AMROTATEDRECTD62*
4,1,4,0.09535,0.03132,-0.03132,-0.09535,-0.09535,-0.03132,0.03132,0.09535,0.09535,0.03132,0.0*
%
%ADD62ROTATEDRECTD62*%

G04:AMPARAMS|DCode=63|XSize=90.55mil|YSize=179.13mil|CornerRadius=0mil|HoleSize=0mil|Usage=FLASHONLY|Rotation=225.000|XOffset=0mil|YOffset=0mil|HoleType=Round|Shape=Rectangle|*
%AMROTATEDRECTD63*
4,1,4,-0.03132,0.09535,0.09535,-0.03132,0.03132,-0.09535,-0.09535,0.03132,-0.03132,0.09535,0.0*
%
%ADD63ROTATEDRECTD63*%

G04:AMPARAMS|DCode=64|XSize=106.3mil|YSize=51.18mil|CornerRadius=0mil|HoleSize=0mil|Usage=FLASHONLY|Rotation=225.000|XOffset=0mil|YOffset=0mil|HoleType=Round|Shape=Rectangle|*
%AMROTATEDRECTD64*
4,1,4,0.01949,0.05568,0.05568,0.01949,-0.01949,-0.05568,-0.05568,-0.01949,0.01949,0.05568,0.0*
%
%ADD64ROTATEDRECTD64*%

G04:AMPARAMS|DCode=65|XSize=32.68mil|YSize=24.61mil|CornerRadius=0mil|HoleSize=0mil|Usage=FLASHONLY|Rotation=315.000|XOffset=0mil|YOffset=0mil|HoleType=Round|Shape=Rectangle|*
%AMROTATEDRECTD65*
4,1,4,-0.02025,0.00285,-0.00285,0.02025,0.02025,-0.00285,0.00285,-0.02025,-0.02025,0.00285,0.0*
%
%ADD65ROTATEDRECTD65*%

%ADD66R,0.04724X0.04724*%
G04:AMPARAMS|DCode=67|XSize=55.12mil|YSize=51.18mil|CornerRadius=0mil|HoleSize=0mil|Usage=FLASHONLY|Rotation=135.000|XOffset=0mil|YOffset=0mil|HoleType=Round|Shape=Rectangle|*
%AMROTATEDRECTD67*
4,1,4,0.03758,-0.00139,0.00139,-0.03758,-0.03758,0.00139,-0.00139,0.03758,0.03758,-0.00139,0.0*
%
%ADD67ROTATEDRECTD67*%

G04:AMPARAMS|DCode=68|XSize=55.12mil|YSize=82.68mil|CornerRadius=13.78mil|HoleSize=0mil|Usage=FLASHONLY|Rotation=90.000|XOffset=0mil|YOffset=0mil|HoleType=Round|Shape=RoundedRectangle|*
%AMROUNDEDRECTD68*
21,1,0.05512,0.05512,0,0,90.0*
21,1,0.02756,0.08268,0,0,90.0*
1,1,0.02756,0.02756,0.01378*
1,1,0.02756,0.02756,-0.01378*
1,1,0.02756,-0.02756,-0.01378*
1,1,0.02756,-0.02756,0.01378*
%
%ADD68ROUNDEDRECTD68*%
%ADD69R,0.05236X0.05236*%
%ADD70R,0.03543X0.07874*%
%ADD71R,0.01968X0.03150*%
%ADD72R,0.05118X0.05512*%
G04:AMPARAMS|DCode=73|XSize=228.35mil|YSize=303.15mil|CornerRadius=2.28mil|HoleSize=0mil|Usage=FLASHONLY|Rotation=270.000|XOffset=0mil|YOffset=0mil|HoleType=Round|Shape=RoundedRectangle|*
%AMROUNDEDRECTD73*
21,1,0.22835,0.29858,0,0,270.0*
21,1,0.22378,0.30315,0,0,270.0*
1,1,0.00457,-0.14929,-0.11189*
1,1,0.00457,-0.14929,0.11189*
1,1,0.00457,0.14929,0.11189*
1,1,0.00457,0.14929,-0.11189*
%
%ADD73ROUNDEDRECTD73*%
G04:AMPARAMS|DCode=74|XSize=39.37mil|YSize=137.8mil|CornerRadius=1.97mil|HoleSize=0mil|Usage=FLASHONLY|Rotation=270.000|XOffset=0mil|YOffset=0mil|HoleType=Round|Shape=RoundedRectangle|*
%AMROUNDEDRECTD74*
21,1,0.03937,0.13386,0,0,270.0*
21,1,0.03543,0.13780,0,0,270.0*
1,1,0.00394,-0.06693,-0.01772*
1,1,0.00394,-0.06693,0.01772*
1,1,0.00394,0.06693,0.01772*
1,1,0.00394,0.06693,-0.01772*
%
%ADD74ROUNDEDRECTD74*%
%ADD75O,0.06299X0.01772*%
%ADD76R,0.32284X0.42323*%
%ADD77R,0.16339X0.04331*%
G04:AMPARAMS|DCode=78|XSize=15.75mil|YSize=11.81mil|CornerRadius=0mil|HoleSize=0mil|Usage=FLASHONLY|Rotation=225.000|XOffset=0mil|YOffset=0mil|HoleType=Round|Shape=Rectangle|*
%AMROTATEDRECTD78*
4,1,4,0.00139,0.00974,0.00974,0.00139,-0.00139,-0.00974,-0.00974,-0.00139,0.00139,0.00974,0.0*
%
%ADD78ROTATEDRECTD78*%

G04:AMPARAMS|DCode=79|XSize=15.75mil|YSize=11.81mil|CornerRadius=0mil|HoleSize=0mil|Usage=FLASHONLY|Rotation=135.000|XOffset=0mil|YOffset=0mil|HoleType=Round|Shape=Rectangle|*
%AMROTATEDRECTD79*
4,1,4,0.00974,-0.00139,0.00139,-0.00974,-0.00974,0.00139,-0.00139,0.00974,0.00974,-0.00139,0.0*
%
%ADD79ROTATEDRECTD79*%

G04:AMPARAMS|DCode=80|XSize=118.11mil|YSize=165.35mil|CornerRadius=1.77mil|HoleSize=0mil|Usage=FLASHONLY|Rotation=225.000|XOffset=0mil|YOffset=0mil|HoleType=Round|Shape=RoundedRectangle|*
%AMROUNDEDRECTD80*
21,1,0.11811,0.16181,0,0,225.0*
21,1,0.11457,0.16535,0,0,225.0*
1,1,0.00354,-0.09771,0.01670*
1,1,0.00354,-0.01670,0.09771*
1,1,0.00354,0.09771,-0.01670*
1,1,0.00354,0.01670,-0.09771*
%
%ADD80ROUNDEDRECTD80*%
G04:AMPARAMS|DCode=81|XSize=15.75mil|YSize=47.24mil|CornerRadius=1.97mil|HoleSize=0mil|Usage=FLASHONLY|Rotation=315.000|XOffset=0mil|YOffset=0mil|HoleType=Round|Shape=RoundedRectangle|*
%AMROUNDEDRECTD81*
21,1,0.01575,0.04331,0,0,315.0*
21,1,0.01181,0.04724,0,0,315.0*
1,1,0.00394,-0.01114,-0.01949*
1,1,0.00394,-0.01949,-0.01114*
1,1,0.00394,0.01114,0.01949*
1,1,0.00394,0.01949,0.01114*
%
%ADD81ROUNDEDRECTD81*%
%ADD82R,0.16535X0.08661*%
%ADD83R,0.05512X0.01772*%
%ADD84R,0.06299X0.12205*%
%ADD85R,0.05118X0.10630*%
G04:AMPARAMS|DCode=86|XSize=17.72mil|YSize=55.12mil|CornerRadius=0mil|HoleSize=0mil|Usage=FLASHONLY|Rotation=135.000|XOffset=0mil|YOffset=0mil|HoleType=Round|Shape=Rectangle|*
%AMROTATEDRECTD86*
4,1,4,0.02575,0.01322,-0.01322,-0.02575,-0.02575,-0.01322,0.01322,0.02575,0.02575,0.01322,0.0*
%
%ADD86ROTATEDRECTD86*%

G04:AMPARAMS|DCode=87|XSize=122.05mil|YSize=62.99mil|CornerRadius=0mil|HoleSize=0mil|Usage=FLASHONLY|Rotation=315.000|XOffset=0mil|YOffset=0mil|HoleType=Round|Shape=Rectangle|*
%AMROTATEDRECTD87*
4,1,4,-0.06542,0.02088,-0.02088,0.06542,0.06542,-0.02088,0.02088,-0.06542,-0.06542,0.02088,0.0*
%
%ADD87ROTATEDRECTD87*%

%ADD88R,0.12205X0.06299*%
%ADD89R,0.01772X0.05512*%
%ADD90R,0.11024X0.06299*%
%ADD91R,0.19685X0.12205*%
%ADD92R,0.07087X0.05118*%
%ADD93O,0.05709X0.02362*%
G04:AMPARAMS|DCode=94|XSize=143.7mil|YSize=62.99mil|CornerRadius=0mil|HoleSize=0mil|Usage=FLASHONLY|Rotation=315.000|XOffset=0mil|YOffset=0mil|HoleType=Round|Shape=Rectangle|*
%AMROTATEDRECTD94*
4,1,4,-0.07308,0.02854,-0.02854,0.07308,0.07308,-0.02854,0.02854,-0.07308,-0.07308,0.02854,0.0*
%
%ADD94ROTATEDRECTD94*%

G04:AMPARAMS|DCode=95|XSize=70.87mil|YSize=51.18mil|CornerRadius=0mil|HoleSize=0mil|Usage=FLASHONLY|Rotation=45.000|XOffset=0mil|YOffset=0mil|HoleType=Round|Shape=Rectangle|*
%AMROTATEDRECTD95*
4,1,4,-0.00696,-0.04315,-0.04315,-0.00696,0.00696,0.04315,0.04315,0.00696,-0.00696,-0.04315,0.0*
%
%ADD95ROTATEDRECTD95*%

G04:AMPARAMS|DCode=96|XSize=19.68mil|YSize=53.15mil|CornerRadius=0mil|HoleSize=0mil|Usage=FLASHONLY|Rotation=315.000|XOffset=0mil|YOffset=0mil|HoleType=Round|Shape=Round|*
%AMOVALD96*
21,1,0.03347,0.01968,0.00000,0.00000,45.0*
1,1,0.01968,-0.01183,-0.01183*
1,1,0.01968,0.01183,0.01183*
%
%ADD96OVALD96*%

%ADD97R,0.06299X0.11024*%
%ADD98R,0.03740X0.02362*%
%ADD99R,0.05118X0.07087*%
%ADD100R,0.02756X0.03543*%
%ADD101R,0.04331X0.16339*%
%ADD102R,0.42323X0.32284*%
%ADD103R,0.12598X0.06299*%
%ADD104R,0.17913X0.09055*%
G04:AMPARAMS|DCode=122|XSize=31.5mil|YSize=21.65mil|CornerRadius=0mil|HoleSize=0mil|Usage=FLASHONLY|Rotation=135.000|XOffset=0mil|YOffset=0mil|HoleType=Round|Shape=Rectangle|*
%AMROTATEDRECTD122*
4,1,4,0.01879,-0.00348,0.00348,-0.01879,-0.01879,0.00348,-0.00348,0.01879,0.01879,-0.00348,0.0*
%
%ADD122ROTATEDRECTD122*%

%ADD123R,0.03150X0.02165*%
%ADD197C,0.04724*%
%ADD198C,0.06102*%
%ADD199R,0.06102X0.06102*%
G04:AMPARAMS|DCode=201|XSize=111.42mil|YSize=35.43mil|CornerRadius=0mil|HoleSize=0mil|Usage=FLASHONLY|Rotation=45.000|XOffset=0mil|YOffset=0mil|HoleType=Round|Shape=Rectangle|*
%AMROTATEDRECTD201*
4,1,4,-0.02686,-0.05192,-0.05192,-0.02686,0.02686,0.05192,0.05192,0.02686,-0.02686,-0.05192,0.0*
%
%ADD201ROTATEDRECTD201*%

G04:AMPARAMS|DCode=202|XSize=111.42mil|YSize=86.61mil|CornerRadius=0mil|HoleSize=0mil|Usage=FLASHONLY|Rotation=45.000|XOffset=0mil|YOffset=0mil|HoleType=Round|Shape=Rectangle|*
%AMROTATEDRECTD202*
4,1,4,-0.00877,-0.07001,-0.07001,-0.00877,0.00877,0.07001,0.07001,0.00877,-0.00877,-0.07001,0.0*
%
%ADD202ROTATEDRECTD202*%

G04:AMPARAMS|DCode=203|XSize=145.67mil|YSize=62.99mil|CornerRadius=0mil|HoleSize=0mil|Usage=FLASHONLY|Rotation=315.000|XOffset=0mil|YOffset=0mil|HoleType=Round|Shape=Rectangle|*
%AMROTATEDRECTD203*
4,1,4,-0.07377,0.02923,-0.02923,0.07377,0.07377,-0.02923,0.02923,-0.07377,-0.07377,0.02923,0.0*
%
%ADD203ROTATEDRECTD203*%

%ADD206C,0.06693*%
%ADD207C,0.11811*%
%ADD208C,0.01673*%
%ADD209O,0.05906X0.05906*%
%ADD210O,0.03543X0.06299*%
%ADD211R,0.07500X0.07500*%
%ADD212C,0.07500*%
%ADD213C,0.03937*%
%ADD214R,0.30000X0.30000*%
%ADD215C,0.30000*%
%ADD216C,0.35000*%
%ADD217R,0.35000X0.35000*%
%ADD218C,0.20000*%
%ADD219C,0.06000*%
%ADD220C,0.05000*%
%ADD221C,0.08000*%
%ADD222R,0.08000X0.08000*%
D27*
X294488Y133071D02*
D03*
Y130315D02*
D03*
Y139567D02*
D03*
Y142323D02*
D03*
Y125000D02*
D03*
Y122244D02*
D03*
X220866Y185630D02*
D03*
Y188386D02*
D03*
Y199213D02*
D03*
Y196457D02*
D03*
Y204528D02*
D03*
Y207283D02*
D03*
X304331Y222835D02*
D03*
Y220079D02*
D03*
D28*
X50394Y364961D02*
D03*
X75984Y299213D02*
D03*
X86614D02*
D03*
X39370Y364961D02*
D03*
D29*
X50295Y316929D02*
D03*
X44980D02*
D03*
X38484Y379528D02*
D03*
X33169D02*
D03*
X50295Y309449D02*
D03*
X44980D02*
D03*
X28051Y324409D02*
D03*
X33366D02*
D03*
Y331890D02*
D03*
X28051D02*
D03*
X33169Y387008D02*
D03*
X38484D02*
D03*
X61122Y409449D02*
D03*
X66437D02*
D03*
X181595Y344488D02*
D03*
X186909D02*
D03*
X181595Y384252D02*
D03*
X186909D02*
D03*
X265453Y481102D02*
D03*
X270768D02*
D03*
X265453Y488583D02*
D03*
X270768D02*
D03*
X265453Y496063D02*
D03*
X270768D02*
D03*
X265453Y503543D02*
D03*
X270768D02*
D03*
X209547Y513386D02*
D03*
X214862D02*
D03*
X209550Y488721D02*
D03*
X214865D02*
D03*
X247146Y557874D02*
D03*
X241831D02*
D03*
X209744Y521260D02*
D03*
X204429D02*
D03*
X213484Y553543D02*
D03*
X218799D02*
D03*
X66437Y416929D02*
D03*
X61122D02*
D03*
X747638Y66929D02*
D03*
X742323D02*
D03*
X422835Y224410D02*
D03*
X417520D02*
D03*
X622441Y78740D02*
D03*
X617126D02*
D03*
X277658Y31496D02*
D03*
X282972D02*
D03*
X278051Y62205D02*
D03*
X283366D02*
D03*
X741535Y33858D02*
D03*
X746850D02*
D03*
X771063Y505118D02*
D03*
X776378D02*
D03*
D30*
X25492Y301181D02*
D03*
X42815Y408661D02*
D03*
D31*
X15945Y295276D02*
D03*
Y297244D02*
D03*
Y299213D02*
D03*
Y301181D02*
D03*
Y303150D02*
D03*
Y305118D02*
D03*
Y307087D02*
D03*
X35039D02*
D03*
Y305118D02*
D03*
Y303150D02*
D03*
Y301181D02*
D03*
Y299213D02*
D03*
Y297244D02*
D03*
Y295276D02*
D03*
X33268Y402756D02*
D03*
Y404724D02*
D03*
Y406693D02*
D03*
Y408661D02*
D03*
Y410630D02*
D03*
Y412598D02*
D03*
Y414567D02*
D03*
X52362D02*
D03*
Y412598D02*
D03*
Y410630D02*
D03*
Y408661D02*
D03*
Y406693D02*
D03*
Y404724D02*
D03*
Y402756D02*
D03*
D32*
X19587Y310728D02*
D03*
X21555D02*
D03*
X23524D02*
D03*
X25492D02*
D03*
X27461D02*
D03*
X29429D02*
D03*
X31398D02*
D03*
Y291634D02*
D03*
X29429D02*
D03*
X27461D02*
D03*
X25492D02*
D03*
X23524D02*
D03*
X21555D02*
D03*
X19587D02*
D03*
X36909Y418209D02*
D03*
X38878D02*
D03*
X40846D02*
D03*
X42815D02*
D03*
X44783D02*
D03*
X46752D02*
D03*
X48720D02*
D03*
Y399114D02*
D03*
X46752D02*
D03*
X44783D02*
D03*
X42815D02*
D03*
X40846D02*
D03*
X38878D02*
D03*
X36909D02*
D03*
D33*
X153937Y434449D02*
D03*
Y439567D02*
D03*
X145276Y434449D02*
D03*
Y439567D02*
D03*
X11811Y430512D02*
D03*
Y435630D02*
D03*
X257874Y537205D02*
D03*
Y532087D02*
D03*
X434546Y557480D02*
D03*
X256299Y42126D02*
D03*
Y47244D02*
D03*
X647638Y206737D02*
D03*
X647638Y201619D02*
D03*
X639590Y206737D02*
D03*
Y201619D02*
D03*
X443601Y557480D02*
D03*
Y552362D02*
D03*
X434546D02*
D03*
X452756Y557480D02*
D03*
Y552362D02*
D03*
X227165Y572047D02*
D03*
Y566929D02*
D03*
X218110Y580905D02*
D03*
Y575787D02*
D03*
X391732Y579744D02*
D03*
Y574626D02*
D03*
X261024Y579744D02*
D03*
Y574626D02*
D03*
X89764Y472244D02*
D03*
Y477362D02*
D03*
X344094Y39764D02*
D03*
Y34646D02*
D03*
X74803Y472244D02*
D03*
Y477362D02*
D03*
X209449Y165354D02*
D03*
Y160236D02*
D03*
X256299Y80118D02*
D03*
Y75000D02*
D03*
X369685Y250000D02*
D03*
Y244882D02*
D03*
X348819Y354331D02*
D03*
Y349213D02*
D03*
X721654Y53543D02*
D03*
Y48425D02*
D03*
X721654Y86614D02*
D03*
Y81496D02*
D03*
X285039Y108268D02*
D03*
Y103150D02*
D03*
X358268Y199606D02*
D03*
Y194488D02*
D03*
X602756Y56496D02*
D03*
Y51378D02*
D03*
X603150Y15748D02*
D03*
Y10630D02*
D03*
X293307Y516732D02*
D03*
Y521850D02*
D03*
X285827Y516732D02*
D03*
Y521850D02*
D03*
D34*
X127362Y435827D02*
D03*
X135630D02*
D03*
Y445669D02*
D03*
X127362D02*
D03*
X201378Y566929D02*
D03*
X209646D02*
D03*
Y575984D02*
D03*
X201378D02*
D03*
X46260Y524803D02*
D03*
X54528D02*
D03*
Y534252D02*
D03*
X46260D02*
D03*
Y515354D02*
D03*
X54528D02*
D03*
D35*
X712992Y87008D02*
D03*
Y80709D02*
D03*
X77953Y456693D02*
D03*
Y450394D02*
D03*
X291339Y47244D02*
D03*
Y40945D02*
D03*
X247244Y48425D02*
D03*
Y42126D02*
D03*
X248031Y80709D02*
D03*
Y74410D02*
D03*
X292520Y77559D02*
D03*
Y71260D02*
D03*
X755118Y48819D02*
D03*
Y42520D02*
D03*
X713386Y54134D02*
D03*
Y47835D02*
D03*
X755905Y81496D02*
D03*
Y75197D02*
D03*
X293701Y112205D02*
D03*
Y105905D02*
D03*
X366929Y203543D02*
D03*
Y197244D02*
D03*
D36*
X20569Y436024D02*
D03*
X9152Y417126D02*
D03*
D37*
X20569Y428543D02*
D03*
X27463Y432283D02*
D03*
X9152Y409646D02*
D03*
X16045Y413386D02*
D03*
D38*
X13189Y402362D02*
D03*
X8071D02*
D03*
X186811Y372047D02*
D03*
X181693D02*
D03*
X187598Y357480D02*
D03*
X182480D02*
D03*
X213976Y505512D02*
D03*
X208858D02*
D03*
X213976Y496850D02*
D03*
X208858D02*
D03*
X214764Y531102D02*
D03*
X209646D02*
D03*
X214764Y540158D02*
D03*
X209646D02*
D03*
X265945Y524409D02*
D03*
X260827D02*
D03*
X312205Y487008D02*
D03*
X307087D02*
D03*
X307283Y479528D02*
D03*
X312402D02*
D03*
X477953Y107087D02*
D03*
X483071D02*
D03*
X478150Y99606D02*
D03*
X483268D02*
D03*
X271457Y536221D02*
D03*
X276575D02*
D03*
X289764Y549606D02*
D03*
X294882D02*
D03*
X62598Y534252D02*
D03*
X67716D02*
D03*
X62598Y524803D02*
D03*
X67716D02*
D03*
X62598Y515354D02*
D03*
X67716D02*
D03*
X687795Y469291D02*
D03*
X682677D02*
D03*
X619685Y119685D02*
D03*
X624803D02*
D03*
X766142Y116929D02*
D03*
X771260D02*
D03*
X764173Y146850D02*
D03*
X769291D02*
D03*
X771457Y497638D02*
D03*
X776575D02*
D03*
X771260Y512598D02*
D03*
X776378D02*
D03*
X624803Y508661D02*
D03*
X629921D02*
D03*
X771654Y490158D02*
D03*
X776772D02*
D03*
D39*
X727559Y556693D02*
D03*
X751968Y305906D02*
D03*
D40*
X219586Y393307D02*
D03*
Y387992D02*
D03*
X212205Y393209D02*
D03*
Y387894D02*
D03*
X204724Y393209D02*
D03*
Y387894D02*
D03*
X197244Y393209D02*
D03*
Y387894D02*
D03*
X257087Y549705D02*
D03*
Y555020D02*
D03*
X264567Y549705D02*
D03*
Y555020D02*
D03*
X272047Y549705D02*
D03*
Y555020D02*
D03*
X608268Y272047D02*
D03*
Y266732D02*
D03*
X433465Y450000D02*
D03*
Y444685D02*
D03*
X434252Y213976D02*
D03*
Y208661D02*
D03*
X631542Y206324D02*
D03*
Y201009D02*
D03*
X384252Y574016D02*
D03*
Y579331D02*
D03*
X268898Y574016D02*
D03*
Y579331D02*
D03*
X385039Y540748D02*
D03*
Y535433D02*
D03*
X64961Y554331D02*
D03*
Y559646D02*
D03*
X81496Y554331D02*
D03*
Y559646D02*
D03*
X73622Y554331D02*
D03*
Y559646D02*
D03*
X303937Y36713D02*
D03*
Y42028D02*
D03*
X82284Y472146D02*
D03*
Y477461D02*
D03*
X283071Y46654D02*
D03*
Y41339D02*
D03*
X284252Y76968D02*
D03*
Y71653D02*
D03*
X746850Y48228D02*
D03*
Y42913D02*
D03*
X747638Y81102D02*
D03*
Y75787D02*
D03*
X737008Y151181D02*
D03*
Y156496D02*
D03*
Y126279D02*
D03*
Y120965D02*
D03*
X259842Y111811D02*
D03*
Y106496D02*
D03*
X331890Y203346D02*
D03*
Y198031D02*
D03*
X576772Y60138D02*
D03*
Y54823D02*
D03*
X577165Y18898D02*
D03*
Y13583D02*
D03*
X304095Y533071D02*
D03*
Y527756D02*
D03*
X311575Y533071D02*
D03*
Y527756D02*
D03*
D41*
X197224Y359350D02*
D03*
X202224D02*
D03*
X207224D02*
D03*
X212224D02*
D03*
X197224Y380020D02*
D03*
X202224D02*
D03*
X207224D02*
D03*
X212224D02*
D03*
X231476Y489272D02*
D03*
X236476D02*
D03*
X241476D02*
D03*
X246476D02*
D03*
X231476Y509941D02*
D03*
X236476D02*
D03*
X241476D02*
D03*
X246476D02*
D03*
X232264Y525098D02*
D03*
X237264D02*
D03*
X242264D02*
D03*
X247264D02*
D03*
X232264Y545768D02*
D03*
X237264D02*
D03*
X242264D02*
D03*
X247264D02*
D03*
D42*
X314961Y138189D02*
D03*
Y140748D02*
D03*
Y143307D02*
D03*
Y133071D02*
D03*
Y135630D02*
D03*
D43*
X430315Y580709D02*
D03*
X437402D02*
D03*
X451968D02*
D03*
X459055D02*
D03*
Y575591D02*
D03*
X451968D02*
D03*
X437402D02*
D03*
X430315D02*
D03*
D44*
Y578150D02*
D03*
X451968D02*
D03*
X459055D02*
D03*
X437402D02*
D03*
D45*
X163386Y524449D02*
D03*
Y559449D02*
D03*
Y554449D02*
D03*
Y549449D02*
D03*
Y544449D02*
D03*
Y539449D02*
D03*
Y534449D02*
D03*
Y529449D02*
D03*
Y519449D02*
D03*
Y514449D02*
D03*
Y509449D02*
D03*
Y504449D02*
D03*
Y499449D02*
D03*
Y494449D02*
D03*
X96457D02*
D03*
Y499449D02*
D03*
Y504449D02*
D03*
Y509449D02*
D03*
Y514449D02*
D03*
Y519449D02*
D03*
Y524449D02*
D03*
Y529449D02*
D03*
Y534449D02*
D03*
Y539449D02*
D03*
Y544449D02*
D03*
Y549449D02*
D03*
Y554449D02*
D03*
Y559449D02*
D03*
D46*
X37992Y498425D02*
D03*
X21063D02*
D03*
X407283Y211024D02*
D03*
X390354D02*
D03*
D47*
X135039Y470472D02*
D03*
X111417Y469291D02*
D03*
X394488Y532283D02*
D03*
X190157Y584646D02*
D03*
X393307Y521654D02*
D03*
X193701Y555905D02*
D03*
D48*
X232185Y63779D02*
D03*
X219783D02*
D03*
X229823Y29134D02*
D03*
X217421D02*
D03*
D49*
X285197Y536221D02*
D03*
Y533071D02*
D03*
Y529921D02*
D03*
X294882D02*
D03*
Y533071D02*
D03*
Y536221D02*
D03*
D50*
X290039Y533071D02*
D03*
D51*
X278346Y385236D02*
D03*
Y413976D02*
D03*
X352362Y86221D02*
D03*
Y114961D02*
D03*
X278346Y435433D02*
D03*
Y464173D02*
D03*
D52*
X371850Y505728D02*
D03*
Y510728D02*
D03*
Y515728D02*
D03*
Y520728D02*
D03*
Y525728D02*
D03*
Y530728D02*
D03*
Y535728D02*
D03*
Y540728D02*
D03*
X335236Y505728D02*
D03*
Y510728D02*
D03*
Y515728D02*
D03*
Y520728D02*
D03*
Y525728D02*
D03*
Y530728D02*
D03*
Y535728D02*
D03*
Y540728D02*
D03*
D53*
X734252Y48425D02*
D03*
X269291Y46457D02*
D03*
X269291Y76575D02*
D03*
X734646Y81299D02*
D03*
D54*
X730315Y54921D02*
D03*
X732283D02*
D03*
X734252Y54921D02*
D03*
X736221Y54921D02*
D03*
X738189D02*
D03*
Y41929D02*
D03*
X736221D02*
D03*
X734252D02*
D03*
X732283D02*
D03*
X730315D02*
D03*
X265354Y39961D02*
D03*
X267323D02*
D03*
X269291D02*
D03*
X271260D02*
D03*
X273228D02*
D03*
Y52953D02*
D03*
X271260D02*
D03*
X269291Y52953D02*
D03*
X267323Y52953D02*
D03*
X265354D02*
D03*
X265354Y70079D02*
D03*
X267323D02*
D03*
X269291Y70079D02*
D03*
X271260Y70079D02*
D03*
X273228D02*
D03*
Y83071D02*
D03*
X271260D02*
D03*
X269291D02*
D03*
X267323D02*
D03*
X265354D02*
D03*
X730709Y74803D02*
D03*
X732677D02*
D03*
X734646D02*
D03*
X736614Y74803D02*
D03*
X738583D02*
D03*
Y87795D02*
D03*
X736614D02*
D03*
X734646Y87795D02*
D03*
X732677D02*
D03*
X730709D02*
D03*
D55*
X487974Y455727D02*
D03*
X491732Y451968D02*
D03*
X455113Y259825D02*
D03*
X451354Y263583D02*
D03*
X460540Y265050D02*
D03*
X456782Y268808D02*
D03*
X449475Y254327D02*
D03*
X445717Y258085D02*
D03*
X473228Y245276D02*
D03*
X469470Y249034D02*
D03*
X643003Y271564D02*
D03*
X646761Y267806D02*
D03*
X648210Y276593D02*
D03*
X651968Y272835D02*
D03*
X129080Y358786D02*
D03*
X125322Y362544D02*
D03*
X57369Y283979D02*
D03*
X61127Y280221D02*
D03*
X106558Y230471D02*
D03*
X102800Y234229D02*
D03*
D56*
X502991Y436773D02*
D03*
X499372Y440392D02*
D03*
X493625Y434721D02*
D03*
X497244Y431102D02*
D03*
X462129Y402044D02*
D03*
X465748Y398425D02*
D03*
X465589Y270631D02*
D03*
X461970Y274251D02*
D03*
X155805Y389409D02*
D03*
X159424Y385790D02*
D03*
D57*
X497333Y189853D02*
D03*
X501092Y193611D02*
D03*
X445289Y456706D02*
D03*
X449048Y460465D02*
D03*
X494118Y415740D02*
D03*
X497876Y419498D02*
D03*
X483881Y426370D02*
D03*
X487640Y430128D02*
D03*
X489171Y421080D02*
D03*
X492929Y424839D02*
D03*
X675769Y265927D02*
D03*
X679528Y269685D02*
D03*
X678561Y247459D02*
D03*
X674803Y243701D02*
D03*
X472137Y404814D02*
D03*
X475895Y408572D02*
D03*
D58*
X492277Y195096D02*
D03*
X495896Y198715D02*
D03*
X440082Y461735D02*
D03*
X443701Y465354D02*
D03*
X454724Y455905D02*
D03*
X458344Y459525D02*
D03*
X460236Y450787D02*
D03*
X463855Y454406D02*
D03*
X499769Y410367D02*
D03*
X503388Y413986D02*
D03*
X482125Y243542D02*
D03*
X478505Y239923D02*
D03*
X441104Y263938D02*
D03*
X444723Y267558D02*
D03*
X469844Y219057D02*
D03*
X473463Y222676D02*
D03*
X430709Y233465D02*
D03*
X434328Y237084D02*
D03*
X428740Y241732D02*
D03*
X432359Y245351D02*
D03*
X681046Y260574D02*
D03*
X684665Y264193D02*
D03*
X669844Y270631D02*
D03*
X673463Y274251D02*
D03*
X664567Y275590D02*
D03*
X668186Y279210D02*
D03*
D59*
X420079Y444685D02*
D03*
Y461614D02*
D03*
D60*
X457968Y424383D02*
D03*
D61*
X457759Y408307D02*
D03*
X459569Y410116D02*
D03*
X461378Y411926D02*
D03*
X463188Y413735D02*
D03*
X464997Y415545D02*
D03*
X466807Y417354D02*
D03*
X468617Y419164D02*
D03*
X470426Y420973D02*
D03*
X472236Y422783D02*
D03*
X474045Y424592D02*
D03*
X441891Y424175D02*
D03*
X443701Y425984D02*
D03*
X445510Y427794D02*
D03*
X447320Y429603D02*
D03*
X449129Y431413D02*
D03*
X450939Y433222D02*
D03*
X452748Y435032D02*
D03*
X454558Y436841D02*
D03*
X456367Y438651D02*
D03*
X458177Y440460D02*
D03*
D62*
X490676Y384964D02*
D03*
X469519Y363806D02*
D03*
D63*
X503731Y263417D02*
D03*
X482573Y284575D02*
D03*
D64*
X494921Y235394D02*
D03*
X502716Y227599D02*
D03*
D65*
X680368Y237848D02*
D03*
X686562Y244042D02*
D03*
D66*
X434646Y543898D02*
D03*
Y535630D02*
D03*
X443701Y543898D02*
D03*
Y535630D02*
D03*
X452856Y543898D02*
D03*
Y535630D02*
D03*
D67*
X667975Y225062D02*
D03*
X663521Y220607D02*
D03*
X656828Y226907D02*
D03*
X661282Y231361D02*
D03*
D68*
X316339Y585039D02*
D03*
Y567323D02*
D03*
X280512D02*
D03*
Y585039D02*
D03*
X372835D02*
D03*
Y567323D02*
D03*
X337008D02*
D03*
Y585039D02*
D03*
D69*
X133209Y522697D02*
D03*
X125984D02*
D03*
X118760D02*
D03*
X133209Y529921D02*
D03*
X125984D02*
D03*
X118760D02*
D03*
X133209Y537146D02*
D03*
X125984D02*
D03*
X118760D02*
D03*
D70*
X152421Y490512D02*
D03*
X147421D02*
D03*
X142421D02*
D03*
X137421D02*
D03*
X132421D02*
D03*
X127421D02*
D03*
X122421D02*
D03*
X117421D02*
D03*
X112421D02*
D03*
X107421D02*
D03*
D71*
X55905Y561319D02*
D03*
Y554232D02*
D03*
D72*
X56925Y492339D02*
D03*
X50626D02*
D03*
X764567Y126772D02*
D03*
X770866D02*
D03*
X764173Y155512D02*
D03*
X770472D02*
D03*
X594095Y72835D02*
D03*
X587795D02*
D03*
X593307Y31890D02*
D03*
X587008D02*
D03*
D73*
X20079Y463779D02*
D03*
D74*
X59449Y477165D02*
D03*
Y470472D02*
D03*
Y463779D02*
D03*
Y457087D02*
D03*
Y450394D02*
D03*
D75*
X758465Y477854D02*
D03*
Y475295D02*
D03*
Y472736D02*
D03*
Y470177D02*
D03*
X775394Y477854D02*
D03*
Y475295D02*
D03*
Y472736D02*
D03*
Y470177D02*
D03*
D76*
X684842Y495591D02*
D03*
X390158Y322441D02*
D03*
Y276772D02*
D03*
D77*
X643701Y486614D02*
D03*
Y504567D02*
D03*
X349016Y313465D02*
D03*
Y331417D02*
D03*
X349016Y267795D02*
D03*
Y285748D02*
D03*
D78*
X661299Y265123D02*
D03*
X663108Y263314D02*
D03*
X664918Y261504D02*
D03*
X666727Y259695D02*
D03*
X668537Y257885D02*
D03*
X670346Y256076D02*
D03*
X654200Y239929D02*
D03*
X652390Y241739D02*
D03*
X650581Y243548D02*
D03*
X648771Y245358D02*
D03*
X646962Y247167D02*
D03*
X645152Y248977D02*
D03*
D79*
X670764Y252178D02*
D03*
X668954Y250369D02*
D03*
X667145Y248559D02*
D03*
X665335Y246749D02*
D03*
X663526Y244940D02*
D03*
X661716Y243130D02*
D03*
X659907Y241321D02*
D03*
X658097Y239511D02*
D03*
X644735Y252874D02*
D03*
X646544Y254684D02*
D03*
X648354Y256493D02*
D03*
X650163Y258303D02*
D03*
X651973Y260112D02*
D03*
X653782Y261922D02*
D03*
X655592Y263731D02*
D03*
X657401Y265541D02*
D03*
D80*
X451036Y228455D02*
D03*
D81*
X467113Y228247D02*
D03*
X465304Y230056D02*
D03*
X463494Y231866D02*
D03*
X461685Y233675D02*
D03*
X459875Y235485D02*
D03*
X458066Y237294D02*
D03*
X456256Y239104D02*
D03*
X454447Y240914D02*
D03*
X452637Y242723D02*
D03*
X450828Y244532D02*
D03*
X451245Y212379D02*
D03*
X449436Y214188D02*
D03*
X447626Y215998D02*
D03*
X445817Y217807D02*
D03*
X444007Y219617D02*
D03*
X442198Y221426D02*
D03*
X440388Y223236D02*
D03*
X438579Y225045D02*
D03*
X436769Y226855D02*
D03*
X434960Y228664D02*
D03*
D82*
X369685Y46457D02*
D03*
X398425Y46457D02*
D03*
X589370Y169685D02*
D03*
X560630Y169685D02*
D03*
X611417Y169685D02*
D03*
X640158Y169685D02*
D03*
D83*
X336024Y37106D02*
D03*
Y39665D02*
D03*
Y42224D02*
D03*
Y44783D02*
D03*
X312795Y37106D02*
D03*
Y39665D02*
D03*
Y42224D02*
D03*
Y44783D02*
D03*
D84*
X337205Y57874D02*
D03*
X311614D02*
D03*
D85*
X440551Y387008D02*
D03*
X429528D02*
D03*
D86*
X151699Y381544D02*
D03*
X149890Y383354D02*
D03*
X148080Y385164D02*
D03*
X146270Y386973D02*
D03*
X135274Y365120D02*
D03*
X133465Y366929D02*
D03*
X131655Y368739D02*
D03*
X129845Y370548D02*
D03*
D87*
X137571Y397343D02*
D03*
X119475Y379248D02*
D03*
D88*
X601575Y112402D02*
D03*
Y86811D02*
D03*
D89*
X622342Y111221D02*
D03*
X619783D02*
D03*
X617224D02*
D03*
X614665D02*
D03*
X622342Y87992D02*
D03*
X619783D02*
D03*
X617224D02*
D03*
X614665D02*
D03*
D90*
X592126Y138976D02*
D03*
X575197D02*
D03*
X608661D02*
D03*
X625591D02*
D03*
D91*
X601575Y198031D02*
D03*
Y253937D02*
D03*
D92*
X379134Y249016D02*
D03*
Y237598D02*
D03*
X428346Y352559D02*
D03*
Y363976D02*
D03*
D93*
X412303Y350768D02*
D03*
Y355768D02*
D03*
Y360768D02*
D03*
Y365768D02*
D03*
X390846Y350768D02*
D03*
X390846Y355768D02*
D03*
Y360768D02*
D03*
X390846Y365768D02*
D03*
X397539Y248839D02*
D03*
Y243839D02*
D03*
Y238839D02*
D03*
Y233839D02*
D03*
X418996Y248839D02*
D03*
Y243839D02*
D03*
Y238839D02*
D03*
Y233839D02*
D03*
D94*
X51592Y247162D02*
D03*
X69270Y264840D02*
D03*
X97719Y196578D02*
D03*
X115397Y214255D02*
D03*
D95*
X67391Y286763D02*
D03*
X59318Y294836D02*
D03*
X113657Y237292D02*
D03*
X105583Y245365D02*
D03*
D96*
X38856Y265049D02*
D03*
X40666Y263239D02*
D03*
X42475Y261430D02*
D03*
X44285Y259620D02*
D03*
X51245Y277437D02*
D03*
X53054Y275627D02*
D03*
X54864Y273818D02*
D03*
X56673Y272008D02*
D03*
X84008Y215021D02*
D03*
X85818Y213211D02*
D03*
X87627Y211402D02*
D03*
X89437Y209592D02*
D03*
X96397Y227409D02*
D03*
X98206Y225599D02*
D03*
X100016Y223790D02*
D03*
X101825Y221980D02*
D03*
D97*
X721260Y162992D02*
D03*
Y146063D02*
D03*
Y114764D02*
D03*
Y131693D02*
D03*
X244094Y101575D02*
D03*
Y118504D02*
D03*
X316142Y192520D02*
D03*
Y209449D02*
D03*
X561024Y60630D02*
D03*
Y43701D02*
D03*
X560630Y8268D02*
D03*
Y25197D02*
D03*
D98*
X754429Y126575D02*
D03*
Y122835D02*
D03*
Y119095D02*
D03*
X743996D02*
D03*
Y122835D02*
D03*
Y126575D02*
D03*
X755217Y150591D02*
D03*
Y146850D02*
D03*
Y143110D02*
D03*
X744783D02*
D03*
Y146850D02*
D03*
Y150591D02*
D03*
X277658Y112008D02*
D03*
Y108268D02*
D03*
Y104528D02*
D03*
X267224D02*
D03*
Y108268D02*
D03*
Y112008D02*
D03*
X350098Y203346D02*
D03*
Y199606D02*
D03*
Y195866D02*
D03*
X339665D02*
D03*
Y199606D02*
D03*
Y203346D02*
D03*
X595669Y60236D02*
D03*
Y56496D02*
D03*
Y52756D02*
D03*
X585236D02*
D03*
Y56496D02*
D03*
Y60236D02*
D03*
X595079Y19291D02*
D03*
Y15551D02*
D03*
Y11811D02*
D03*
X584646D02*
D03*
Y15551D02*
D03*
Y19291D02*
D03*
D99*
X745079Y487795D02*
D03*
X756496D02*
D03*
X726378Y351181D02*
D03*
X714961D02*
D03*
X737992D02*
D03*
X749409D02*
D03*
D100*
X624803Y516339D02*
D03*
X622244Y523819D02*
D03*
X627362D02*
D03*
X753150Y523425D02*
D03*
X755709Y515945D02*
D03*
X750591D02*
D03*
X753150Y501575D02*
D03*
X750591Y509055D02*
D03*
X755709D02*
D03*
D101*
X665276Y462402D02*
D03*
X647323D02*
D03*
D102*
X656299Y421260D02*
D03*
D103*
X723228Y374016D02*
D03*
X703543D02*
D03*
X741339D02*
D03*
X761024D02*
D03*
D104*
X720079Y409449D02*
D03*
X690158D02*
D03*
X744488D02*
D03*
X774409D02*
D03*
X720079Y447638D02*
D03*
X690158D02*
D03*
X744488D02*
D03*
X774409Y447638D02*
D03*
D122*
X476827Y206928D02*
D03*
X479472Y209572D02*
D03*
X482116Y212217D02*
D03*
X488798Y205536D02*
D03*
X486153Y202891D02*
D03*
X483508Y200246D02*
D03*
X473936Y447153D02*
D03*
X476581Y449797D02*
D03*
X479225Y452442D02*
D03*
X485907Y445761D02*
D03*
X483262Y443116D02*
D03*
X480617Y440471D02*
D03*
D123*
X627559Y274410D02*
D03*
Y270669D02*
D03*
Y266929D02*
D03*
X618110D02*
D03*
Y270669D02*
D03*
Y274410D02*
D03*
D197*
X181496Y149213D02*
D03*
Y185039D02*
D03*
D198*
X190157Y165354D02*
D03*
Y201181D02*
D03*
D199*
Y155512D02*
D03*
Y191339D02*
D03*
D201*
X658821Y245803D02*
D03*
D202*
X653532Y251092D02*
D03*
D203*
X662064Y256841D02*
D03*
D206*
X246083Y206299D02*
D03*
Y188583D02*
D03*
Y196457D02*
D03*
Y178740D02*
D03*
X288950Y178920D02*
D03*
Y196637D02*
D03*
Y188763D02*
D03*
Y206480D02*
D03*
D207*
X235413Y218386D02*
D03*
Y166654D02*
D03*
X278281Y166834D02*
D03*
Y218566D02*
D03*
X307087Y425197D02*
D03*
X399606D02*
D03*
X422835Y192323D02*
D03*
Y99803D02*
D03*
D208*
X654645Y254433D02*
D03*
X656872Y252206D02*
D03*
X654645Y249979D02*
D03*
X652418Y252206D02*
D03*
Y247752D02*
D03*
X650191Y249979D02*
D03*
X656594Y243576D02*
D03*
X658821Y245803D02*
D03*
X661048Y248030D02*
D03*
X664291Y252387D02*
D03*
X662064Y254614D02*
D03*
X659837Y256841D02*
D03*
X657610Y259068D02*
D03*
X666518Y254614D02*
D03*
X664291Y256841D02*
D03*
X662064Y259068D02*
D03*
X659837Y261295D02*
D03*
D209*
X200000Y541732D02*
D03*
Y530315D02*
D03*
Y496457D02*
D03*
X172047Y365354D02*
D03*
Y353937D02*
D03*
X200000Y509449D02*
D03*
X8268Y277953D02*
D03*
X118110Y118504D02*
D03*
X519291Y239370D02*
D03*
D210*
X313976Y149213D02*
D03*
Y127165D02*
D03*
X322441Y138189D02*
D03*
D211*
X83474Y365354D02*
D03*
X507480Y74154D02*
D03*
Y44360D02*
D03*
X445276Y41860D02*
D03*
X184163Y12598D02*
D03*
Y48504D02*
D03*
X445276Y71653D02*
D03*
X445276Y12067D02*
D03*
X677160Y120201D02*
D03*
Y154567D02*
D03*
Y85835D02*
D03*
X83474Y328346D02*
D03*
X507480Y14567D02*
D03*
X184163Y118898D02*
D03*
D212*
X95274Y365354D02*
D03*
X495680Y74154D02*
D03*
Y44360D02*
D03*
X457076Y41860D02*
D03*
X195963Y12598D02*
D03*
Y48504D02*
D03*
X457076Y71653D02*
D03*
X457076Y12067D02*
D03*
X665360Y120201D02*
D03*
Y154567D02*
D03*
Y85835D02*
D03*
X95274Y328346D02*
D03*
X495680Y14567D02*
D03*
X195963Y118898D02*
D03*
D213*
X671260Y32283D02*
D03*
X194095Y103150D02*
D03*
X763779Y538583D02*
D03*
X87795Y394094D02*
D03*
X39764Y544488D02*
D03*
X621654Y52756D02*
D03*
X306299Y86221D02*
D03*
D214*
X128425Y26772D02*
D03*
Y85827D02*
D03*
D215*
X68425Y26772D02*
D03*
Y85827D02*
D03*
D216*
X605512Y422756D02*
D03*
D217*
Y482756D02*
D03*
D218*
X293233Y267717D02*
D03*
X260433D02*
D03*
X177633D02*
D03*
X210433D02*
D03*
Y313386D02*
D03*
X177633D02*
D03*
X260433D02*
D03*
X293233D02*
D03*
D219*
X269685Y139764D02*
D03*
Y13780D02*
D03*
X356299D02*
D03*
Y139764D02*
D03*
X409449Y576772D02*
D03*
X775591D02*
D03*
X15748D02*
D03*
Y383858D02*
D03*
Y13780D02*
D03*
X775591D02*
D03*
X409449D02*
D03*
X244094Y383858D02*
D03*
Y576772D02*
D03*
D220*
X694882Y59842D02*
D03*
X647638D02*
D03*
X219685Y94095D02*
D03*
X172441D02*
D03*
D221*
X683071Y51968D02*
D03*
X671260D02*
D03*
X207874Y86221D02*
D03*
X196063D02*
D03*
D222*
X659449Y51968D02*
D03*
X184252Y86221D02*
D03*
M02*
