G04*
G04 #@! TF.GenerationSoftware,Altium Limited,Altium Designer,22.4.2 (48)*
G04*
G04 Layer_Color=8388736*
%FSLAX25Y25*%
%MOIN*%
G70*
G04*
G04 #@! TF.SameCoordinates,B172E609-1CFC-4B23-86F5-1081F1DC675F*
G04*
G04*
G04 #@! TF.FilePolarity,Negative*
G04*
G01*
G75*
%ADD28R,0.02362X0.01968*%
%ADD29R,0.06102X0.09646*%
%ADD59R,0.05236X0.05236*%
%ADD60R,0.03543X0.07874*%
%ADD61R,0.07874X0.03543*%
%ADD98R,0.40170X0.59855*%
G04:AMPARAMS|DCode=99|XSize=31.5mil|YSize=21.65mil|CornerRadius=0mil|HoleSize=0mil|Usage=FLASHONLY|Rotation=135.000|XOffset=0mil|YOffset=0mil|HoleType=Round|Shape=Rectangle|*
%AMROTATEDRECTD99*
4,1,4,0.01879,-0.00348,0.00348,-0.01879,-0.01879,0.00348,-0.00348,0.01879,0.01879,-0.00348,0.0*
%
%ADD99ROTATEDRECTD99*%

%ADD100R,0.03150X0.02165*%
%ADD101R,0.09461X0.17335*%
G04:AMPARAMS|DCode=102|XSize=29.65mil|YSize=74.93mil|CornerRadius=5.95mil|HoleSize=0mil|Usage=FLASHONLY|Rotation=90.000|XOffset=0mil|YOffset=0mil|HoleType=Round|Shape=RoundedRectangle|*
%AMROUNDEDRECTD102*
21,1,0.02965,0.06303,0,0,90.0*
21,1,0.01776,0.07493,0,0,90.0*
1,1,0.01190,0.03152,0.00888*
1,1,0.01190,0.03152,-0.00888*
1,1,0.01190,-0.03152,-0.00888*
1,1,0.01190,-0.03152,0.00888*
%
%ADD102ROUNDEDRECTD102*%
%ADD103R,0.04343X0.04737*%
%ADD104R,0.10642X0.07493*%
%ADD105R,0.01784X0.02375*%
%ADD106R,0.04540X0.04147*%
%ADD107R,0.04737X0.04343*%
G04:AMPARAMS|DCode=108|XSize=47.37mil|YSize=43.43mil|CornerRadius=0mil|HoleSize=0mil|Usage=FLASHONLY|Rotation=45.000|XOffset=0mil|YOffset=0mil|HoleType=Round|Shape=Rectangle|*
%AMROTATEDRECTD108*
4,1,4,-0.00139,-0.03210,-0.03210,-0.00139,0.00139,0.03210,0.03210,0.00139,-0.00139,-0.03210,0.0*
%
%ADD108ROTATEDRECTD108*%

G04:AMPARAMS|DCode=109|XSize=45.4mil|YSize=41.47mil|CornerRadius=0mil|HoleSize=0mil|Usage=FLASHONLY|Rotation=225.000|XOffset=0mil|YOffset=0mil|HoleType=Round|Shape=Rectangle|*
%AMROTATEDRECTD109*
4,1,4,0.00139,0.03071,0.03071,0.00139,-0.00139,-0.03071,-0.03071,-0.00139,0.00139,0.03071,0.0*
%
%ADD109ROTATEDRECTD109*%

G04:AMPARAMS|DCode=110|XSize=47.37mil|YSize=43.43mil|CornerRadius=0mil|HoleSize=0mil|Usage=FLASHONLY|Rotation=135.000|XOffset=0mil|YOffset=0mil|HoleType=Round|Shape=Rectangle|*
%AMROTATEDRECTD110*
4,1,4,0.03210,-0.00139,0.00139,-0.03210,-0.03210,0.00139,-0.00139,0.03210,0.03210,-0.00139,0.0*
%
%ADD110ROTATEDRECTD110*%

G04:AMPARAMS|DCode=111|XSize=45.4mil|YSize=41.47mil|CornerRadius=0mil|HoleSize=0mil|Usage=FLASHONLY|Rotation=135.000|XOffset=0mil|YOffset=0mil|HoleType=Round|Shape=Rectangle|*
%AMROTATEDRECTD111*
4,1,4,0.03071,-0.00139,0.00139,-0.03071,-0.03071,0.00139,-0.00139,0.03071,0.03071,-0.00139,0.0*
%
%ADD111ROTATEDRECTD111*%

%ADD112R,0.09265X0.10446*%
G04:AMPARAMS|DCode=113|XSize=126.11mil|YSize=173.35mil|CornerRadius=5.77mil|HoleSize=0mil|Usage=FLASHONLY|Rotation=135.000|XOffset=0mil|YOffset=0mil|HoleType=Round|Shape=RoundedRectangle|*
%AMROUNDEDRECTD113*
21,1,0.12611,0.16181,0,0,135.0*
21,1,0.11457,0.17335,0,0,135.0*
1,1,0.01154,0.01670,0.09771*
1,1,0.01154,0.09771,0.01670*
1,1,0.01154,-0.01670,-0.09771*
1,1,0.01154,-0.09771,-0.01670*
%
%ADD113ROUNDEDRECTD113*%
G04:AMPARAMS|DCode=114|XSize=23.75mil|YSize=55.24mil|CornerRadius=5.97mil|HoleSize=0mil|Usage=FLASHONLY|Rotation=225.000|XOffset=0mil|YOffset=0mil|HoleType=Round|Shape=RoundedRectangle|*
%AMROUNDEDRECTD114*
21,1,0.02375,0.04331,0,0,225.0*
21,1,0.01181,0.05524,0,0,225.0*
1,1,0.01194,-0.01949,0.01114*
1,1,0.01194,-0.01114,0.01949*
1,1,0.01194,0.01949,-0.01114*
1,1,0.01194,0.01114,-0.01949*
%
%ADD114ROUNDEDRECTD114*%
G04:AMPARAMS|DCode=115|XSize=98.55mil|YSize=187.13mil|CornerRadius=0mil|HoleSize=0mil|Usage=FLASHONLY|Rotation=135.000|XOffset=0mil|YOffset=0mil|HoleType=Round|Shape=Rectangle|*
%AMROTATEDRECTD115*
4,1,4,0.10101,0.03132,-0.03132,-0.10101,-0.10101,-0.03132,0.03132,0.10101,0.10101,0.03132,0.0*
%
%ADD115ROTATEDRECTD115*%

%ADD116R,0.04147X0.04540*%
G04:AMPARAMS|DCode=117|XSize=98.55mil|YSize=187.13mil|CornerRadius=0mil|HoleSize=0mil|Usage=FLASHONLY|Rotation=225.000|XOffset=0mil|YOffset=0mil|HoleType=Round|Shape=Rectangle|*
%AMROTATEDRECTD117*
4,1,4,-0.03132,0.10101,0.10101,-0.03132,0.03132,-0.10101,-0.10101,0.03132,-0.03132,0.10101,0.0*
%
%ADD117ROTATEDRECTD117*%

%ADD118R,0.10446X0.09265*%
G04:AMPARAMS|DCode=119|XSize=114.3mil|YSize=59.18mil|CornerRadius=0mil|HoleSize=0mil|Usage=FLASHONLY|Rotation=225.000|XOffset=0mil|YOffset=0mil|HoleType=Round|Shape=Rectangle|*
%AMROTATEDRECTD119*
4,1,4,0.01949,0.06134,0.06134,0.01949,-0.01949,-0.06134,-0.06134,-0.01949,0.01949,0.06134,0.0*
%
%ADD119ROTATEDRECTD119*%

G04:AMPARAMS|DCode=120|XSize=40.68mil|YSize=32.61mil|CornerRadius=0mil|HoleSize=0mil|Usage=FLASHONLY|Rotation=315.000|XOffset=0mil|YOffset=0mil|HoleType=Round|Shape=Rectangle|*
%AMROTATEDRECTD120*
4,1,4,-0.02591,0.00285,-0.00285,0.02591,0.02591,-0.00285,0.00285,-0.02591,-0.02591,0.00285,0.0*
%
%ADD120ROTATEDRECTD120*%

%ADD121R,0.08674X0.05131*%
%ADD122R,0.03950X0.03950*%
%ADD123R,0.03162X0.02769*%
%ADD124R,0.03162X0.02375*%
%ADD125R,0.05524X0.05524*%
G04:AMPARAMS|DCode=126|XSize=63.12mil|YSize=59.18mil|CornerRadius=0mil|HoleSize=0mil|Usage=FLASHONLY|Rotation=135.000|XOffset=0mil|YOffset=0mil|HoleType=Round|Shape=Rectangle|*
%AMROTATEDRECTD126*
4,1,4,0.04324,-0.00139,0.00139,-0.04324,-0.04324,0.00139,-0.00139,0.04324,0.04324,-0.00139,0.0*
%
%ADD126ROTATEDRECTD126*%

%ADD127R,0.05524X0.05524*%
G04:AMPARAMS|DCode=128|XSize=63.12mil|YSize=90.68mil|CornerRadius=17.78mil|HoleSize=0mil|Usage=FLASHONLY|Rotation=90.000|XOffset=0mil|YOffset=0mil|HoleType=Round|Shape=RoundedRectangle|*
%AMROUNDEDRECTD128*
21,1,0.06312,0.05512,0,0,90.0*
21,1,0.02756,0.09068,0,0,90.0*
1,1,0.03556,0.02756,0.01378*
1,1,0.03556,0.02756,-0.01378*
1,1,0.03556,-0.02756,-0.01378*
1,1,0.03556,-0.02756,0.01378*
%
%ADD128ROUNDEDRECTD128*%
%ADD129O,0.05761X0.02217*%
%ADD130R,0.02769X0.03950*%
%ADD131R,0.05918X0.06312*%
G04:AMPARAMS|DCode=132|XSize=236.35mil|YSize=311.15mil|CornerRadius=6.28mil|HoleSize=0mil|Usage=FLASHONLY|Rotation=270.000|XOffset=0mil|YOffset=0mil|HoleType=Round|Shape=RoundedRectangle|*
%AMROUNDEDRECTD132*
21,1,0.23635,0.29858,0,0,270.0*
21,1,0.22378,0.31115,0,0,270.0*
1,1,0.01257,-0.14929,-0.11189*
1,1,0.01257,-0.14929,0.11189*
1,1,0.01257,0.14929,0.11189*
1,1,0.01257,0.14929,-0.11189*
%
%ADD132ROUNDEDRECTD132*%
G04:AMPARAMS|DCode=133|XSize=47.37mil|YSize=145.8mil|CornerRadius=5.97mil|HoleSize=0mil|Usage=FLASHONLY|Rotation=270.000|XOffset=0mil|YOffset=0mil|HoleType=Round|Shape=RoundedRectangle|*
%AMROUNDEDRECTD133*
21,1,0.04737,0.13386,0,0,270.0*
21,1,0.03543,0.14580,0,0,270.0*
1,1,0.01194,-0.06693,-0.01772*
1,1,0.01194,-0.06693,0.01772*
1,1,0.01194,0.06693,0.01772*
1,1,0.01194,0.06693,-0.01772*
%
%ADD133ROUNDEDRECTD133*%
%ADD134R,0.06312X0.05918*%
%ADD135O,0.07099X0.02572*%
%ADD136R,0.33084X0.43123*%
%ADD137R,0.17139X0.05131*%
G04:AMPARAMS|DCode=138|XSize=59.58mil|YSize=32.41mil|CornerRadius=7.05mil|HoleSize=0mil|Usage=FLASHONLY|Rotation=315.000|XOffset=0mil|YOffset=0mil|HoleType=Round|Shape=RoundedRectangle|*
%AMROUNDEDRECTD138*
21,1,0.05958,0.01831,0,0,315.0*
21,1,0.04547,0.03241,0,0,315.0*
1,1,0.01410,0.00960,-0.02255*
1,1,0.01410,-0.02255,0.00960*
1,1,0.01410,-0.00960,0.02255*
1,1,0.01410,0.02255,-0.00960*
%
%ADD138ROUNDEDRECTD138*%
G04:AMPARAMS|DCode=139|XSize=119.42mil|YSize=43.43mil|CornerRadius=0mil|HoleSize=0mil|Usage=FLASHONLY|Rotation=45.000|XOffset=0mil|YOffset=0mil|HoleType=Round|Shape=Rectangle|*
%AMROTATEDRECTD139*
4,1,4,-0.02686,-0.05758,-0.05758,-0.02686,0.02686,0.05758,0.05758,0.02686,-0.02686,-0.05758,0.0*
%
%ADD139ROTATEDRECTD139*%

G04:AMPARAMS|DCode=140|XSize=119.42mil|YSize=94.61mil|CornerRadius=0mil|HoleSize=0mil|Usage=FLASHONLY|Rotation=45.000|XOffset=0mil|YOffset=0mil|HoleType=Round|Shape=Rectangle|*
%AMROTATEDRECTD140*
4,1,4,-0.00877,-0.07567,-0.07567,-0.00877,0.00877,0.07567,0.07567,0.00877,-0.00877,-0.07567,0.0*
%
%ADD140ROTATEDRECTD140*%

G04:AMPARAMS|DCode=141|XSize=153.67mil|YSize=70.99mil|CornerRadius=0mil|HoleSize=0mil|Usage=FLASHONLY|Rotation=315.000|XOffset=0mil|YOffset=0mil|HoleType=Round|Shape=Rectangle|*
%AMROTATEDRECTD141*
4,1,4,-0.07943,0.02923,-0.02923,0.07943,0.07943,-0.02923,0.02923,-0.07943,-0.07943,0.02923,0.0*
%
%ADD141ROTATEDRECTD141*%

G04:AMPARAMS|DCode=142|XSize=23.75mil|YSize=19.81mil|CornerRadius=0mil|HoleSize=0mil|Usage=FLASHONLY|Rotation=225.000|XOffset=0mil|YOffset=0mil|HoleType=Round|Shape=Rectangle|*
%AMROTATEDRECTD142*
4,1,4,0.00139,0.01540,0.01540,0.00139,-0.00139,-0.01540,-0.01540,-0.00139,0.00139,0.01540,0.0*
%
%ADD142ROTATEDRECTD142*%

G04:AMPARAMS|DCode=143|XSize=23.75mil|YSize=19.81mil|CornerRadius=0mil|HoleSize=0mil|Usage=FLASHONLY|Rotation=135.000|XOffset=0mil|YOffset=0mil|HoleType=Round|Shape=Rectangle|*
%AMROTATEDRECTD143*
4,1,4,0.01540,-0.00139,0.00139,-0.01540,-0.01540,0.00139,-0.00139,0.01540,0.01540,-0.00139,0.0*
%
%ADD143ROTATEDRECTD143*%

G04:AMPARAMS|DCode=144|XSize=126.11mil|YSize=173.35mil|CornerRadius=5.77mil|HoleSize=0mil|Usage=FLASHONLY|Rotation=225.000|XOffset=0mil|YOffset=0mil|HoleType=Round|Shape=RoundedRectangle|*
%AMROUNDEDRECTD144*
21,1,0.12611,0.16181,0,0,225.0*
21,1,0.11457,0.17335,0,0,225.0*
1,1,0.01154,-0.09771,0.01670*
1,1,0.01154,-0.01670,0.09771*
1,1,0.01154,0.09771,-0.01670*
1,1,0.01154,0.01670,-0.09771*
%
%ADD144ROUNDEDRECTD144*%
G04:AMPARAMS|DCode=145|XSize=23.75mil|YSize=55.24mil|CornerRadius=5.97mil|HoleSize=0mil|Usage=FLASHONLY|Rotation=315.000|XOffset=0mil|YOffset=0mil|HoleType=Round|Shape=RoundedRectangle|*
%AMROUNDEDRECTD145*
21,1,0.02375,0.04331,0,0,315.0*
21,1,0.01181,0.05524,0,0,315.0*
1,1,0.01194,-0.01114,-0.01949*
1,1,0.01194,-0.01949,-0.01114*
1,1,0.01194,0.01114,0.01949*
1,1,0.01194,0.01949,0.01114*
%
%ADD145ROUNDEDRECTD145*%
%ADD146R,0.17335X0.09461*%
%ADD147R,0.06312X0.02572*%
%ADD148R,0.07099X0.13005*%
%ADD149R,0.05918X0.11430*%
G04:AMPARAMS|DCode=150|XSize=25.72mil|YSize=63.12mil|CornerRadius=0mil|HoleSize=0mil|Usage=FLASHONLY|Rotation=135.000|XOffset=0mil|YOffset=0mil|HoleType=Round|Shape=Rectangle|*
%AMROTATEDRECTD150*
4,1,4,0.03141,0.01322,-0.01322,-0.03141,-0.03141,-0.01322,0.01322,0.03141,0.03141,0.01322,0.0*
%
%ADD150ROTATEDRECTD150*%

G04:AMPARAMS|DCode=151|XSize=130.05mil|YSize=70.99mil|CornerRadius=0mil|HoleSize=0mil|Usage=FLASHONLY|Rotation=315.000|XOffset=0mil|YOffset=0mil|HoleType=Round|Shape=Rectangle|*
%AMROTATEDRECTD151*
4,1,4,-0.07108,0.02088,-0.02088,0.07108,0.07108,-0.02088,0.02088,-0.07108,-0.07108,0.02088,0.0*
%
%ADD151ROTATEDRECTD151*%

%ADD152R,0.13005X0.07099*%
%ADD153R,0.02572X0.06312*%
%ADD154R,0.11824X0.07099*%
%ADD155R,0.20485X0.13005*%
%ADD156R,0.07887X0.05918*%
%ADD157O,0.06509X0.03162*%
G04:AMPARAMS|DCode=158|XSize=151.7mil|YSize=70.99mil|CornerRadius=0mil|HoleSize=0mil|Usage=FLASHONLY|Rotation=315.000|XOffset=0mil|YOffset=0mil|HoleType=Round|Shape=Rectangle|*
%AMROTATEDRECTD158*
4,1,4,-0.07873,0.02854,-0.02854,0.07873,0.07873,-0.02854,0.02854,-0.07873,-0.07873,0.02854,0.0*
%
%ADD158ROTATEDRECTD158*%

G04:AMPARAMS|DCode=159|XSize=78.87mil|YSize=59.18mil|CornerRadius=0mil|HoleSize=0mil|Usage=FLASHONLY|Rotation=45.000|XOffset=0mil|YOffset=0mil|HoleType=Round|Shape=Rectangle|*
%AMROTATEDRECTD159*
4,1,4,-0.00696,-0.04881,-0.04881,-0.00696,0.00696,0.04881,0.04881,0.00696,-0.00696,-0.04881,0.0*
%
%ADD159ROTATEDRECTD159*%

G04:AMPARAMS|DCode=160|XSize=27.69mil|YSize=61.15mil|CornerRadius=0mil|HoleSize=0mil|Usage=FLASHONLY|Rotation=315.000|XOffset=0mil|YOffset=0mil|HoleType=Round|Shape=Round|*
%AMOVALD160*
21,1,0.03347,0.02769,0.00000,0.00000,45.0*
1,1,0.02769,-0.01183,-0.01183*
1,1,0.02769,0.01183,0.01183*
%
%ADD160OVALD160*%

%ADD161R,0.07099X0.11824*%
%ADD162R,0.04540X0.03162*%
%ADD163R,0.05918X0.07887*%
%ADD164R,0.03556X0.04343*%
%ADD165R,0.05131X0.17139*%
%ADD166R,0.43123X0.33084*%
%ADD167R,0.13398X0.07099*%
%ADD168R,0.18713X0.09855*%
%ADD169C,0.04737*%
%ADD170C,0.12611*%
%ADD171C,0.02473*%
%ADD172R,0.30800X0.30800*%
%ADD173C,0.30800*%
%ADD174C,0.00800*%
%ADD175C,0.08300*%
%ADD176R,0.08300X0.08300*%
%ADD177C,0.35800*%
%ADD178R,0.35800X0.35800*%
%ADD179C,0.20800*%
%ADD180C,0.06800*%
%ADD181O,0.04934X0.09068*%
%ADD182R,0.04737X0.04737*%
%ADD183R,0.04147X0.04147*%
%ADD184O,0.04343X0.07887*%
%ADD185O,0.10642X0.05721*%
%ADD186C,0.05800*%
%ADD187C,0.08800*%
%ADD188R,0.08800X0.08800*%
%ADD189C,0.04724*%
%ADD190C,0.06102*%
%ADD191R,0.06102X0.06102*%
%ADD192R,0.06706X0.06706*%
%ADD193C,0.06706*%
%ADD194C,0.02769*%
D28*
X285197Y536221D02*
D03*
Y533071D02*
D03*
Y529921D02*
D03*
X294882D02*
D03*
Y533071D02*
D03*
Y536221D02*
D03*
D29*
X290039Y533071D02*
D03*
D59*
X133209Y522697D02*
D03*
X125984D02*
D03*
X118760D02*
D03*
X133209Y529921D02*
D03*
X125984D02*
D03*
X118760D02*
D03*
X133209Y537146D02*
D03*
X125984D02*
D03*
X118760D02*
D03*
D60*
X152421Y490512D02*
D03*
X147421D02*
D03*
X142421D02*
D03*
X137421D02*
D03*
X132421D02*
D03*
X127421D02*
D03*
X122421D02*
D03*
X117421D02*
D03*
X112421D02*
D03*
X107421D02*
D03*
D61*
X163386Y559449D02*
D03*
Y554449D02*
D03*
Y549449D02*
D03*
Y544449D02*
D03*
Y539449D02*
D03*
Y534449D02*
D03*
Y529449D02*
D03*
Y524449D02*
D03*
Y519449D02*
D03*
Y514449D02*
D03*
Y509449D02*
D03*
Y504449D02*
D03*
Y499449D02*
D03*
Y494449D02*
D03*
X96457D02*
D03*
Y499449D02*
D03*
Y504449D02*
D03*
Y509449D02*
D03*
Y514449D02*
D03*
Y519449D02*
D03*
Y524449D02*
D03*
Y529449D02*
D03*
Y534449D02*
D03*
Y539449D02*
D03*
Y544449D02*
D03*
Y549449D02*
D03*
Y554449D02*
D03*
Y559449D02*
D03*
D98*
X751968Y305906D02*
D03*
X727559Y556693D02*
D03*
D99*
X476827Y206928D02*
D03*
X479472Y209572D02*
D03*
X482116Y212217D02*
D03*
X488798Y205536D02*
D03*
X486153Y202891D02*
D03*
X483508Y200246D02*
D03*
X473936Y447153D02*
D03*
X476581Y449797D02*
D03*
X479225Y452442D02*
D03*
X485907Y445761D02*
D03*
X483262Y443116D02*
D03*
X480617Y440471D02*
D03*
D100*
X627559Y274410D02*
D03*
Y270669D02*
D03*
Y266929D02*
D03*
X618110D02*
D03*
Y270669D02*
D03*
Y274410D02*
D03*
D101*
X278346Y385236D02*
D03*
Y413976D02*
D03*
X352362Y86221D02*
D03*
Y114961D02*
D03*
X278346Y435433D02*
D03*
Y464173D02*
D03*
D102*
X371850Y505728D02*
D03*
Y510728D02*
D03*
Y515728D02*
D03*
Y520728D02*
D03*
Y525728D02*
D03*
Y530728D02*
D03*
Y535728D02*
D03*
Y540728D02*
D03*
X335236Y505728D02*
D03*
Y510728D02*
D03*
Y515728D02*
D03*
Y520728D02*
D03*
Y525728D02*
D03*
Y530728D02*
D03*
Y535728D02*
D03*
Y540728D02*
D03*
D103*
X747638Y66929D02*
D03*
X742323D02*
D03*
X422835Y224410D02*
D03*
X417520D02*
D03*
X622441Y78740D02*
D03*
X617126D02*
D03*
X277658Y31496D02*
D03*
X282972D02*
D03*
X278051Y62205D02*
D03*
X283366D02*
D03*
X741535Y33858D02*
D03*
X746850D02*
D03*
X771063Y505118D02*
D03*
X776378D02*
D03*
D104*
X734252Y48425D02*
D03*
X269291Y46457D02*
D03*
X269291Y76575D02*
D03*
X734646Y81299D02*
D03*
D105*
X730315Y54921D02*
D03*
X732283D02*
D03*
X734252Y54921D02*
D03*
X736221Y54921D02*
D03*
X738189D02*
D03*
Y41929D02*
D03*
X736221D02*
D03*
X734252D02*
D03*
X732283D02*
D03*
X730315D02*
D03*
X265354Y39961D02*
D03*
X267323D02*
D03*
X269291D02*
D03*
X271260D02*
D03*
X273228D02*
D03*
Y52953D02*
D03*
X271260D02*
D03*
X269291Y52953D02*
D03*
X267323Y52953D02*
D03*
X265354D02*
D03*
X265354Y70079D02*
D03*
X267323D02*
D03*
X269291Y70079D02*
D03*
X271260Y70079D02*
D03*
X273228D02*
D03*
Y83071D02*
D03*
X271260D02*
D03*
X269291D02*
D03*
X267323D02*
D03*
X265354D02*
D03*
X730709Y74803D02*
D03*
X732677D02*
D03*
X734646D02*
D03*
X736614Y74803D02*
D03*
X738583D02*
D03*
Y87795D02*
D03*
X736614D02*
D03*
X734646Y87795D02*
D03*
X732677D02*
D03*
X730709D02*
D03*
D106*
X256299Y42126D02*
D03*
Y47244D02*
D03*
X647638Y206737D02*
D03*
X647638Y201619D02*
D03*
X639590Y206737D02*
D03*
Y201619D02*
D03*
X443601Y557480D02*
D03*
Y552362D02*
D03*
X434546Y557480D02*
D03*
Y552362D02*
D03*
X452756Y557480D02*
D03*
Y552362D02*
D03*
X227165Y572047D02*
D03*
Y566929D02*
D03*
X218110Y580905D02*
D03*
Y575787D02*
D03*
X391732Y579744D02*
D03*
Y574626D02*
D03*
X261024Y579744D02*
D03*
Y574626D02*
D03*
X89764Y472244D02*
D03*
Y477362D02*
D03*
X344094Y39764D02*
D03*
Y34646D02*
D03*
X74803Y472244D02*
D03*
Y477362D02*
D03*
X256299Y80118D02*
D03*
Y75000D02*
D03*
X369685Y250000D02*
D03*
Y244882D02*
D03*
X348819Y354331D02*
D03*
Y349213D02*
D03*
X721654Y53543D02*
D03*
Y48425D02*
D03*
X721654Y86614D02*
D03*
Y81496D02*
D03*
X285039Y108268D02*
D03*
Y103150D02*
D03*
X358268Y199606D02*
D03*
Y194488D02*
D03*
X602756Y56496D02*
D03*
Y51378D02*
D03*
X603150Y15748D02*
D03*
Y10630D02*
D03*
X293465Y518307D02*
D03*
Y523425D02*
D03*
X285984Y518307D02*
D03*
Y523425D02*
D03*
D107*
X608268Y272047D02*
D03*
Y266732D02*
D03*
X433465Y450000D02*
D03*
Y444685D02*
D03*
X434252Y213976D02*
D03*
Y208661D02*
D03*
X631542Y206324D02*
D03*
Y201009D02*
D03*
X384252Y574016D02*
D03*
Y579331D02*
D03*
X268898Y574016D02*
D03*
Y579331D02*
D03*
X385039Y540748D02*
D03*
Y535433D02*
D03*
X257480Y538484D02*
D03*
Y533169D02*
D03*
X265354Y511221D02*
D03*
Y505905D02*
D03*
X64961Y554331D02*
D03*
Y559646D02*
D03*
X81496Y554331D02*
D03*
Y559646D02*
D03*
X73622Y554331D02*
D03*
Y559646D02*
D03*
X303937Y36713D02*
D03*
Y42028D02*
D03*
X82284Y472146D02*
D03*
Y477461D02*
D03*
X283071Y46654D02*
D03*
Y41339D02*
D03*
X284252Y76968D02*
D03*
Y71653D02*
D03*
X746850Y48228D02*
D03*
Y42913D02*
D03*
X747638Y81102D02*
D03*
Y75787D02*
D03*
X737008Y151181D02*
D03*
Y156496D02*
D03*
Y126279D02*
D03*
Y120965D02*
D03*
X259842Y111811D02*
D03*
Y106496D02*
D03*
X331890Y203346D02*
D03*
Y198031D02*
D03*
X576772Y60138D02*
D03*
Y54823D02*
D03*
X577165Y18898D02*
D03*
Y13583D02*
D03*
X304095Y533071D02*
D03*
Y527756D02*
D03*
X311575Y533071D02*
D03*
Y527756D02*
D03*
D108*
X487974Y455727D02*
D03*
X491732Y451968D02*
D03*
X455113Y259825D02*
D03*
X451354Y263583D02*
D03*
X460540Y265050D02*
D03*
X456782Y268808D02*
D03*
X449475Y254327D02*
D03*
X445717Y258085D02*
D03*
X473228Y245276D02*
D03*
X469470Y249034D02*
D03*
X643003Y271564D02*
D03*
X646761Y267806D02*
D03*
X648210Y276593D02*
D03*
X651968Y272835D02*
D03*
X343916Y176950D02*
D03*
X340158Y180709D02*
D03*
X338493Y172137D02*
D03*
X334735Y175895D02*
D03*
X129080Y358786D02*
D03*
X125322Y362544D02*
D03*
X57369Y283979D02*
D03*
X61127Y280221D02*
D03*
X106558Y230471D02*
D03*
X102800Y234229D02*
D03*
D109*
X502991Y436773D02*
D03*
X499372Y440392D02*
D03*
X493625Y434721D02*
D03*
X497244Y431102D02*
D03*
X462129Y402044D02*
D03*
X465748Y398425D02*
D03*
X465589Y270631D02*
D03*
X461970Y274251D02*
D03*
X155805Y389409D02*
D03*
X159424Y385790D02*
D03*
D110*
X497333Y189853D02*
D03*
X501092Y193611D02*
D03*
X445289Y456706D02*
D03*
X449048Y460465D02*
D03*
X494118Y415740D02*
D03*
X497876Y419498D02*
D03*
X483881Y426370D02*
D03*
X487640Y430128D02*
D03*
X489171Y421080D02*
D03*
X492929Y424839D02*
D03*
X675769Y265927D02*
D03*
X679528Y269685D02*
D03*
X678561Y247459D02*
D03*
X674803Y243701D02*
D03*
X472137Y404814D02*
D03*
X475895Y408572D02*
D03*
D111*
X492277Y195096D02*
D03*
X495896Y198715D02*
D03*
X440082Y461735D02*
D03*
X443701Y465354D02*
D03*
X454724Y455905D02*
D03*
X458344Y459525D02*
D03*
X460236Y450787D02*
D03*
X463855Y454406D02*
D03*
X499769Y410367D02*
D03*
X503388Y413986D02*
D03*
X482125Y243542D02*
D03*
X478505Y239923D02*
D03*
X441104Y263938D02*
D03*
X444723Y267558D02*
D03*
X469844Y219057D02*
D03*
X473463Y222676D02*
D03*
X430709Y233465D02*
D03*
X434328Y237084D02*
D03*
X428740Y241732D02*
D03*
X432359Y245351D02*
D03*
X681046Y260574D02*
D03*
X684665Y264193D02*
D03*
X669844Y270631D02*
D03*
X673463Y274251D02*
D03*
X664567Y275590D02*
D03*
X668186Y279210D02*
D03*
D112*
X420079Y444685D02*
D03*
Y461614D02*
D03*
D113*
X457968Y424383D02*
D03*
D114*
X457759Y408307D02*
D03*
X459569Y410116D02*
D03*
X461378Y411926D02*
D03*
X463188Y413735D02*
D03*
X464997Y415545D02*
D03*
X466807Y417354D02*
D03*
X468617Y419164D02*
D03*
X470426Y420973D02*
D03*
X472236Y422783D02*
D03*
X474045Y424592D02*
D03*
X441891Y424175D02*
D03*
X443701Y425984D02*
D03*
X445510Y427794D02*
D03*
X447320Y429603D02*
D03*
X449129Y431413D02*
D03*
X450939Y433222D02*
D03*
X452748Y435032D02*
D03*
X454558Y436841D02*
D03*
X456367Y438651D02*
D03*
X458177Y440460D02*
D03*
D115*
X490676Y384964D02*
D03*
X469519Y363806D02*
D03*
D116*
X312205Y487008D02*
D03*
X307087D02*
D03*
X307283Y479528D02*
D03*
X312402D02*
D03*
X477953Y107087D02*
D03*
X483071D02*
D03*
X478150Y99606D02*
D03*
X483268D02*
D03*
X271457Y536221D02*
D03*
X276575D02*
D03*
X289764Y549606D02*
D03*
X294882D02*
D03*
X200394Y527953D02*
D03*
X205512D02*
D03*
X205315Y535433D02*
D03*
X200197D02*
D03*
X62598Y534252D02*
D03*
X67716D02*
D03*
X62598Y524803D02*
D03*
X67716D02*
D03*
X62598Y515354D02*
D03*
X67716D02*
D03*
X687795Y469291D02*
D03*
X682677D02*
D03*
X619685Y119685D02*
D03*
X624803D02*
D03*
X209449Y165354D02*
D03*
X214567D02*
D03*
X766142Y116929D02*
D03*
X771260D02*
D03*
X764173Y146850D02*
D03*
X769291D02*
D03*
X302559Y220866D02*
D03*
X297441D02*
D03*
X771457Y497638D02*
D03*
X776575D02*
D03*
X771260Y512598D02*
D03*
X776378D02*
D03*
X624803Y508661D02*
D03*
X629921D02*
D03*
X771654Y490158D02*
D03*
X776772D02*
D03*
D117*
X503731Y263417D02*
D03*
X482573Y284575D02*
D03*
D118*
X407283Y211024D02*
D03*
X390354D02*
D03*
D119*
X494921Y235394D02*
D03*
X502716Y227599D02*
D03*
D120*
X680368Y237848D02*
D03*
X686562Y244042D02*
D03*
D121*
X688976Y207480D02*
D03*
D122*
X681496D02*
D03*
D123*
X451968Y580709D02*
D03*
Y575591D02*
D03*
X459055D02*
D03*
Y580709D02*
D03*
X430315D02*
D03*
Y575591D02*
D03*
X437402D02*
D03*
Y580709D02*
D03*
D124*
X451968Y578150D02*
D03*
X459055D02*
D03*
X430315D02*
D03*
X437402D02*
D03*
D125*
X434646Y543898D02*
D03*
Y535630D02*
D03*
X443701Y543898D02*
D03*
Y535630D02*
D03*
X452856Y543898D02*
D03*
Y535630D02*
D03*
D126*
X667975Y225062D02*
D03*
X663521Y220607D02*
D03*
X656828Y226907D02*
D03*
X661282Y231361D02*
D03*
D127*
X210433Y566929D02*
D03*
X218701D02*
D03*
X209646Y575984D02*
D03*
X201378D02*
D03*
X46260Y524803D02*
D03*
X54528D02*
D03*
Y534252D02*
D03*
X46260D02*
D03*
Y515354D02*
D03*
X54528D02*
D03*
D128*
X316339Y585039D02*
D03*
Y567323D02*
D03*
X280512D02*
D03*
Y585039D02*
D03*
X372835D02*
D03*
Y567323D02*
D03*
X337008D02*
D03*
Y585039D02*
D03*
D129*
X224803Y538386D02*
D03*
Y535827D02*
D03*
Y533268D02*
D03*
Y530709D02*
D03*
Y528149D02*
D03*
Y525590D02*
D03*
Y523031D02*
D03*
X247638Y538386D02*
D03*
Y535827D02*
D03*
Y533268D02*
D03*
Y530709D02*
D03*
Y528149D02*
D03*
Y525590D02*
D03*
Y523031D02*
D03*
X225197Y511221D02*
D03*
Y508661D02*
D03*
Y506102D02*
D03*
Y503543D02*
D03*
Y500984D02*
D03*
Y498425D02*
D03*
Y495866D02*
D03*
X248031Y511221D02*
D03*
Y508661D02*
D03*
Y506102D02*
D03*
Y503543D02*
D03*
Y500984D02*
D03*
Y498425D02*
D03*
Y495866D02*
D03*
D130*
X55905Y561319D02*
D03*
Y554232D02*
D03*
D131*
X16142Y496063D02*
D03*
X22441D02*
D03*
X764567Y126772D02*
D03*
X770866D02*
D03*
X764173Y155512D02*
D03*
X770472D02*
D03*
X594095Y72835D02*
D03*
X587795D02*
D03*
X593307Y31890D02*
D03*
X587008D02*
D03*
D132*
X20079Y463779D02*
D03*
D133*
X59449Y477165D02*
D03*
Y470472D02*
D03*
Y463779D02*
D03*
Y457087D02*
D03*
Y450394D02*
D03*
D134*
X77953Y456693D02*
D03*
Y450394D02*
D03*
X291339Y47244D02*
D03*
Y40945D02*
D03*
X247244Y48425D02*
D03*
Y42126D02*
D03*
X248031Y80709D02*
D03*
Y74410D02*
D03*
X292520Y77559D02*
D03*
Y71260D02*
D03*
X755118Y48819D02*
D03*
Y42520D02*
D03*
X713386Y54134D02*
D03*
Y47835D02*
D03*
X713386Y87008D02*
D03*
Y80709D02*
D03*
X755905Y81496D02*
D03*
Y75197D02*
D03*
X293701Y112205D02*
D03*
Y105905D02*
D03*
X366929Y203543D02*
D03*
Y197244D02*
D03*
D135*
X758465Y477854D02*
D03*
Y475295D02*
D03*
Y472736D02*
D03*
Y470177D02*
D03*
X775394Y477854D02*
D03*
Y475295D02*
D03*
Y472736D02*
D03*
Y470177D02*
D03*
D136*
X684842Y495591D02*
D03*
X390158Y322441D02*
D03*
Y276772D02*
D03*
D137*
X643701Y486614D02*
D03*
Y504567D02*
D03*
X349016Y313465D02*
D03*
Y331417D02*
D03*
X349016Y267795D02*
D03*
Y285748D02*
D03*
D138*
X319728Y172004D02*
D03*
X316193Y168469D02*
D03*
X312657Y164933D02*
D03*
X309121Y161398D02*
D03*
X305586Y157862D02*
D03*
X302050Y154327D02*
D03*
X298515Y150791D02*
D03*
X294979Y147256D02*
D03*
X310291Y131944D02*
D03*
X313826Y135480D02*
D03*
X317362Y139015D02*
D03*
X320897Y142551D02*
D03*
X324433Y146086D02*
D03*
X327968Y149622D02*
D03*
X331504Y153157D02*
D03*
X335039Y156693D02*
D03*
D139*
X658821Y245803D02*
D03*
D140*
X653532Y251092D02*
D03*
D141*
X662064Y256841D02*
D03*
D142*
X661299Y265123D02*
D03*
X663108Y263314D02*
D03*
X664918Y261504D02*
D03*
X666727Y259695D02*
D03*
X668537Y257885D02*
D03*
X670346Y256076D02*
D03*
X654200Y239929D02*
D03*
X652390Y241739D02*
D03*
X650581Y243548D02*
D03*
X648771Y245358D02*
D03*
X646962Y247167D02*
D03*
X645152Y248977D02*
D03*
D143*
X670764Y252178D02*
D03*
X668954Y250369D02*
D03*
X667145Y248559D02*
D03*
X665335Y246749D02*
D03*
X663526Y244940D02*
D03*
X661716Y243130D02*
D03*
X659907Y241321D02*
D03*
X658097Y239511D02*
D03*
X644735Y252874D02*
D03*
X646544Y254684D02*
D03*
X648354Y256493D02*
D03*
X650163Y258303D02*
D03*
X651973Y260112D02*
D03*
X653782Y261922D02*
D03*
X655592Y263731D02*
D03*
X657401Y265541D02*
D03*
D144*
X451036Y228455D02*
D03*
D145*
X467113Y228247D02*
D03*
X465304Y230056D02*
D03*
X463494Y231866D02*
D03*
X461685Y233675D02*
D03*
X459875Y235485D02*
D03*
X458066Y237294D02*
D03*
X456256Y239104D02*
D03*
X454447Y240914D02*
D03*
X452637Y242723D02*
D03*
X450828Y244532D02*
D03*
X451245Y212379D02*
D03*
X449436Y214188D02*
D03*
X447626Y215998D02*
D03*
X445817Y217807D02*
D03*
X444007Y219617D02*
D03*
X442198Y221426D02*
D03*
X440388Y223236D02*
D03*
X438579Y225045D02*
D03*
X436769Y226855D02*
D03*
X434960Y228664D02*
D03*
D146*
X369685Y46457D02*
D03*
X398425Y46457D02*
D03*
X589370Y169685D02*
D03*
X560630Y169685D02*
D03*
X611417Y169685D02*
D03*
X640158Y169685D02*
D03*
D147*
X336024Y37106D02*
D03*
Y39665D02*
D03*
Y42224D02*
D03*
Y44783D02*
D03*
X312795Y37106D02*
D03*
Y39665D02*
D03*
Y42224D02*
D03*
Y44783D02*
D03*
D148*
X337205Y57874D02*
D03*
X311614D02*
D03*
D149*
X440551Y387008D02*
D03*
X429528D02*
D03*
D150*
X151699Y381544D02*
D03*
X149890Y383354D02*
D03*
X148080Y385164D02*
D03*
X146270Y386973D02*
D03*
X135274Y365120D02*
D03*
X133465Y366929D02*
D03*
X131655Y368739D02*
D03*
X129845Y370548D02*
D03*
D151*
X137571Y397343D02*
D03*
X119475Y379248D02*
D03*
D152*
X601575Y112402D02*
D03*
Y86811D02*
D03*
D153*
X622342Y111221D02*
D03*
X619783D02*
D03*
X617224D02*
D03*
X614665D02*
D03*
X622342Y87992D02*
D03*
X619783D02*
D03*
X617224D02*
D03*
X614665D02*
D03*
D154*
X592126Y138976D02*
D03*
X575197D02*
D03*
X608661D02*
D03*
X625591D02*
D03*
D155*
X601575Y198031D02*
D03*
Y253937D02*
D03*
D156*
X379134Y249016D02*
D03*
Y237598D02*
D03*
X428346Y352559D02*
D03*
Y363976D02*
D03*
D157*
X412303Y350768D02*
D03*
Y355768D02*
D03*
Y360768D02*
D03*
Y365768D02*
D03*
X390846Y350768D02*
D03*
X390846Y355768D02*
D03*
Y360768D02*
D03*
X390846Y365768D02*
D03*
X397539Y248839D02*
D03*
Y243839D02*
D03*
Y238839D02*
D03*
Y233839D02*
D03*
X418996Y248839D02*
D03*
Y243839D02*
D03*
Y238839D02*
D03*
Y233839D02*
D03*
D158*
X51592Y247162D02*
D03*
X69270Y264840D02*
D03*
X97719Y196578D02*
D03*
X115397Y214255D02*
D03*
D159*
X67391Y286763D02*
D03*
X59318Y294836D02*
D03*
X113657Y237292D02*
D03*
X105583Y245365D02*
D03*
D160*
X38856Y265049D02*
D03*
X40666Y263239D02*
D03*
X42475Y261430D02*
D03*
X44285Y259620D02*
D03*
X51245Y277437D02*
D03*
X53054Y275627D02*
D03*
X54864Y273818D02*
D03*
X56673Y272008D02*
D03*
X84008Y215021D02*
D03*
X85818Y213211D02*
D03*
X87627Y211402D02*
D03*
X89437Y209592D02*
D03*
X96397Y227409D02*
D03*
X98206Y225599D02*
D03*
X100016Y223790D02*
D03*
X101825Y221980D02*
D03*
D161*
X721260Y162992D02*
D03*
Y146063D02*
D03*
Y114764D02*
D03*
Y131693D02*
D03*
X244094Y101575D02*
D03*
Y118504D02*
D03*
X316142Y192520D02*
D03*
Y209449D02*
D03*
X561024Y60630D02*
D03*
Y43701D02*
D03*
X560630Y8268D02*
D03*
Y25197D02*
D03*
D162*
X754429Y126575D02*
D03*
Y122835D02*
D03*
Y119095D02*
D03*
X743996D02*
D03*
Y122835D02*
D03*
Y126575D02*
D03*
X755217Y150591D02*
D03*
Y146850D02*
D03*
Y143110D02*
D03*
X744783D02*
D03*
Y146850D02*
D03*
Y150591D02*
D03*
X277658Y112008D02*
D03*
Y108268D02*
D03*
Y104528D02*
D03*
X267224D02*
D03*
Y108268D02*
D03*
Y112008D02*
D03*
X350098Y203346D02*
D03*
Y199606D02*
D03*
Y195866D02*
D03*
X339665D02*
D03*
Y199606D02*
D03*
Y203346D02*
D03*
X595669Y60236D02*
D03*
Y56496D02*
D03*
Y52756D02*
D03*
X585236D02*
D03*
Y56496D02*
D03*
Y60236D02*
D03*
X595079Y19291D02*
D03*
Y15551D02*
D03*
Y11811D02*
D03*
X584646D02*
D03*
Y15551D02*
D03*
Y19291D02*
D03*
D163*
X745079Y487795D02*
D03*
X756496D02*
D03*
X726378Y351181D02*
D03*
X714961D02*
D03*
X737992D02*
D03*
X749409D02*
D03*
D164*
X624803Y516339D02*
D03*
X622244Y523819D02*
D03*
X627362D02*
D03*
X753150Y523425D02*
D03*
X755709Y515945D02*
D03*
X750591D02*
D03*
X753150Y501575D02*
D03*
X750591Y509055D02*
D03*
X755709D02*
D03*
D165*
X665276Y462402D02*
D03*
X647323D02*
D03*
D166*
X656299Y421260D02*
D03*
D167*
X723228Y374016D02*
D03*
X703543D02*
D03*
X741339D02*
D03*
X761024D02*
D03*
D168*
X720079Y409449D02*
D03*
X690158D02*
D03*
X744488D02*
D03*
X774409D02*
D03*
X720079Y447638D02*
D03*
X690158D02*
D03*
X744488D02*
D03*
X774409Y447638D02*
D03*
D169*
X269685Y487795D02*
D03*
X205512Y489370D02*
D03*
Y507480D02*
D03*
Y498425D02*
D03*
X191339Y584646D02*
D03*
X202362Y555905D02*
D03*
X391732Y520472D02*
D03*
X393701Y531890D02*
D03*
X8268Y277953D02*
D03*
X118110Y118504D02*
D03*
X671260Y32283D02*
D03*
X300787Y169291D02*
D03*
X194095Y103150D02*
D03*
X292126Y161024D02*
D03*
X519291Y239370D02*
D03*
X518898Y90551D02*
D03*
X87795Y394094D02*
D03*
X53543Y494882D02*
D03*
X621654Y52756D02*
D03*
X306299Y86221D02*
D03*
D170*
X307087Y425197D02*
D03*
X399606D02*
D03*
X422835Y192323D02*
D03*
Y99803D02*
D03*
D171*
X656594Y243576D02*
D03*
X658821Y245803D02*
D03*
X661048Y248030D02*
D03*
X652418Y247752D02*
D03*
X650191Y249979D02*
D03*
X654645Y249979D02*
D03*
X652418Y252206D02*
D03*
X656872D02*
D03*
X654645Y254433D02*
D03*
X664291Y252387D02*
D03*
X662064Y254614D02*
D03*
X659837Y256841D02*
D03*
X657610Y259068D02*
D03*
X666518Y254614D02*
D03*
X664291Y256841D02*
D03*
X662064Y259068D02*
D03*
X659837Y261295D02*
D03*
D172*
X128425Y26772D02*
D03*
Y85827D02*
D03*
D173*
X68425Y26772D02*
D03*
Y85827D02*
D03*
D174*
X483880Y81853D02*
D03*
X519280D02*
D03*
Y52060D02*
D03*
X483880D02*
D03*
X433476Y34160D02*
D03*
X468876D02*
D03*
X98806Y345450D02*
D03*
X63406D02*
D03*
X172363Y4898D02*
D03*
X207763D02*
D03*
Y40804D02*
D03*
X172363D02*
D03*
X433476Y63954D02*
D03*
X468876D02*
D03*
Y4367D02*
D03*
X433476D02*
D03*
X653560Y127901D02*
D03*
X688960D02*
D03*
X653560Y162267D02*
D03*
X688960D02*
D03*
X653560Y93535D02*
D03*
X688960D02*
D03*
X63406Y308442D02*
D03*
X98806D02*
D03*
X519280Y22267D02*
D03*
X483880D02*
D03*
X172363Y111198D02*
D03*
X207763D02*
D03*
D175*
X495680Y74154D02*
D03*
Y44360D02*
D03*
X457076Y41860D02*
D03*
X87006Y353150D02*
D03*
X195963Y12598D02*
D03*
Y48504D02*
D03*
X457076Y71653D02*
D03*
X457076Y12067D02*
D03*
X665360Y120201D02*
D03*
Y154567D02*
D03*
Y85835D02*
D03*
X87006Y316142D02*
D03*
X495680Y14567D02*
D03*
X195963Y118898D02*
D03*
D176*
X507480Y74154D02*
D03*
Y44360D02*
D03*
X445276Y41860D02*
D03*
X75206Y353150D02*
D03*
X184163Y12598D02*
D03*
Y48504D02*
D03*
X445276Y71653D02*
D03*
X445276Y12067D02*
D03*
X677160Y120201D02*
D03*
Y154567D02*
D03*
Y85835D02*
D03*
X75206Y316142D02*
D03*
X507480Y14567D02*
D03*
X184163Y118898D02*
D03*
D177*
X605512Y422756D02*
D03*
D178*
Y482756D02*
D03*
D179*
X293233Y267717D02*
D03*
X260433D02*
D03*
X177633D02*
D03*
X210433D02*
D03*
Y313386D02*
D03*
X177633D02*
D03*
X260433D02*
D03*
X293233D02*
D03*
D180*
X269685Y139764D02*
D03*
Y13780D02*
D03*
X356299D02*
D03*
Y139764D02*
D03*
X409449Y576772D02*
D03*
X775591D02*
D03*
X15748D02*
D03*
Y383858D02*
D03*
Y13780D02*
D03*
X775591D02*
D03*
X409449D02*
D03*
X244094Y383858D02*
D03*
Y576772D02*
D03*
D181*
X242992Y213386D02*
D03*
Y185827D02*
D03*
D182*
X270866Y215748D02*
D03*
Y210827D02*
D03*
X276378Y215748D02*
D03*
Y210827D02*
D03*
Y188386D02*
D03*
Y183465D02*
D03*
X270866Y188386D02*
D03*
Y183465D02*
D03*
D183*
X276378Y206102D02*
D03*
Y201772D02*
D03*
Y197441D02*
D03*
X270866Y201772D02*
D03*
Y197441D02*
D03*
Y193110D02*
D03*
D184*
X242992Y203543D02*
D03*
X242992Y195669D02*
D03*
D185*
X256299Y224803D02*
D03*
Y174409D02*
D03*
D186*
X694882Y59842D02*
D03*
X647638D02*
D03*
X219685Y94095D02*
D03*
X172441D02*
D03*
D187*
X683071Y51968D02*
D03*
X671260D02*
D03*
X207874Y86221D02*
D03*
X196063D02*
D03*
D188*
X659449Y51968D02*
D03*
X184252Y86221D02*
D03*
D189*
X181496Y149213D02*
D03*
Y184646D02*
D03*
D190*
X190157Y165354D02*
D03*
Y200787D02*
D03*
D191*
Y155512D02*
D03*
Y190945D02*
D03*
D192*
X671260Y177402D02*
D03*
D193*
Y187402D02*
D03*
Y197402D02*
D03*
Y207402D02*
D03*
D194*
X453792Y420208D02*
D03*
X451009Y422992D02*
D03*
X456576Y417424D02*
D03*
X459360Y420208D02*
D03*
X462144Y422992D02*
D03*
X464928Y425775D02*
D03*
X459360Y431343D02*
D03*
X462144Y428559D02*
D03*
X456576Y428559D02*
D03*
X459360Y425775D02*
D03*
X453792D02*
D03*
X456576Y422992D02*
D03*
X455212Y224280D02*
D03*
X452428Y221496D02*
D03*
X457996Y227064D02*
D03*
X455212Y229848D02*
D03*
X452428Y232631D02*
D03*
X449644Y235415D02*
D03*
X444077Y229848D02*
D03*
X446861Y232631D02*
D03*
X446861Y227064D02*
D03*
X449645Y229848D02*
D03*
X449645Y224280D02*
D03*
X452428Y227064D02*
D03*
M02*
