G04*
G04 #@! TF.GenerationSoftware,Altium Limited,Altium Designer,22.4.2 (48)*
G04*
G04 Layer_Color=8388736*
%FSLAX25Y25*%
%MOIN*%
G70*
G04*
G04 #@! TF.SameCoordinates,43EAD1C5-17A3-47DC-85D2-FB09855483F6*
G04*
G04*
G04 #@! TF.FilePolarity,Positive*
G04*
G01*
G75*
%ADD13C,0.00787*%
D13*
X285020Y538091D02*
X295059D01*
Y528051D02*
Y538091D01*
X285020Y528051D02*
X295059D01*
X285020D02*
Y538091D01*
X480864Y199550D02*
X489494Y208180D01*
X484761Y212913D02*
X489494Y208180D01*
X476131Y204283D02*
X484761Y212913D01*
X476131Y204283D02*
X480864Y199550D01*
X619488Y264567D02*
Y276772D01*
Y264567D02*
X626181D01*
Y276772D01*
X619488D02*
X626181D01*
X477973Y439775D02*
X486603Y448405D01*
X481870Y453138D02*
X486603Y448405D01*
X473240Y444508D02*
X481870Y453138D01*
X473240Y444508D02*
X477973Y439775D01*
X94291Y488346D02*
Y589134D01*
Y488346D02*
X165551D01*
Y589134D01*
X94291D02*
X165551D01*
X176378Y145276D02*
X203937D01*
X203937Y175591D02*
X203937Y145276D01*
X176378Y175591D02*
X203937D01*
X176378Y145276D02*
X176378Y175591D01*
X176378Y180709D02*
X203937D01*
Y211024D01*
X176378Y211024D02*
X203937Y211024D01*
X176378Y180709D02*
Y211024D01*
M02*
