G04*
G04 #@! TF.GenerationSoftware,Altium Limited,Altium Designer,22.4.2 (48)*
G04*
G04 Layer_Color=16711935*
%FSLAX25Y25*%
%MOIN*%
G70*
G04*
G04 #@! TF.SameCoordinates,43EAD1C5-17A3-47DC-85D2-FB09855483F6*
G04*
G04*
G04 #@! TF.FilePolarity,Positive*
G04*
G01*
G75*
%ADD11C,0.01000*%
%ADD224C,0.00600*%
%ADD225C,0.00000*%
%ADD226C,0.00394*%
%ADD227C,0.00700*%
G36*
X759658Y197229D02*
X759159D01*
Y197312D01*
X758825D01*
Y197395D01*
X758575D01*
Y197478D01*
X758409D01*
Y197562D01*
X758325D01*
Y197645D01*
X758242D01*
Y197728D01*
X758159D01*
Y197812D01*
X758075D01*
Y197895D01*
X757992D01*
Y197978D01*
X757909D01*
Y198062D01*
X757826D01*
Y198228D01*
X757742D01*
Y198395D01*
X757659D01*
Y198645D01*
X757576D01*
Y199478D01*
X757659D01*
Y199728D01*
X757742D01*
Y199978D01*
X757826D01*
Y200061D01*
X757909D01*
Y200228D01*
X757992D01*
Y200311D01*
X758075D01*
Y200395D01*
X758159D01*
Y200478D01*
X758242D01*
Y200561D01*
X758409D01*
Y200645D01*
X758492D01*
Y200728D01*
X758659D01*
Y200811D01*
X758909D01*
Y200894D01*
X759908D01*
Y200811D01*
X760158D01*
Y200728D01*
X760325D01*
Y200645D01*
X760408D01*
Y200561D01*
X760575D01*
Y200478D01*
X760658D01*
Y200395D01*
X760742D01*
Y200311D01*
X760825D01*
Y200228D01*
X760908D01*
Y200061D01*
X760992D01*
Y199978D01*
X761075D01*
Y199728D01*
X761158D01*
Y199478D01*
X761241D01*
Y198645D01*
X761158D01*
Y198395D01*
X761075D01*
Y198228D01*
X760992D01*
Y198062D01*
X760908D01*
Y197978D01*
X760825D01*
Y197895D01*
X760742D01*
Y197812D01*
X760658D01*
Y197728D01*
X760575D01*
Y197645D01*
X760492D01*
Y197562D01*
X760408D01*
Y197478D01*
X760242D01*
Y197395D01*
X759992D01*
Y197312D01*
X759742D01*
Y197229D01*
X759658D01*
D02*
G37*
D11*
X481580Y84654D02*
X521580D01*
X481580Y61154D02*
X521580D01*
X481580D02*
Y84654D01*
X521580Y61154D02*
Y84654D01*
X521580Y31360D02*
Y54860D01*
X481580Y31360D02*
Y54860D01*
Y31360D02*
X521580D01*
X481580Y54860D02*
X521580D01*
X431176Y31360D02*
Y54860D01*
X471176Y31360D02*
Y54860D01*
X431176D02*
X471176D01*
X431176Y31360D02*
X471176Y31360D01*
X260685Y130764D02*
Y148764D01*
X278685Y130764D02*
Y148764D01*
X260685D02*
X278685D01*
X260685Y130764D02*
X278685D01*
X260685Y4780D02*
X278685D01*
X260685Y22780D02*
X278685D01*
Y4780D02*
Y22780D01*
X260685Y4780D02*
Y22780D01*
X347299Y4780D02*
X365299D01*
X347299Y22780D02*
X365299D01*
Y4780D02*
Y22780D01*
X347299Y4780D02*
Y22780D01*
Y130764D02*
X365299D01*
X347299Y148764D02*
X365299D01*
Y130764D02*
Y148764D01*
X347299Y130764D02*
Y148764D01*
X61106Y342650D02*
X101106D01*
X61106Y366150D02*
X101106D01*
Y342650D02*
Y366150D01*
X61106Y342650D02*
Y366150D01*
X170063Y2098D02*
Y25598D01*
X210063Y2098D02*
Y25598D01*
X170063D02*
X210063D01*
X170063Y2098D02*
X210063D01*
X170063Y38004D02*
X210063D01*
X170063Y61504D02*
X210063D01*
Y38004D02*
Y61504D01*
X170063Y38004D02*
Y61504D01*
X431176Y61154D02*
Y84654D01*
X471176Y61154D02*
Y84654D01*
X431176D02*
X471176D01*
X431176Y61154D02*
X471176D01*
X400449Y567772D02*
Y585772D01*
X418449Y567772D02*
Y585772D01*
X400449D02*
X418449D01*
X400449Y567772D02*
X418449D01*
X766590D02*
Y585772D01*
X784590Y567772D02*
Y585772D01*
X766590D02*
X784590D01*
X766590Y567772D02*
X784590D01*
X6748D02*
Y585772D01*
X24748Y567772D02*
Y585772D01*
X6748D02*
X24748D01*
X6748Y567772D02*
X24748D01*
X6748Y374858D02*
Y392858D01*
X24748Y374858D02*
Y392858D01*
X6748D02*
X24748D01*
X6748Y374858D02*
X24748D01*
X6748Y4780D02*
Y22780D01*
X24748Y4780D02*
Y22780D01*
X6748D02*
X24748D01*
X6748Y4780D02*
X24748D01*
X766590D02*
Y22780D01*
X784590Y4780D02*
Y22780D01*
X766590D02*
X784590D01*
X766590Y4780D02*
X784590D01*
X400449D02*
Y22780D01*
X418449Y4780D02*
Y22780D01*
X400449D02*
X418449D01*
X400449Y4780D02*
X418449D01*
X235094Y374858D02*
Y392858D01*
X253095Y374858D02*
Y392858D01*
X235094D02*
X253095D01*
X235094Y374858D02*
X253095D01*
X235094Y567772D02*
Y585772D01*
X253095Y567772D02*
Y585772D01*
X235094D02*
X253095D01*
X235094Y567772D02*
X253095D01*
X431176Y1567D02*
X471176Y1567D01*
X431176Y25067D02*
X471176Y25067D01*
X471176Y1567D02*
X471176Y25067D01*
X431176Y1567D02*
Y25067D01*
X651260Y130701D02*
X691260D01*
X651260Y107201D02*
X691260D01*
X651260D02*
Y130701D01*
X691260Y107201D02*
Y130701D01*
X651260Y165067D02*
X691260D01*
X651260Y141567D02*
X691260D01*
X651260D02*
Y165067D01*
X691260Y141567D02*
Y165067D01*
X651260Y96335D02*
X691260D01*
X651260Y72835D02*
X691260D01*
X651260D02*
Y96335D01*
X691260Y72835D02*
Y96335D01*
X61106Y305642D02*
Y329142D01*
X101106Y305642D02*
Y329142D01*
X61106D02*
X101106D01*
X61106Y305642D02*
X101106D01*
X521580Y1567D02*
Y25067D01*
X481580Y1567D02*
Y25067D01*
Y1567D02*
X521580D01*
X481580Y25067D02*
X521580D01*
X170063Y108398D02*
Y131898D01*
X210063Y108398D02*
Y131898D01*
X170063D02*
X210063D01*
X170063Y108398D02*
X210063D01*
X-47244Y139764D02*
X-45244Y133764D01*
X-49244D02*
X-47244Y139764D01*
X-49244Y19780D02*
X-47244Y13780D01*
X-45244Y19780D01*
X-47244Y90267D02*
Y139764D01*
Y13780D02*
Y60076D01*
X-48244Y139764D02*
X263469D01*
X-48244Y13780D02*
X263469D01*
X269685Y-76772D02*
X275685Y-74772D01*
X269685Y-76772D02*
X275685Y-78772D01*
X350299D02*
X356299Y-76772D01*
X350299Y-74772D02*
X356299Y-76772D01*
X269685D02*
X296297D01*
X326488D02*
X356299D01*
X269685Y-77772D02*
Y7563D01*
X356299Y-77772D02*
Y7563D01*
X-86252Y6000D02*
X-84252Y0D01*
X-82252Y6000D01*
X-84252Y590551D02*
X-82252Y584551D01*
X-86252D02*
X-84252Y590551D01*
Y0D02*
Y276081D01*
Y311270D02*
Y590551D01*
X-85252Y0D02*
X-1500D01*
X-85252Y590551D02*
X0D01*
Y761811D02*
X6000Y763811D01*
X0Y761811D02*
X6000Y759811D01*
X781402D02*
X787402Y761811D01*
X781402Y763811D02*
X787402Y761811D01*
X0D02*
X374006D01*
X410195D02*
X787402D01*
X0Y590551D02*
Y762811D01*
X787402Y592051D02*
Y762811D01*
X830709Y576772D02*
X832709Y570772D01*
X828709D02*
X830709Y576772D01*
X828709Y19780D02*
X830709Y13780D01*
X832709Y19780D01*
X830709Y311270D02*
Y576772D01*
Y13780D02*
Y276081D01*
X781807Y576772D02*
X831709D01*
X781807Y13780D02*
X831709D01*
X409449Y675591D02*
X415449Y677591D01*
X409449Y675591D02*
X415449Y673591D01*
X769591D02*
X775591Y675591D01*
X769591Y677591D02*
X775591Y675591D01*
X409449D02*
X575824D01*
X606015D02*
X775591D01*
X409449Y582988D02*
Y676590D01*
X775591Y582988D02*
Y676590D01*
X15748Y717323D02*
X21748Y719323D01*
X15748Y717323D02*
X21748Y715323D01*
X238094D02*
X244094Y717323D01*
X238094Y719323D02*
X244094Y717323D01*
X15748D02*
X113226D01*
X143417D02*
X244094D01*
X15748Y582988D02*
Y718323D01*
X244094Y582988D02*
Y718323D01*
X-96063Y576772D02*
X-94063Y570772D01*
X-98063D02*
X-96063Y576772D01*
X-98063Y389858D02*
X-96063Y383858D01*
X-94063Y389858D01*
X-96063Y493811D02*
Y576772D01*
Y383858D02*
Y463619D01*
X-97063Y576772D02*
X9532D01*
X-97063Y383858D02*
X9532D01*
D224*
X780555Y276350D02*
X780555Y335405D01*
X723468Y276350D02*
Y335405D01*
Y276350D02*
X780555Y276350D01*
X723468Y335405D02*
X780555D01*
X756146Y527138D02*
X756146Y586193D01*
X699059Y527138D02*
Y586193D01*
Y527138D02*
X756146Y527138D01*
X699059Y586193D02*
X756146D01*
X41630Y461781D02*
Y465113D01*
X40964Y465779D01*
X39631D01*
X38964Y465113D01*
Y461781D01*
X37631Y465779D02*
X36298D01*
X36965D01*
Y461781D01*
X37631Y462447D01*
X34299D02*
X33632Y461781D01*
X32300D01*
X31633Y462447D01*
Y465113D01*
X32300Y465779D01*
X33632D01*
X34299Y465113D01*
Y462447D01*
X-48643Y61676D02*
X-49643Y62676D01*
Y64675D01*
X-48643Y65675D01*
X-47644D01*
X-46644Y64675D01*
Y63675D01*
Y64675D01*
X-45644Y65675D01*
X-44645D01*
X-43645Y64675D01*
Y62676D01*
X-44645Y61676D01*
X-43645Y71673D02*
Y67674D01*
X-47644Y71673D01*
X-48643D01*
X-49643Y70673D01*
Y68674D01*
X-48643Y67674D01*
X-43645Y73672D02*
X-44645D01*
Y74672D01*
X-43645D01*
Y73672D01*
X-48643Y78671D02*
X-49643Y79670D01*
Y81670D01*
X-48643Y82669D01*
X-44645D01*
X-43645Y81670D01*
Y79670D01*
X-44645Y78671D01*
X-48643D01*
Y84669D02*
X-49643Y85668D01*
Y87668D01*
X-48643Y88667D01*
X-44645D01*
X-43645Y87668D01*
Y85668D01*
X-44645Y84669D01*
X-48643D01*
X301895Y-80371D02*
X297897D01*
X301895Y-76372D01*
Y-75372D01*
X300896Y-74373D01*
X298896D01*
X297897Y-75372D01*
X307893Y-80371D02*
X303894D01*
X307893Y-76372D01*
Y-75372D01*
X306894Y-74373D01*
X304894D01*
X303894Y-75372D01*
X309893Y-80371D02*
Y-79371D01*
X310892D01*
Y-80371D01*
X309893D01*
X314891Y-75372D02*
X315891Y-74373D01*
X317890D01*
X318890Y-75372D01*
Y-79371D01*
X317890Y-80371D01*
X315891D01*
X314891Y-79371D01*
Y-75372D01*
X320889D02*
X321889Y-74373D01*
X323888D01*
X324888Y-75372D01*
Y-79371D01*
X323888Y-80371D01*
X321889D01*
X320889Y-79371D01*
Y-75372D01*
X-80653Y277681D02*
Y279680D01*
Y278680D01*
X-86651D01*
X-85651Y277681D01*
X-86651Y286678D02*
Y282679D01*
X-83652D01*
X-84652Y284679D01*
Y285678D01*
X-83652Y286678D01*
X-81653D01*
X-80653Y285678D01*
Y283679D01*
X-81653Y282679D01*
X-85651Y288677D02*
X-86651Y289677D01*
Y291676D01*
X-85651Y292676D01*
X-81653D01*
X-80653Y291676D01*
Y289677D01*
X-81653Y288677D01*
X-85651D01*
X-80653Y294675D02*
X-81653D01*
Y295675D01*
X-80653D01*
Y294675D01*
X-85651Y299674D02*
X-86651Y300673D01*
Y302673D01*
X-85651Y303672D01*
X-81653D01*
X-80653Y302673D01*
Y300673D01*
X-81653Y299674D01*
X-85651D01*
Y305672D02*
X-86651Y306671D01*
Y308671D01*
X-85651Y309670D01*
X-81653D01*
X-80653Y308671D01*
Y306671D01*
X-81653Y305672D01*
X-85651D01*
X379605Y758212D02*
X375606D01*
X379605Y762211D01*
Y763210D01*
X378605Y764210D01*
X376606D01*
X375606Y763210D01*
X381604D02*
X382604Y764210D01*
X384603D01*
X385603Y763210D01*
Y759212D01*
X384603Y758212D01*
X382604D01*
X381604Y759212D01*
Y763210D01*
X387602D02*
X388602Y764210D01*
X390601D01*
X391601Y763210D01*
Y759212D01*
X390601Y758212D01*
X388602D01*
X387602Y759212D01*
Y763210D01*
X393600Y758212D02*
Y759212D01*
X394600D01*
Y758212D01*
X393600D01*
X398599Y763210D02*
X399598Y764210D01*
X401598D01*
X402597Y763210D01*
Y759212D01*
X401598Y758212D01*
X399598D01*
X398599Y759212D01*
Y763210D01*
X404597D02*
X405596Y764210D01*
X407596D01*
X408595Y763210D01*
Y759212D01*
X407596Y758212D01*
X405596D01*
X404597Y759212D01*
Y763210D01*
X834308Y277681D02*
Y279680D01*
Y278680D01*
X828310D01*
X829309Y277681D01*
X834308Y285678D02*
X828310D01*
X831309Y282679D01*
Y286678D01*
X829309Y288677D02*
X828310Y289677D01*
Y291676D01*
X829309Y292676D01*
X830309D01*
X831309Y291676D01*
Y290676D01*
Y291676D01*
X832308Y292676D01*
X833308D01*
X834308Y291676D01*
Y289677D01*
X833308Y288677D01*
X834308Y294675D02*
X833308D01*
Y295675D01*
X834308D01*
Y294675D01*
X829309Y299674D02*
X828310Y300673D01*
Y302673D01*
X829309Y303672D01*
X833308D01*
X834308Y302673D01*
Y300673D01*
X833308Y299674D01*
X829309D01*
Y305672D02*
X828310Y306671D01*
Y308671D01*
X829309Y309670D01*
X833308D01*
X834308Y308671D01*
Y306671D01*
X833308Y305672D01*
X829309D01*
X577424Y672991D02*
X578424Y671991D01*
X580423D01*
X581423Y672991D01*
Y676990D01*
X580423Y677990D01*
X578424D01*
X577424Y676990D01*
Y675990D01*
X578424Y674991D01*
X581423D01*
X583422Y676990D02*
X584422Y677990D01*
X586421D01*
X587421Y676990D01*
Y675990D01*
X586421Y674991D01*
X585422D01*
X586421D01*
X587421Y673991D01*
Y672991D01*
X586421Y671991D01*
X584422D01*
X583422Y672991D01*
X589420Y671991D02*
Y672991D01*
X590420D01*
Y671991D01*
X589420D01*
X594418Y676990D02*
X595418Y677990D01*
X597418D01*
X598417Y676990D01*
Y672991D01*
X597418Y671991D01*
X595418D01*
X594418Y672991D01*
Y676990D01*
X600417D02*
X601416Y677990D01*
X603416D01*
X604415Y676990D01*
Y672991D01*
X603416Y671991D01*
X601416D01*
X600417Y672991D01*
Y676990D01*
X118824Y719722D02*
X114826D01*
Y716723D01*
X116825Y717723D01*
X117825D01*
X118824Y716723D01*
Y714723D01*
X117825Y713724D01*
X115825D01*
X114826Y714723D01*
X120824Y718722D02*
X121823Y719722D01*
X123823D01*
X124822Y718722D01*
Y717723D01*
X123823Y716723D01*
X124822Y715723D01*
Y714723D01*
X123823Y713724D01*
X121823D01*
X120824Y714723D01*
Y715723D01*
X121823Y716723D01*
X120824Y717723D01*
Y718722D01*
X121823Y716723D02*
X123823D01*
X126822Y713724D02*
Y714723D01*
X127821D01*
Y713724D01*
X126822D01*
X131820Y718722D02*
X132820Y719722D01*
X134819D01*
X135819Y718722D01*
Y714723D01*
X134819Y713724D01*
X132820D01*
X131820Y714723D01*
Y718722D01*
X137818D02*
X138818Y719722D01*
X140817D01*
X141817Y718722D01*
Y714723D01*
X140817Y713724D01*
X138818D01*
X137818Y714723D01*
Y718722D01*
X-92464Y468218D02*
X-98462D01*
X-95463Y465219D01*
Y469218D01*
X-93464Y471217D02*
X-92464Y472217D01*
Y474216D01*
X-93464Y475216D01*
X-97462D01*
X-98462Y474216D01*
Y472217D01*
X-97462Y471217D01*
X-96463D01*
X-95463Y472217D01*
Y475216D01*
X-92464Y477215D02*
X-93464D01*
Y478215D01*
X-92464D01*
Y477215D01*
X-97462Y482214D02*
X-98462Y483214D01*
Y485213D01*
X-97462Y486212D01*
X-93464D01*
X-92464Y485213D01*
Y483214D01*
X-93464Y482214D01*
X-97462D01*
Y488212D02*
X-98462Y489212D01*
Y491211D01*
X-97462Y492211D01*
X-93464D01*
X-92464Y491211D01*
Y489212D01*
X-93464Y488212D01*
X-97462D01*
D225*
X269980Y182283D02*
X271752D01*
X269980Y184646D02*
X271752D01*
X271752Y182283D01*
X269980D02*
X269980Y184646D01*
Y214567D02*
X271752D01*
X269980Y216929D02*
X271752D01*
Y214567D02*
Y216929D01*
X269980Y214567D02*
Y216929D01*
Y209646D02*
X271752D01*
X269980Y212008D02*
X271752D01*
Y209646D02*
Y212008D01*
X269980Y209646D02*
Y212008D01*
Y187205D02*
X271752D01*
X269980Y189567D02*
X271752D01*
Y187205D02*
Y189567D01*
X269980Y187205D02*
Y189567D01*
Y196555D02*
X271752D01*
X269980Y198327D02*
X271752D01*
Y196555D02*
Y198327D01*
X269980Y196555D02*
Y198327D01*
Y200886D02*
X271752D01*
X269980Y202658D02*
X271752D01*
Y200886D02*
Y202658D01*
X269980Y200886D02*
Y202658D01*
Y192224D02*
X271752D01*
X269980Y193996D02*
X271752D01*
Y192224D02*
Y193996D01*
X269980Y192224D02*
Y193996D01*
X275492Y182283D02*
X277264Y182283D01*
X275492Y184646D02*
X277264Y184646D01*
Y182283D02*
Y184646D01*
X275492Y182283D02*
Y184646D01*
Y214567D02*
X277264Y214567D01*
X275492Y216929D02*
X277264D01*
Y214567D02*
Y216929D01*
X275492Y214567D02*
Y216929D01*
Y209646D02*
X277264D01*
X275492Y212008D02*
X277264Y212008D01*
Y209646D02*
Y212008D01*
X275492Y209646D02*
Y212008D01*
Y187205D02*
X277264D01*
X275492Y189567D02*
X277264Y189567D01*
Y187205D02*
Y189567D01*
X275492Y187205D02*
Y189567D01*
Y196555D02*
X277264Y196555D01*
X275492Y198327D02*
X277264D01*
Y196555D02*
Y198327D01*
X275492Y196555D02*
Y198327D01*
Y200886D02*
X277264Y200886D01*
X275492Y202658D02*
X277264D01*
Y200886D02*
Y202658D01*
X275492Y200886D02*
Y202658D01*
Y205217D02*
X277264D01*
X275492Y206988D02*
X277264Y206988D01*
X277264Y205217D02*
X277264Y206988D01*
X275492Y205217D02*
Y206988D01*
D226*
X345543Y525664D02*
Y522384D01*
X346199Y521728D01*
X347511D01*
X348167Y522384D01*
Y525664D01*
X349479Y521728D02*
X350791D01*
X350135D01*
Y525664D01*
X349479Y525008D01*
X354727Y521728D02*
Y525664D01*
X352759Y523696D01*
X355383D01*
D227*
X460798Y418728D02*
X463154Y421084D01*
Y422026D01*
X462211Y422969D01*
X461269D01*
X458913Y420613D01*
X460798Y424383D02*
X459855Y425325D01*
X460326Y424854D01*
X457499Y422026D01*
X458441D01*
Y426739D02*
X457499Y427681D01*
X457970Y427210D01*
X455142Y424383D01*
X456085D01*
X456692Y231285D02*
X454336Y233641D01*
X453394D01*
X452451Y232699D01*
Y231756D01*
X454807Y229400D01*
X453394Y228929D02*
Y227986D01*
X452451Y227044D01*
X451509D01*
X451037Y227515D01*
Y228457D01*
X450095D01*
X449624Y228929D01*
Y229871D01*
X450566Y230814D01*
X451509D01*
X451980Y230342D01*
Y229400D01*
X452922D01*
X453394Y228929D01*
X451980Y229400D02*
X451037Y228457D01*
M02*
