G04*
G04 #@! TF.GenerationSoftware,Altium Limited,Altium Designer,22.11.1 (43)*
G04*
G04 Layer_Color=8388736*
%FSLAX25Y25*%
%MOIN*%
G70*
G04*
G04 #@! TF.SameCoordinates,E00A9952-D2AD-4094-941F-04495088175D*
G04*
G04*
G04 #@! TF.FilePolarity,Positive*
G04*
G01*
G75*
%ADD14C,0.00787*%
D14*
X47835Y369094D02*
X52953D01*
X47835Y360827D02*
Y369094D01*
Y360827D02*
X52953D01*
Y369094D01*
X73425Y295079D02*
Y303346D01*
X78543D01*
Y295079D02*
Y303346D01*
X73425Y295079D02*
X78543D01*
X84055D02*
Y303346D01*
X89173D01*
Y295079D02*
Y303346D01*
X84055Y295079D02*
X89173D01*
X21457Y437992D02*
X26575D01*
Y426575D02*
Y437992D01*
X21457Y426575D02*
X26575D01*
X21457D02*
Y437992D01*
X10039Y419095D02*
X15157D01*
Y407677D02*
Y419095D01*
X10039Y407677D02*
X15157D01*
X10039D02*
Y419095D01*
X41929Y360827D02*
Y369094D01*
X36811Y360827D02*
X41929D01*
X36811D02*
Y369094D01*
X41929D01*
X139173Y467913D02*
Y473032D01*
X130905D02*
X139173D01*
X130905Y467913D02*
Y473032D01*
Y467913D02*
X139173D01*
X115551Y466732D02*
Y471850D01*
X107283D02*
X115551D01*
X107283Y466732D02*
Y471850D01*
Y466732D02*
X115551D01*
X398622Y529724D02*
Y534842D01*
X390354D02*
X398622D01*
X390354Y529724D02*
Y534842D01*
Y529724D02*
X398622D01*
X194291Y582087D02*
Y587205D01*
X186024D02*
X194291D01*
X186024Y582087D02*
Y587205D01*
Y582087D02*
X194291D01*
X397441Y519095D02*
Y524213D01*
X389173D02*
X397441D01*
X389173Y519095D02*
Y524213D01*
Y519095D02*
X397441D01*
X197835Y553346D02*
Y558465D01*
X189567D02*
X197835D01*
X189567Y553346D02*
Y558465D01*
Y553346D02*
X197835D01*
X285020Y538091D02*
X295059D01*
Y528051D02*
Y538091D01*
X285020Y528051D02*
X295059D01*
X285020D02*
Y538091D01*
X480864Y199550D02*
X489494Y208180D01*
X484761Y212913D02*
X489494Y208180D01*
X476131Y204283D02*
X484761Y212913D01*
X476131Y204283D02*
X480864Y199550D01*
X619488Y264567D02*
Y276772D01*
Y264567D02*
X626181D01*
Y276772D01*
X619488D02*
X626181D01*
X477973Y439775D02*
X486603Y448405D01*
X481870Y453138D02*
X486603Y448405D01*
X473240Y444508D02*
X481870Y453138D01*
X473240Y444508D02*
X477973Y439775D01*
X94291Y488346D02*
Y589134D01*
Y488346D02*
X165551D01*
Y589134D01*
X94291D02*
X165551D01*
X176378Y145276D02*
X203937D01*
X203937Y175591D02*
X203937Y145276D01*
X176378Y175591D02*
X203937D01*
X176378Y145276D02*
X176378Y175591D01*
X176378Y181102D02*
X203937D01*
Y211417D01*
X176378Y211417D02*
X203937Y211417D01*
X176378Y181102D02*
Y211417D01*
M02*
